<?xml version="1.0" encoding="UTF-8"?>
<svg version="1.1" xmlns="http://www.w3.org/2000/svg" width="512" height="512">
<path d="M0 0 C0.96988861 0.00182281 1.93977722 0.00364563 2.9390564 0.00552368 C17.29291937 0.05092437 31.25104611 0.56586984 45.375 3.3125 C46.25607422 3.4681543 47.13714844 3.62380859 48.04492188 3.78417969 C89.55325852 11.16376686 127.40796268 29.2522416 160.375 55.3125 C161.41269531 56.12460937 162.45039063 56.93671875 163.51953125 57.7734375 C179.09322821 70.44830769 193.62751289 85.01187611 205.375 101.3125 C206.19119833 102.40087361 207.0089266 103.48810144 207.828125 104.57421875 C231.07824208 135.78169298 246.34274075 172.10097951 253.375 210.3125 C253.53581055 211.11316895 253.69662109 211.91383789 253.86230469 212.73876953 C259.73561688 242.76532126 258.6851142 277.46465824 252.375 307.3125 C252.15537598 308.35438477 251.93575195 309.39626953 251.70947266 310.46972656 C241.61185215 356.76299311 219.25271242 399.17663721 186.375 433.3125 C185.74287598 433.97185547 185.11075195 434.63121094 184.45947266 435.31054688 C175.30932742 444.80471507 165.99528579 453.49732655 155.375 461.3125 C154.49070312 461.99183594 153.60640625 462.67117188 152.6953125 463.37109375 C122.9214776 485.85984138 87.94910446 500.73029763 51.5 508.125 C50.05911011 508.41733521 50.05911011 508.41733521 48.58911133 508.71557617 C32.64004505 511.7686793 17.01971158 512.68997269 0.8125 512.625 C-0.15644196 512.62284485 -1.12538391 512.6206897 -2.12368774 512.61846924 C-67.28184465 512.38615241 -129.59911761 487.60514272 -176.625 442.3125 C-177.28435547 441.68037598 -177.94371094 441.04825195 -178.62304688 440.39697266 C-188.11130305 431.25252521 -196.8512044 421.95515991 -204.625 411.3125 C-205.48306152 410.16144983 -206.34113451 409.01040823 -207.19921875 407.859375 C-213.23677396 399.66974019 -218.61957302 391.16711724 -223.625 382.3125 C-224.0271875 381.60528809 -224.429375 380.89807617 -224.84375 380.16943359 C-237.8691741 357.03404164 -246.61801461 331.86287591 -251.9375 305.875 C-252.08485596 305.15610596 -252.23221191 304.43721191 -252.3840332 303.6965332 C-255.35789088 288.05024391 -255.99800362 272.57681954 -255.9375 256.6875 C-255.93534485 255.66959381 -255.9331897 254.65168762 -255.93096924 253.60293579 C-255.88129052 238.99150709 -255.62202593 224.66510516 -252.625 210.3125 C-252.43164062 209.35359863 -252.23828125 208.39469727 -252.0390625 207.40673828 C-244.99413712 173.3508297 -232.49926766 140.97100852 -212.625 112.3125 C-212.07730957 111.51908203 -211.52961914 110.72566406 -210.96533203 109.90820312 C-203.54311718 99.26087181 -195.5753594 89.43535271 -186.46972656 80.18798828 C-184.52498022 78.21081235 -182.60253414 76.21330796 -180.6796875 74.21484375 C-172.50588162 65.79816358 -164.05729772 58.28071022 -154.625 51.3125 C-153.73941406 50.631875 -152.85382813 49.95125 -151.94140625 49.25 C-122.21640234 26.80920557 -87.30633185 11.98516075 -50.9375 4.5625 C-49.47884521 4.26424316 -49.47884521 4.26424316 -47.99072266 3.95996094 C-31.96758876 0.85699231 -16.28798799 -0.06361746 0 0 Z " fill="#FED563" transform="translate(255.625,-0.3125)"/>
<path d="M0 0 C0.96988861 0.00182281 1.93977722 0.00364563 2.9390564 0.00552368 C17.29291937 0.05092437 31.25104611 0.56586984 45.375 3.3125 C46.25607422 3.4681543 47.13714844 3.62380859 48.04492188 3.78417969 C89.55325852 11.16376686 127.40796268 29.2522416 160.375 55.3125 C161.41269531 56.12460937 162.45039063 56.93671875 163.51953125 57.7734375 C179.09322821 70.44830769 193.62751289 85.01187611 205.375 101.3125 C206.19119833 102.40087361 207.0089266 103.48810144 207.828125 104.57421875 C231.07824208 135.78169298 246.34274075 172.10097951 253.375 210.3125 C253.53581055 211.11316895 253.69662109 211.91383789 253.86230469 212.73876953 C259.73561688 242.76532126 258.6851142 277.46465824 252.375 307.3125 C252.15537598 308.35438477 251.93575195 309.39626953 251.70947266 310.46972656 C241.61185215 356.76299311 219.25271242 399.17663721 186.375 433.3125 C185.74287598 433.97185547 185.11075195 434.63121094 184.45947266 435.31054688 C175.30932742 444.80471507 165.99528579 453.49732655 155.375 461.3125 C154.49070312 461.99183594 153.60640625 462.67117188 152.6953125 463.37109375 C122.9214776 485.85984138 87.94910446 500.73029763 51.5 508.125 C50.05911011 508.41733521 50.05911011 508.41733521 48.58911133 508.71557617 C32.64004505 511.7686793 17.01971158 512.68997269 0.8125 512.625 C-0.15644196 512.62284485 -1.12538391 512.6206897 -2.12368774 512.61846924 C-67.28184465 512.38615241 -129.59911761 487.60514272 -176.625 442.3125 C-177.28435547 441.68037598 -177.94371094 441.04825195 -178.62304688 440.39697266 C-188.11130305 431.25252521 -196.8512044 421.95515991 -204.625 411.3125 C-205.48306152 410.16144983 -206.34113451 409.01040823 -207.19921875 407.859375 C-213.23677396 399.66974019 -218.61957302 391.16711724 -223.625 382.3125 C-224.0271875 381.60528809 -224.429375 380.89807617 -224.84375 380.16943359 C-237.8691741 357.03404164 -246.61801461 331.86287591 -251.9375 305.875 C-252.08485596 305.15610596 -252.23221191 304.43721191 -252.3840332 303.6965332 C-255.35789088 288.05024391 -255.99800362 272.57681954 -255.9375 256.6875 C-255.93534485 255.66959381 -255.9331897 254.65168762 -255.93096924 253.60293579 C-255.88129052 238.99150709 -255.62202593 224.66510516 -252.625 210.3125 C-252.43164062 209.35359863 -252.23828125 208.39469727 -252.0390625 207.40673828 C-244.99413712 173.3508297 -232.49926766 140.97100852 -212.625 112.3125 C-212.07730957 111.51908203 -211.52961914 110.72566406 -210.96533203 109.90820312 C-203.54311718 99.26087181 -195.5753594 89.43535271 -186.46972656 80.18798828 C-184.52498022 78.21081235 -182.60253414 76.21330796 -180.6796875 74.21484375 C-172.50588162 65.79816358 -164.05729772 58.28071022 -154.625 51.3125 C-153.73941406 50.631875 -152.85382813 49.95125 -151.94140625 49.25 C-122.21640234 26.80920557 -87.30633185 11.98516075 -50.9375 4.5625 C-49.47884521 4.26424316 -49.47884521 4.26424316 -47.99072266 3.95996094 C-31.96758876 0.85699231 -16.28798799 -0.06361746 0 0 Z M-138.25 132.125 C-165.26347626 161.88378795 -184.62875819 203.5223496 -184.828125 244.0859375 C-184.83382507 245.00855377 -184.83952515 245.93117004 -184.84539795 246.88174438 C-184.85480142 248.82984286 -184.8613633 250.7779569 -184.86523438 252.72607422 C-184.87485822 255.6445049 -184.90589248 258.56220527 -184.9375 261.48046875 C-185.03256453 278.39064511 -182.97266567 294.19598226 -177.625 310.3125 C-177.3662207 311.1060791 -177.10744141 311.8996582 -176.84082031 312.71728516 C-161.18129402 360.09398757 -128.5616495 399.16238932 -84.06835938 422.09228516 C-41.04405208 443.57864485 9.4555296 449.35518561 55.57910156 434.26416016 C91.88020355 421.61832844 123.74403161 400.99627885 147.375 370.3125 C147.77187012 369.7973584 148.16874023 369.2822168 148.57763672 368.75146484 C162.59598667 350.36245918 172.26186895 329.80558348 179.1875 307.8125 C179.46553467 306.94858643 179.74356934 306.08467285 180.0300293 305.19458008 C184.52493296 290.26766866 185.86464691 275.13264239 185.71118164 259.61328125 C185.68737617 257.04916234 185.69068449 254.48607843 185.69726562 251.921875 C185.61534405 201.66841019 163.81032359 157.7854836 129.4375 122.0625 C94.23548761 87.76892664 46.03413874 69.83621572 -2.72851562 70.07788086 C-54.89881226 70.88107703 -102.8876539 94.22141988 -138.25 132.125 Z " fill="#FDAE02" transform="translate(255.625,-0.3125)"/>
<path d="M0 0 C0 23.1 0 46.2 0 70 C-9.9 70.99 -19.8 71.98 -30 73 C-36.15571208 74.12653554 -42.02624033 75.27300156 -48 77 C-48.80630859 77.23170898 -49.61261719 77.46341797 -50.44335938 77.70214844 C-98.64835503 91.92207312 -138.60862307 123.81286258 -162.84765625 167.86035156 C-175.34153795 191.05873699 -184.0727587 217.24883889 -184.203125 243.7734375 C-184.20882507 244.69605377 -184.21452515 245.61867004 -184.22039795 246.56924438 C-184.22980142 248.51734286 -184.2363633 250.4654569 -184.24023438 252.41357422 C-184.24985822 255.3320049 -184.28089248 258.24970527 -184.3125 261.16796875 C-184.40756453 278.07814511 -182.34766567 293.88348226 -177 310 C-176.7412207 310.7935791 -176.48244141 311.5871582 -176.21582031 312.40478516 C-160.66820619 359.44290586 -128.6185236 398.0138375 -84.44335938 420.77978516 C-56.93536097 434.51729275 -31.00004729 438.89999527 0 442 C0 465.1 0 488.2 0 512 C-25.73480409 512 -25.73480409 512 -33.8125 510.875 C-34.79347656 510.74375732 -35.77445313 510.61251465 -36.78515625 510.47729492 C-89.47751182 502.9086198 -138.70751488 478.88113352 -177 442 C-177.65935547 441.36787598 -178.31871094 440.73575195 -178.99804688 440.08447266 C-188.48630305 430.94002521 -197.2262044 421.64265991 -205 411 C-205.85806152 409.84894983 -206.71613451 408.69790823 -207.57421875 407.546875 C-213.61177396 399.35724019 -218.99457302 390.85461724 -224 382 C-224.4021875 381.29278809 -224.804375 380.58557617 -225.21875 379.85693359 C-238.2441741 356.72154164 -246.99301461 331.55037591 -252.3125 305.5625 C-252.45985596 304.84360596 -252.60721191 304.12471191 -252.7590332 303.3840332 C-255.73289088 287.73774391 -256.37300362 272.26431954 -256.3125 256.375 C-256.31034485 255.35709381 -256.3081897 254.33918762 -256.30596924 253.29043579 C-256.25629052 238.67900709 -255.99702593 224.35260516 -253 210 C-252.80664062 209.04109863 -252.61328125 208.08219727 -252.4140625 207.09423828 C-245.36913712 173.0383297 -232.87426766 140.65850852 -213 112 C-212.45230957 111.20658203 -211.90461914 110.41316406 -211.34033203 109.59570312 C-203.91811718 98.94837181 -195.9503594 89.12285271 -186.84472656 79.87548828 C-184.89998022 77.89831235 -182.97753414 75.90080796 -181.0546875 73.90234375 C-172.88088162 65.48566358 -164.43229772 57.96821022 -155 51 C-154.11441406 50.319375 -153.22882813 49.63875 -152.31640625 48.9375 C-108.14814771 15.59281775 -54.8661103 0 0 0 Z " fill="#FDCB02" transform="translate(256,0)"/>
<path d="M0 0 C0 25.41 0 50.82 0 77 C-4.95 77 -9.9 77 -15 77 C-15 87.23 -15 97.46 -15 108 C-17.97 108.99 -20.94 109.98 -24 111 C-36.14457564 116.33649795 -44.47057011 124.18154345 -51.11328125 135.59375 C-53 138 -53 138 -55.35546875 138.90625 C-58.37922518 139.01344373 -61.02862266 138.55878507 -64 138 C-79.45784515 136.96815411 -92.86490503 141.1665803 -104.90234375 150.99609375 C-113.15941576 158.88413461 -119.87035578 170.88370016 -120.2734375 182.45703125 C-120.31325237 184.2420645 -120.34688573 186.02724413 -120.375 187.8125 C-120.43107422 189.09930664 -120.43107422 189.09930664 -120.48828125 190.41210938 C-120.68120398 205.0635189 -113.31287867 217.99222414 -106.67318726 230.60275269 C-104.80585827 234.14991135 -102.96333693 237.70976624 -101.11903381 241.26893616 C-100.16852857 243.10268137 -99.2168137 244.93580009 -98.26390076 246.76829529 C-93.72921932 255.4935011 -89.28378322 264.2622048 -84.88143921 273.05484009 C-83.70303077 275.40650635 -82.51919066 277.755386 -81.33520508 280.10424805 C-80.62281574 281.5263327 -79.91079833 282.94860374 -79.19921875 284.37109375 C-78.87214935 285.01806213 -78.54507996 285.66503052 -78.20809937 286.331604 C-76 290.77084562 -76 290.77084562 -76 293 C-50.92 293 -25.84 293 0 293 C0 318.41 0 343.82 0 370 C-52.26862345 370 -96.53102587 350.62062195 -133.875 314.375 C-151.8706175 295.84119581 -164.78037508 273.91552698 -174.20849609 249.99902344 C-174.85404191 248.36863197 -175.52665586 246.74897928 -176.20703125 245.1328125 C-182.20325156 230.1780957 -185.12420293 213.28421102 -185.203125 197.2265625 C-185.20882507 196.30394623 -185.21452515 195.38132996 -185.22039795 194.43075562 C-185.22980142 192.48265714 -185.2363633 190.5345431 -185.24023438 188.58642578 C-185.24985822 185.6679951 -185.28089248 182.75029473 -185.3125 179.83203125 C-185.40132642 164.27154247 -183.75088796 149.53410318 -179.3125 134.5625 C-178.93121948 133.25974121 -178.93121948 133.25974121 -178.54223633 131.93066406 C-167.32620699 94.90870312 -144.67319953 61.62282077 -114 38 C-113.4848584 37.60312988 -112.9697168 37.20625977 -112.43896484 36.79736328 C-79.2614421 11.50539629 -41.4632072 0 0 0 Z " fill="#FEDE8D" transform="translate(256,71)"/>
<path d="M0 0 C9.9 0 19.8 0 30 0 C30 9.9 30 19.8 30 30 C32.31 30.33 34.62 30.66 37 31 C50.50073454 36.49097039 61.37641573 45.97889236 68 59 C68 59.66 68 60.32 68 61 C69.15371094 60.67902344 70.30742187 60.35804688 71.49609375 60.02734375 C85.00989259 56.67487641 98.99623214 58.71338401 110.98046875 65.75 C113.40666748 67.41285998 115.70765319 69.15897293 118 71 C118.886875 71.598125 119.77375 72.19625 120.6875 72.8125 C129.03789065 80.71151819 135.86766061 92.80631587 136.2734375 104.45703125 C136.31325237 106.2420645 136.34688573 108.02724413 136.375 109.8125 C136.41238281 110.67037109 136.44976562 111.52824219 136.48828125 112.41210938 C136.68831316 127.60342188 128.76638733 141.01795364 121.875 154.0625 C120.09033474 157.48062235 118.31318782 160.90264214 116.53515625 164.32421875 C116.08164291 165.19427551 115.62812958 166.06433228 115.16087341 166.96075439 C109.65491773 177.5419767 104.35538599 188.22597518 99.05438232 198.91091919 C98.25720638 200.51740729 97.45933509 202.1235506 96.66065979 203.72929382 C95.93837911 205.18159068 95.21785666 206.63476373 94.49937439 208.08894348 C92.11248958 212.88751042 92.11248958 212.88751042 91 214 C89.03838396 214.09666937 87.07323355 214.12187097 85.10923767 214.12025452 C83.18874855 214.12231651 83.18874855 214.12231651 81.22946167 214.12442017 C79.79742409 214.12088055 78.36538674 214.11724573 76.93334961 214.11352539 C75.43568422 214.11324353 73.9380187 214.11340124 72.44035339 214.1139679 C68.36201828 214.11425591 64.28371233 214.10835864 60.20538402 214.10139394 C55.94792372 214.09516095 51.69046282 214.09455665 47.43299866 214.09336853 C39.36526813 214.09025505 31.29755109 214.08204144 23.22982651 214.07201904 C14.04739221 214.06085842 4.86495728 214.05534758 -4.31748211 214.05032361 C-23.2116624 214.03985884 -42.10583012 214.02225907 -61 214 C-71.63303804 193.89642676 -71.63303804 193.89642676 -76.5078125 184.046875 C-76.96300262 183.13270813 -77.41819275 182.21854126 -77.88717651 181.27667236 C-79.30182983 178.43545977 -80.7137947 175.59292657 -82.125 172.75 C-84.00011553 168.97271472 -85.87718128 165.19641745 -87.7578125 161.421875 C-88.20707092 160.52004486 -88.65632935 159.61821472 -89.11920166 158.6890564 C-92.40231819 152.1271141 -95.81555722 145.64801484 -99.33935547 139.21240234 C-106.28598222 125.77463187 -108.3345982 111.46431184 -105.30078125 96.56640625 C-100.44000207 82.10712642 -90.71412372 71.06907641 -77.53125 63.6015625 C-65.16785753 57.81166392 -52.2981872 58.31896505 -39 60 C-38.46632813 59.16597656 -37.93265625 58.33195312 -37.3828125 57.47265625 C-30.5680976 47.06757607 -23.19644995 39.45053332 -12.1875 33.4375 C-11.55312012 33.09033936 -10.91874023 32.74317871 -10.26513672 32.38549805 C-6.39202495 30.38956059 -4.52675307 30 0 30 C0 20.1 0 10.2 0 0 Z " fill="#FDAD02" transform="translate(241,149)"/>
<path d="M0 0 C0 61.38 0 122.76 0 186 C-25.08 186 -50.16 186 -76 186 C-87.45616853 164.23327979 -87.45616853 164.23327979 -91.5078125 156.046875 C-91.96300262 155.13270813 -92.41819275 154.21854126 -92.88717651 153.27667236 C-94.30182983 150.43545977 -95.7137947 147.59292657 -97.125 144.75 C-99.00011553 140.97271472 -100.87718128 137.19641745 -102.7578125 133.421875 C-103.20707092 132.52004486 -103.65632935 131.61821472 -104.11920166 130.6890564 C-107.40231819 124.1271141 -110.81555722 117.64801484 -114.33935547 111.21240234 C-121.28598222 97.77463187 -123.3345982 83.46431184 -120.30078125 68.56640625 C-115.44000207 54.10712642 -105.71412372 43.06907641 -92.53125 35.6015625 C-80.16785753 29.81166392 -67.2981872 30.31896505 -54 32 C-53.46632813 31.16597656 -52.93265625 30.33195312 -52.3828125 29.47265625 C-43.454339 15.84017362 -31.48239552 4.66738341 -15.25 0.5 C-10.19877163 -0.09426216 -5.08606484 0 0 0 Z " fill="#FDCA02" transform="translate(256,177)"/>
<path d="M0 0 C1 2 1 2 0.2578125 4.42578125 C-0.30292969 5.85470703 -0.30292969 5.85470703 -0.875 7.3125 C-7.24862327 23.64769531 -3.0319748 40.4160534 0.0859375 57.046875 C0.50828767 59.3529989 0.92945994 61.65933881 1.34951782 63.96588135 C2.45171308 70.00038163 3.56965815 76.03185642 4.69110107 82.06280518 C5.82706033 88.18725273 6.9480755 94.31443219 8.0703125 100.44140625 C9.88532441 110.34099056 11.70918632 120.23889184 13.5453949 130.13456726 C13.86874816 131.8782719 14.19097915 133.62218511 14.51197433 135.36632538 C14.85801623 137.23377174 15.21029777 139.10006677 15.5669136 140.96552277 C15.75048794 141.93904442 15.93406227 142.91256607 16.12319946 143.91558838 C16.29103754 144.79402531 16.45887562 145.67246223 16.6317997 146.57751846 C17 149 17 149 17 153 C4.46 153 -8.08 153 -21 153 C-28.24756026 139.34670137 -35.25240522 125.59510266 -42.125 111.75 C-44.00011553 107.97271472 -45.87718128 104.19641745 -47.7578125 100.421875 C-48.20707092 99.52004486 -48.65632935 98.61821472 -49.11920166 97.6890564 C-52.40231819 91.1271141 -55.81555722 84.64801484 -59.33935547 78.21240234 C-66.28598222 64.77463187 -68.3345982 50.46431184 -65.30078125 35.56640625 C-60.44000207 21.10712642 -50.71412372 10.06907641 -37.53125 2.6015625 C-25.71851868 -2.93045604 -12.49246518 -3.74773955 0 0 Z " fill="#FDAE02" transform="translate(201,210)"/>
<path d="M0 0 C3.56245504 2.09171672 6.7827365 4.41615485 10 7 C10.886875 7.598125 11.77375 8.19625 12.6875 8.8125 C21.03789065 16.71151819 27.86766061 28.80631587 28.2734375 40.45703125 C28.31325237 42.2420645 28.34688573 44.02724413 28.375 45.8125 C28.43107422 47.09930664 28.43107422 47.09930664 28.48828125 48.41210938 C28.68831316 63.60342188 20.76638733 77.01795364 13.875 90.0625 C12.09033474 93.48062235 10.31318782 96.90264214 8.53515625 100.32421875 C8.08164291 101.19427551 7.62812958 102.06433228 7.16087341 102.96075439 C1.65491773 113.5419767 -3.64461401 124.22597518 -8.94561768 134.91091919 C-9.74279362 136.51740729 -10.54066491 138.1235506 -11.33934021 139.72929382 C-12.06162089 141.18159068 -12.78214334 142.63476373 -13.50062561 144.08894348 C-15.88751042 148.88751042 -15.88751042 148.88751042 -17 150 C-19.73894085 150.08858646 -22.4525327 150.11523479 -25.19140625 150.09765625 C-26.01124496 150.0962413 -26.83108368 150.09482635 -27.67576599 150.09336853 C-30.30471382 150.08775289 -32.93357773 150.07519779 -35.5625 150.0625 C-37.34049357 150.05748701 -39.11848846 150.05292376 -40.89648438 150.04882812 C-45.26435545 150.03777839 -49.63216348 150.02050331 -54 150 C-51.968565 134.19176007 -49.4554281 118.50715322 -46.6875 102.8125 C-46.28790024 100.52953483 -45.88873553 98.24649347 -45.48999023 95.96337891 C-44.89206759 92.54025695 -44.29385447 89.11718904 -43.69404602 85.69439697 C-42.49711929 78.8625934 -41.31359272 72.02869933 -40.1484375 65.19140625 C-40.01019058 64.38051041 -39.87194366 63.56961456 -39.72950745 62.73414612 C-39.21889295 59.73657812 -38.70883173 56.73891932 -38.20101929 53.74087524 C-36.1347898 41.54692074 -36.1347898 41.54692074 -34.859375 35.5625 C-32.82143652 25.55544817 -33.34615448 15.42697668 -36.24609375 5.6484375 C-37.06152984 2.78384854 -37.55555121 -0.05714487 -38 -3 C-25.550501 -7.83607683 -11.81140235 -5.44932057 0 0 Z " fill="#FD8C02" transform="translate(349,213)"/>
<path d="M0 0 C2.67649016 1.29221024 4.11608559 3.17703173 6.0181427 5.44633484 C10.28586721 10.37335898 14.86034508 14.67729454 19.8306427 18.88383484 C19.2900298 22.93089839 17.28354782 24.82194784 14.46614075 27.66825867 C14.01400208 28.12886688 13.5618634 28.5894751 13.09602356 29.06404114 C11.60255013 30.58087256 10.09817066 32.08628677 8.59236145 33.59086609 C7.54932542 34.64100231 6.50658967 35.69143686 5.46414185 36.74215698 C3.27938253 38.94035682 1.08878002 41.13253333 -1.1056366 43.3210907 C-3.92057793 46.13012385 -6.71680925 48.95700735 -9.5085268 51.78909779 C-11.65573365 53.9621118 -13.81426253 56.12359452 -15.97623253 58.28191185 C-17.01243982 59.31981567 -18.04465324 60.36172247 -19.07279396 61.40761757 C-20.50883149 62.86571112 -21.9623642 64.30651209 -23.41667175 65.74638367 C-24.6512487 66.98404228 -24.6512487 66.98404228 -25.9107666 68.2467041 C-28.1693573 69.88383484 -28.1693573 69.88383484 -30.33375549 69.74882507 C-34.77226045 67.65726936 -38.06277414 63.50104452 -41.4818573 60.07133484 C-42.33070496 59.25084656 -43.17955261 58.43035828 -44.05412292 57.58500671 C-44.85140808 56.79029968 -45.64869324 55.99559265 -46.47013855 55.17680359 C-47.20401794 54.45001404 -47.93789734 53.72322449 -48.6940155 52.97441101 C-50.1693573 50.88383484 -50.1693573 50.88383484 -50.03434753 49.05220032 C-48.84661758 46.07478794 -47.05896875 44.37664934 -44.80485535 42.09941101 C-44.12664734 41.40849869 -44.12664734 41.40849869 -43.43473816 40.70362854 C-41.94126473 39.18679711 -40.43688526 37.68138291 -38.93107605 36.17680359 C-37.88804002 35.12666736 -36.84530427 34.07623282 -35.80285645 33.0255127 C-33.61809713 30.82731285 -31.42749462 28.63513635 -29.233078 26.44657898 C-26.41813667 23.63754583 -23.62190535 20.81066232 -20.8301878 17.97857189 C-18.68298095 15.80555788 -16.52445207 13.64407516 -14.36248207 11.48575783 C-13.32627478 10.44785401 -12.29406136 9.4059472 -11.26592064 8.36005211 C-9.8298831 6.90195855 -8.3763504 5.46115759 -6.92204285 4.02128601 C-6.09899155 3.19618027 -5.27594025 2.37107452 -4.427948 1.52096558 C-2.1693573 -0.11616516 -2.1693573 -0.11616516 0 0 Z " fill="#FDAE02" transform="translate(115.16935729980469,377.1161651611328)"/>
<path d="M0 0 C4.43850496 2.09155571 7.72901865 6.24778055 11.14810181 9.67749023 C11.99694946 10.49797852 12.84579712 11.3184668 13.72036743 12.16381836 C14.51765259 12.95852539 15.31493774 13.75323242 16.13638306 14.57202148 C16.87026245 15.29881104 17.60414185 16.02560059 18.36026001 16.77441406 C19.83560181 18.86499023 19.83560181 18.86499023 19.70059204 20.69662476 C18.51286209 23.67403713 16.72521326 25.37217573 14.47109985 27.64941406 C14.01896118 28.11002228 13.56682251 28.57063049 13.10098267 29.04519653 C11.60750923 30.56202796 10.10312977 32.06744217 8.59732056 33.57202148 C7.55428453 34.62215771 6.51154877 35.67259225 5.46910095 36.72331238 C3.28434163 38.92151222 1.09373913 41.11368872 -1.10067749 43.30224609 C-3.91561882 46.11127925 -6.71185014 48.93816275 -9.5035677 51.77025318 C-11.65077455 53.94326719 -13.80930343 56.10474992 -15.97127342 58.26306725 C-17.00748071 59.30097106 -18.03969414 60.34287787 -19.06783485 61.38877296 C-20.50387239 62.84686652 -21.95740509 64.28766749 -23.41171265 65.72753906 C-24.6462896 66.96519768 -24.6462896 66.96519768 -25.9058075 68.2278595 C-28.16439819 69.86499023 -28.16439819 69.86499023 -30.33375549 69.74882507 C-33.01024565 68.45661483 -34.44984109 66.57179334 -36.35189819 64.30249023 C-40.6196227 59.3754661 -45.19410057 55.07153054 -50.16439819 50.86499023 C-49.62378529 46.81792669 -47.61730332 44.92687724 -44.79989624 42.08056641 C-44.12168823 41.38965408 -44.12168823 41.38965408 -43.42977905 40.68478394 C-41.93630562 39.16795251 -40.43192615 37.6625383 -38.92611694 36.15795898 C-37.88308092 35.10782276 -36.84034516 34.05738822 -35.79789734 33.00666809 C-33.61313802 30.80846825 -31.42253552 28.61629175 -29.2281189 26.42773438 C-26.41317756 23.61870122 -23.61694625 20.79181772 -20.82522869 17.95972729 C-18.67802184 15.78671328 -16.51949296 13.62523055 -14.35752296 11.46691322 C-13.32131567 10.42900941 -12.28910225 9.3871026 -11.26096153 8.3412075 C-9.824924 6.88311395 -8.37139129 5.44231298 -6.91708374 4.00244141 C-6.09403244 3.17733566 -5.27098114 2.35222992 -4.42298889 1.50212097 C-2.16439819 -0.13500977 -2.16439819 -0.13500977 0 0 Z " fill="#FD8C02" transform="translate(427.1643981933594,65.135009765625)"/>
<path d="M0 0 C23.43 0 46.86 0 71 0 C71 9.9 71 19.8 71 30 C47.57 30 24.14 30 0 30 C0 20.1 0 10.2 0 0 Z " fill="#FD8C02" transform="translate(441,241)"/>
<path d="M0 0 C23.43 0 46.86 0 71 0 C71 9.9 71 19.8 71 30 C47.57 30 24.14 30 0 30 C0 20.1 0 10.2 0 0 Z " fill="#FDAE02" transform="translate(0,241)"/>
<path d="M0 0 C3.65881177 1.53956134 5.9829179 3.74089057 8.76855469 6.54150391 C9.22755661 7.00021378 9.68655853 7.45892365 10.1594696 7.93153381 C11.66839675 9.4418491 13.17012454 10.95911388 14.671875 12.4765625 C15.71947224 13.5278917 16.76751328 14.57877885 17.815979 15.62924194 C20.5691252 18.39001016 23.31621127 21.15673249 26.06207275 23.92474365 C28.86716916 26.75032928 31.67796321 29.57023445 34.48828125 32.390625 C39.99777532 37.92154374 45.50087877 43.45876589 51 49 C49.4844458 52.21367037 48.06803732 54.04418932 45.3125 56.3125 C41.32493498 59.68492341 37.65097608 63.27078872 34 67 C32.66736319 68.33402949 31.33410556 69.66743934 30 71 C29.13310547 70.12786865 28.26621094 69.2557373 27.37304688 68.35717773 C24.12533208 65.09122598 20.87419673 61.82869701 17.62207031 58.56713867 C16.22075867 57.16082925 14.82034964 55.75361978 13.42089844 54.34545898 C11.39760962 52.30990344 9.37098872 50.27771469 7.34375 48.24609375 C6.7288269 47.62600937 6.11390381 47.00592499 5.48034668 46.36705017 C1.72651534 42.61274629 -2.14487869 39.05547948 -6.17553711 35.59960938 C-9.08192698 33.05141368 -11.79058772 30.31683876 -14.5 27.5625 C-15.03625 27.02173828 -15.5725 26.48097656 -16.125 25.92382812 C-17.41904036 24.61823383 -18.70988174 23.30947004 -20 22 C-18.51346494 18.53370165 -16.54277649 16.30977964 -13.8671875 13.671875 C-12.65869141 12.47304687 -12.65869141 12.47304687 -11.42578125 11.25 C-10.58402344 10.425 -9.74226563 9.6 -8.875 8.75 C-8.02550781 7.90953125 -7.17601563 7.0690625 -6.30078125 6.203125 C-4.20495077 4.13084317 -2.10459287 2.06337607 0 0 Z " fill="#FDAE02" transform="translate(84,65)"/>
<path d="M0 0 C5.29777297 4.42063823 10.21000506 9.09038169 15.05859375 13.99609375 C15.8065773 14.74786392 16.55456085 15.49963409 17.32521057 16.27418518 C20.49644095 19.46162241 23.66166089 22.65500337 26.82739258 25.84790039 C29.15235525 28.19106613 31.48040519 30.53113393 33.80859375 32.87109375 C34.51092636 33.5817247 35.21325897 34.29235565 35.93687439 35.02452087 C39.95956223 39.06682094 44.06610503 42.81943378 48.53797913 46.36390686 C50 48 50 48 50 52 C48.25585938 54.19824219 48.25585938 54.19824219 45.84375 56.546875 C44.55791016 57.81337891 44.55791016 57.81337891 43.24609375 59.10546875 C42.33988281 59.97816406 41.43367188 60.85085938 40.5 61.75 C39.59378906 62.63816406 38.68757813 63.52632813 37.75390625 64.44140625 C35.51128384 66.63681556 33.25987232 68.82237387 31 71 C27.48286197 69.49819767 25.23491467 67.47226993 22.55444336 64.765625 C21.24805153 63.45416504 21.24805153 63.45416504 19.91526794 62.11621094 C18.97342911 61.16083763 18.0316218 60.20543323 17.08984375 59.25 C16.11676838 58.2706502 15.14317338 57.29181645 14.16908264 56.31347656 C11.60960053 53.74071205 9.05574875 51.16243695 6.503479 48.58251953 C2.41621199 44.45208108 -1.67781191 40.3283673 -5.77511406 36.20788574 C-7.20389814 34.76889214 -8.62921257 33.3265269 -10.05421448 31.88378906 C-10.9219902 31.00948242 -11.78976593 30.13517578 -12.68383789 29.234375 C-13.44676651 28.46319336 -14.20969513 27.69201172 -14.9957428 26.89746094 C-17.05364731 24.84202596 -17.05364731 24.84202596 -20 23 C-19.44378126 19.35279428 -18.20892932 17.97980963 -15.375 15.6875 C-9.68422846 10.92479335 -4.4922773 5.92980604 0 0 Z " fill="#FD8C02" transform="translate(397,376)"/>
<path d="M0 0 C0 23.43 0 46.86 0 71 C-4.95 71 -9.9 71 -15 71 C-15 47.9 -15 24.8 -15 1 C-4 0 -4 0 0 0 Z " fill="#FD8C02" transform="translate(271,441)"/>
<path d="M0 0 C4.95 0.33 9.9 0.66 15 1 C15 24.1 15 47.2 15 71 C10.05 71 5.1 71 0 71 C0 47.57 0 24.14 0 0 Z " fill="#FDAE02" transform="translate(241,441)"/>
<path d="M0 0 C4.95 0 9.9 0 15 0 C15 23.43 15 46.86 15 71 C10.05 70.67 5.1 70.34 0 70 C0 46.9 0 23.8 0 0 Z " fill="#FD8C02" transform="translate(256,0)"/>
<path d="M0 0 C4.95 0 9.9 0 15 0 C15 23.1 15 46.2 15 70 C10.05 70.33 5.1 70.66 0 71 C0 47.57 0 24.14 0 0 Z " fill="#FDAE02" transform="translate(241,0)"/>
<path d="M0 0 C4.95 0 9.9 0 15 0 C15 9.57 15 19.14 15 29 C7.575 28.01 7.575 28.01 0 27 C0 18.09 0 9.18 0 0 Z " fill="#FD8C02" transform="translate(256,149)"/>
</svg>
