<?xml version="1.0" encoding="UTF-8"?>
<svg version="1.1" xmlns="http://www.w3.org/2000/svg" width="512" height="512">
<path d="M0 0 C1.54494141 1.10601562 1.54494141 1.10601562 3.12109375 2.234375 C30.33240981 22.12856575 47.50001139 50.50006309 53.4765625 83.6171875 C59.36695922 121.68497526 48.43234305 166.45876614 26 198 C24.5703125 199.75 24.5703125 199.75 23 201 C21.7625 201 20.525 201 19.25 201 C17.08561705 201.05021304 17.08561705 201.05021304 15 202 C12.17384075 205.40520316 10.05977578 209.09286282 8 213 C8.66 213.99 9.32 214.98 10 216 C10.56612623 219.94089816 10.23350186 221.6202548 8.12890625 225.04296875 C7.28846002 226.10322915 6.43203699 227.15096374 5.5625 228.1875 C5.10875 228.75065918 4.655 229.31381836 4.1875 229.89404297 C3.25262772 231.05058935 2.31135567 232.20199174 1.36376953 233.34814453 C0.12116457 234.85324034 -1.09890278 236.37687144 -2.31640625 237.90234375 C-6.9457205 243.67449408 -11.80469039 249.16727742 -16.8359375 254.58984375 C-18.69220978 256.65720836 -20.3791142 258.74644587 -22 261 C-20.96101562 261.36351562 -19.92203125 261.72703125 -18.8515625 262.1015625 C-6.02403594 266.68293202 8.9274799 272.42752354 15.5 285.3125 C18.36527746 292.35630709 19.36640179 298.34037893 16.4375 305.5625 C9.49502415 319.30430787 -3.42989462 325.09531034 -17.375 329.8125 C-31.32048046 334.34224093 -45.69975947 337.11433322 -60.390625 337.203125 C-61.16911301 337.21009399 -61.94760101 337.21706299 -62.74967957 337.22424316 C-65.24984192 337.24154953 -67.74978024 337.24796323 -70.25 337.25 C-71.10248322 337.25100708 -71.95496643 337.25201416 -72.83328247 337.25305176 C-85.44402492 337.2429583 -97.6594911 336.82992091 -110 334 C-110.99531738 333.7831958 -110.99531738 333.7831958 -112.01074219 333.56201172 C-129.68049071 329.63007901 -147.04416326 323.19853823 -158 308 C-161.10006989 301.83025305 -161.12667662 294.27851881 -159.3828125 287.65625 C-153.35235118 274.20778758 -139.10874997 268.11310202 -126.22265625 263.1015625 C-123 262 -123 262 -120 262 C-124.4338083 256.46309447 -128.8997627 251.05123685 -133.75 245.875 C-168.21064444 208.27188567 -197.5735424 156.97739537 -197.3125 104.75 C-197.30512817 102.98402466 -197.30512817 102.98402466 -197.29760742 101.18237305 C-197.17234932 91.81242438 -196.29252872 83.07767422 -194 74 C-193.83371094 73.34032227 -193.66742188 72.68064453 -193.49609375 72.00097656 C-190.7101269 61.30595939 -186.29404459 51.67186436 -181 42 C-180.48308594 41.05125 -179.96617187 40.1025 -179.43359375 39.125 C-175.8791162 32.92645605 -171.59653969 27.45671085 -167 22 C-166.41089844 21.28714844 -165.82179687 20.57429688 -165.21484375 19.83984375 C-144.05862434 -5.17172316 -112.22401776 -18.76147076 -80.125 -21.75 C-52.13347028 -23.20164641 -22.86467668 -16.82161685 0 0 Z M-92.98876953 71.66601562 C-97.89237182 74.22251272 -100.76293744 74.57111877 -106 73 C-106.9834496 74.43457328 -107.96160921 75.87277406 -108.9375 77.3125 C-109.48277344 78.11300781 -110.02804688 78.91351563 -110.58984375 79.73828125 C-112.13837326 82.0258143 -112.13837326 82.0258143 -113 85 C-111.515 85.99 -111.515 85.99 -110 87 C-109.72290039 89.34741211 -109.72290039 89.34741211 -109.84765625 92.27734375 C-109.87537109 93.34919922 -109.90308594 94.42105469 -109.93164062 95.52539062 C-110.01753987 97.76518133 -110.10851993 100.00478411 -110.20507812 102.24414062 C-110.46795704 113.02217633 -107.98200922 121.61463767 -100.97265625 129.93359375 C-93.1253226 138.15386999 -84.6283417 142.91510506 -73.13110352 143.52124023 C-62.44488795 143.73438439 -53.15013429 140.54992654 -44.8125 133.79296875 C-36.30947058 125.3815668 -32.57051422 116.13728938 -31.9453125 104.3671875 C-32.10947901 94.25922125 -35.63801803 85.80173418 -42 78 C-44.80090866 75.294634 -47.72365694 73.09640133 -51 71 C-51.61359375 70.59007812 -52.2271875 70.18015625 -52.859375 69.7578125 C-66.13216918 61.98698855 -80.32495213 64.78656589 -92.98876953 71.66601562 Z " fill="#FE4949" transform="translate(197,175)"/>
<path d="M0 0 C1.19407471 0.00563965 2.38814941 0.0112793 3.6184082 0.01708984 C12.04723574 0.13330192 19.62784955 0.68198832 27.6875 3.3125 C28.32155762 3.51649414 28.95561523 3.72048828 29.60888672 3.93066406 C43.29067986 8.42260762 54.64601188 15.03152645 65.6875 24.3125 C66.51894531 24.95058594 67.35039062 25.58867187 68.20703125 26.24609375 C85.32482905 40.50643239 96.1335106 64.50877371 98.6875 86.3125 C100.67380052 114.33172305 94.15081936 139.8070399 80.6875 164.3125 C80.36668457 164.9111084 80.04586914 165.5097168 79.71533203 166.12646484 C69.64884463 184.88418058 56.24242214 201.84197538 41.6875 217.3125 C42.73808594 217.7971875 43.78867187 218.281875 44.87109375 218.78125 C65.59821568 228.57701225 65.59821568 228.57701225 70.09375 239.25390625 C72.08914024 246.17213426 70.8015012 251.72059473 67.359375 257.95703125 C58.20885102 270.84900779 39.89687848 275.4535067 25.1875 278.0625 C-0.36581719 282.10375962 -33.94137473 281.79751505 -56.625 267.25 C-62.61626335 262.7448508 -67.89490188 257.56529437 -70.3125 250.3125 C-70.87687878 243.76570618 -69.91113386 238.88111771 -66.3125 233.3125 C-60.50185321 226.59278797 -53.28773917 222.93655948 -45.3125 219.3125 C-43.9760783 218.65204616 -42.64138495 217.98799021 -41.3125 217.3125 C-41.95574219 216.64347656 -42.59898437 215.97445312 -43.26171875 215.28515625 C-51.2727816 206.77125921 -58.42813612 197.75637834 -65.3125 188.3125 C-65.98345703 187.39476807 -65.98345703 187.39476807 -66.66796875 186.45849609 C-84.01768777 162.41578931 -98.19670027 132.77299474 -98.5625 102.625 C-98.58828125 101.34238281 -98.6140625 100.05976562 -98.640625 98.73828125 C-98.29425694 95.12203373 -98.0018046 93.71533519 -95.3125 91.3125 C-92.625 90.5625 -92.625 90.5625 -90.3125 90.3125 C-90.26351563 89.52746094 -90.21453125 88.74242188 -90.1640625 87.93359375 C-89.47951639 78.31454069 -89.47951639 78.31454069 -88 74.375 C-87.773125 73.364375 -87.54625 72.35375 -87.3125 71.3125 C-89.15800034 68.71394575 -89.15800034 68.71394575 -91.3125 66.3125 C-92.53964922 55.69235678 -83.60508917 44.80032433 -77.37109375 36.86328125 C-76.69175781 36.02152344 -76.01242187 35.17976563 -75.3125 34.3125 C-74.61833984 33.40564453 -74.61833984 33.40564453 -73.91015625 32.48046875 C-56.77098326 10.6092682 -26.90033947 -0.13301008 0 0 Z M-22.9921875 82.4609375 C-27.25884922 88.44436252 -28.91182289 95.00086642 -27.91015625 102.20703125 C-26.2013949 110.24528731 -23.61034501 116.25313058 -16.8046875 121.09765625 C-8.91462974 125.96280848 -2.61027724 127.35352446 6.6875 126.3125 C15.24222975 123.64105877 21.18805149 119.05855656 25.6875 111.3125 C29.17002189 103.6485418 29.39426429 96.48314022 26.625 88.55859375 C23.67434312 81.48931165 18.35825363 75.66443977 11.484375 72.203125 C-1.78221882 67.28613568 -14.17268981 71.60972306 -22.9921875 82.4609375 Z " fill="#FD4949" transform="translate(413.3125,-0.3125)"/>
<path d="M0 0 C1.54494141 1.10601562 1.54494141 1.10601562 3.12109375 2.234375 C30.33240981 22.12856575 47.50001139 50.50006309 53.4765625 83.6171875 C59.36695922 121.68497526 48.43234305 166.45876614 26 198 C23.96917785 200.31406839 23.1396547 200.95446042 20.125 201.9375 C17 202 17 202 14.1875 200.4375 C11.5413884 197.48897565 11.26758011 195.91153464 11 192 C11.8984375 189.67578125 11.8984375 189.67578125 13.375 187.3125 C32.66993192 154.06996141 45.41132597 114.4885178 35.26049805 76.12915039 C26.69745392 46.7771795 8.14094476 22.59089488 -18.69238281 7.71459961 C-44.01260476 -5.73370311 -73.48394707 -9.46264825 -101.22265625 -1.55078125 C-117.63374614 3.57665391 -134.12424253 11.74853437 -146.15625 24.23828125 C-148 26 -148 26 -150 26 C-150.26683594 26.59039062 -150.53367188 27.18078125 -150.80859375 27.7890625 C-152.02079518 30.0385904 -153.30174831 31.53516017 -155.0625 33.375 C-172.45114118 52.90099499 -180.6742502 78.02668868 -180.375 103.875 C-180.37101196 104.57655212 -180.36702393 105.27810425 -180.36291504 106.00091553 C-180.29433736 116.29137778 -179.74245218 126.03065667 -177 136 C-176.70996094 137.16402344 -176.41992188 138.32804688 -176.12109375 139.52734375 C-166.23465291 176.96344817 -142.68491682 212.49223508 -116.37890625 240.4453125 C-114.50594454 242.45667039 -112.71525309 244.49517651 -110.9296875 246.58203125 C-106.53710883 251.62201806 -101.81928828 256.33092147 -97.0847168 261.0456543 C-95.56508332 262.5599258 -94.05087483 264.0794743 -92.53710938 265.59960938 C-86.01218157 272.12960012 -79.43875348 278.50640554 -72 284 C-68.13230326 282.39609732 -65.37330565 279.77382655 -62.375 276.9375 C-61.30902259 275.9435503 -60.24260934 274.95006784 -59.17578125 273.95703125 C-58.6442041 273.46025879 -58.11262695 272.96348633 -57.56494141 272.45166016 C-54.50317233 269.61152303 -51.37337217 266.84668995 -48.25390625 264.0703125 C-43.70398182 259.89100583 -39.48678079 255.42272947 -35.3125 250.875 C-34.78922119 250.30515381 -34.26594238 249.73530762 -33.72680664 249.14819336 C-32.65830788 247.98407587 -31.59018922 246.81960937 -30.52246094 245.65478516 C-29.14984947 244.16287359 -27.76694536 242.68044749 -26.3828125 241.19921875 C-21.76383754 236.21869463 -17.42499829 231.10261625 -13.25 225.75 C-12.54738037 224.85462524 -12.54738037 224.85462524 -11.83056641 223.94116211 C-9.92596416 221.50644444 -8.05057645 219.07082966 -6.25390625 216.5546875 C-4.46329532 214.15750105 -2.96174983 212.2653752 -0.00390625 211.44921875 C3.40706358 211.23016564 5.64756281 211.77091583 8.5 213.625 C10.47034495 216.74471284 10.41916335 218.34224825 10 222 C8.59377344 224.286953 7.26751878 226.15502317 5.5625 228.1875 C5.10875 228.75065918 4.655 229.31381836 4.1875 229.89404297 C3.25262772 231.05058935 2.31135567 232.20199174 1.36376953 233.34814453 C0.12116457 234.85324034 -1.09890278 236.37687144 -2.31640625 237.90234375 C-6.9457205 243.67449408 -11.80469039 249.16727742 -16.8359375 254.58984375 C-18.69220978 256.65720836 -20.3791142 258.74644587 -22 261 C-20.96101562 261.36351562 -19.92203125 261.72703125 -18.8515625 262.1015625 C-6.02403594 266.68293202 8.9274799 272.42752354 15.5 285.3125 C18.36527746 292.35630709 19.36640179 298.34037893 16.4375 305.5625 C9.49502415 319.30430787 -3.42989462 325.09531034 -17.375 329.8125 C-31.32048046 334.34224093 -45.69975947 337.11433322 -60.390625 337.203125 C-61.16911301 337.21009399 -61.94760101 337.21706299 -62.74967957 337.22424316 C-65.24984192 337.24154953 -67.74978024 337.24796323 -70.25 337.25 C-71.10248322 337.25100708 -71.95496643 337.25201416 -72.83328247 337.25305176 C-85.44402492 337.2429583 -97.6594911 336.82992091 -110 334 C-110.99531738 333.7831958 -110.99531738 333.7831958 -112.01074219 333.56201172 C-129.68049071 329.63007901 -147.04416326 323.19853823 -158 308 C-161.10006989 301.83025305 -161.12667662 294.27851881 -159.3828125 287.65625 C-153.35235118 274.20778758 -139.10874997 268.11310202 -126.22265625 263.1015625 C-123 262 -123 262 -120 262 C-124.4338083 256.46309447 -128.8997627 251.05123685 -133.75 245.875 C-168.21064444 208.27188567 -197.5735424 156.97739537 -197.3125 104.75 C-197.30512817 102.98402466 -197.30512817 102.98402466 -197.29760742 101.18237305 C-197.17234932 91.81242438 -196.29252872 83.07767422 -194 74 C-193.83371094 73.34032227 -193.66742188 72.68064453 -193.49609375 72.00097656 C-190.7101269 61.30595939 -186.29404459 51.67186436 -181 42 C-180.48308594 41.05125 -179.96617187 40.1025 -179.43359375 39.125 C-175.8791162 32.92645605 -171.59653969 27.45671085 -167 22 C-166.41089844 21.28714844 -165.82179687 20.57429688 -165.21484375 19.83984375 C-144.05862434 -5.17172316 -112.22401776 -18.76147076 -80.125 -21.75 C-52.13347028 -23.20164641 -22.86467668 -16.82161685 0 0 Z " fill="#010000" transform="translate(197,175)"/>
<path d="M0 0 C1.19407471 0.00563965 2.38814941 0.0112793 3.6184082 0.01708984 C12.04723574 0.13330192 19.62784955 0.68198832 27.6875 3.3125 C28.32155762 3.51649414 28.95561523 3.72048828 29.60888672 3.93066406 C43.29067986 8.42260762 54.64601188 15.03152645 65.6875 24.3125 C66.51894531 24.95058594 67.35039062 25.58867187 68.20703125 26.24609375 C85.32482905 40.50643239 96.1335106 64.50877371 98.6875 86.3125 C100.67380052 114.33172305 94.15081936 139.8070399 80.6875 164.3125 C80.36668457 164.9111084 80.04586914 165.5097168 79.71533203 166.12646484 C69.64884463 184.88418058 56.24242214 201.84197538 41.6875 217.3125 C42.73808594 217.7971875 43.78867187 218.281875 44.87109375 218.78125 C65.59821568 228.57701225 65.59821568 228.57701225 70.09375 239.25390625 C72.08914024 246.17213426 70.8015012 251.72059473 67.359375 257.95703125 C58.20885102 270.84900779 39.89687848 275.4535067 25.1875 278.0625 C-0.36581719 282.10375962 -33.94137473 281.79751505 -56.625 267.25 C-62.61626335 262.7448508 -67.89490188 257.56529437 -70.3125 250.3125 C-70.87687878 243.76570618 -69.91113386 238.88111771 -66.3125 233.3125 C-60.50185321 226.59278797 -53.28773917 222.93655948 -45.3125 219.3125 C-43.9760783 218.65204616 -42.64138495 217.98799021 -41.3125 217.3125 C-41.95574219 216.64347656 -42.59898437 215.97445312 -43.26171875 215.28515625 C-51.2727816 206.77125921 -58.42813612 197.75637834 -65.3125 188.3125 C-65.98345703 187.39476807 -65.98345703 187.39476807 -66.66796875 186.45849609 C-84.01768777 162.41578931 -98.19670027 132.77299474 -98.5625 102.625 C-98.58828125 101.34238281 -98.6140625 100.05976562 -98.640625 98.73828125 C-98.29728188 95.15361557 -97.84481895 93.80231 -95.3125 91.3125 C-91.93692026 89.94402173 -90.56599905 90.21805918 -87.125 91.5 C-84.0827008 93.46059282 -83.49202366 94.00765952 -82.3125 97.3125 C-82.11231679 99.93490002 -81.99541954 102.50039216 -81.9375 105.125 C-81.57777188 113.59809235 -79.94253047 121.22727731 -77.3125 129.3125 C-76.91289062 130.55128906 -76.51328125 131.79007813 -76.1015625 133.06640625 C-64.30414942 167.67948799 -40.30594823 195.26236956 -15 220.8125 C-14.13947021 221.68616211 -13.27894043 222.55982422 -12.39233398 223.45996094 C-8.26382336 227.59370109 -4.36162257 231.34727304 0.6875 234.3125 C1.4609375 233.59964844 2.234375 232.88679687 3.03125 232.15234375 C4.08318079 231.18472997 5.13527551 230.21729439 6.1875 229.25 C6.73559326 228.74557373 7.28368652 228.24114746 7.84838867 227.72143555 C10.85324341 224.96444935 13.88948084 222.2631129 17 219.625 C20.31755116 216.75298774 23.14405712 213.61861354 25.9765625 210.2734375 C27.61665765 208.39369374 29.32957662 206.66793068 31.125 204.9375 C35.39783198 200.72163911 39.009112 196.04567077 42.6875 191.3125 C43.44933594 190.36761719 44.21117187 189.42273438 44.99609375 188.44921875 C57.25775175 173.00933899 66.79618486 156.36063695 74.6875 138.3125 C75.38166016 136.72501953 75.38166016 136.72501953 76.08984375 135.10546875 C84.90833814 112.90948476 85.0183496 88.06104053 76.375 65.9375 C71.78415486 55.72321841 65.51578058 47.27368857 57.6875 39.3125 C57.00042969 38.61253906 56.31335938 37.91257813 55.60546875 37.19140625 C39.10304826 21.48502089 17.05916914 15.50269777 -5.23828125 16 C-27.60512286 17.01112111 -46.68242883 28.46945897 -62.0625 44.08984375 C-66.22827787 48.70040519 -69.23050998 53.94284729 -72.3125 59.3125 C-73.39006852 61.17002287 -74.47323707 63.02431056 -75.5625 64.875 C-76.04203125 65.70128906 -76.5215625 66.52757813 -77.015625 67.37890625 C-78.3125 69.3125 -78.3125 69.3125 -80.3125 70.3125 C-87.60059789 70.89092047 -87.60059789 70.89092047 -90.3125 68.6875 C-92.06266528 64.53085745 -91.67181898 61.26683273 -90.09765625 57.0859375 C-85.88679962 48.77880538 -81.18241262 41.58584524 -75.3125 34.3125 C-74.61833984 33.40564453 -74.61833984 33.40564453 -73.91015625 32.48046875 C-56.77098326 10.6092682 -26.90033947 -0.13301008 0 0 Z " fill="#020000" transform="translate(413.3125,-0.3125)"/>
<path d="M0 0 C7.65257646 1.09754419 14.37449054 2.99937742 21.4375 6.125 C22.35128418 6.52460938 23.26506836 6.92421875 24.20654297 7.3359375 C31.38238942 10.55634223 37.75486004 14.18179113 44 19 C44.95132813 19.7321875 45.90265625 20.464375 46.8828125 21.21875 C64.56604253 35.28824092 78.61394869 54.07645778 85 76 C85.37125 77.20785156 85.7425 78.41570312 86.125 79.66015625 C96.16898681 115.64502564 84.90639603 153.05229776 68 185 C66.33843853 187.92032016 64.67872344 190.8263818 62.8984375 193.67578125 C61.68268745 196.82087376 62.15554064 198.77143566 63 202 C63.97348627 204.28480253 63.97348627 204.28480253 65 206 C62.63374252 209.97170193 60.23385769 213.67976214 57 217 C54.81640625 217.30859375 54.81640625 217.30859375 52.625 216.9375 C50.33611848 216.52114174 50.33611848 216.52114174 48 217 C44.59278214 220.08476822 41.92486106 223.65107411 39.22314453 227.34521484 C37.37839096 229.84097127 35.40878044 232.22860865 33.4375 234.625 C32.69886719 235.52863281 31.96023437 236.43226563 31.19921875 237.36328125 C27.58974039 241.69080859 23.81070366 245.84978665 20 250 C18.87099129 251.24600092 17.7420924 252.49210135 16.61328125 253.73828125 C15.43016193 255.03428743 14.24656997 256.32986231 13.0625 257.625 C12.4943457 258.2538208 11.92619141 258.8826416 11.34082031 259.53051758 C9.93454672 261.05878986 8.47170417 262.53463028 7 264 C6.34 264 5.68 264 5 264 C4.73590332 264.59385498 4.47180664 265.18770996 4.19970703 265.79956055 C2.95290494 268.08637928 1.71411512 269.45251741 -0.1953125 271.20703125 C-0.8255835 271.79081543 -1.45585449 272.37459961 -2.10522461 272.97607422 C-2.77175049 273.58209473 -3.43827637 274.18811523 -4.125 274.8125 C-4.79990479 275.43398926 -5.47480957 276.05547852 -6.17016602 276.69580078 C-10.71621631 280.86934954 -15.29706814 285.00325919 -20 289 C-24.46361162 287.63611867 -26.22436974 285.67118618 -29 282 C-28.16863525 281.17910889 -27.33727051 280.35821777 -26.48071289 279.51245117 C-23.34993545 276.41831642 -20.22614496 273.3172039 -17.10424805 270.21411133 C-15.76104471 268.88086598 -14.41604004 267.54943254 -13.0690918 266.2199707 C-5.9319062 259.17302843 1.00433848 252.16613055 7.20068359 244.26293945 C8.94076012 242.074504 10.77178748 240.03493765 12.6875 238 C24.88087563 224.35503203 34.77055368 208.74016606 44 193 C44.59917236 191.9797876 44.59917236 191.9797876 45.21044922 190.93896484 C59.10597958 166.94770456 67.55930239 139.66457255 68.90039062 112.00146484 C68.98722303 110.25672932 69.09350046 108.51298311 69.203125 106.76953125 C70.28825835 76.81209994 55.71256072 47.64931829 36 26 C25.83217095 15.16565569 13.07099254 7.80225122 0 1 C0 0.67 0 0.34 0 0 Z " fill="#E5333E" transform="translate(147,171)"/>
<path d="M0 0 C3.01996319 2.92648814 5.97405109 5.91524702 8.9140625 8.921875 C13.22490976 13.14008228 17.91125689 16.85574973 22.640625 20.58984375 C23.50558594 21.32074219 24.37054688 22.05164063 25.26171875 22.8046875 C27.59848945 24.81956212 27.59848945 24.81956212 30.890625 25.27734375 C36.4101198 24.26543637 39.51914748 21.26011376 43.640625 17.58984375 C44.47078125 16.85636719 45.3009375 16.12289063 46.15625 15.3671875 C47.85026499 13.85244711 49.53654374 12.32900891 51.21484375 10.796875 C54.09253757 8.17868336 57.01896084 5.62371729 59.984375 3.10546875 C61.81008042 1.53455314 61.81008042 1.53455314 63.515625 -0.97265625 C66.12938074 -2.74078513 66.83544472 -2.52743613 69.890625 -2.03515625 C82.02193276 1.02013607 94.02081475 5.29295108 103.203125 14.02734375 C105.14997911 17.49782281 105.20088743 19.66800677 104.640625 23.58984375 C96.33633236 36.1156503 77.58939575 40.51378078 63.75415039 43.35571289 C48.73169008 46.16216167 25.47604627 49.53498417 10.640625 44.58984375 C9.1830597 44.5114488 7.72445501 44.45191564 6.265625 44.40234375 C-9.43073417 43.06470462 -28.32595253 37.4648241 -39.90625 26.37109375 C-41.359375 24.58984375 -41.359375 24.58984375 -42.796875 21.15234375 C-42.13063318 15.72723176 -39.46593869 13.04245124 -35.359375 9.58984375 C-28.57406981 5.03489351 -21.12703876 2.02946555 -13.359375 -0.41015625 C-12.54082031 -0.6834375 -11.72226563 -0.95671875 -10.87890625 -1.23828125 C-6.58127028 -2.47646113 -3.71733266 -3.03309835 0 0 Z " fill="#FBB823" transform="translate(94.359375,451.41015625)"/>
<path d="M0 0 C10.72125631 9.00135463 17.8671719 21.01328935 19.41796875 35 C19.76902488 43.15593206 20.10737083 51.20073397 17.41796875 59 C17.17304688 59.76183594 16.928125 60.52367187 16.67578125 61.30859375 C12.0940313 74.30373408 2.92097626 84.52709263 -9.22265625 90.87109375 C-22.84729182 97.39016607 -36.96224486 99.26195068 -51.7109375 95.03125 C-66.47398195 89.72860546 -78.5703581 78.66711369 -85.39453125 64.5625 C-90.23706424 53.04555476 -92.29434227 38.53598676 -87.4921875 26.67578125 C-86.17778568 24.25570236 -85.12868646 23.09142366 -82.58203125 22 C-79.27734281 21.58691395 -77.34932439 21.58047281 -74.41015625 23.1875 C-72.58203125 25 -72.58203125 25 -72.19140625 27.4609375 C-72.26101562 28.90339844 -72.26101562 28.90339844 -72.33203125 30.375 C-72.3784375 31.97794922 -72.3784375 31.97794922 -72.42578125 33.61328125 C-72.52850925 35.83991059 -72.63263509 38.06647596 -72.73828125 40.29296875 C-73.0488569 51.12429452 -70.52931488 59.64623129 -63.48828125 68 C-56.08963413 75.76251501 -47.50903409 79.96387539 -36.71069336 80.52319336 C-28.48392575 80.67969928 -21.80823583 78.98992891 -14.58203125 75 C-13.9065625 74.6390625 -13.23109375 74.278125 -12.53515625 73.90625 C-5.72864597 69.68982771 -0.51548955 61.80502361 1.91796875 54.24609375 C4.58040773 42.28591862 3.49128009 31.72683156 -2.76953125 21.125 C-6.08189597 16.28866916 -9.57499155 13.00422382 -14.58203125 10 C-15.17371094 9.61199219 -15.76539063 9.22398437 -16.375 8.82421875 C-24.65778034 3.96757783 -35.4467204 2.98264666 -44.71875 5.015625 C-49.53385395 6.67102227 -53.90796742 9.1261598 -58.3203125 11.63671875 C-62.03021466 13.18732456 -63.7792917 13.181487 -67.58203125 12 C-70.17344694 9.15780215 -70.55331368 7.39486663 -70.83203125 3.5625 C-68.70325791 -2.50450403 -63.67719212 -4.50629104 -58.11328125 -7.19140625 C-38.32685397 -15.67577618 -16.98011199 -13.15252245 0 0 Z " fill="#020000" transform="translate(160.58203125,237)"/>
<path d="M0 0 C5.63080331 0.53805454 10.48190862 1.58769965 15.75 3.625 C16.44319336 3.89223877 17.13638672 4.15947754 17.85058594 4.43481445 C29.85491846 9.20970513 38.94612306 15.97188089 48 25 C48.73089844 25.70769531 49.46179688 26.41539063 50.21484375 27.14453125 C60.12224143 37.40506389 65.85955554 50.25838669 69 64 C69.22300781 64.7734375 69.44601562 65.546875 69.67578125 66.34375 C76.96161701 92.9097906 63.90789901 123.34829339 51.23046875 146.203125 C44.8894139 157.2345474 37.1915864 167.29363192 29 177 C27.5205277 178.85392281 26.04136433 180.70809219 24.5625 182.5625 C20.05562114 188.07967745 15.10792777 193.04429524 10 198 C7.26011803 200.72197424 4.54320089 203.46461681 1.84375 206.2265625 C0.72923099 207.35943829 -0.38535323 208.49224992 -1.5 209.625 C-2.05558594 210.19734375 -2.61117188 210.7696875 -3.18359375 211.359375 C-6.2458732 214.45768127 -9.10251438 216.94945719 -13 219 C-15.64 216.69 -18.28 214.38 -21 212 C-18.27158728 209.26133009 -15.5308229 206.53747382 -12.765625 203.8359375 C-5.6872216 196.88980324 0.90664207 189.84137147 7 182 C8.12532108 180.59036213 9.25171042 179.1815767 10.37890625 177.7734375 C17.21871304 169.17861407 23.68246727 160.63510331 29 151 C29.64364502 149.84177734 29.64364502 149.84177734 30.30029297 148.66015625 C36.47291617 137.46122372 42.2746493 126.26551291 46 114 C46.20737793 113.32501465 46.41475586 112.6500293 46.62841797 111.95458984 C53.75393536 87.73909636 51.31309313 61.48370398 40 39 C30.76889545 22.4308504 16.91464551 9.50003651 0 1 C0 0.67 0 0.34 0 0 Z " fill="#E4333E" transform="translate(426,16)"/>
<path d="M0 0 C0.82564453 -0.020625 1.65128906 -0.04125 2.50195312 -0.0625 C13.16703724 -0.12973457 24.15191342 4.7910078 31.8125 12.25 C41.75169035 24.74756964 45.02243906 36.27529728 43.8125 52.25 C41.50205612 63.4195981 34.41928323 73.12773989 25.25 79.75 C14.1099495 86.60541569 3.78146932 88.75812613 -9.234375 86.7890625 C-15.82706359 85.2060723 -20.8379948 82.35128732 -26.1875 78.25 C-27.7653125 77.1053125 -27.7653125 77.1053125 -29.375 75.9375 C-34.91177706 70.64680192 -38.45844143 64.34555228 -41.1875 57.25 C-41.53683594 56.49332031 -41.88617188 55.73664063 -42.24609375 54.95703125 C-45.64935027 45.17090358 -43.21386435 32.73641331 -38.93359375 23.5625 C-30.70962003 8.86242708 -16.87418122 0.10296983 0 0 Z M-22.8671875 27.3984375 C-27.13384922 33.38186252 -28.78682289 39.93836642 -27.78515625 47.14453125 C-26.0763949 55.18278731 -23.48534501 61.19063058 -16.6796875 66.03515625 C-8.78962974 70.90030848 -2.48527724 72.29102446 6.8125 71.25 C15.36722975 68.57855877 21.31305149 63.99605656 25.8125 56.25 C29.29502189 48.5860418 29.51926429 41.42064022 26.75 33.49609375 C23.79934312 26.42681165 18.48325363 20.60193977 11.609375 17.140625 C-1.65721882 12.22363568 -14.04768981 16.54722306 -22.8671875 27.3984375 Z " fill="#020000" transform="translate(413.1875,54.75)"/>
<path d="M0 0 C2.21875 1.58203125 2.21875 1.58203125 4.5 3.8125 C5.36109375 4.62203125 6.2221875 5.4315625 7.109375 6.265625 C8.06328125 7.16796875 9.0171875 8.0703125 10 9 C12.22306319 11.05267272 14.47744455 13.06488201 16.75 15.0625 C17.28044922 15.55145752 17.81089844 16.04041504 18.35742188 16.54418945 C20.87905334 18.74589483 22.70251107 19.94489519 26.015625 20.55859375 C32.25647924 19.39047574 36.52460993 14.7989695 41 10.5625 C52.23506374 0.01499875 52.23506374 0.01499875 56.1875 -0.0625 C65.09667416 2.4203846 74.27255653 5.27255653 81 12 C81.34298695 14.95283101 81.40403738 16.44982447 79.61694336 18.88330078 C74.29573113 23.4526529 69.24527428 25.85137693 62.5625 27.875 C61.67240234 28.16890625 60.78230469 28.4628125 59.86523438 28.765625 C49.37854902 32.10543129 39.11038666 32.21252123 28.19140625 32.24023438 C25.90066524 32.2498918 23.61084228 32.28097443 21.3203125 32.3125 C4.58025177 32.43300271 -13.6469614 30.26121313 -26.70703125 18.84375 C-28.42461651 16.39450456 -28.41797705 14.93053571 -28 12 C-21.44675663 5.10184909 -9.7357831 -1.06047864 0 0 Z " fill="#FCB923" transform="translate(387,231)"/>
<path d="M0 0 C3.96148514 2.87927492 7.23162691 6.525272 10.64453125 10.015625 C15.6069855 14.87158881 21.01095769 19.32587434 26.6953125 23.31640625 C27.52675781 23.99509766 27.52675781 23.99509766 28.375 24.6875 C28.375 25.3475 28.375 26.0075 28.375 26.6875 C6.5698258 27.30077052 -15.5476148 23.82584912 -34.625 12.6875 C-27.16436839 4.72049068 -16.90826216 2.32954721 -6.625 -0.3125 C-5.8825 -0.54066406 -5.14 -0.76882813 -4.375 -1.00390625 C-2.625 -1.3125 -2.625 -1.3125 0 0 Z " fill="#FCD854" transform="translate(92.625,450.3125)"/>
<path d="M0 0 C4.76875144 1.19218786 9.3855486 2.81806744 14 4.5 C14.67321289 4.74411621 15.34642578 4.98823242 16.04003906 5.23974609 C20.37375702 6.89032923 24.10125254 8.73546397 27.75 11.625 C27.75 12.615 27.75 13.605 27.75 14.625 C7.88526105 24.51528316 -12.19786612 27.91473607 -34.25 27.625 C-30.56923871 23.89643661 -26.79310278 20.29694992 -22.9375 16.75 C-22.36717041 16.2240625 -21.79684082 15.698125 -21.20922852 15.15625 C-17.46496917 11.7135453 -13.69100014 8.3132496 -9.80078125 5.03515625 C-8.06475632 3.55090059 -8.06475632 3.55090059 -6.375 1.0625 C-3.76124426 -0.70562888 -3.05518028 -0.49227988 0 0 Z " fill="#FCD854" transform="translate(164.25,449.375)"/>
<path d="M0 0 C2.67592112 1.55376065 2.93799486 2.81811827 3.9375 5.75 C4.04019726 11.0902573 1.62482614 14.23373465 -1.83984375 18 C-4.93064507 20.94249032 -7.00340088 22.80834632 -11.25 23.625 C-14.40667169 22.90757462 -15.86358681 22.45291885 -18 20 C-19.02201927 16.32073064 -19.4485722 14.05546399 -17.9375 10.5 C-9.02595074 -0.99877324 -9.02595074 -0.99877324 0 0 Z " fill="#000000" transform="translate(284,251)"/>
<path d="M0 0 C5.70371683 1.98573845 10.90729755 5.58780813 13.859375 10.859375 C14.15437918 14.25192307 13.90917597 15.83904301 12.109375 18.734375 C9.30804236 21.06881887 7.92734446 21.80179007 4.265625 21.5 C-1.29434197 20.15129514 -6.92309243 16.77921228 -10.08203125 11.890625 C-11.17167516 8.7656085 -10.97859273 6.94271962 -9.703125 3.921875 C-6.74931305 0.35692955 -4.60580645 -0.82668321 0 0 Z " fill="#000000" transform="translate(474.890625,343.265625)"/>
<path d="M0 0 C0.71220703 -0.03738281 1.42441406 -0.07476562 2.15820312 -0.11328125 C6.18331272 -0.18030435 7.96121157 0.19718071 11.16015625 2.7109375 C13.1875 5.375 13.1875 5.375 13.8125 8.375 C12.95882379 12.47264579 11.45270514 13.78950818 8.1875 16.375 C5.2577022 16.85388066 3.02645587 17.03589951 0.125 16.9375 C-0.58205078 16.94845703 -1.28910156 16.95941406 -2.01757812 16.97070312 C-5.48147647 16.92191582 -7.46472974 16.63917164 -10.25 14.5234375 C-12.29129374 11.7166586 -12.74176825 9.84085593 -12.8125 6.375 C-9.83350197 -0.00856722 -6.54269966 0.12817399 0 0 Z " fill="#000000" transform="translate(319.8125,334.625)"/>
<path d="M0 0 C1.31613281 -0.02578125 2.63226563 -0.0515625 3.98828125 -0.078125 C7.8241309 0.26211932 9.6718701 0.91896901 12.6875 3.25 C14.13180855 6.13861709 14.06438506 8.04647701 13.6875 11.25 C10.90580823 14.91946574 9.43757772 16.12739846 4.83984375 16.87890625 C3.43472702 16.88285691 2.02931493 16.86012571 0.625 16.8125 C-0.08205078 16.82345703 -0.78910156 16.83441406 -1.51757812 16.84570312 C-4.98147647 16.79691582 -6.96472974 16.51417164 -9.75 14.3984375 C-11.79129374 11.5916586 -12.24176825 9.71585593 -12.3125 6.25 C-9.40331544 0.01603309 -6.39528057 0.0487724 0 0 Z " fill="#000000" transform="translate(438.3125,334.75)"/>
<path d="M0 0 C4.72778484 3.26369663 8.35935872 6.20010307 10.3125 11.6875 C9.92711613 15.77256903 9.04494968 17.27557134 6 20 C3.39325798 21.23096151 1.89748559 21.27265385 -0.8515625 20.4375 C-6.43597487 18.02261897 -10.91602726 14.28118015 -14 9 C-14.12522191 5.18073188 -13.88379197 3.20517087 -11.625 0.125 C-7.56972536 -2.68249783 -4.19609357 -2.01796866 0 0 Z " fill="#000000" transform="translate(285,323)"/>
<path d="M0 0 C3.45337781 2.53247706 4.78785721 4.13511017 5.8125 8.3125 C5.874375 9.529375 5.93625 10.74625 6 12 C6.03867187 12.68835938 6.07734375 13.37671875 6.1171875 14.0859375 C6.34681154 20.94914499 6.34681154 20.94914499 4 24 C1.43734514 25.92199114 0.16801051 26.01028636 -3.0625 25.8125 C-6.17979276 24.95027009 -7.23082452 24.65376321 -9 22 C-11.00447337 16.72507007 -11.70135315 11.58988932 -11 6 C-8.46060477 0.45950132 -6.0586608 -0.71278362 0 0 Z " fill="#000000" transform="translate(267,286)"/>
<path d="M0 0 C1.05477539 -0.04253906 1.05477539 -0.04253906 2.13085938 -0.0859375 C6.10552556 -0.10083784 7.8814089 0.35727162 11.03125 2.83984375 C13.0625 5.5 13.0625 5.5 13.625 8.5625 C12.94428485 12.11734581 11.86177541 13.277046 9.0625 15.5 C6.1211446 16.9706777 3.46022595 16.67048999 0.1875 16.6875 C-1.66488281 16.70876953 -1.66488281 16.70876953 -3.5546875 16.73046875 C-6.70168172 16.51606614 -8.35526576 16.22559806 -10.9375 14.5 C-13.0190902 11.82366974 -12.93337591 10.38246332 -12.8125 6.9375 C-11.9375 3.5 -11.9375 3.5 -10.37890625 1.81640625 C-6.97224082 -0.02046775 -3.77631563 -0.01376961 0 0 Z " fill="#000000" transform="translate(325.9375,462.5)"/>
<path d="M0 0 C1.54586876 3.09173752 1.29359521 5.59429552 1 9 C-1.23572867 12.0617368 -2.53359524 12.90327243 -6.27734375 13.6796875 C-8.08912109 13.77636719 -8.08912109 13.77636719 -9.9375 13.875 C-11.14277344 13.95492188 -12.34804688 14.03484375 -13.58984375 14.1171875 C-18.06981192 13.9632367 -20.81965453 13.18034547 -24 10 C-24.98070061 6.97617312 -25.11462421 5.37914161 -24.1875 2.3125 C-23 0 -23 0 -21 -2 C-13.69172437 -3.78250625 -6.46865417 -4.20462521 0 0 Z " fill="#000000" transform="translate(417,465)"/>
<path d="M0 0 C2.5625 2 2.5625 2 4 5 C3.89296221 11.42226717 2.53036215 19.12062238 -1.8125 24.0625 C-4.79742403 25.34175316 -6.78452351 25.46892366 -10 25 C-12.86801532 22.98463788 -13.82510812 21.66707393 -14.71484375 18.2734375 C-15.04627116 14.46883241 -14.40405858 11.8794306 -13.25 8.25 C-12.90453125 7.12078125 -12.5590625 5.9915625 -12.203125 4.828125 C-9.8902657 -0.60859621 -5.35511517 -1.02155812 0 0 Z " fill="#000000" transform="translate(508,411)"/>
<path d="M0 0 C4.54284288 0.79698998 5.80969012 1.95458683 8.5625 5.625 C11.34245266 10.86113574 12.34589168 15.74956239 11.5625 21.625 C8.98877616 24.65291041 7.41003406 25.48662709 3.5 26.125 C-0.32197513 25.47445104 -1.17743257 24.7890944 -3.4375 21.625 C-5.94315091 16.57913748 -8.50064548 11.33940697 -7.4375 5.625 C-5.35210259 1.78786876 -4.33645599 0.78844654 0 0 Z " fill="#000000" transform="translate(498.4375,371.375)"/>
<path d="M0 0 C0.72058594 -0.02900391 1.44117188 -0.05800781 2.18359375 -0.08789062 C5.69811053 -0.12996127 7.72360224 0.02063191 10.6015625 2.11328125 C12.82969009 5.32978339 12.67039618 7.49472674 12.125 11.3125 C10.25791495 13.67747439 8.80438569 14.97280715 6.125 16.3125 C3.65137238 16.46311901 1.22458185 16.54375317 -1.25 16.5625 C-1.92289062 16.583125 -2.59578125 16.60375 -3.2890625 16.625 C-6.37801056 16.64932243 -8.55001452 16.4881394 -11.2890625 15.0078125 C-13.84332856 12.27739016 -13.875 9.96921789 -13.875 6.3125 C-10.05453393 0.25245037 -6.74836892 0.08958012 0 0 Z " fill="#000000" transform="translate(311.875,237.6875)"/>
<path d="M0 0 C1.96066406 -0.04253906 1.96066406 -0.04253906 3.9609375 -0.0859375 C8.14550021 0.4404787 9.77959825 1.30325948 12.625 4.375 C13.2890625 6.375 13.2890625 6.375 13.25 8.375 C13.26289063 9.035 13.27578125 9.695 13.2890625 10.375 C12.21553791 13.60820347 10.50974644 14.6418717 7.625 16.375 C4.77136573 16.76900433 2.39780519 16.93737152 -0.4375 16.875 C-1.14455078 16.89046875 -1.85160156 16.9059375 -2.58007812 16.921875 C-6.07160091 16.8956476 -8.01680042 16.65111217 -10.8125 14.49609375 C-12.66978772 11.97482567 -13.29846913 10.51276556 -13.375 7.375 C-10.34167879 0.8533594 -6.8890177 0.06767208 0 0 Z " fill="#000000" transform="translate(286.375,462.625)"/>
<path d="M0 0 C1.21429688 -0.03738281 2.42859375 -0.07476562 3.6796875 -0.11328125 C7.71557027 0.38548431 9.28849423 1.46029402 12.125 4.3125 C13.58796477 7.78704134 13.23775119 9.03330658 11.8125 12.5625 C10.125 15.3125 10.125 15.3125 8.125 16.3125 C5.31809274 16.48974777 2.55869203 16.59000799 -0.25 16.625 C-1.01828125 16.65400391 -1.7865625 16.68300781 -2.578125 16.71289062 C-6.34064038 16.75520265 -8.25966416 16.75366613 -11.38671875 14.51171875 C-13.55012208 11.31487866 -13.34654881 9.08489048 -12.875 5.3125 C-9.87254008 -0.12052271 -5.7814152 0.11611722 0 0 Z " fill="#000000" transform="translate(246.875,462.6875)"/>
<path d="M0 0 C1.37109375 1.19140625 1.37109375 1.19140625 2.93359375 4.12890625 C2.93359375 7.78634493 2.74667844 10.068361 0.49609375 13.00390625 C-3.11765583 15.60580595 -6.63881147 15.42013892 -10.94140625 15.50390625 C-11.66199219 15.54128906 -12.38257813 15.57867187 -13.125 15.6171875 C-16.98402123 15.68114918 -18.68880429 15.47420944 -21.578125 12.83203125 C-23.60285361 9.15457142 -23.17372715 7.1152615 -22.06640625 3.12890625 C-17.74015355 -2.77052925 -6.21820373 -2.62128437 0 0 Z " fill="#000000" transform="translate(455.06640625,462.87109375)"/>
<path d="M0 0 C1.30066406 0.02191406 2.60132813 0.04382813 3.94140625 0.06640625 C7.06905749 0.39839158 8.86200401 0.71428167 11.4375 2.4375 C13.35949114 5.00015486 13.44778636 6.26948949 13.25 9.5 C12.42120706 12.49640525 11.86633312 13.59158683 9.4375 15.4375 C6.4504054 16.9310473 3.4001552 16.74381228 0.125 16.8125 C-1.84919922 16.88597656 -1.84919922 16.88597656 -3.86328125 16.9609375 C-8.4078602 16.31788198 -9.79424556 15.01994692 -12.5625 11.4375 C-13.1875 8.4375 -13.1875 8.4375 -12.5625 5.4375 C-8.72726811 0.50027331 -6.15568345 -0.18949969 0 0 Z " fill="#000000" transform="translate(359.5625,334.5625)"/>
<path d="M0 0 C0.75925781 -0.00708984 1.51851563 -0.01417969 2.30078125 -0.02148438 C5.59077448 0.01596739 8.05909672 0.19719727 10.97265625 1.78515625 C13.25292281 4.25204309 13.4336373 6.11936516 13.5 9.4375 C12.28872108 12.24256698 11.3382369 13.89930316 8.75390625 15.55859375 C3.11866315 17.75604557 -3.6371705 17.13211439 -9.1875 15.0625 C-11.5 13.4375 -11.5 13.4375 -12.5 11.4375 C-13.07013981 5.27999006 -13.07013981 5.27999006 -11.01171875 2.23828125 C-7.4685583 -0.30199397 -4.19163764 -0.11030625 0 0 Z " fill="#000000" transform="translate(365.5,462.5625)"/>
<path d="M0 0 C2.9236459 2.5488195 3.84909176 4.19515606 4.5625 8 C3.79860037 12.07413135 2.13526684 13.34183899 -1 16 C-1.94875 16.9075 -2.8975 17.815 -3.875 18.75 C-7.48891654 21.35201991 -9.55620881 22.0807962 -14 22 C-16.9375 20.5625 -16.9375 20.5625 -19 18 C-19.66954905 14.59645901 -19.94391787 13.18201244 -19 10 C-14.36873993 3.49817528 -8.20715206 -1.19376757 0 0 Z " fill="#000000" transform="translate(489,445)"/>
<path d="M0 0 C1.2890625 -0.0103125 2.578125 -0.020625 3.90625 -0.03125 C8.00908212 0.57525562 9.68863487 1.48706529 12.5 4.5 C13.1640625 6.5 13.1640625 6.5 13.125 8.5 C13.13789063 9.16 13.15078125 9.82 13.1640625 10.5 C12.09734645 13.71269775 10.35268625 14.76556676 7.5 16.5 C3.90625 17.03125 3.90625 17.03125 0 17 C-1.2890625 17.0103125 -2.578125 17.020625 -3.90625 17.03125 C-8.00908212 16.42474438 -9.68863487 15.51293471 -12.5 12.5 C-13.1640625 10.5 -13.1640625 10.5 -13.125 8.5 C-13.13789063 7.84 -13.15078125 7.18 -13.1640625 6.5 C-11.13013511 0.37428927 -5.6525857 -0.04522069 0 0 Z " fill="#000000" transform="translate(399.5,334.5)"/>
<path d="M0 0 C2.60546875 1.86328125 2.60546875 1.86328125 5.1875 4.3125 C6.04730469 5.11300781 6.90710938 5.91351563 7.79296875 6.73828125 C10 9 10 9 12 12 C6.08296418 12.20080438 0.98000551 11.56004578 -4.75 10.125 C-5.49121094 9.95097656 -6.23242188 9.77695313 -6.99609375 9.59765625 C-10.54653912 8.73713538 -13.8320203 7.85076709 -17 6 C-14.75160044 3.44369859 -12.85356692 2.35379547 -9.625 1.3125 C-8.87476563 1.06113281 -8.12453125 0.80976563 -7.3515625 0.55078125 C-4.66807996 -0.07774207 -2.74447435 -0.38058966 0 0 Z " fill="#F8D351" transform="translate(387,231)"/>
<path d="M0 0 C9.53303846 2.58523077 9.53303846 2.58523077 12.6875 4 C13.0175 4.66 13.3475 5.32 13.6875 6 C4.64402897 9.33180512 -5.59382616 12.38948884 -15.3125 12 C-5.56033862 0 -5.56033862 0 0 0 Z " fill="#FAD653" transform="translate(443.3125,231)"/>
</svg>
