<?xml version="1.0" encoding="UTF-8"?>
<svg version="1.1" xmlns="http://www.w3.org/2000/svg" width="512" height="512">
<path d="M0 0 C3.83245809 2.38505869 6.9354964 5.48729716 10.13842773 8.64331055 C11.47046036 9.93241634 12.80379252 11.2201807 14.13842773 12.5065918 C14.79633301 13.14274414 15.45423828 13.77889648 16.13208008 14.43432617 C18.76895296 16.92680957 21.49802881 19.30180088 24.2409668 21.67626953 C27.05280568 24.12812647 29.78326263 26.66381472 32.51342773 29.20581055 C36.36366129 32.77594628 40.22722248 36.32728792 44.13842773 39.83081055 C48.00505341 43.29570888 51.82856559 46.80385623 55.63842773 50.33081055 C60.26192875 54.61058678 64.91935161 58.8483971 69.61108398 63.0534668 C72.46924977 65.6289083 75.30553035 68.22766818 78.13842773 70.83081055 C82.58769429 74.91877267 87.06629859 78.97223416 91.56420898 83.0065918 C95.46333475 86.52704677 99.32191143 90.0912093 103.18139648 93.6550293 C106.44555635 96.60872745 109.79605354 99.46591838 113.13842773 102.33081055 C113.46842773 90.12081055 113.79842773 77.91081055 114.13842773 65.33081055 C111.49842773 65.33081055 108.85842773 65.33081055 106.13842773 65.33081055 C103.30988899 64.06950769 102.30297679 62.70653512 100.13842773 60.33081055 C98.710575 55.12657807 98.9167343 49.81282756 98.88842773 44.45581055 C98.85749023 43.00368164 98.85749023 43.00368164 98.82592773 41.5222168 C98.79411713 35.6770175 99.21875656 31.44705676 102.13842773 26.33081055 C105.89167652 23.82864469 108.85426887 24.02813757 113.20239258 24.02441406 C114.43458275 24.01192879 114.43458275 24.01192879 115.69166565 23.99919128 C118.41094687 23.97506892 121.12998832 23.96631652 123.84936523 23.9597168 C125.73882114 23.95075222 127.6282763 23.9416304 129.51773071 23.93235779 C133.48050665 23.9158592 137.44319802 23.90816609 141.40600586 23.90527344 C146.48278918 23.89988849 151.55877723 23.86220768 156.63533592 23.81652927 C160.53871561 23.78678021 164.4419033 23.77955035 168.34538651 23.77854729 C170.21690132 23.77434076 172.0884165 23.76188911 173.95981979 23.74102974 C176.57903182 23.7141592 179.19639414 23.7189271 181.81567383 23.73144531 C182.97385872 23.70919388 182.97385872 23.70919388 184.15544128 23.68649292 C188.13143397 23.74057952 189.94758823 24.18159275 193.11717224 26.65989685 C195.71180177 30.08847457 195.79630628 32.15181495 195.83764648 36.42456055 C195.84837944 37.42827698 195.84837944 37.42827698 195.85932922 38.45227051 C195.86708084 39.86082637 195.86214751 41.2695031 195.84521484 42.67797852 C195.82596823 44.82629021 195.86540138 46.96813962 195.90991211 49.1159668 C195.97430023 58.75305034 195.97430023 58.75305034 194.03540039 62.4128418 C191.9679764 64.40385032 189.90483025 65.27591266 187.05082703 65.48034668 C185.08002726 65.4305013 183.1092275 65.38065592 181.13842773 65.33081055 C180.96743783 78.16206144 180.86731845 90.99176469 180.85602093 103.82420731 C180.84858218 109.78403012 180.81734525 115.74169151 180.73046875 121.70092773 C180.64741459 127.45945501 180.62851079 133.21504367 180.65284157 138.97408295 C180.65105866 141.16367975 180.62671116 143.35338558 180.57874107 145.54245758 C179.92572435 158.13994299 179.92572435 158.13994299 184.90615845 169.21618652 C187.52614377 171.8419425 190.36260833 174.01300164 193.42341042 176.09732819 C196.37813821 178.22244061 198.94862064 180.75877997 201.57592773 183.26831055 C204.4507632 185.91923672 207.33950159 188.51204668 210.36889648 190.9831543 C214.19953195 194.23027971 215.79851788 196.86835252 216.48999023 201.87768555 C216.79304104 207.65160098 216.19716622 211.94406929 212.75170898 216.6706543 C208.93844925 220.59471093 204.52693233 222.50421149 199.07592773 222.76831055 C191.54020735 221.93100828 188.02178024 219.2336043 182.13842773 214.33081055 C181.80842773 281.98081055 181.47842773 349.63081055 181.13842773 419.33081055 C185.75842773 419.33081055 190.37842773 419.33081055 195.13842773 419.33081055 C203.15976235 420.16419596 207.86365466 423.18750054 213.13842773 429.33081055 C216.09525062 434.04449007 216.49681373 437.62104385 216.38842773 443.14331055 C216.38327148 443.82329102 216.37811523 444.50327148 216.37280273 445.20385742 C216.29349042 450.17574786 216.29349042 450.17574786 215.13842773 451.33081055 C213.74857873 451.42908513 212.35376873 451.45820002 210.96045017 451.459445 C210.05400967 451.46266945 209.14756917 451.46589389 208.21366078 451.46921605 C207.2062913 451.46766745 206.19892182 451.46611884 205.161026 451.46452332 C204.09985909 451.46678887 203.03869219 451.46905443 201.94536871 451.47138864 C198.36005271 451.47776072 194.77477419 451.47689723 191.18945312 451.47607422 C188.63100637 451.4790637 186.07256008 451.48246574 183.51411438 451.48625183 C177.26843882 451.49419489 171.02277719 451.4973074 164.77709705 451.49786421 C159.70276525 451.4983386 154.62843657 451.50038948 149.55410576 451.50356483 C135.18238626 451.51237581 120.81067425 451.51698351 106.43895204 451.51623436 C105.66342404 451.5161944 104.88789604 451.51615445 104.08886719 451.51611328 C103.31239747 451.5160724 102.53592775 451.51603152 101.73592865 451.5159894 C89.1470035 451.51558279 76.55810824 451.52515481 63.96919174 451.53925165 C51.0576266 451.55359624 38.14607605 451.56052289 25.23450273 451.55965787 C17.97974317 451.55932524 10.72501494 451.56210122 3.47026253 451.57283592 C-3.34960677 451.58286208 -10.1693987 451.58262525 -16.98927498 451.57531929 C-19.49918845 451.57426819 -22.00910596 451.57666717 -24.51901245 451.58267975 C-27.93181692 451.59032876 -31.34438791 451.58580226 -34.75718689 451.57804871 C-36.26489502 451.58576405 -36.26489502 451.58576405 -37.8030619 451.59363526 C-38.71211015 451.58903647 -39.6211584 451.58443767 -40.55775356 451.57969952 C-41.74052872 451.58002557 -41.74052872 451.58002557 -42.94719833 451.58035821 C-44.86157227 451.33081055 -44.86157227 451.33081055 -46.86157227 449.33081055 C-49.7424515 449.01882516 -49.7424515 449.01882516 -53.11157227 449.06518555 C-54.35938477 449.06260742 -55.60719727 449.0600293 -56.89282227 449.05737305 C-58.20250977 449.06510742 -59.51219727 449.0728418 -60.86157227 449.08081055 C-62.17125977 449.07307617 -63.48094727 449.0653418 -64.83032227 449.05737305 C-66.07813477 449.05995117 -67.32594727 449.0625293 -68.61157227 449.06518555 C-70.33633789 449.06856934 -70.33633789 449.06856934 -72.09594727 449.07202148 C-75.00357058 449.04737378 -75.00357058 449.04737378 -76.86157227 451.33081055 C-79.57241917 451.57969952 -79.57241917 451.57969952 -83.09364319 451.57804871 C-83.73984775 451.58046312 -84.3860523 451.58287754 -85.05183882 451.58536512 C-87.22688067 451.59102111 -89.40163129 451.58232494 -91.57666016 451.57373047 C-93.13196391 451.57480287 -94.68726727 451.57674093 -96.24256897 451.57948303 C-100.47382696 451.58434081 -104.70497989 451.57666442 -108.93622518 451.56652999 C-113.35603678 451.557766 -117.77584493 451.5595066 -122.19566345 451.55989075 C-129.6179277 451.55895344 -137.04015114 451.55026002 -144.46240234 451.53662109 C-153.05570187 451.52088909 -161.64895669 451.51562315 -170.24226958 451.51635665 C-178.49479105 451.51696603 -186.7472979 451.51186914 -194.99981499 451.50356483 C-198.51855013 451.50002535 -202.03728009 451.49820064 -205.55601692 451.49767113 C-209.69523581 451.4966699 -213.83441686 451.49059146 -217.97362328 451.48050499 C-219.49706923 451.47757307 -221.02051954 451.47635601 -222.5439682 451.47693253 C-224.61484797 451.47741983 -226.68562014 451.47180122 -228.75648499 451.46452332 C-230.49892534 451.46200955 -230.49892534 451.46200955 -232.27656651 451.459445 C-234.86157227 451.33081055 -234.86157227 451.33081055 -235.86157227 450.33081055 C-237.20217249 435.14372512 -237.20217249 435.14372512 -232.40454102 428.9753418 C-231.89536133 428.43264648 -231.38618164 427.88995117 -230.86157227 427.33081055 C-230.34208008 426.75717773 -229.82258789 426.18354492 -229.28735352 425.5925293 C-221.20406469 417.69766212 -211.92971466 419.33081055 -200.86157227 419.33081055 C-201.19157227 351.68081055 -201.52157227 284.03081055 -201.86157227 214.33081055 C-204.83157227 216.64081055 -207.80157227 218.95081055 -210.86157227 221.33081055 C-216.33735889 223.15607276 -221.76897574 223.13208078 -227.11157227 220.83081055 C-231.52610561 218.2968684 -234.12201337 215.1106077 -235.86157227 210.33081055 C-236.81829328 204.94337339 -236.68948354 200.05174433 -233.98657227 195.20581055 C-230.35230252 190.18705709 -225.53002428 186.3481535 -220.86157227 182.33081055 C-218.89634777 180.54593054 -216.93776803 178.75581485 -214.98657227 176.95581055 C-213.9711059 176.0233461 -212.95547965 175.09105573 -211.93969727 174.15893555 C-210.91360284 173.21628464 -209.88756131 172.27357615 -208.86157227 171.33081055 C-202.41060419 165.40311491 -195.9443851 159.49487335 -189.42407227 153.64331055 C-186.55556818 151.05466051 -183.70680576 148.44495909 -180.86157227 145.83081055 C-176.4082174 141.73914948 -171.92497372 137.68258109 -167.42407227 133.64331055 C-164.55556818 131.05466051 -161.70680576 128.44495909 -158.86157227 125.83081055 C-155.21227702 122.47790476 -151.54987658 119.14082724 -147.86157227 115.83081055 C-142.15495532 110.7076177 -136.50841873 105.51961116 -130.86157227 100.33081055 C-117.64349634 88.18492329 -117.64349634 88.18492329 -111.31079102 82.5456543 C-109.58065524 80.98108175 -107.87718498 79.38677881 -106.19360352 77.7722168 C-105.3209082 76.94592773 -104.44821289 76.11963867 -103.54907227 75.26831055 C-102.37924805 74.1371582 -102.37924805 74.1371582 -101.18579102 72.9831543 C-98.86157227 71.33081055 -98.86157227 71.33081055 -96.33813477 71.33862305 C-93.72265914 71.58556924 -93.72265914 71.58556924 -91.68579102 69.6081543 C-90.98067383 68.83600586 -90.27555664 68.06385742 -89.54907227 67.26831055 C-86.65025972 64.19556925 -83.75555384 61.27014175 -80.54907227 58.51831055 C-79.90196289 57.95885742 -79.25485352 57.3994043 -78.58813477 56.82299805 C-78.01836914 56.33057617 -77.44860352 55.8381543 -76.86157227 55.33081055 C-73.88155697 52.89099579 -73.88155697 52.89099579 -72.54907227 49.51831055 C-71.5589135 46.36780537 -69.65661243 44.80386475 -67.29907227 42.51831055 C-65.93008789 41.18993164 -65.93008789 41.18993164 -64.53344727 39.8347168 C-61.78016304 37.25451916 -58.98074972 34.75385346 -56.11547852 32.29956055 C-53.18636038 29.74102408 -50.33801876 27.10029058 -47.48657227 24.45581055 C-42.78217757 20.09671113 -38.05597656 15.76614408 -33.26782227 11.4987793 C-31.58241067 9.98026723 -29.9172533 8.43911176 -28.26782227 6.8815918 C-19.53324237 -1.28734512 -11.46468854 -5.97736165 0 0 Z " fill="#3E352D" transform="translate(265.861572265625,31.669189453125)"/>
<path d="M0 0 C3.39344442 1.48848812 5.78229967 3.4326862 8.5 5.9375 C9.3765625 6.74058594 10.253125 7.54367188 11.15625 8.37109375 C12.0946875 9.23863281 13.033125 10.10617188 14 11 C15.49184018 12.36966361 16.98516643 13.73769491 18.47851562 15.10571289 C19.49858821 16.04050663 20.51811373 16.97589767 21.53710938 17.91186523 C24.67502382 20.79314167 27.8294832 23.65466441 31 26.5 C35.20684327 30.27537217 39.37674853 34.08980448 43.5390625 37.9140625 C46.67667086 40.79422607 49.83020941 43.65531614 53 46.5 C57.20761261 50.2760626 61.37842372 54.09104007 65.54125977 57.91625977 C68.65633125 60.77602204 71.78851675 63.61515359 74.9375 66.4375 C79.3920991 70.43448378 83.78918479 74.49074409 88.18115234 78.55615234 C92.24611811 82.3147798 96.34984906 86.02749843 100.47265625 89.72265625 C103.33082203 92.29809775 106.16710261 94.89685764 109 97.5 C112.64927171 100.85293117 116.31169598 104.18998357 120 107.5 C124.20684327 111.27537217 128.37674853 115.08980448 132.5390625 118.9140625 C135.67667086 121.79422607 138.83020941 124.65531614 142 127.5 C148.22569011 133.08919783 154.38053078 138.75524058 160.54101562 144.41601562 C165.82625471 149.27145128 171.11660662 154.12110614 176.4375 158.9375 C177.19933594 159.62714844 177.96117187 160.31679687 178.74609375 161.02734375 C180.95559097 163.0750619 180.95559097 163.0750619 183.6032896 164.58308792 C186.43335444 167.43700716 186.59354777 169.20073716 186.64540654 173.14354491 C186.63084234 173.96844743 186.61627813 174.79334995 186.60127258 175.64324951 C186.60554471 176.52463097 186.60981683 177.40601243 186.61421841 178.31410241 C186.62246747 181.2733919 186.59493178 184.23127036 186.56762695 187.19042969 C186.5662169 189.30921902 186.56700763 191.4280108 186.56983948 193.54679871 C186.57127668 199.30485579 186.54183714 205.06239428 186.50696969 210.82033062 C186.47575717 216.83545505 186.47277947 222.85059078 186.46684265 228.86578369 C186.45128923 240.25908208 186.4102403 251.65214118 186.3600952 263.0453341 C186.3042485 276.01491658 186.27672696 288.98451036 186.25161803 301.9541831 C186.19932591 328.63625934 186.11034965 355.31810619 186 382 C178.74 382 171.48 382 164 382 C164 362.53 164 343.06 164 323 C168.62 322.67 173.24 322.34 178 322 C178 314.74 178 307.48 178 300 C173.05 299.67 168.1 299.34 163 299 C162.98582031 297.23914063 162.97164063 295.47828125 162.95703125 293.6640625 C162.91010366 291.31768301 162.86185645 288.97132965 162.8125 286.625 C162.80669922 285.46871094 162.80089844 284.31242187 162.79492188 283.12109375 C162.55609866 273.72738069 160.60642113 266.22279971 153.6875 259.5625 C147.56046242 254.39232975 140.18128783 253.53142921 132.5 253.3125 C131.67757813 253.27833984 130.85515625 253.24417969 130.0078125 253.20898438 C128.0056545 253.1275012 126.00285432 253.06205425 124 253 C123.72265625 250.28125 123.72265625 250.28125 124 247 C125.87109375 244.71875 125.87109375 244.71875 128.4375 242.5 C137.58407237 233.85797688 143.22325885 223.68582495 147.3203125 211.86328125 C149.55660518 208.05118233 151.91510682 207.43899646 156 206 C159.12730962 203.18542135 159.55973814 200.09553479 160.1796875 196.09765625 C160.16292568 193.85479872 160.16292568 193.85479872 158.51171875 191.85546875 C156.29797665 187.67395589 156.75532563 183.89716496 156.9375 179.25 C157.43835125 165.0982881 154.10085494 153.63087352 144.75 142.625 C136.38407944 133.89534376 125.02457351 128.42226138 113 127 C108.9652869 126.94883024 104.93242498 127.07206193 100.90039062 127.21484375 C95.95387297 127.30100637 93.13548681 126.97635398 89 124 C82.90565489 121.84683262 74.53674042 121.85894155 68.4453125 123.82421875 C66.109716 124.9696681 66.109716 124.9696681 63 127 C62.31164062 127.29132813 61.62328125 127.58265625 60.9140625 127.8828125 C58.52756998 129.27574487 58.06285578 130.4886505 57 133 C56.29875 134.11375 55.5975 135.2275 54.875 136.375 C51.65099002 142.82301995 51.95985997 150.75798315 53.6484375 157.64453125 C54.85877494 161.09242649 54.85877494 161.09242649 57 164 C57.25384564 168.09779385 57.18523095 172.20777951 57.1875 176.3125 C57.19974609 177.46685547 57.21199219 178.62121094 57.22460938 179.81054688 C57.22654297 180.92107422 57.22847656 182.03160156 57.23046875 183.17578125 C57.23457764 184.19583252 57.23868652 185.21588379 57.24291992 186.2668457 C56.99461197 189.06062211 56.3250373 190.57466557 55 193 C54.53909935 197.14810581 54.74487066 199.46933096 56.5625 203.25 C58.81227418 206.25226843 58.81227418 206.25226843 62.3828125 207.1171875 C66.54219964 208.80583915 67.60652845 211.35851282 69.30737305 215.36083984 C69.63906494 216.1905127 69.97075684 217.02018555 70.3125 217.875 C74.53748915 227.57709974 79.5199869 237.07623908 88.30078125 243.4140625 C91 246 91 246 91.375 249.8125 C91.25125 250.864375 91.1275 251.91625 91 253 C89.74445313 253.01417969 88.48890625 253.02835938 87.1953125 253.04296875 C75.52716908 253.31451064 66.56886781 253.96300975 58.0625 262.75 C51.92292661 269.68907557 51.51700172 278.73386855 51.3125 287.5625 C51.27833984 288.57119141 51.24417969 289.57988281 51.20898438 290.61914062 C51.12736719 293.07931568 51.05794324 295.53917309 51 298 C50.01 298 49.02 298 48 298 C47.99589111 297.44650879 47.99178223 296.89301758 47.98754883 296.32275391 C48.2000943 280.02052589 48.2000943 280.02052589 40.359375 266.37109375 C32.9737522 260.53245951 24.0289132 260.5159379 15 260 C15 259.01 15 258.02 15 257 C15.7520874 256.97494385 16.5041748 256.9498877 17.27905273 256.92407227 C20.66539196 256.80849486 24.05142613 256.68559655 27.4375 256.5625 C28.62150391 256.52318359 29.80550781 256.48386719 31.02539062 256.44335938 C32.15009766 256.40146484 33.27480469 256.35957031 34.43359375 256.31640625 C35.47572021 256.27974854 36.51784668 256.24309082 37.59155273 256.20532227 C39.9499826 256.26484659 39.9499826 256.26484659 41 255 C41.12293098 252.61217036 41.18605024 250.24875818 41.2109375 247.859375 C41.23901991 246.3814996 41.26768445 244.90363517 41.296875 243.42578125 C41.33805129 241.09098781 41.37492758 238.75639608 41.40136719 236.42138672 C41.42907165 234.17111544 41.47495704 231.92178201 41.5234375 229.671875 C41.52669037 228.97898376 41.52994324 228.28609253 41.53329468 227.57220459 C41.64433686 223.16791377 42.5636675 220.62375513 45 217 C45.41291057 212.87089433 45.33909307 211.5086396 43 208 C42.95934392 205.14245852 43.01078388 202.3507529 43.125 199.5 C43.34102594 187.20604907 39.66855177 177.72559919 32 168 C22.30330527 158.44512165 11.58144415 155.6661222 -1.57568359 155.61499023 C-12.75627202 155.8112712 -22.05024924 160.1112838 -30 168 C-38.65231227 178.47385169 -41.24405512 187.62617392 -40.87304688 200.9375 C-40.78739677 206.68109516 -40.78739677 206.68109516 -43 210 C-43.36632968 214.04365138 -43.36632968 214.04365138 -43 218 C-42.50733643 218.54575684 -42.01467285 219.09151367 -41.50708008 219.65380859 C-39.43635 222.87747878 -39.5407405 225.86106544 -39.5234375 229.57421875 C-39.50006821 230.66087578 -39.50006821 230.66087578 -39.47622681 231.76948547 C-39.42881834 234.07548004 -39.40097053 236.38117286 -39.375 238.6875 C-39.33853341 241.004328 -39.29797733 243.32098394 -39.25234985 245.63764954 C-39.22507725 247.07764102 -39.20374593 248.51775922 -39.18881226 249.95793152 C-39.42028666 253.26258401 -39.42028666 253.26258401 -38 256 C-36.14825294 256.15786308 -34.2909089 256.25107356 -32.43359375 256.31640625 C-31.30888672 256.35830078 -30.18417969 256.40019531 -29.02539062 256.44335938 C-27.24938477 256.50233398 -27.24938477 256.50233398 -25.4375 256.5625 C-24.24962891 256.60568359 -23.06175781 256.64886719 -21.83789062 256.69335938 C-18.89205216 256.79983546 -15.9461257 256.90184841 -13 257 C-13 257.99 -13 258.98 -13 260 C-13.89460937 260.02578125 -14.78921875 260.0515625 -15.7109375 260.078125 C-24.97785022 260.51282027 -33.7874376 261.12841728 -40.4375 268.25 C-45.57008893 274.43974904 -46.46756273 281.7833437 -46.6875 289.5 C-46.72166016 290.32242187 -46.75582031 291.14484375 -46.79101562 291.9921875 C-46.8724988 293.9943455 -46.93794575 295.99714568 -47 298 C-47.66 298 -48.32 298 -49 298 C-49.02187378 297.07102905 -49.02187378 297.07102905 -49.04418945 296.12329102 C-49.11947417 293.26912227 -49.21586314 290.41602251 -49.3125 287.5625 C-49.33505859 286.58861328 -49.35761719 285.61472656 -49.38085938 284.61132812 C-49.75034564 274.56801978 -51.68801135 267.2663052 -58.80078125 259.94921875 C-67.37201933 252.352331 -78.11944792 253.22137441 -89 253 C-89.1796875 250.15625 -89.1796875 250.15625 -89 247 C-87.43084792 245.63551993 -85.8472259 244.28489445 -84.203125 243.01171875 C-75.26277698 234.84810309 -69.97083191 223.56211758 -65.625 212.5 C-63.38691769 209.05679644 -60.75580507 208.47549485 -57 207 C-54.73089577 205.09688032 -54.12415897 203.82720913 -53.6875 200.91796875 C-53.46792868 196.78042166 -53.63779878 194.57952195 -55.875 191 C-57.83637134 188.96208604 -57.83637134 188.96208604 -60 188 C-60.1826859 186.06832125 -60.26877959 184.12730552 -60.3125 182.1875 C-60.84843165 173.62199589 -63.38506868 166.03880377 -68.8125 159.3125 C-71.09282587 155.85943512 -71.21291238 155.43487125 -70.9375 151.625 C-70.68044379 146.74922406 -72.1693211 143.98536279 -75.0625 140.12109375 C-80.65198931 134.00195525 -87.97913553 130.32958437 -95.25 126.5625 C-95.92337402 126.20792725 -96.59674805 125.85335449 -97.29052734 125.48803711 C-101.33938019 123.47061735 -104.39542014 122.28201783 -109 123 C-111.88264905 124.10714197 -114.54946113 125.50831976 -117.25 127 C-117.99854248 127.40718262 -118.74708496 127.81436523 -119.51831055 128.23388672 C-127.77209735 132.83131644 -136.56563685 137.78966247 -140 147 C-140.01091092 148.79211788 -139.96461992 150.58509111 -139.875 152.375 C-139.63968148 157.92396248 -141.20488011 160.54147911 -144.46875 164.8984375 C-148.23294899 170.06460856 -149.0771157 174.94860143 -149.375 181.25 C-149.6961065 186.68831436 -149.6961065 186.68831436 -152.4375 189.5 C-153.283125 189.995 -154.12875 190.49 -155 191 C-157.38715449 194.72492228 -157.20044084 197.55669966 -156.60546875 201.8125 C-155.64660274 205.2767901 -153.82454697 206.88158977 -151 209 C-150.19691406 209.20882812 -149.39382812 209.41765625 -148.56640625 209.6328125 C-144.64901585 211.71970236 -143.8256907 214.95360148 -142.1875 218.9375 C-137.63802814 229.248553 -132.10009826 237.66433899 -123.46875 245.05078125 C-121.44704675 247.73383955 -121.74174321 249.73028457 -122 253 C-123.25554687 253.01417969 -124.51109375 253.02835938 -125.8046875 253.04296875 C-137.47283092 253.31451064 -146.43113219 253.96300975 -154.9375 262.75 C-161.07707339 269.68907557 -161.48299828 278.73386855 -161.6875 287.5625 C-161.72166016 288.57119141 -161.75582031 289.57988281 -161.79101562 290.61914062 C-161.87263281 293.07931568 -161.94205676 295.53917309 -162 298 C-162.92683594 298.06058594 -163.85367188 298.12117188 -164.80859375 298.18359375 C-166.60490234 298.30927734 -166.60490234 298.30927734 -168.4375 298.4375 C-169.63246094 298.51871094 -170.82742187 298.59992188 -172.05859375 298.68359375 C-174.88570244 298.67656114 -174.88570244 298.67656114 -176 300 C-176.0991657 301.62257544 -176.13079777 303.24939831 -176.1328125 304.875 C-176.13410156 305.85984375 -176.13539063 306.8446875 -176.13671875 307.859375 C-176.13285156 308.89578125 -176.12898438 309.9321875 -176.125 311 C-176.12886719 312.03640625 -176.13273437 313.0728125 -176.13671875 314.140625 C-176.13542969 315.12546875 -176.13414062 316.1103125 -176.1328125 317.125 C-176.13112061 318.49011719 -176.13112061 318.49011719 -176.12939453 319.8828125 C-176.23560009 321.9852848 -176.23560009 321.9852848 -175 323 C-170.71 323.33 -166.42 323.66 -162 324 C-162 343.14 -162 362.28 -162 382 C-169.26 382 -176.52 382 -184 382 C-184.1851555 354.08849024 -184.32793782 326.17712829 -184.41449738 298.26512814 C-184.45575603 285.30520159 -184.51201047 272.34566353 -184.60351562 259.38598633 C-184.68322959 248.09088988 -184.73486027 236.79607475 -184.75270796 225.50070482 C-184.76314167 219.51919359 -184.78767752 213.53848719 -184.84584045 207.55723381 C-184.90014436 201.92721084 -184.91689193 196.29832411 -184.90486145 190.66806412 C-184.90706224 188.60203056 -184.92297534 186.535959 -184.9536438 184.4701519 C-185.17425845 168.84307577 -185.17425845 168.84307577 -182.27302551 164.2894001 C-180.25605387 162.49984771 -178.36205192 161.27699364 -176 160 C-174.88201808 159.03278022 -173.78565478 158.03918112 -172.7265625 157.0078125 C-172.21730225 156.53529053 -171.70804199 156.06276855 -171.18334961 155.57592773 C-170.66909424 155.09712158 -170.15483887 154.61831543 -169.625 154.125 C-164.9589728 149.79885974 -160.25716759 145.5173312 -155.51953125 141.26953125 C-150.64789755 136.88128446 -145.82787676 132.43626191 -141 128 C-134.54903192 122.07230436 -128.08281284 116.1640628 -121.5625 110.3125 C-118.69399591 107.72384997 -115.8452335 105.11414854 -113 102.5 C-108.54664513 98.40833893 -104.06340146 94.35177054 -99.5625 90.3125 C-96.69399591 87.72384997 -93.8452335 85.11414854 -91 82.5 C-87.35070475 79.14709421 -83.68830432 75.81001669 -80 72.5 C-74.29338306 67.37680716 -68.64684646 62.18880061 -63 57 C-56.54903192 51.07230436 -50.08281284 45.1640628 -43.5625 39.3125 C-40.69399591 36.72384997 -37.8452335 34.11414854 -35 31.5 C-30.55070476 27.41206884 -26.0721295 23.3585767 -21.57421875 19.32421875 C-18.63660966 16.67190099 -15.72427718 13.9930904 -12.8125 11.3125 C-8.61510789 7.4506591 -4.36560782 3.6710793 0 0 Z " fill="#FBE7CA" transform="translate(255,70)"/>
<path d="M0 0 C103.62 0 207.24 0 314 0 C314 19.14 314 38.28 314 58 C210.38 58 106.76 58 0 58 C0 38.86 0 19.72 0 0 Z " fill="#86786E" transform="translate(99,394)"/>
<path d="M0 0 C4.51099701 2.2554985 7.69911542 5.58561023 11.171875 9.1640625 C12.92861228 10.9283072 14.73906855 12.56306325 16.625 14.1875 C20.28143897 17.34082431 23.83484201 20.59272752 27.375 23.875 C32.03926296 28.19764932 36.73694285 32.47816757 41.47265625 36.72265625 C44.33082203 39.29809775 47.16710261 41.89685764 50 44.5 C53.64927171 47.85293117 57.31169598 51.18998357 61 54.5 C67.22569011 60.08919783 73.38053078 65.75524058 79.54101562 71.41601562 C85.47889501 76.87101791 91.43642391 82.30191889 97.4375 87.6875 C100.82321544 90.74290174 104.1808191 93.82856984 107.5390625 96.9140625 C110.67667086 99.79422607 113.83020941 102.65531614 117 105.5 C121.20684327 109.27537217 125.37674853 113.08980448 129.5390625 116.9140625 C132.67667086 119.79422607 135.83020941 122.65531614 139 125.5 C145.22569011 131.08919783 151.38053078 136.75524058 157.54101562 142.41601562 C163.47889501 147.87101791 169.43642391 153.30191889 175.4375 158.6875 C178.82321544 161.74290174 182.1808191 164.82856984 185.5390625 167.9140625 C188.67667086 170.79422607 191.83020941 173.65531614 195 176.5 C196.66693488 177.99970193 198.33358369 179.49972187 200 181 C200.5062793 181.45439453 201.01255859 181.90878906 201.53417969 182.37695312 C203.15134776 183.83074124 204.76355474 185.28987338 206.375 186.75 C207.84066406 188.07257813 207.84066406 188.07257813 209.3359375 189.421875 C215.76992605 195.64831553 215.76992605 195.64831553 216.5 199.9375 C215.86891522 203.80289428 214.42365412 205.95312053 212 209 C208.46574469 211.35617021 206.54427397 211.60719094 202.390625 211.5 C197.82571006 210.54524655 195.17492822 207.22258193 192 204 C190.42466615 202.57444322 188.84087576 201.15819146 187.25 199.75 C180.95056685 194.06702514 174.70605957 188.32432597 168.45898438 182.58398438 C162.52110499 177.12898209 156.56357609 171.69808111 150.5625 166.3125 C147.17678456 163.25709826 143.8191809 160.17143016 140.4609375 157.0859375 C137.32332914 154.20577393 134.16979059 151.34468386 131 148.5 C124.77430989 142.91080217 118.61946922 137.24475942 112.45898438 131.58398438 C106.52110499 126.12898209 100.56357609 120.69808111 94.5625 115.3125 C91.17678456 112.25709826 87.8191809 109.17143016 84.4609375 106.0859375 C81.32332914 103.20577393 78.16979059 100.34468386 75 97.5 C70.79315673 93.72462783 66.62325147 89.91019552 62.4609375 86.0859375 C59.32332914 83.20577393 56.16979059 80.34468386 53 77.5 C46.77430989 71.91080217 40.61946922 66.24475942 34.45898438 60.58398438 C28.52923555 55.13645146 22.58177845 49.71084994 16.5859375 44.3359375 C14.66490315 42.60062249 12.75418359 40.85685419 10.8515625 39.1015625 C10.0471875 38.3600293 10.0471875 38.3600293 9.2265625 37.60351562 C8.18599978 36.64289858 7.14685417 35.68074338 6.109375 34.71679688 C4.7521479 33.46411294 3.37664632 32.23131123 2 31 C1.32710937 30.37867187 0.65421875 29.75734375 -0.0390625 29.1171875 C-1.9810989 27.78583387 -1.9810989 27.78583387 -4.46484375 28.0703125 C-7.52640984 29.19304398 -9.20034432 30.62875382 -11.5625 32.875 C-12.43003906 33.68710938 -13.29757813 34.49921875 -14.19140625 35.3359375 C-15.11824219 36.21507812 -16.04507813 37.09421875 -17 38 C-18.99289221 39.84112223 -20.99695038 41.66994249 -23 43.5 C-24.0209108 44.43741564 -25.04174475 45.37491498 -26.0625 46.3125 C-29.50174774 49.45904581 -32.9682804 52.5740978 -36.4375 55.6875 C-39.30600409 58.27615003 -42.1547665 60.88585146 -45 63.5 C-48.64929525 66.85290579 -52.31169568 70.18998331 -56 73.5 C-61.70661694 78.62319284 -67.35315354 83.81119939 -73 89 C-79.45096808 94.92769564 -85.91718716 100.8359372 -92.4375 106.6875 C-95.30600409 109.27615003 -98.1547665 111.88585146 -101 114.5 C-105.45335487 118.59166107 -109.93659854 122.64822946 -114.4375 126.6875 C-117.30600409 129.27615003 -120.1547665 131.88585146 -123 134.5 C-126.64929525 137.85290579 -130.31169568 141.18998331 -134 144.5 C-139.70661694 149.62319284 -145.35315354 154.81119939 -151 160 C-157.45096808 165.92769564 -163.91718716 171.8359372 -170.4375 177.6875 C-173.30600427 180.27615019 -176.15474816 182.88587127 -179 185.5 C-183.46576223 189.60254218 -187.95684182 193.67525693 -192.47265625 197.72265625 C-194.3219339 199.3890069 -196.16257462 201.0625845 -197.99609375 202.74609375 C-198.74717407 203.43433228 -198.74717407 203.43433228 -199.51342773 204.13647461 C-200.92709283 205.43312752 -202.33860571 206.73212571 -203.75 208.03125 C-207.41877604 211.24142904 -210.00230661 211.33849896 -214.7421875 211.28515625 C-218.11376856 210.85933373 -219.74020743 209.46522826 -222 207 C-224.30427452 203.70817926 -224.68314841 200.94707969 -224 197 C-217.50487377 186.54919538 -205.33485435 177.80145461 -196.0703125 169.8203125 C-191.52189588 165.82113865 -187.11405609 161.66233292 -182.67138672 157.54638672 C-175.68364164 151.0812425 -168.64755401 144.6708818 -161.5625 138.3125 C-158.69399591 135.72384997 -155.8452335 133.11414854 -153 130.5 C-148.54664513 126.40833893 -144.06340146 122.35177054 -139.5625 118.3125 C-136.69399591 115.72384997 -133.8452335 113.11414854 -131 110.5 C-127.35070475 107.14709421 -123.68830432 103.81001669 -120 100.5 C-114.82403471 95.85320688 -109.6981596 91.15280746 -104.57617188 86.44677734 C-102.93253979 84.93807788 -101.28685094 83.43164977 -99.640625 81.92578125 C-98.82053955 81.17530518 -98.82053955 81.17530518 -97.98388672 80.40966797 C-96.93371927 79.44874085 -95.88327602 78.48811502 -94.83251953 77.52783203 C-90.63963493 74.06267993 -90.63963493 74.06267993 -88.375 69.375 C-85.48509706 62.28160187 -78.48349118 57.42910707 -72.76171875 52.54296875 C-70.98043569 51.07723273 -70.98043569 51.07723273 -69.70703125 49.36328125 C-68 48 -68 48 -64.77734375 47.7265625 C-59.5617621 46.72335858 -57.21442912 44.06454878 -53.5625 40.375 C-52.23382553 39.08255917 -50.90440738 37.79088239 -49.57421875 36.5 C-48.94950684 35.88511719 -48.32479492 35.27023438 -47.68115234 34.63671875 C-45.80438992 32.80955998 -43.86776888 31.07458966 -41.875 29.375 C-38.4306782 26.40781369 -35.08612497 23.33760235 -31.75 20.25 C-31.19820068 19.73945068 -30.64640137 19.22890137 -30.07788086 18.70288086 C-28.3849102 17.13562463 -26.692439 15.56783032 -25 14 C-22.81509598 11.97633422 -20.62743035 9.95572455 -18.4375 7.9375 C-17.48746094 7.05964844 -16.53742188 6.18179688 -15.55859375 5.27734375 C-10.21084975 0.51744337 -7.22202984 -1.11108151 0 0 Z " fill="#EA6D79" transform="translate(260,36)"/>
<path d="M0 0 C3.39344442 1.48848812 5.78229967 3.4326862 8.5 5.9375 C9.3765625 6.74058594 10.253125 7.54367188 11.15625 8.37109375 C12.0946875 9.23863281 13.033125 10.10617188 14 11 C15.49184018 12.36966361 16.98516643 13.73769491 18.47851562 15.10571289 C19.49858821 16.04050663 20.51811373 16.97589767 21.53710938 17.91186523 C24.67502382 20.79314167 27.8294832 23.65466441 31 26.5 C35.20684327 30.27537217 39.37674853 34.08980448 43.5390625 37.9140625 C46.67667086 40.79422607 49.83020941 43.65531614 53 46.5 C57.20761261 50.2760626 61.37842372 54.09104007 65.54125977 57.91625977 C68.65633125 60.77602204 71.78851675 63.61515359 74.9375 66.4375 C79.3920991 70.43448378 83.78918479 74.49074409 88.18115234 78.55615234 C92.24611811 82.3147798 96.34984906 86.02749843 100.47265625 89.72265625 C103.33082203 92.29809775 106.16710261 94.89685764 109 97.5 C112.64927171 100.85293117 116.31169598 104.18998357 120 107.5 C124.20684327 111.27537217 128.37674853 115.08980448 132.5390625 118.9140625 C135.67667086 121.79422607 138.83020941 124.65531614 142 127.5 C148.22569011 133.08919783 154.38053078 138.75524058 160.54101562 144.41601562 C165.82625471 149.27145128 171.11660662 154.12110614 176.4375 158.9375 C177.19933594 159.62714844 177.96117187 160.31679687 178.74609375 161.02734375 C180.95559097 163.0750619 180.95559097 163.0750619 183.6032896 164.58308792 C186.43335444 167.43700716 186.59354777 169.20073716 186.64540654 173.14354491 C186.62356023 174.38089869 186.62356023 174.38089869 186.60127258 175.64324951 C186.60768077 176.9653217 186.60768077 176.9653217 186.61421841 178.31410241 C186.62246747 181.2733919 186.59493178 184.23127036 186.56762695 187.19042969 C186.5662169 189.30921902 186.56700763 191.4280108 186.56983948 193.54679871 C186.57127668 199.30485579 186.54183714 205.06239428 186.50696969 210.82033062 C186.47575717 216.83545505 186.47277947 222.85059078 186.46684265 228.86578369 C186.45128923 240.25908208 186.4102403 251.65214118 186.3600952 263.0453341 C186.3042485 276.01491658 186.27672696 288.98451036 186.25161803 301.9541831 C186.19932591 328.63625934 186.11034965 355.31810619 186 382 C178.74 382 171.48 382 164 382 C164 362.53 164 343.06 164 323 C168.62 322.67 173.24 322.34 178 322 C178 314.74 178 307.48 178 300 C173.05 299.67 168.1 299.34 163 299 C162.98582031 297.23914063 162.97164062 295.47828125 162.95703125 293.6640625 C162.91010366 291.31768301 162.86185645 288.97132965 162.8125 286.625 C162.80669922 285.46871094 162.80089844 284.31242187 162.79492188 283.12109375 C162.55609866 273.72738069 160.60642113 266.22279971 153.6875 259.5625 C147.56046242 254.39232975 140.18128783 253.53142921 132.5 253.3125 C131.67757812 253.27833984 130.85515625 253.24417969 130.0078125 253.20898438 C128.0056545 253.1275012 126.00285432 253.06205425 124 253 C123.72265625 250.28125 123.72265625 250.28125 124 247 C125.87109375 244.71875 125.87109375 244.71875 128.4375 242.5 C137.58407237 233.85797688 143.22325885 223.68582495 147.3203125 211.86328125 C149.55660518 208.05118233 151.91510682 207.43899646 156 206 C159.12730962 203.18542135 159.55973814 200.09553479 160.1796875 196.09765625 C160.16292568 193.85479872 160.16292568 193.85479872 158.51171875 191.85546875 C156.29797665 187.67395589 156.75532563 183.89716496 156.9375 179.25 C157.43835125 165.0982881 154.10085494 153.63087352 144.75 142.625 C136.50140846 134.01777405 125.689254 128.79385383 113.875 127.3125 C107.44043651 126.17219761 104.2151631 121.64907695 100 117 C98.81219858 115.91459525 97.60411445 114.85088979 96.375 113.8125 C92.30630933 110.3238837 88.40709999 106.6669642 84.5 103 C80.08930994 98.86363597 75.66130389 94.77364422 71.078125 90.828125 C67.6333138 87.79772718 64.28471699 84.66305985 60.91967773 81.54467773 C56.82251649 77.75070287 52.68563517 74.00430511 48.52734375 70.27734375 C45.66917797 67.70190225 42.83289739 65.10314236 40 62.5 C36.35072829 59.14706883 32.68830402 55.81001643 29 52.5 C22.77430989 46.91080217 16.61946922 41.24475942 10.45898438 35.58398438 C8.9313584 34.1805872 7.40332034 32.77764095 5.875 31.375 C5.38080566 30.92133057 4.88661133 30.46766113 4.37744141 30.00024414 C0.33225833 26.29227095 -3.74803767 22.62466641 -7.84375 18.97265625 C-9.95839813 17.03805968 -11.9896765 15.04230592 -14 13 C-4.58997722 3.40546697 -4.58997722 3.40546697 0 0 Z " fill="#DDC9AC" transform="translate(255,70)"/>
<path d="M0 0 C0.70625031 -0.00235223 1.41250062 -0.00470446 2.14015245 -0.00712797 C4.53066147 -0.01383847 6.92111639 -0.01335913 9.31163406 -0.01294994 C11.03325142 -0.01624729 12.754868 -0.01997258 14.47648358 -0.02409142 C19.22624022 -0.0341342 23.97598422 -0.03783187 28.72574997 -0.04048073 C33.84108393 -0.04437704 38.95640783 -0.05395581 44.07173538 -0.0626936 C56.43440264 -0.08247687 68.79707073 -0.09252647 81.15974987 -0.10142139 C86.97676896 -0.10580115 92.79378714 -0.11116875 98.61080551 -0.11641026 C117.93963177 -0.13342423 137.26845744 -0.14791946 156.59729004 -0.155159 C161.61577988 -0.157069 166.63426972 -0.15898931 171.65275955 -0.16094494 C172.90013166 -0.16142868 174.14750377 -0.16191242 175.43267503 -0.16241082 C195.64935102 -0.17071506 215.86596792 -0.19605788 236.08261809 -0.22852562 C256.82295917 -0.26156375 277.5632702 -0.27960481 298.30363774 -0.28280324 C309.95494833 -0.28497132 321.60617274 -0.29376356 333.25745773 -0.31926441 C343.17819859 -0.34092708 353.09883234 -0.34904372 363.01959416 -0.33929763 C368.08360144 -0.33474007 373.14738753 -0.33672344 378.21136475 -0.35605907 C382.84518468 -0.37359986 387.47862058 -0.37276733 392.11244407 -0.35716178 C393.79081566 -0.35477183 395.46921321 -0.3591806 397.14754495 -0.37099043 C399.42611356 -0.38603366 401.70330808 -0.37649097 403.98184204 -0.36076355 C405.88147552 -0.36222876 405.88147552 -0.36222876 407.81948543 -0.36372358 C412.86944356 0.37086978 415.87267183 2.87536513 419.5551033 6.25922108 C421.2426033 9.13422108 421.2426033 9.13422108 422.2426033 19.13422108 C338.0926033 19.46422108 253.9426033 19.79422108 167.2426033 20.13422108 C166.9126033 20.79422108 166.5826033 21.45422108 166.2426033 22.13422108 C156.3426033 22.13422108 146.4426033 22.13422108 136.2426033 22.13422108 C135.9126033 21.47422108 135.5826033 20.81422108 135.2426033 20.13422108 C84.7526033 19.80422108 34.2626033 19.47422108 -17.7573967 19.13422108 C-17.7573967 9.89097783 -17.7573967 9.89097783 -13.7573967 5.13422108 C-8.87794847 0.83565954 -6.47326281 0.00914689 0 0 Z " fill="#85776D" transform="translate(53.75739669799805,457.86577892303467)"/>
<path d="M0 0 C1.09570312 0.32484375 2.19140625 0.6496875 3.3203125 0.984375 C8.51268386 2.27732801 13.54878204 2.29395778 18.875 2.25 C20.26912109 2.26160156 20.26912109 2.26160156 21.69140625 2.2734375 C28.00937204 2.25581416 33.85743461 1.46593433 40 0 C40.49628906 1.08539063 40.99257812 2.17078125 41.50390625 3.2890625 C46.90381651 15.13129869 46.90381651 15.13129869 57 23 C58.63026197 35.55905516 51.97750455 49.83192713 45 60 C31.74889744 76.74880188 31.74889744 76.74880188 21.87109375 78.34375 C15.31704839 78.76455548 11.57908018 77.19609808 6.44140625 73.16796875 C-6.33846543 61.8194427 -17.28809391 44.87773915 -18.8125 27.4375 C-18.66523212 24.53014694 -18.48582738 23.45267681 -16.33984375 21.453125 C-14.25 20.1875 -14.25 20.1875 -12.140625 19.23046875 C-7.11638967 16.34245027 -5.02194217 11.29936989 -2.75 6.1875 C-1.96882812 4.44533203 -1.96882812 4.44533203 -1.171875 2.66796875 C-0.78515625 1.78753906 -0.3984375 0.90710938 0 0 Z " fill="#F5E1C5" transform="translate(130,240)"/>
<path d="M0 0 C113.52 0 227.04 0 344 0 C344 3.96 344 7.92 344 12 C230.48 12 116.96 12 0 12 C0 8.04 0 4.08 0 0 Z " fill="#87796F" transform="translate(84,375)"/>
<path d="M0 0 C3.78769438 1.32237049 6.35588693 2.94063865 9.375 5.5625 C16.24604977 11.22955917 24.03011212 16.01505606 32 20 C33.59291863 36.70794648 25.63596634 53.07259118 15.5625 65.9375 C10.619059 71.72453162 4.35473092 78.1230047 -3.48046875 79.40625 C-11.08050263 79.66945464 -15.28293514 77.92956219 -21 73 C-21.75152344 72.35804688 -22.50304687 71.71609375 -23.27734375 71.0546875 C-34.37163597 60.77587317 -42.31239354 45.90399946 -45 31 C-45.04527915 29.42115711 -45.05889316 27.8411305 -45.04296875 26.26171875 C-45.03676514 25.46080811 -45.03056152 24.65989746 -45.02416992 23.8347168 C-45.01619385 23.22926025 -45.00821777 22.62380371 -45 22 C-44.34217529 21.71914551 -43.68435059 21.43829102 -43.0065918 21.14892578 C-20.10838865 12.88732052 -20.10838865 12.88732052 0 0 Z " fill="#F5E1C5" transform="translate(369,238)"/>
<path d="M0 0 C18.15 0 36.3 0 55 0 C55 31.35 55 62.7 55 95 C46.00620732 88.25465549 46.00620732 88.25465549 42.78125 85.16015625 C42.07613281 84.48919922 41.37101562 83.81824219 40.64453125 83.12695312 C39.93683594 82.44568359 39.22914063 81.76441406 38.5 81.0625 C33.7142596 76.4816137 28.89154897 71.98419779 23.88427734 67.64575195 C21.05631527 65.17577367 18.30892589 62.6223762 15.5625 60.0625 C14.52298937 59.09413458 13.48260424 58.12670717 12.44140625 57.16015625 C11.64391968 56.37825928 11.64391968 56.37825928 10.83032227 55.58056641 C9.00626007 53.89756321 9.00626007 53.89756321 6.60522461 52.66552734 C3.47160159 50.67474056 1.91793937 49.21723028 0 46 C-1.54024438 38.34011191 -0.83507208 30.24672909 -0.5625 22.5 C-0.376875 15.075 -0.19125 7.65 0 0 Z " fill="#86786E" transform="translate(386,96)"/>
<path d="M0 0 C1.12148438 -0.02578125 2.24296875 -0.0515625 3.3984375 -0.078125 C6.96800264 0.28488162 8.68071684 1.27891111 11.625 3.25 C23.500291 7.74530246 37.15542255 5.87123751 48.625 1.25 C48.955 0.92 49.285 0.59 49.625 0.25 C56.85786489 -0.58410303 62.72510381 0.13819409 69.2734375 3.27734375 C73.84952199 7.11608572 77.16844317 11.30761509 78.10205078 17.32446289 C78.21347007 20.67378674 78.15066725 23.96498266 78 27.3125 C77.95939453 29.04016602 77.95939453 29.04016602 77.91796875 30.80273438 C77.84784654 33.61930978 77.74025008 36.43491003 77.625 39.25 C73.665 39.25 69.705 39.25 65.625 39.25 C65.13 31.825 65.13 31.825 64.625 24.25 C62.975 24.25 61.325 24.25 59.625 24.25 C59.295 29.2 58.965 34.15 58.625 39.25 C38.825 39.25 19.025 39.25 -1.375 39.25 C-1.705 33.97 -2.035 28.69 -2.375 23.25 C-4.025 23.58 -5.675 23.91 -7.375 24.25 C-7.705 29.2 -8.035 34.15 -8.375 39.25 C-12.665 39.25 -16.955 39.25 -21.375 39.25 C-21.53797595 35.26916154 -21.65639706 31.29508215 -21.75 27.3125 C-21.80027344 26.19552734 -21.85054688 25.07855469 -21.90234375 23.92773438 C-22.04027677 16.08854121 -20.74165595 11.09336664 -15.375 5.25 C-10.61969711 1.14252723 -6.19196215 0.0850155 0 0 Z " fill="#D3D954" transform="translate(334.375,328.75)"/>
<path d="M0 0 C1.12148437 -0.02578125 2.24296875 -0.0515625 3.3984375 -0.078125 C6.96800264 0.28488162 8.68071684 1.27891111 11.625 3.25 C23.500291 7.74530246 37.15542255 5.87123751 48.625 1.25 C48.955 0.92 49.285 0.59 49.625 0.25 C57.18888136 -0.49902072 64.28345866 -0.28683393 70.625 4.25 C75.26191512 9.1999558 77.7570239 13.10926686 77.72265625 19.9140625 C77.71782227 21.59628906 77.71782227 21.59628906 77.71289062 23.3125 C77.70032227 25.0759375 77.70032227 25.0759375 77.6875 26.875 C77.68298828 28.05835938 77.67847656 29.24171875 77.67382812 30.4609375 C77.66201478 33.39064639 77.6440789 36.32032941 77.625 39.25 C73.665 39.25 69.705 39.25 65.625 39.25 C65.13 31.825 65.13 31.825 64.625 24.25 C62.975 24.25 61.325 24.25 59.625 24.25 C59.295 29.2 58.965 34.15 58.625 39.25 C38.825 39.25 19.025 39.25 -1.375 39.25 C-1.705 34.3 -2.035 29.35 -2.375 24.25 C-4.025 24.25 -5.675 24.25 -7.375 24.25 C-7.705 29.2 -8.035 34.15 -8.375 39.25 C-12.665 39.25 -16.955 39.25 -21.375 39.25 C-21.53797595 35.26916154 -21.65639706 31.29508215 -21.75 27.3125 C-21.80027344 26.19552734 -21.85054688 25.07855469 -21.90234375 23.92773438 C-22.04027677 16.08854121 -20.74165595 11.09336664 -15.375 5.25 C-10.61969711 1.14252723 -6.19196215 0.0850155 0 0 Z " fill="#89C5DC" transform="translate(121.375,328.75)"/>
<path d="M0 0 C2.71207934 1.52421414 5.1355126 3.20357296 7.61328125 5.0859375 C11.51090791 8.02374045 15.4383729 10.54424784 19.67578125 12.9609375 C24.35306522 15.94771741 24.35306522 15.94771741 25.42578125 19.5234375 C21.16134408 37.14977779 14.18994435 53.17409874 -1.51171875 63.3984375 C-5.854067 64.84588692 -9.40781214 65.38806682 -13.6875 63.375 C-27.20357557 54.92453479 -35.66317948 40.62230524 -39.51171875 25.3984375 C-39.67019527 22.70195351 -39.61234899 20.10361516 -39.51171875 17.3984375 C-38.85276611 17.10187256 -38.19381348 16.80530762 -37.51489258 16.49975586 C-34.44912755 15.11664157 -31.38631975 13.72714491 -28.32421875 12.3359375 C-27.22682373 11.83876221 -26.12942871 11.34158691 -24.9987793 10.8293457 C-18.09034946 7.66981889 -11.473316 4.33192405 -5 0.34765625 C-2.51171875 -0.6015625 -2.51171875 -0.6015625 0 0 Z " fill="#F3DFC3" transform="translate(263.51171875,261.6015625)"/>
<path d="M0 0 C1.09256355 0.00607269 1.09256355 0.00607269 2.2071991 0.01226807 C2.97481064 0.00876343 3.74242218 0.00525879 4.53329468 0.00164795 C7.07768219 -0.00717455 9.621793 -0.00131847 12.16618347 0.00543213 C13.92973382 0.00408563 15.69328381 0.00214522 17.45683289 -0.00036621 C21.15572132 -0.00331817 24.85451327 0.00098247 28.5533905 0.01031494 C33.30178253 0.02170954 38.04994849 0.01515045 42.79833221 0.00317001 C46.44079806 -0.00404665 50.08321005 -0.00176156 53.72567749 0.0034256 C55.47682726 0.00476263 57.22798186 0.0031125 58.97912598 -0.00153351 C61.42377228 -0.0065956 63.86804916 0.00110682 66.31266785 0.01226807 C67.04104355 0.0082196 67.76941925 0.00417114 68.51986694 0 C73.5314046 0.04252826 73.5314046 0.04252826 75.75993347 2.27105713 C76.00285339 4.77716064 76.00285339 4.77716064 75.99040222 7.89996338 C75.98846863 9.01693604 75.98653503 10.13390869 75.98454285 11.284729 C75.97229675 12.45584229 75.96005066 13.62695557 75.94743347 14.83355713 C75.94646667 16.59602783 75.94646667 16.59602783 75.94548035 18.394104 C75.90005488 27.13093572 75.90005488 27.13093572 74.75993347 28.27105713 C72.23990896 28.37141529 69.74727147 28.40723425 67.22673035 28.40045166 C66.4381514 28.40220398 65.64957245 28.4039563 64.83709717 28.40576172 C62.21760387 28.41018071 59.59817751 28.40724209 56.97868347 28.40386963 C55.16646817 28.40454265 53.35425296 28.40551267 51.54203796 28.4067688 C47.73884728 28.40824584 43.93568003 28.40609103 40.13249207 28.40142822 C35.24614852 28.39573093 30.3598599 28.3990099 25.47351837 28.40500069 C21.72987958 28.40860614 17.98625392 28.40746779 14.24261475 28.40487289 C12.4403991 28.40420358 10.63818229 28.40503219 8.83596802 28.40735245 C6.32165856 28.40987872 3.8074393 28.40603875 1.2931366 28.40045166 C0.16477135 28.40348801 0.16477135 28.40348801 -0.98638916 28.40658569 C-6.12580393 28.38531973 -6.12580393 28.38531973 -7.24006653 27.27105713 C-7.49307891 23.1314343 -7.42529201 18.97999717 -7.42756653 14.83355713 C-7.43981262 13.66244385 -7.45205872 12.49133057 -7.4646759 11.284729 C-7.4666095 10.16775635 -7.46854309 9.05078369 -7.47053528 7.89996338 C-7.47464417 6.86943848 -7.47875305 5.83891357 -7.48298645 4.77716064 C-7.00745523 -0.12869665 -4.2977647 0.03647113 0 0 Z " fill="#86786E" transform="translate(379.2400665283203,61.72894287109375)"/>
<path d="M0 0 C2.20172125 1.73173844 2.88084588 3.09385444 4.03125 5.59765625 C-1.22845915 10.4055949 -6.63264845 14.63530934 -12.59375 18.53515625 C-13.38297852 19.05384277 -14.17220703 19.5725293 -14.98535156 20.10693359 C-55.63022935 46.59765625 -55.63022935 46.59765625 -69.96875 46.59765625 C-70.44297194 30.47411017 -69.51936221 18.13765534 -58.12109375 5.55859375 C-41.31895528 -10.10500146 -19.28401956 -11.44225844 0 0 Z " fill="#86786E" transform="translate(387.96875,209.40234375)"/>
<path d="M0 0 C1.11890625 -0.02578125 2.2378125 -0.0515625 3.390625 -0.078125 C6.75 0.25 6.75 0.25 9.51953125 1.7421875 C14.09473692 3.8776523 18.20253377 3.68787974 23.1875 3.625 C24.10337891 3.63660156 25.01925781 3.64820313 25.96289062 3.66015625 C31.76322628 3.63517275 35.52886057 2.68315235 40.75 0.25 C47.11307718 -0.56845381 53.41620187 -0.65277912 58.75 3.25 C62.04131123 6.54131123 64.61162562 9.59708041 64.86352539 14.42651367 C64.85567017 15.65978394 64.85567017 15.65978394 64.84765625 16.91796875 C64.84282227 18.25698242 64.84282227 18.25698242 64.83789062 19.62304688 C64.82532227 21.01620117 64.82532227 21.01620117 64.8125 22.4375 C64.80798828 23.37787109 64.80347656 24.31824219 64.79882812 25.28710938 C64.78704645 27.60810008 64.76911114 29.92905807 64.75 32.25 C61.45 32.25 58.15 32.25 54.75 32.25 C54.42 27.63 54.09 23.01 53.75 18.25 C52.43 18.58 51.11 18.91 49.75 19.25 C49.42 23.21 49.09 27.17 48.75 31.25 C32.25 31.25 15.75 31.25 -1.25 31.25 C-1.58 26.96 -1.91 22.67 -2.25 18.25 C-3.57 18.58 -4.89 18.91 -6.25 19.25 C-6.58 23.21 -6.91 27.17 -7.25 31.25 C-10.55 31.25 -13.85 31.25 -17.25 31.25 C-17.35837983 28.04075291 -17.43749268 24.8351973 -17.5 21.625 C-17.53351563 20.72136719 -17.56703125 19.81773437 -17.6015625 18.88671875 C-17.68567522 13.12499711 -17.16046107 9.79324477 -13.25 5.25 C-8.61106668 1.16332065 -6.15632633 0.08433324 0 0 Z " fill="#EB6D79" transform="translate(232.25,336.75)"/>
<path d="M0 0 C8.73343933 4.37256534 17.72580316 9.40779474 23.10546875 17.8359375 C23.20914594 22.81244282 21.28443748 26.10064925 18.10546875 29.8359375 C10.61958942 35.09198044 2.85827776 37.21914814 -6.20703125 37.1484375 C-6.9532373 37.14352295 -7.69944336 37.1386084 -8.46826172 37.13354492 C-17.26235516 36.94751235 -25.42687742 35.18381996 -31.89453125 28.8359375 C-34.42219547 25.71653685 -35.82676885 22.92013583 -36.08203125 18.8359375 C-32.29249915 9.26238271 -21.40514258 4.60071534 -12.89453125 -0.1640625 C-12.20746094 -0.60105469 -11.52039063 -1.03804687 -10.8125 -1.48828125 C-6.99976319 -2.83166917 -3.61030363 -1.45191698 0 0 Z " fill="#86786E" transform="translate(155.89453125,200.1640625)"/>
<path d="M0 0 C1.9921875 0.84765625 1.9921875 0.84765625 3.046875 2.8515625 C3.31757812 3.69589844 3.58828125 4.54023437 3.8671875 5.41015625 C5.53511107 10.06032716 7.68210296 13.4631977 10.8203125 17.25390625 C11.9921875 18.84765625 11.9921875 18.84765625 11.9921875 20.84765625 C17.12796942 23.51826285 22.22971344 25.97455412 27.9921875 26.84765625 C28.4871875 29.32265625 28.4871875 29.32265625 28.9921875 31.84765625 C26.1853548 34.08666992 23.43846407 35.66676415 20.1796875 37.16015625 C9.80891424 42.31504061 5.58959215 48.67387199 1.6796875 59.47265625 C1.4528125 60.25640625 1.2259375 61.04015625 0.9921875 61.84765625 C-0.6578125 61.84765625 -2.3078125 61.84765625 -4.0078125 61.84765625 C-4.3996875 60.73390625 -4.7915625 59.62015625 -5.1953125 58.47265625 C-9.05932537 48.25932647 -12.88207419 40.51565779 -23.07421875 35.6796875 C-24.66769527 34.99400973 -26.30312144 34.40670002 -27.9453125 33.84765625 C-30.0078125 32.84765625 -30.0078125 32.84765625 -30.9453125 30.84765625 C-30.9659375 30.18765625 -30.9865625 29.52765625 -31.0078125 28.84765625 C-28.66135299 26.50119674 -26.95829249 26.05229459 -23.8203125 25.03515625 C-16.45091725 22.38602724 -11.90216185 20.06402023 -8.1953125 12.97265625 C-6.81375638 9.95219531 -5.67982877 6.99181312 -4.8203125 3.78515625 C-4.5521875 2.81578125 -4.2840625 1.84640625 -4.0078125 0.84765625 C-2.0078125 -0.15234375 -2.0078125 -0.15234375 0 0 Z " fill="#3B3229" transform="translate(96.0078125,48.15234375)"/>
<path d="M0 0 C0.82564453 0.65935547 0.82564453 0.65935547 1.66796875 1.33203125 C0.14845905 5.51785042 -2.86556536 7.51879251 -6.39453125 9.95703125 C-7.32338135 10.6056311 -7.32338135 10.6056311 -8.27099609 11.26733398 C-21.87845332 20.62267234 -36.14083128 27.89985487 -51.33203125 34.33203125 C-52.2859375 34.74453125 -53.23984375 35.15703125 -54.22265625 35.58203125 C-56.33203125 36.33203125 -56.33203125 36.33203125 -59.33203125 36.33203125 C-59.75035679 27.51233442 -60.0658091 20.07970226 -55.33203125 12.33203125 C-54.73390625 11.30078125 -54.13578125 10.26953125 -53.51953125 9.20703125 C-40.64170647 -7.7181099 -18.10421789 -12.94891296 0 0 Z " fill="#85786E" transform="translate(278.33203125,237.66796875)"/>
<path d="M0 0 C0 17.16 0 34.32 0 52 C-4 50 -4 50 -5.9453125 48.96484375 C-14.27795327 45.03745213 -22.95662373 45.19702345 -32 45 C-32.27734375 42.28125 -32.27734375 42.28125 -32 39 C-30.12890625 36.71875 -30.12890625 36.71875 -27.5625 34.5 C-18.35232248 25.79788036 -12.75381369 15.43036882 -8.2890625 3.66796875 C-7.86367188 2.78753906 -7.43828125 1.90710938 -7 1 C-4 0 -4 0 0 0 Z " fill="#F9E6C9" transform="translate(411,278)"/>
<path d="M0 0 C1.87890625 0.109375 1.87890625 0.109375 4 1 C5.52734375 3.328125 5.52734375 3.328125 6.9375 6.25 C10.07297777 12.28638115 12.64203894 16.31673388 19.25 18.5625 C19.93578125 18.74941406 20.6215625 18.93632813 21.328125 19.12890625 C23 20 23 20 23.734375 22.08984375 C23.82203125 22.72019531 23.9096875 23.35054687 24 24 C23.50371094 24.30292969 23.00742188 24.60585937 22.49609375 24.91796875 C10.27413416 32.37793363 10.27413416 32.37793363 4 45 C1.525 45.495 1.525 45.495 -1 46 C-1.44730469 45.03578125 -1.89460938 44.0715625 -2.35546875 43.078125 C-2.96549123 41.80177027 -3.57620513 40.52574583 -4.1875 39.25 C-4.47947266 38.61578125 -4.77144531 37.9815625 -5.07226562 37.328125 C-7.71739298 31.86721692 -11.06335471 28.50456678 -16.8125 26.25 C-17.864375 25.8375 -18.91625 25.425 -20 25 C-20 23.35 -20 21.7 -20 20 C-19.41992188 19.76925781 -18.83984375 19.53851563 -18.2421875 19.30078125 C-9.53162629 15.69459336 -9.53162629 15.69459336 -3.78125 8.4921875 C-3.07126731 6.71215947 -2.39575435 4.91784785 -1.76171875 3.109375 C-1 1 -1 1 0 0 Z " fill="#3B332A" transform="translate(50,82)"/>
<path d="M0 0 C2.31640625 0.171875 2.31640625 0.171875 5 1 C6.58984375 3.328125 6.58984375 3.328125 7.9375 6.25 C10.69999369 11.68337408 12.99562649 15.47914703 18.93359375 17.734375 C20.60189327 18.23117244 22.29995652 18.62599043 24 19 C24.625 20.8125 24.625 20.8125 25 23 C22.78680741 26.31978889 21.73200709 26.76609586 18.1875 28.3125 C12.81901902 30.91164929 9.41002707 33.34735844 7.1796875 39.125 C6.93476562 39.846875 6.68984375 40.56875 6.4375 41.3125 C5.963125 42.529375 5.48875 43.74625 5 45 C3.03515625 45.79296875 3.03515625 45.79296875 1 46 C-1.98394406 44.50802797 -2.16084588 42.32607941 -3.3125 39.25 C-5.56225051 33.73680325 -7.42958041 29.62534026 -13.09375 27.046875 C-15.03672477 26.29431435 -17.01667833 25.63869681 -19 25 C-19 23.35 -19 21.7 -19 20 C-18.18015625 19.62488281 -17.3603125 19.24976562 -16.515625 18.86328125 C-15.43796875 18.35152344 -14.3603125 17.83976562 -13.25 17.3125 C-12.18265625 16.81363281 -11.1153125 16.31476562 -10.015625 15.80078125 C-5.20067008 12.92552967 -2.83797753 9.50722471 -1.25 4.1875 C-1.00765625 3.39730469 -0.7653125 2.60710938 -0.515625 1.79296875 C-0.34546875 1.20128906 -0.1753125 0.60960938 0 0 Z " fill="#3B322A" transform="translate(49,29)"/>
<path d="M0 0 C4.21260199 1.48948834 5.30459703 3.88696193 7.1875 7.8125 C7.69667969 8.85019531 8.20585937 9.88789063 8.73046875 10.95703125 C11.09653253 16.62830412 11.12844221 21.76103418 11.0625 27.8125 C11.05798828 28.60076172 11.05347656 29.38902344 11.04882812 30.20117188 C11.03711312 32.13414761 11.01917998 34.06708393 11 36 C3.39289816 32.65815179 -3.34896936 28.58846806 -10.125 23.8125 C-10.87128662 23.28946289 -11.61757324 22.76642578 -12.38647461 22.22753906 C-15.59519828 19.92762756 -17.77885409 18.33171886 -20 15 C-13.33333333 10 -6.66666667 5 0 0 Z " fill="#85776D" transform="translate(396,219)"/>
<path d="M0 0 C2.22656341 2.10903221 3.95132873 4.29032569 5.6875 6.8125 C8.85265949 11.12572742 12.58208476 14.03977253 17 17 C16.01 17.7734375 16.01 17.7734375 15 18.5625 C6.50403283 25.37867803 6.50403283 25.37867803 0 34 C-2.39361974 31.05400648 -4.69416934 28.06066819 -6.9375 25 C-9.40062787 21.6907595 -11.99854697 18.82489697 -15 16 C-14.33613281 15.5153125 -13.67226562 15.030625 -12.98828125 14.53125 C-7.24048754 10.16796134 -3.41108838 6.36736498 0 0 Z " fill="#D3DB55" transform="translate(95,62)"/>
<path d="M0 0 C3.80797391 1.45336318 4.96067277 3.17908118 6.6875 6.8125 C7.10386719 7.66457031 7.52023437 8.51664063 7.94921875 9.39453125 C9.77258213 13.91565903 10.12092557 17.96317735 10.0625 22.8125 C10.05347656 23.78832031 10.04445313 24.76414062 10.03515625 25.76953125 C10.02355469 26.50558594 10.01195312 27.24164063 10 28 C0.55182822 25.17386064 -7.30653472 19.01809748 -15 13 C-11.27315441 9.03271276 -7.21961208 5.75003569 -2.890625 2.453125 C-1.09414017 1.13738528 -1.09414017 1.13738528 0 0 Z " fill="#84766C" transform="translate(283,245)"/>
<path d="M0 0 C1.13566406 -0.00515625 2.27132813 -0.0103125 3.44140625 -0.015625 C6.4375 0.25 6.4375 0.25 9.4375 2.25 C8.15166016 2.99443359 8.15166016 2.99443359 6.83984375 3.75390625 C-4.58940099 10.488788 -11.57474689 17.27449378 -17.5625 29.25 C-18.2225 29.25 -18.8825 29.25 -19.5625 29.25 C-21.78865948 24.79768104 -21.06534649 19.08071626 -20.5625 14.25 C-18.30574586 8.2663241 -14.17593803 4.50232236 -8.8203125 1.1640625 C-5.80278494 -0.05756631 -3.24651005 -0.01477365 0 0 Z " fill="#84766C" transform="translate(333.5625,197.75)"/>
<path d="M0 0 C2.25 0.1875 2.25 0.1875 5 1 C5.61875 1.845625 6.2375 2.69125 6.875 3.5625 C8.84710239 6.35881619 8.84710239 6.35881619 12.4375 6.5 C16.13930585 5.9804483 18.06297402 5.26570576 21 3 C21.66 2.01 22.32 1.02 23 0 C25.475 0.495 25.475 0.495 28 1 C27.6999825 4.50020422 27.04266259 5.94904191 24.75 8.6875 C20.14521407 12.55970635 16.21567658 13.50943342 10.28515625 13.390625 C6.44486141 12.73416434 3.73933773 10.69380857 1 8 C-1 5 -1 5 -0.625 2.3125 C-0.41875 1.549375 -0.2125 0.78625 0 0 Z " fill="#443A32" transform="translate(349,286)"/>
<path d="M0 0 C1.8125 0.125 1.8125 0.125 4 1 C4.5775 1.845625 5.155 2.69125 5.75 3.5625 C7.9046609 6.40157983 7.9046609 6.40157983 11.9375 6.625 C15.42253075 6.42456224 15.96466448 6.03132012 18.75 3.5625 C19.4925 2.716875 20.235 1.87125 21 1 C23.1875 0.0625 23.1875 0.0625 25 0 C25.66 0.66 26.32 1.32 27 2 C26.73401939 5.85671885 24.58494202 8.27145009 22 11 C17.51644047 13.76925736 12.10308018 13.67059707 7 13 C3.1393538 11.03458012 0.06069191 8.87894947 -2 5 C-1.75203633 2.83031791 -1.55766393 1.55766393 0 0 Z " fill="#463C34" transform="translate(137,287)"/>
<path d="M0 0 C4.70722542 4.03476464 7.07020827 9.21062481 9 15 C9.0685495 16.89470816 9.08480372 18.7916834 9.0625 20.6875 C9.05347656 21.68136719 9.04445312 22.67523438 9.03515625 23.69921875 C9.02355469 24.45847656 9.01195312 25.21773438 9 26 C2.88960928 23.87819488 0.52076199 20.03685907 -2.2734375 14.45703125 C-5.25213527 7.68998968 -5.25213527 7.68998968 -4.19921875 4.80859375 C-2.96721181 2.9505507 -1.64697816 1.49725287 0 0 Z " fill="#83756B" transform="translate(180,231)"/>
<path d="M0 0 C3.36544853 1.39259939 5.25811841 2.76428958 7 6 C6.33984375 8.83984375 6.33984375 8.83984375 4.9375 11.9375 C4.49277344 12.95714844 4.04804687 13.97679687 3.58984375 15.02734375 C0.86867987 20.11531848 -1.3534414 23.27466265 -7 25 C-7.67603706 14.95333819 -5.41400412 8.39170639 0 0 Z " fill="#83766C" transform="translate(118,232)"/>
<path d="M0 0 C1.67542976 0.28604898 3.34385343 0.61781233 5 1 C5.33 1.99 5.66 2.98 6 4 C7.6026782 4.10824843 9.20745748 4.18570645 10.8125 4.25 C12.15248047 4.31960938 12.15248047 4.31960938 13.51953125 4.390625 C16.16674709 4.23981033 16.16674709 4.23981033 17.82421875 1.984375 C18.21222656 1.32953125 18.60023438 0.6746875 19 0 C21.475 0.495 21.475 0.495 24 1 C23.82227527 4.90994399 23.4321336 6.5678664 20.625 9.375 C15.65046319 11.60496478 11.36739464 11.92376525 6 11 C3.14686087 9.64559154 2.11196186 8.50100747 0 6 C-0.9375 3.25 -0.9375 3.25 -1 1 C-0.67 0.67 -0.34 0.34 0 0 Z " fill="#433A32" transform="translate(244,300)"/>
<path d="M0 0 C0.33 0 0.66 0 1 0 C1 8.25 1 16.5 1 25 C-3.95 25 -8.9 25 -14 25 C-13.113125 23.700625 -12.22625 22.40125 -11.3125 21.0625 C-6.83628182 14.33761561 -3.02812344 7.49062115 0 0 Z " fill="#7E7167" transform="translate(290,296)"/>
<path d="M0 0 C0.66 0 1.32 0 2 0 C3.18359375 1.4609375 3.18359375 1.4609375 4.4375 3.375 C6.21688245 6.08590869 7.19194031 7.12796021 10 9 C10 11 10 11 8.35546875 12.69140625 C7.64003906 13.30886719 6.92460938 13.92632812 6.1875 14.5625 C5.12595703 15.49255859 5.12595703 15.49255859 4.04296875 16.44140625 C2 18 2 18 -1 19 C-1.598125 18.071875 -2.19625 17.14375 -2.8125 16.1875 C-4.77779546 13.11550825 -4.77779546 13.11550825 -6.75 11.25 C-7.1625 10.8375 -7.575 10.425 -8 10 C-8 9.34 -8 8.68 -8 8 C-6.50390625 6.5625 -6.50390625 6.5625 -4.5625 5 C-1.84811762 2.85474956 -1.84811762 2.85474956 0 0 Z " fill="#D0D855" transform="translate(51,42)"/>
<path d="M0 0 C2.53053791 2.53053791 3.73820681 5.43532814 5.25 8.625 C7.98476473 14.26830324 11.0056014 19.12878219 15 24 C10.05 24 5.1 24 0 24 C0 16.08 0 8.16 0 0 Z " fill="#82756B" transform="translate(221,297)"/>
<path d="M0 0 C4.00754167 1.33584722 5.37476236 3.76893828 8 7 C8.66 7.33 9.32 7.66 10 8 C8.91108001 11.26675996 8.15148744 11.95793848 5.5625 14.0625 C3.61446095 15.66078674 1.78426056 17.21573944 0 19 C-1.17544805 17.56967163 -2.34010262 16.13046758 -3.5 14.6875 C-4.1496875 13.88699219 -4.799375 13.08648437 -5.46875 12.26171875 C-7 10 -7 10 -7 7 C-4.625 4.4375 -4.625 4.4375 -2 2 C-1.34 1.34 -0.68 0.68 0 0 Z " fill="#D2DB55" transform="translate(51,96)"/>
<path d="M0 0 C0.94875 0.350625 1.8975 0.70125 2.875 1.0625 C8.85632291 2.7923327 15.08859182 1.58996496 21 0 C21 2.31 21 4.62 21 7 C17.17128327 8.23697002 13.35293434 8.14786169 9.375 8.125 C8.694375 8.12886719 8.01375 8.13273437 7.3125 8.13671875 C2.25344122 8.12672061 2.25344122 8.12672061 0 7 C0 4.69 0 2.38 0 0 Z " fill="#E7D4BA" transform="translate(352,321)"/>
<path d="M0 0 C1.97265625 0.265625 1.97265625 0.265625 4.97265625 2.265625 C5.41015625 4.703125 5.41015625 4.703125 4.97265625 7.265625 C2.72314246 9.77469808 1.32015153 10.22218809 -2.02734375 10.640625 C-5.29577918 10.23207057 -6.63957517 9.46971907 -9.02734375 7.265625 C-8.02215459 0.89942699 -6.48504426 0.04848631 0 0 Z " fill="#F5998B" transform="translate(387.02734375,268.734375)"/>
<path d="M0 0 C0.99 0.66 1.98 1.32 3 2 C3.375 5 3.375 5 3 8 C-0.69486103 10.46324069 -2.63293092 10.38991688 -7 10 C-8.9375 8.8125 -8.9375 8.8125 -10 7 C-10.375 4.4375 -10.375 4.4375 -10 2 C-6.31282562 -0.45811625 -4.35654296 -0.31118164 0 0 Z " fill="#F5988A" transform="translate(343,269)"/>
<path d="M0 0 C0.5259375 0.16242188 1.051875 0.32484375 1.59375 0.4921875 C4.60423926 1.12751803 7.42418375 1.13205462 10.5 1.125 C11.6240625 1.12757813 12.748125 1.13015625 13.90625 1.1328125 C16.4720699 1.02266367 18.56266427 0.75270662 21 0 C21 1.98 21 3.96 21 6 C17.17128327 7.23697002 13.35293434 7.14786169 9.375 7.125 C8.694375 7.12886719 8.01375 7.13273437 7.3125 7.13671875 C2.25344122 7.12672061 2.25344122 7.12672061 0 6 C0 4.02 0 2.04 0 0 Z " fill="#E7D3B9" transform="translate(139,322)"/>
<path d="M0 0 C3.5 0.8125 3.5 0.8125 5.5 2.125 C6.5 3.8125 6.5 3.8125 6.3125 5.875 C5.5 7.8125 5.5 7.8125 3.5 9.8125 C-3.530837 10.37050294 -3.530837 10.37050294 -6.5625 8.625 C-7.5 6.8125 -7.5 6.8125 -7.375 4.25 C-5.92100561 0.19958705 -4.13617422 -0.22158076 0 0 Z " fill="#F5998C" transform="translate(172.5,270.1875)"/>
<path d="M0 0 C2.0625 1.1875 2.0625 1.1875 3 3 C2.9375 5.5625 2.9375 5.5625 2 8 C-0.49018143 10.02903672 -1.84577171 10.00944255 -5.0625 9.8125 C-9.41643836 8.60821918 -9.41643836 8.60821918 -11 6 C-10.8125 3.375 -10.8125 3.375 -10 1 C-6.81538141 -0.5923093 -3.46608511 -0.38905037 0 0 Z " fill="#F5998B" transform="translate(131,271)"/>
<path d="M0 0 C1.9375 1.25 1.9375 1.25 3 3 C2.74853421 5.13745922 2.54074221 6.45925779 1 8 C-4.73611111 8.27314815 -4.73611111 8.27314815 -7 8 C-7.66 7.34 -8.32 6.68 -9 6 C-8.75 3.4375 -8.75 3.4375 -8 1 C-5.20129973 -0.39935013 -3.09501208 -0.25265405 0 0 Z " fill="#F59A8C" transform="translate(278,286)"/>
<path d="M0 0 C3.5625 0.1875 3.5625 0.1875 5.5625 2.1875 C5.6875 4.8125 5.6875 4.8125 5.5625 7.1875 C2.54925805 8.69412097 -0.12036377 8.36520373 -3.4375 8.1875 C-4.0975 7.5275 -4.7575 6.8675 -5.4375 6.1875 C-4.71428571 0.25714286 -4.71428571 0.25714286 0 0 Z " fill="#F5988B" transform="translate(236.4375,285.8125)"/>
<path d="M0 0 C0.99 0.33 1.98 0.66 3 1 C4.66458673 1.09308544 6.33281997 1.12996185 8 1.125 C9.299375 1.12886719 9.299375 1.12886719 10.625 1.1328125 C13.15011695 1.09594205 13.15011695 1.09594205 16 0 C16 1.65 16 3.3 16 5 C10.72 5 5.44 5 0 5 C0 3.35 0 1.7 0 0 Z " fill="#F0DCC1" transform="translate(248,330)"/>
<path d="M0 0 C2.4375 0.1875 2.4375 0.1875 3.4375 1.1875 C3.625 3.625 3.625 3.625 3.4375 6.1875 C2.7775 6.8475 2.1175 7.5075 1.4375 8.1875 C-1.1875 7.8125 -1.1875 7.8125 -3.5625 7.1875 C-4.1875 4.8125 -4.1875 4.8125 -4.5625 2.1875 C-2.5625 0.1875 -2.5625 0.1875 0 0 Z " fill="#483E36" transform="translate(377.5625,257.8125)"/>
<path d="M0 0 C2.5625 0.1875 2.5625 0.1875 4.5625 2.1875 C4.1875 4.8125 4.1875 4.8125 3.5625 7.1875 C1.1875 7.8125 1.1875 7.8125 -1.4375 8.1875 C-3.4375 6.1875 -3.4375 6.1875 -3.625 3.625 C-3.37291261 0.34786389 -3.27713611 0.25208739 0 0 Z " fill="#483F36" transform="translate(347.4375,257.8125)"/>
<path d="M0 0 C1.67542976 0.28604898 3.34385343 0.61781233 5 1 C5.6875 2.8125 5.6875 2.8125 6 5 C4.5625 6.75 4.5625 6.75 3 8 C0.525 7.01 0.525 7.01 -2 6 C-1.125 1.125 -1.125 1.125 0 0 Z " fill="#453B33" transform="translate(162,260)"/>
<path d="M0 0 C0.78375 0.04125 1.5675 0.0825 2.375 0.125 C3.5 4.875 3.5 4.875 2.375 7.125 C0.395 7.125 -1.585 7.125 -3.625 7.125 C-4.25 4.75 -4.25 4.75 -4.625 2.125 C-2.625 0.125 -2.625 0.125 0 0 Z " fill="#423830" transform="translate(135.625,259.875)"/>
<path d="M0 0 C1.2065625 0.0309375 1.2065625 0.0309375 2.4375 0.0625 C2.81968767 1.71864657 3.15145102 3.38707024 3.4375 5.0625 C2.4375 6.0625 2.4375 6.0625 -0.125 6.125 C-1.3315625 6.0940625 -1.3315625 6.0940625 -2.5625 6.0625 C-2.94468767 4.40635343 -3.27645102 2.73792976 -3.5625 1.0625 C-2.5625 0.0625 -2.5625 0.0625 0 0 Z " fill="#4F453B" transform="translate(243.5625,276.9375)"/>
<path d="M0 0 C1.65 0.33 3.3 0.66 5 1 C4.67 2.65 4.34 4.3 4 6 C2.35 5.67 0.7 5.34 -1 5 C-0.67 3.35 -0.34 1.7 0 0 Z " fill="#3E342D" transform="translate(266,277)"/>
<path d="M0 0 C1.485 0.99 1.485 0.99 3 2 C2.6875 5.375 2.6875 5.375 2 9 C1.01 9.66 0.02 10.32 -1 11 C-0.67 7.37 -0.34 3.74 0 0 Z " fill="#D7C5AD" transform="translate(407,262)"/>
<path d="M0 0 C0.66 0 1.32 0 2 0 C2.33 3.3 2.66 6.6 3 10 C-0.91941982 6.69298952 -0.91941982 6.69298952 -1.3125 3.3125 C-1 1 -1 1 0 0 Z " fill="#D9C7AE" transform="translate(316,263)"/>
<path d="M0 0 C0.66 0 1.32 0 2 0 C3.125 6.75 3.125 6.75 2 9 C1.34 9 0.68 9 0 9 C0 6.03 0 3.06 0 0 Z " fill="#DDCAB1" transform="translate(193,264)"/>
<path d="M0 0 C0.66 0 1.32 0 2 0 C2 2.97 2 5.94 2 9 C1.34 9 0.68 9 0 9 C-1.125 2.25 -1.125 2.25 0 0 Z " fill="#DDCAB1" transform="translate(104,264)"/>
</svg>
