<?xml version="1.0" encoding="UTF-8"?>
<svg version="1.1" xmlns="http://www.w3.org/2000/svg" width="512" height="512">
<path d="M0 0 C2.54627451 1.68510306 3.77630893 3.09625002 4.51660156 6.0871582 C4.89619619 8.70013911 5.17822577 11.3098954 5.4375 13.9375 C7.66010901 32.25248744 15.28240962 44.98040314 27 59 C47 83.27906977 47 83.27906977 47 95 C47.87140625 94.43152344 48.7428125 93.86304687 49.640625 93.27734375 C50.84344682 92.49692835 52.04659648 91.7170181 53.25 90.9375 C53.88172119 90.52701416 54.51344238 90.11652832 55.16430664 89.69360352 C59.17622911 87.10794134 63.2488793 84.73088928 67.4375 82.4375 C76.79345782 76.9757108 80.49097926 70.98160519 83.859375 60.7578125 C85 58 85 58 88 56 C93.54681532 55.12418706 96.38695563 55.8710915 101.0625 59 C111.31926508 66.88134863 117.10643026 76.05580751 119 89 C119.15821731 90.94853632 119.28893031 92.89946748 119.39453125 94.8515625 C119.46349609 95.95113281 119.53246094 97.05070312 119.60351562 98.18359375 C119.74137885 100.45382735 119.86920505 102.72469571 119.98632812 104.99609375 C120.77873076 117.04341875 124.19577758 127.03667432 131 137 C131.3815625 137.63679687 131.763125 138.27359375 132.15625 138.9296875 C135.86309909 144.27610446 141.21157553 146.06663975 147.02807617 148.44165039 C158.95677832 153.34599465 169.76047092 163.06551711 175 175 C176.216875 174.9175 177.43375 174.835 178.6875 174.75 C181.78999343 174.53966146 182.91854778 174.94838914 185.6015625 176.6484375 C188.28594118 179.28035275 189.34934289 181.38067611 190.6875 184.875 C191.28111328 186.38707031 191.28111328 186.38707031 191.88671875 187.9296875 C192.9773135 190.93743301 193.99379573 193.96316936 195 197 C195.3623877 196.22922119 195.72477539 195.45844238 196.09814453 194.66430664 C197.46795518 191.75972406 198.84419132 188.85829482 200.22460938 185.95874023 C200.81665123 184.71188853 201.40624302 183.46386997 201.99316406 182.21459961 C211.34161969 162.32919015 211.34161969 162.32919015 216 160 C223.01599016 159.43419434 223.01599016 159.43419434 226.5 161.4375 C229.06899133 165.82619352 228.36747547 170.39521503 227.67382812 175.31201172 C226.78103446 181.71608934 227.4991577 186.80136344 229.1875 193 C229.65421273 194.85141969 230.12034901 196.70298477 230.5859375 198.5546875 C231.26334119 201.17490339 231.94576839 203.79368591 232.63378906 206.41113281 C236.37984198 220.84608795 239.897274 238.34931032 232 252 C228.80059117 256.63495847 225.71347437 260.85768375 221 264 C221 265.32 221 266.64 221 268 C222.67078827 269.16955179 224.3464412 270.33303133 226.05078125 271.453125 C231.2255501 275.55975519 234.32274757 281.71987674 236 288 C236.23677871 290.65687736 236.38099785 293.15955514 236.375 295.8125 C236.37411377 296.51665039 236.37322754 297.22080078 236.37231445 297.94628906 C236.22266877 304.54285291 234.75306266 309.77855239 230.45019531 314.81347656 C228.74780155 317.38025073 228.63158864 318.73166755 228.62890625 321.78125 C228.61448486 322.69994873 228.60006348 323.61864746 228.58520508 324.56518555 C228.57396606 326.0179187 228.57396606 326.0179187 228.5625 327.5 C228.15343407 342.2755574 224.08232553 356.16401759 213.8125 367.31640625 C201.98205043 378.30546609 188.4270214 384.35281897 172.3125 384.375 C171.39533203 384.39949219 170.47816406 384.42398437 169.53320312 384.44921875 C162.09802622 384.4803935 155.90563325 382.67202514 149 380 C149.04211513 386.97063496 149.11486446 393.9405 149.20751953 400.91064453 C149.23549998 403.27483145 149.25682671 405.63910794 149.27099609 408.00341797 C149.37696998 424.69783783 149.82082908 440.26533525 157.75 455.375 C161 461.82193878 161 461.82193878 161 464 C161.88061096 463.99111755 162.76122192 463.98223511 163.66851807 463.9730835 C171.96712359 463.89293799 180.26559916 463.83203584 188.56450272 463.79275131 C192.83109292 463.77187567 197.09736336 463.74355891 201.36376953 463.69824219 C205.48106784 463.6547829 209.59805857 463.63086272 213.71556854 463.62049103 C215.2864847 463.61309973 216.85738402 463.59866612 218.42816925 463.57707977 C220.62858969 463.54804318 222.82773913 463.54404388 225.02832031 463.54589844 C226.28074524 463.53701599 227.53317017 463.52813354 228.82354736 463.51898193 C232.5720171 464.08662196 233.73256976 465.02408986 236 468 C236.53125 470 236.53125 470 236.5 472 C236.5103125 472.66 236.520625 473.32 236.53125 474 C235.73278915 477.00597025 234.45432011 478.09606309 232 480 C229.24853809 480.39207261 226.89762761 480.53790488 224.14758301 480.50336456 C222.94708895 480.51208521 222.94708895 480.51208521 221.72234249 480.52098203 C219.02357769 480.53565335 216.32571225 480.52166387 213.62695312 480.50793457 C211.67944115 480.51254067 209.73193265 480.51889162 207.78443146 480.52684355 C202.4195545 480.54359995 197.05496077 480.53526187 191.69008255 480.52289867 C185.90949802 480.51387626 180.1289634 480.52780392 174.34838867 480.53881836 C163.01901483 480.55663826 151.68974678 480.55274815 140.36036873 480.5411678 C131.15568292 480.53214738 121.95102684 480.53090343 112.74633789 480.53526306 C111.43806424 480.53587599 110.12979058 480.53648893 108.78187227 480.53712043 C106.12443732 480.53839929 103.46700238 480.53969614 100.80956745 480.5410108 C76.58127352 480.55250327 52.35303314 480.54058499 28.12474835 480.51964041 C5.99719711 480.50065732 -16.13026206 480.50235581 -38.2578125 480.52148438 C-63.10614708 480.54289306 -87.95443 480.55132803 -112.80277252 480.53903532 C-115.45062764 480.53776108 -118.09848276 480.53650359 -120.74633789 480.53526306 C-122.70071376 480.53433741 -122.70071376 480.53433741 -124.69457197 480.53339306 C-133.8920156 480.52993417 -143.08942665 480.53578009 -152.28686523 480.54518127 C-163.49001476 480.55638049 -174.69305212 480.55340502 -185.89618874 480.5320583 C-191.61612753 480.5215199 -197.33587909 480.51747348 -203.05581665 480.53065491 C-208.28652667 480.54252693 -213.51687496 480.53610231 -218.74755192 480.5147447 C-220.6451993 480.51025654 -222.5428769 480.51259412 -224.44050503 480.52224785 C-227.00997231 480.53432213 -229.57818261 480.52202924 -232.14758301 480.50336456 C-233.26598241 480.51741156 -233.26598241 480.51741156 -234.40697575 480.53174233 C-237.87291597 480.4810392 -239.68147485 480.24709563 -242.45757294 478.09353971 C-244.13039059 475.82302056 -244.54351767 474.78513085 -244.5 472 C-244.5103125 471.34 -244.520625 470.68 -244.53125 470 C-243.74176646 467.02782668 -242.40031481 465.90162888 -240 464 C-236.82354736 463.51898193 -236.82354736 463.51898193 -233.02832031 463.54589844 C-232.3352327 463.54531433 -231.64214508 463.54473022 -230.92805481 463.54412842 C-228.64422985 463.54690831 -226.36172103 463.57799293 -224.078125 463.609375 C-222.49201165 463.6168378 -220.90588906 463.62253055 -219.31976318 463.62652588 C-215.15039497 463.64177935 -210.98158644 463.68105813 -206.81243896 463.7253418 C-202.55602591 463.76630102 -198.29952219 463.78453825 -194.04296875 463.8046875 C-185.695056 463.84755317 -177.34759767 463.9158004 -169 464 C-168.69892334 463.07582275 -168.39784668 462.15164551 -168.08764648 461.19946289 C-166.9423254 457.83034216 -165.536923 454.67522785 -164.0625 451.4375 C-156.60149449 434.43482058 -156.84969266 416.95096965 -156.9375 398.75 C-156.94252673 396.92578248 -156.94708756 395.10156362 -156.95117188 393.27734375 C-156.96208061 388.85152868 -156.97928006 384.42577957 -157 380 C-158.10794922 380.42442383 -158.10794922 380.42442383 -159.23828125 380.85742188 C-166.33573722 383.4231477 -172.46774861 384.65483223 -180 384.5 C-180.95624268 384.48791504 -181.91248535 384.47583008 -182.89770508 384.46337891 C-190.17309198 384.25927471 -196.40333518 383.20918829 -203 380 C-203.96164063 379.54109375 -204.92328125 379.0821875 -205.9140625 378.609375 C-221.02020778 370.87307418 -229.49387542 358.71201459 -235.11328125 342.859375 C-236.46436723 336.97887743 -236.32294485 331.10838738 -236.30273438 325.09375 C-236.42564082 319.32111188 -237.08469726 316.01110575 -240.77954102 311.53979492 C-245.76683214 305.24756746 -244.60924637 295.55164641 -244 288 C-243.12815206 284.62571282 -241.86064729 281.93339834 -240 279 C-239.61457031 278.35546875 -239.22914063 277.7109375 -238.83203125 277.046875 C-236.67174587 273.71905675 -235.41816731 272.20104198 -231.75 270.4375 C-228.73103616 268.27497004 -228.73103616 268.27497004 -228.50390625 265.06640625 C-228.37351935 262.63695233 -228.27721971 260.20548474 -228.2109375 257.7734375 C-227.90511705 252.30264945 -226.52642421 247.24168315 -225 242 C-225.60070312 241.71253906 -226.20140625 241.42507813 -226.8203125 241.12890625 C-234.71496774 237.04009736 -239.66872498 229.95263679 -242.640625 221.73046875 C-244.04609803 217.28506039 -244.57636051 213.21244546 -244.5625 208.5625 C-244.5622583 207.76827637 -244.5620166 206.97405273 -244.56176758 206.15576172 C-244.2745949 195.56563942 -241.42248039 185.39400813 -238.8112793 175.18359375 C-237.95054894 171.8059459 -237.10167566 168.42674972 -236.28125 165.0390625 C-235.90129883 163.4914624 -235.90129883 163.4914624 -235.51367188 161.91259766 C-234.72762212 157.45557601 -235.35207589 153.43238992 -236 149 C-236.69072636 141.17999086 -236.69072636 141.17999086 -234.5 137.4375 C-231.6876863 135.82041962 -229.32748417 135.48025294 -226.09765625 135.37109375 C-220.61824424 137.01389698 -218.32632292 141.98864407 -215.7734375 146.7109375 C-214.63087691 148.92729347 -213.49833881 151.14883998 -212.375 153.375 C-211.80265625 154.48617187 -211.2303125 155.59734375 -210.640625 156.7421875 C-207.90224997 162.09157128 -205.26263979 167.43165954 -203 173 C-202.61328125 171.90300781 -202.2265625 170.80601562 -201.828125 169.67578125 C-201.30258858 168.22117153 -200.7765186 166.7667545 -200.25 165.3125 C-199.99734375 164.59126953 -199.7446875 163.87003906 -199.484375 163.12695312 C-197.90502267 158.80347613 -196.28977434 155.34087763 -193 152 C-189.167179 150.88499753 -186.99004424 150.61748291 -183.25 152.0625 C-180.53736382 154.39838116 -179.51545161 156.7905522 -178 160 C-177.69932617 159.51345947 -177.39865234 159.02691895 -177.08886719 158.52563477 C-166.49002508 141.42769162 -155.20034724 124.85830575 -142.69140625 109.08984375 C-131.73093839 95.06118421 -126.31624591 80.9978137 -124.72265625 63.28515625 C-123.90130139 59.55132147 -123.06299399 58.23560206 -120 56 C-112.8156876 53.89974738 -105.20261224 57.66325441 -99 61 C-87.66370718 68.47466091 -79.72161693 78.98166024 -72.24853516 90.11108398 C-69.54660826 94.07763627 -67.07775627 97.31430536 -63 100 C-62.34 100 -61.68 100 -61 100 C-53.00740481 90.75142556 -50.06136217 79.13028339 -49.5703125 67.20703125 C-49.49661324 65.67380307 -49.42237714 64.14060061 -49.34765625 62.60742188 C-49.23475658 60.21624599 -49.12552563 57.82511649 -49.02587891 55.43334961 C-48.36569373 39.88679386 -46.18836055 25.95341435 -34.23828125 14.71875 C-29.21050157 10.85797677 -23.57808654 7.97249205 -18 5 C-17.06027344 4.46632813 -16.12054688 3.93265625 -15.15234375 3.3828125 C-9.84594228 0.47946455 -6.06248789 -0.94073088 0 0 Z M-108 379 C-108.05023982 384.38532217 -108.0861072 389.77050162 -108.10986328 395.15600586 C-108.11978893 396.97992332 -108.13333383 398.80382546 -108.15087891 400.62768555 C-108.3741356 424.4701872 -105.33964143 441.8436255 -95 464 C-77.18 464 -59.36 464 -41 464 C-29.91268226 440.4394498 -27.81978281 423.31265527 -27.9375 398.25 C-27.94252635 396.37760537 -27.94708724 394.50520942 -27.95117188 392.6328125 C-27.96208457 388.08850877 -27.97928629 383.54426919 -28 379 C-28.80646973 379.28512451 -29.61293945 379.57024902 -30.44384766 379.86401367 C-37.97520049 382.37757932 -44.45887036 383.56514244 -52.375 383.3125 C-53.30699219 383.30283203 -54.23898438 383.29316406 -55.19921875 383.28320312 C-59.18245177 383.21841221 -62.96743508 383.00484249 -66.9140625 382.41796875 C-69.91894438 382.01097842 -71.16815099 382.2669808 -74 383 C-77.30891599 383.26921379 -80.61876232 383.2772193 -83.9375 383.3125 C-84.81212891 383.34150391 -85.68675781 383.37050781 -86.58789062 383.40039062 C-94.24215635 383.47265312 -100.81500684 381.52886035 -108 379 Z M96.76171875 379.875 C85.60914565 383.95624657 73.8498728 384.18623838 62.1484375 382.41796875 C59.10139588 382.01346074 57.86504653 382.26560305 55 383 C51.50333142 383.24677088 48.00452115 383.231209 44.5 383.25 C43.56929688 383.270625 42.63859375 383.29125 41.6796875 383.3125 C34.41787878 383.35250997 27.95809701 382.02868 21 380 C20.89739611 386.97008481 20.82803741 393.93997037 20.78027344 400.91064453 C20.76033213 403.27497637 20.73316912 405.63926002 20.69824219 408.00341797 C20.37520078 430.4547955 23.01812102 442.78850716 33 464 C50.82 464 68.64 464 87 464 C98.08731774 440.4394498 100.18021719 423.31265527 100.0625 398.25 C100.05747365 396.37760537 100.05291276 394.50520942 100.04882812 392.6328125 C100.03791543 388.08850877 100.02071371 383.54426919 100 379 C98.7546883 378.93931785 98.7546883 378.93931785 96.76171875 379.875 Z " fill="#000000" transform="translate(260,16)"/>
<path d="M0 0 C11.60057992 -0.38466146 21.98230603 4.21042128 30.44921875 11.98046875 C34.91956443 16.68506835 37.60455072 21.92036839 40.2890625 27.796875 C41.31221085 30.36452407 41.31221085 30.36452407 43.55078125 31.23828125 C45.61213132 31.47757084 47.67487149 31.70495604 49.73828125 31.92578125 C55.82548916 32.82135498 59.73389102 34.3291732 63.55078125 39.23828125 C66.07858277 43.49427361 66.35946939 47.39392825 65.55078125 52.23828125 C64.37602385 54.61557747 63.0768906 56.73793144 61.546875 58.90234375 C60.04300425 62.4290681 60.51390848 64.58320466 61.55078125 68.23828125 C63.45029783 70.33299355 65.12727226 71.93787553 67.30078125 73.67578125 C74.76382107 80.08520255 79.25225644 86.53151389 81.55078125 96.23828125 C81.85077736 100.57591624 81.57760515 104.88054676 81.34570312 109.21679688 C81.09469519 114.28712506 81.09469519 114.28712506 83.3046875 118.6953125 C85.35253959 120.10209785 87.37502276 121.41491427 89.55078125 122.61328125 C93.37600823 124.9612284 95.59748782 127.08753271 97.55078125 131.23828125 C98.20594001 137.1347101 97.4387735 140.9436288 94.55078125 146.23828125 C93.48286343 147.3779249 92.3987425 148.50255301 91.30078125 149.61328125 C89.05552184 152.10160486 89.05552184 152.10160486 88.38671875 155.29296875 C88.69406708 157.62715474 89.1241111 159.92313191 89.55078125 162.23828125 C90.55474625 173.40101075 87.92302985 184.15619733 81.23046875 193.24609375 C74.26826209 201.50359468 64.36826484 207.56018478 53.3984375 208.51171875 C45.22271741 208.73108792 39.72065786 207.89741235 32.1875 204.3671875 C26.44831307 201.90996524 22.0046077 202.91420575 16.30078125 205.17578125 C15.49125 205.53542969 14.68171875 205.89507812 13.84765625 206.265625 C4.72579892 210.12845234 -5.44125566 208.79577392 -14.44921875 205.23828125 C-15.46628906 204.70460938 -15.46628906 204.70460938 -16.50390625 204.16015625 C-20.64680583 202.19685444 -24.83867849 202.70385272 -29.05078125 204.1015625 C-30.76252896 204.79585545 -32.46424639 205.51565818 -34.15234375 206.265625 C-43.32038635 210.14801039 -53.30561209 208.43128675 -62.44921875 205.23828125 C-73.6161169 200.2034948 -80.13935349 192.31034273 -84.5390625 181.03515625 C-85.83960765 177.03863124 -86.59020079 173.31655763 -86.57421875 169.11328125 C-86.57679688 168.33597656 -86.579375 167.55867187 -86.58203125 166.7578125 C-86.44921875 164.23828125 -86.44921875 164.23828125 -85.94140625 161.5625 C-85.14808749 157.11110032 -84.72645981 154.43503558 -87.12890625 150.45703125 C-88.55286473 148.73409217 -90.03063542 147.05375178 -91.56640625 145.4296875 C-94.61844582 141.87741737 -94.93442954 138.0503509 -94.84765625 133.390625 C-94.05737074 129.12153369 -91.54542073 126.16525762 -88.44921875 123.23828125 C-86.12406147 121.72270844 -83.80665224 120.44468992 -81.3046875 119.24609375 C-79.27911296 118.37516801 -79.27911296 118.37516801 -78.44921875 116.23828125 C-78.41227046 114.83244377 -78.43571315 113.4247198 -78.4921875 112.01953125 C-79.01501174 93.85744829 -79.01501174 93.85744829 -74.44921875 86.23828125 C-74.03671875 85.48804688 -73.62421875 84.7378125 -73.19921875 83.96484375 C-70.42127047 79.34019121 -67.25895985 76.08866568 -63.13671875 72.61328125 C-60.08058567 69.94031894 -58.59620094 68.5897604 -57.01171875 64.80078125 C-57.54487549 60.4593621 -59.21653643 57.53444089 -61.28515625 53.7265625 C-63.10322093 49.84029672 -63.08664669 47.48780082 -62.44921875 43.23828125 C-59.87632374 38.28307604 -56.46687949 34.74711162 -51.44921875 32.23828125 C-48.66048682 32.00261376 -45.87313618 31.85626908 -43.078125 31.71484375 C-40.00699242 31.15811541 -39.27120665 30.72710622 -37.44921875 28.23828125 C-36.32401344 26.17726162 -35.2454381 24.09049769 -34.19921875 21.98828125 C-28.29712572 10.96615306 -21.02427565 5.81146221 -9.44921875 1.23828125 C-6.28944153 0.65238472 -3.19380416 0.31072098 0 0 Z " fill="#009C53" transform="translate(254.44921875,175.76171875)"/>
<path d="M0 0 C9.06097188 5.58302308 13.93222333 12.65822656 18.30859375 22.23828125 C19.3317421 24.80593032 19.3317421 24.80593032 21.5703125 25.6796875 C23.27395072 25.90590831 24.98359951 26.08857223 26.6953125 26.2421875 C27.60539063 26.32597656 28.51546875 26.40976563 29.453125 26.49609375 C30.15179688 26.55667969 30.85046875 26.61726563 31.5703125 26.6796875 C31.35375 27.34613281 31.1371875 28.01257813 30.9140625 28.69921875 C28.46335782 36.81150507 26.94081886 44.7001014 30.0703125 52.8046875 C30.5703125 56.6796875 30.5703125 56.6796875 29.203125 58.609375 C27.79547636 60.0608415 26.37503795 61.49996205 24.9453125 62.9296875 C17.80959922 71.19209235 12.67340948 82.95678611 12.52734375 93.8984375 C12.3152526 102.86686317 12.3152526 102.86686317 9.94140625 105.45703125 C8.55290912 106.36600945 7.141442 107.24070936 5.7109375 108.08203125 C0.91695884 111.66001897 -1.57604721 118.11876662 -3.4296875 123.6796875 C-4.45192827 133.82907796 -2.73600745 142.62674827 3.24609375 151.03515625 C5.01986087 154.57745813 4.68383121 157.65400577 4.4453125 161.4921875 C3.99296367 177.22709896 10.19941488 189.29874398 19.5703125 201.6796875 C16.17379346 201.27534 13.72226684 200.76227138 10.6953125 199.1171875 C6.78991147 197.32070303 3.74531586 196.91312951 -0.4296875 197.6796875 C-2.50774569 198.47342856 -4.56925607 199.31116718 -6.6171875 200.1796875 C-16.72168849 204.29633605 -26.37400397 203.71677591 -36.4296875 199.6796875 C-37.44482422 199.14601563 -37.44482422 199.14601563 -38.48046875 198.6015625 C-42.62684445 196.64055115 -46.81647417 197.14437196 -51.03125 198.54296875 C-52.74299771 199.2372617 -54.44471514 199.95706443 -56.1328125 200.70703125 C-65.3008551 204.58941664 -75.28608084 202.872693 -84.4296875 199.6796875 C-95.59658565 194.64490105 -102.11982224 186.75174898 -106.51953125 175.4765625 C-108.0881011 170.65640794 -108.56672821 166.37382836 -108.5546875 161.3046875 C-108.55726562 160.15613281 -108.55984375 159.00757813 -108.5625 157.82421875 C-108.4296875 154.6796875 -108.4296875 154.6796875 -107.4296875 150.9921875 C-107.4296875 146.00172275 -110.31977975 143.53470595 -113.546875 139.9140625 C-116.69384438 136.17948473 -116.77179682 132.64710491 -116.7109375 127.9609375 C-116.13581252 123.29603488 -113.38519224 120.55975766 -110.0546875 117.4921875 C-107.29114648 115.58402823 -104.42874856 114.17921803 -101.4296875 112.6796875 C-99.79195501 109.40422253 -100.46512633 105.77296812 -100.5546875 102.1796875 C-100.65997622 95.2098513 -100.17747043 89.18931611 -97.4296875 82.6796875 C-96.01429687 82.55013672 -96.01429687 82.55013672 -94.5703125 82.41796875 C-81.73977495 81.01382358 -70.04931443 78.05737695 -61.4296875 67.6796875 C-54.89567179 57.1128492 -52.24991963 47.08759097 -53.4296875 34.6796875 C-54.32035013 31.71702309 -55.41601252 28.92921209 -56.58203125 26.06640625 C-57.86260806 22.46072684 -57.63496779 20.29552836 -56.4296875 16.6796875 C-50.90907447 6.09376973 -42.56170758 -0.16986556 -31.63671875 -4.40234375 C-20.60861474 -7.55898741 -9.84551545 -5.35013541 0 0 Z " fill="#008D46" transform="translate(148.4296875,181.3203125)"/>
<path d="M0 0 C11.60057992 -0.38466146 21.98230603 4.21042128 30.44921875 11.98046875 C34.89976475 16.66423114 37.46512752 21.78364678 39.99609375 27.69921875 C41.84366001 30.71660083 43.20192084 31.30240444 46.55078125 32.23828125 C45.89115094 36.79412794 44.13153725 40.71251093 42.23828125 44.86328125 C41.60358074 46.29864579 40.97076966 47.7348473 40.33984375 49.171875 C39.29823156 51.54151535 38.25219653 53.90880243 37.19921875 56.2734375 C32.49035136 67.77459203 33.8111291 78.92474624 38.55078125 90.23828125 C43.89864661 100.51789565 51.70343586 106.18839098 62.3046875 110.30859375 C66.01701471 111.37181141 69.59240381 111.68498462 73.42578125 111.86328125 C74.11414063 111.90195312 74.8025 111.940625 75.51171875 111.98046875 C77.19101371 112.07376291 78.87085892 112.15706363 80.55078125 112.23828125 C80.86015625 113.29015625 81.16953125 114.34203125 81.48828125 115.42578125 C82.9527838 118.92236867 84.56392858 120.06574556 87.92578125 121.73828125 C92.52610153 124.04969829 95.54868391 126.39262538 97.55078125 131.23828125 C98.57223613 136.92074381 97.72297953 141.37424388 94.55078125 146.23828125 C93.77347656 146.99818359 93.77347656 146.99818359 92.98046875 147.7734375 C89.48466418 151.18711591 89.48466418 151.18711591 88.38671875 155.8125 C88.67886038 158.64311555 89.09207407 161.43019554 89.55078125 164.23828125 C90.60853273 174.56480421 87.36156785 184.91878005 81.23046875 193.24609375 C74.26826209 201.50359468 64.36826484 207.56018478 53.3984375 208.51171875 C45.22271741 208.73108792 39.72065786 207.89741235 32.1875 204.3671875 C26.44831307 201.90996524 22.0046077 202.91420575 16.30078125 205.17578125 C15.49125 205.53542969 14.68171875 205.89507812 13.84765625 206.265625 C4.72579892 210.12845234 -5.44125566 208.79577392 -14.44921875 205.23828125 C-15.46435547 204.70460938 -15.46435547 204.70460938 -16.5 204.16015625 C-19.75108258 202.6225701 -22.97124972 202.70743335 -26.44921875 203.23828125 C-28.88184653 204.17905478 -31.16070458 205.24768176 -33.46875 206.4609375 C-35.44921875 207.23828125 -35.44921875 207.23828125 -38.44921875 206.23828125 C-37.58296875 205.33078125 -36.71671875 204.42328125 -35.82421875 203.48828125 C-26.88287817 193.00387244 -23.18309072 180.67121509 -23.63671875 167.17578125 C-23.85598273 160.36313704 -23.24474002 155.97156987 -18.95703125 150.37890625 C-14.51805345 144.07693776 -14.73078547 136.62661358 -15.44921875 129.23828125 C-16.36724954 125.93833275 -17.68919627 123.16783007 -19.44921875 120.23828125 C-19.83464844 119.58988281 -20.22007812 118.94148438 -20.6171875 118.2734375 C-22.77955716 114.96340239 -24.07281039 113.42648543 -27.69921875 111.61328125 C-30.44921875 109.23828125 -30.44921875 109.23828125 -30.9453125 106.52734375 C-31.0769323 104.26563211 -31.18224095 102.00228443 -31.265625 99.73828125 C-31.92677303 87.13426783 -37.12540229 75.37359471 -46.01171875 66.42578125 C-48.046875 64.2734375 -48.046875 64.2734375 -49.44921875 62.23828125 C-48.94921875 58.36328125 -48.94921875 58.36328125 -48.1875 56.390625 C-45.47031871 48.46910705 -47.9640113 39.88621131 -50.44921875 32.23828125 C-49.76214844 32.20089844 -49.07507813 32.16351563 -48.3671875 32.125 C-47.46613281 32.05925781 -46.56507813 31.99351562 -45.63671875 31.92578125 C-44.74339844 31.86777344 -43.85007812 31.80976563 -42.9296875 31.75 C-39.98296549 31.14209357 -39.23387467 30.62961907 -37.44921875 28.23828125 C-36.32401344 26.17726162 -35.2454381 24.09049769 -34.19921875 21.98828125 C-28.29712572 10.96615306 -21.02427565 5.81146221 -9.44921875 1.23828125 C-6.28944153 0.65238472 -3.19380416 0.31072098 0 0 Z " fill="#008D46" transform="translate(382.44921875,175.76171875)"/>
<path d="M0 0 C0.1959375 0.88558594 0.391875 1.77117188 0.59375 2.68359375 C4.71206678 19.74265591 11.99113301 33.54175693 23.4765625 46.875 C35.47420435 60.84129515 43.83338231 76.16006287 48.26171875 94.14453125 C48.94523668 96.37373105 48.94523668 96.37373105 52 98 C55.393381 98.23402628 56.94421068 98.27146479 60 97 C62.43930661 94.69231065 64.51808678 92.20339336 66.66796875 89.625 C72.04931688 83.56760311 79.12263621 79.90012135 86.125 76 C94.95950334 71.05618069 101.154384 65.96904885 106 57 C109.02082881 58.04166511 109.93628933 58.89304424 111.59985352 61.68579102 C113.06692993 65.15842611 113.44305392 67.65490205 113.58984375 71.40234375 C113.64946289 72.61543213 113.70908203 73.82852051 113.77050781 75.07836914 C113.85316895 76.98863892 113.85316895 76.98863892 113.9375 78.9375 C114.77191545 93.56595876 116.68420215 105.55148348 123.73046875 118.609375 C125 121 125 121 126 124 C125.18917969 124.21914062 124.37835938 124.43828125 123.54296875 124.6640625 C107.3378925 129.30486431 95.93542569 136.5825699 87 151 C86.55527344 152.08667969 86.55527344 152.08667969 86.1015625 153.1953125 C84.55410594 155.73050729 83.07999495 155.94569829 80.25 156.6875 C79.40953125 156.91824219 78.5690625 157.14898437 77.703125 157.38671875 C69.80679253 159.17822771 64.26625214 158.99543227 57 155 C55.11330952 152.69823761 53.92012458 150.47073082 52.65307617 147.78271484 C50.83108396 144.71565426 48.95550503 143.21229713 46.18359375 140.99609375 C38.59026637 133.58454353 37.37923924 123.72994271 35.1875 113.6875 C34.32017853 109.89637787 33.43396986 106.10983836 32.54296875 102.32421875 C32.22689415 100.96534798 32.22689415 100.96534798 31.9044342 99.57902527 C28.15988072 83.84594043 21.60778102 70.2652468 11 58 C10.154375 56.989375 9.30875 55.97875 8.4375 54.9375 C5.24500092 52.39987252 3.05180398 52 -1 52 C-3.24740758 52.84061066 -3.24740758 52.84061066 -5 55 C-6.05478617 57.99607913 -6.6254255 61.07765154 -7.25 64.1875 C-9.67557154 75.04937094 -13.83195302 84.31593377 -19.71484375 93.75 C-21.42377804 96.74193359 -21.50509251 98.6086646 -21 102 C-18.90889337 105.05623277 -17.70693151 105.86463014 -14.0625 106.5625 C-9.93012861 105.80349301 -8.75819049 104.14022296 -6 101 C-4.45969874 98.64161626 -3.15503485 96.19496985 -1.875 93.6875 C-1.52953125 93.02613037 -1.1840625 92.36476074 -0.828125 91.68334961 C1.46776801 87.22355554 3.44084746 82.77490464 5 78 C8 79 8 79 9.61328125 81.5 C16.25943709 95.18955317 19.58885971 110.01924094 22 125 C21.18660156 124.84144531 20.37320313 124.68289062 19.53515625 124.51953125 C2.07450346 121.95349056 -13.73257924 125.19428527 -28.21484375 135.58984375 C-33.91273877 140.23783873 -39.09194069 146.33769856 -41.8984375 153.1953125 C-43.44589406 155.73050729 -44.92000505 155.94569829 -47.75 156.6875 C-49.01070312 157.03361328 -49.01070312 157.03361328 -50.296875 157.38671875 C-58.18725867 159.17687805 -63.7431224 159.00276192 -71 155 C-72.99141782 152.64650622 -74.30141722 150.41153733 -75.62109375 147.6328125 C-78.74759371 141.66323467 -82.99989923 137.9124801 -88.5 134.25 C-89.05558594 133.86457031 -89.61117187 133.47914063 -90.18359375 133.08203125 C-93.3390447 130.9363246 -96.39869995 129.26314255 -100 128 C-98.44166808 124.5442173 -96.39989555 121.72724126 -94.0625 118.75 C-93.37285156 117.85796875 -92.68320313 116.9659375 -91.97265625 116.046875 C-91.32167969 115.37140625 -90.67070312 114.6959375 -90 114 C-85.95983655 114 -83.82173892 116.01785289 -80.6875 118.3125 C-72.20730017 124.79194084 -72.20730017 124.79194084 -62 126 C-59.5 124.5 -59.5 124.5 -58 122 C-57.33333333 119 -57.33333333 119 -58 116 C-60.78446399 112.69869815 -63.76163439 110.91637943 -67.5625 108.9375 C-73.70178482 105.47991505 -78.04332808 101.33941622 -82.8203125 96.2578125 C-85.44793283 93.53601223 -86.16782263 93.0354118 -89.9375 92.875 C-93.04198085 92.85995188 -93.04198085 92.85995188 -96 94 C-96.67293346 95.66414626 -97.33805854 97.33145101 -98 99 C-99.66304536 101.29298678 -101.34008017 103.49477934 -103.125 105.6875 C-107.26137947 110.76304265 -107.26137947 110.76304265 -111.046875 116.1015625 C-115.42985427 122.60110868 -115.42985427 122.60110868 -120.13671875 123.796875 C-123.45091162 124.05384777 -126.67846853 124.06744226 -130 124 C-132.35785378 124.24657294 -134.6597462 124.61902845 -137 125 C-135.72336204 121.49977578 -134.24427971 118.69348139 -132.0234375 115.70703125 C-131.43900879 114.91707764 -130.85458008 114.12712402 -130.25244141 113.31323242 C-129.63288574 112.48799072 -129.01333008 111.66274902 -128.375 110.8125 C-127.42439697 109.53113159 -127.42439697 109.53113159 -126.45458984 108.22387695 C-123.27487924 103.95727013 -120.03897878 99.77061862 -116.625 95.6875 C-106.71310229 83.41966943 -102.24443719 69.97024468 -98 55 C-88.67844974 58.22606696 -83.42403742 66.61534949 -78.0625 74.4375 C-71.26464061 84.31035126 -63.98979403 94.31234953 -52 98 C-48.89402222 98.56524228 -46.8435008 98.40164484 -44 97 C-31.25708559 86.29496978 -23.98203894 69.19552371 -22 53 C-21.69965361 47.13594397 -21.63598148 41.26591749 -21.61914062 35.39477539 C-21.57139345 25.45261993 -20.54580437 17.77834786 -15.3125 9.25 C-11.60742407 5.64506126 -5.41992495 0 0 0 Z " fill="#F0702B" transform="translate(249,37)"/>
<path d="M0 0 C2.0625 1.5625 2.0625 1.5625 3 4 C2.82960918 5.84022083 2.63793526 7.6808362 2.34228516 9.50512695 C0.78217321 20.87658484 2.85528412 31.09276339 5.9375 41.9375 C6.50246363 43.98140317 7.06231579 46.02659456 7.61854553 48.07289124 C8.12074999 49.91166613 8.63599256 51.74686587 9.15209961 53.58178711 C12.42318229 66.76878067 11.95221856 79.34463896 5.6796875 91.57421875 C-0.19118182 101.02214779 -8.64632881 107.53347253 -19.4375 110.25 C-31.16051203 112.47057054 -42.64072554 110.35828086 -52.68359375 103.78125 C-61.75782839 96.8034237 -67.2429769 87.35036921 -69 76 C-69.85923753 65.37926075 -67.6663424 57.96537621 -63.38671875 48.390625 C-63.10038574 47.74802734 -62.81405273 47.10542969 -62.51904297 46.44335938 C-61.92118087 45.10200629 -61.31991946 43.76216337 -60.71533203 42.42382812 C-58.03882503 36.3820387 -55.98319318 30.19120374 -54.12939453 23.85131836 C-53.16322169 20.71388781 -52.3762995 18.37929791 -50.0390625 16.0234375 C-46.78424851 14.38979523 -44.57520682 14.43549366 -41 15 C-36.66836239 19.32491146 -34.65159014 23.64338076 -32.6875 29.375 C-32.42388672 30.11105469 -32.16027344 30.84710938 -31.88867188 31.60546875 C-31.24788411 33.39967449 -30.62232922 35.19930859 -30 37 C-29.59910156 36.11441406 -29.19820312 35.22882813 -28.78515625 34.31640625 C-25.47441726 27.07373195 -22.0113128 19.92810188 -18.3125 12.875 C-17.94455322 12.16545166 -17.57660645 11.45590332 -17.19750977 10.72485352 C-12.89965982 2.61787558 -9.9386286 -2.55564735 0 0 Z " fill="#000101" transform="translate(285,225)"/>
<path d="M0 0 C0.1959375 0.88558594 0.391875 1.77117188 0.59375 2.68359375 C4.71206678 19.74265591 11.99113301 33.54175693 23.4765625 46.875 C35.47420435 60.84129515 43.83338231 76.16006287 48.26171875 94.14453125 C48.94523668 96.37373105 48.94523668 96.37373105 52 98 C55.393381 98.23402628 56.94421068 98.27146479 60 97 C62.43930661 94.69231065 64.51808678 92.20339336 66.66796875 89.625 C72.04931688 83.56760311 79.12263621 79.90012135 86.125 76 C94.95950334 71.05618069 101.154384 65.96904885 106 57 C109.02082881 58.04166511 109.93628933 58.89304424 111.59985352 61.68579102 C113.06692993 65.15842611 113.44305392 67.65490205 113.58984375 71.40234375 C113.64946289 72.61543213 113.70908203 73.82852051 113.77050781 75.07836914 C113.85316895 76.98863892 113.85316895 76.98863892 113.9375 78.9375 C114.77191545 93.56595876 116.68420215 105.55148348 123.73046875 118.609375 C125 121 125 121 126 124 C124.35 124.33 122.7 124.66 121 125 C112.0822475 108.81593064 109.81733369 90.98926444 107 73 C104.2392732 73 103.71141228 74.08975499 101.75 76 C98.15750505 79.23977726 94.34357986 81.67147098 90.125 84 C85.86347234 86.37054215 81.63295009 88.74665284 77.5625 91.4375 C76.48162109 92.14712891 76.48162109 92.14712891 75.37890625 92.87109375 C67.11449208 100.26699806 61.52874782 110.65648265 55.609375 119.90820312 C54.92875 120.95041016 54.248125 121.99261719 53.546875 123.06640625 C52.93682617 124.01459229 52.32677734 124.96277832 51.69824219 125.93969727 C51.13782227 126.61959717 50.57740234 127.29949707 50 128 C49.01 128 48.02 128 47 128 C46.7666394 126.95211304 46.7666394 126.95211304 46.52856445 125.88305664 C38.02453941 86.69786283 38.02453941 86.69786283 17.0625 53.0625 C8.25978537 43.08425044 -5 26.95806615 -5 13 C-9.84255418 17.33281164 -11.74766172 20.7659207 -12.25537109 27.27294922 C-12.26133301 28.43842285 -12.26729492 29.60389648 -12.2734375 30.8046875 C-12.29124268 32.10317627 -12.30904785 33.40166504 -12.32739258 34.73950195 C-12.33798203 35.75398911 -12.33798203 35.75398911 -12.3487854 36.78897095 C-12.49777153 48.64455483 -13.018177 59.71103227 -17 71 C-17.28746094 71.90621094 -17.57492188 72.81242187 -17.87109375 73.74609375 C-22.20766978 86.10051703 -31.04458034 95.76646172 -40 105 C-40.62390625 105.7940625 -41.2478125 106.588125 -41.890625 107.40625 C-44 109 -44 109 -47.26171875 108.96875 C-66.59078204 103.95975554 -77.77933335 90.72666941 -88.62475586 74.85009766 C-89.95887513 73.05532474 -91.37832278 71.53538285 -93 70 C-93.49306641 71.38058594 -93.49306641 71.38058594 -93.99609375 72.7890625 C-99.06817841 86.48989881 -106.50170122 97.48409934 -115.75708008 108.7175293 C-118.55826107 112.12576063 -121.03865646 115.51870758 -123.3125 119.3125 C-125.36337017 122.53097472 -125.88726855 122.95140886 -129.625 124.5625 C-133 125 -133 125 -137 125 C-135.72336204 121.49977578 -134.24427971 118.69348139 -132.0234375 115.70703125 C-131.43900879 114.91707764 -130.85458008 114.12712402 -130.25244141 113.31323242 C-129.63288574 112.48799072 -129.01333008 111.66274902 -128.375 110.8125 C-127.42439697 109.53113159 -127.42439697 109.53113159 -126.45458984 108.22387695 C-123.27487924 103.95727013 -120.03897878 99.77061862 -116.625 95.6875 C-106.71310229 83.41966943 -102.24443719 69.97024468 -98 55 C-88.67844974 58.22606696 -83.42403742 66.61534949 -78.0625 74.4375 C-71.26464061 84.31035126 -63.98979403 94.31234953 -52 98 C-48.89402222 98.56524228 -46.8435008 98.40164484 -44 97 C-31.25708559 86.29496978 -23.98203894 69.19552371 -22 53 C-21.69965361 47.13594397 -21.63598148 41.26591749 -21.61914062 35.39477539 C-21.57139345 25.45261993 -20.54580437 17.77834786 -15.3125 9.25 C-11.60742407 5.64506126 -5.41992495 0 0 0 Z " fill="#CE303B" transform="translate(249,37)"/>
<path d="M0 0 C5.67398089 4.36378791 6.92987096 11.4514918 9 18 C9.32484375 18.98613281 9.6496875 19.97226563 9.984375 20.98828125 C12.81099167 30.62811075 14.39370136 42.96325449 10.0625 52.375 C4.17562625 62.09327482 -5.5011815 74.75059075 -16 80 C-23.25543346 80.5851156 -23.25543346 80.5851156 -26.09765625 78.3515625 C-35.56102106 66.65352222 -37.4822083 47.54866595 -36 33 C-32.37161992 19.90628058 -20.06656031 9.51181854 -10 1 C-6.87057535 -0.56471233 -3.38917777 -0.69701958 0 0 Z " fill="#000000" transform="translate(468,88)"/>
<path d="M0 0 C5.67398089 4.36378791 6.92987096 11.4514918 9 18 C9.32484375 18.98613281 9.6496875 19.97226563 9.984375 20.98828125 C12.81099167 30.62811075 14.39370136 42.96325449 10.0625 52.375 C4.17562625 62.09327482 -5.5011815 74.75059075 -16 80 C-23.25543346 80.5851156 -23.25543346 80.5851156 -26.09765625 78.3515625 C-35.56102106 66.65352222 -37.4822083 47.54866595 -36 33 C-32.37161992 19.90628058 -20.06656031 9.51181854 -10 1 C-6.87057535 -0.56471233 -3.38917777 -0.69701958 0 0 Z " fill="#000000" transform="translate(84,72)"/>
<path d="M0 0 C5.28 0 10.56 0 16 0 C16.01401855 2.00211548 16.01401855 2.00211548 16.02832031 4.04467773 C16.06871515 9.07901293 16.13460172 14.11276821 16.20751953 19.14672852 C16.23544595 21.3100632 16.25679859 23.47349455 16.27099609 25.63696289 C16.41310948 46.0870792 19.61880213 60.31680569 27 80 C14.46 80 1.92 80 -11 80 C-7.6875 70.8125 -7.6875 70.8125 -6.6628418 68.00708008 C-5.72088908 65.35343336 -4.84815622 62.68510037 -4 60 C-3.7110083 59.10176514 -3.4220166 58.20353027 -3.12426758 57.27807617 C-0.00062257 45.98692149 -0.43385812 34.31430678 -0.3125 22.6875 C-0.27926873 20.48240231 -0.24477387 18.27732328 -0.20898438 16.07226562 C-0.12475055 10.7149478 -0.05762987 5.35766735 0 0 Z " fill="#8B6138" transform="translate(376,400)"/>
<path d="M0 0 C5.28 0 10.56 0 16 0 C16.01401855 2.00211548 16.01401855 2.00211548 16.02832031 4.04467773 C16.06871515 9.07901293 16.13460172 14.11276821 16.20751953 19.14672852 C16.23544595 21.3100632 16.25679859 23.47349455 16.27099609 25.63696289 C16.41310948 46.0870792 19.61880213 60.31680569 27 80 C14.46 80 1.92 80 -11 80 C-7.6875 70.8125 -7.6875 70.8125 -6.6628418 68.00708008 C-5.72088908 65.35343336 -4.84815622 62.68510037 -4 60 C-3.7110083 59.10176514 -3.4220166 58.20353027 -3.12426758 57.27807617 C-0.00062257 45.98692149 -0.43385812 34.31430678 -0.3125 22.6875 C-0.27926873 20.48240231 -0.24477387 18.27732328 -0.20898438 16.07226562 C-0.12475055 10.7149478 -0.05762987 5.35766735 0 0 Z " fill="#8B6138" transform="translate(248,400)"/>
<path d="M0 0 C5.28 0 10.56 0 16 0 C16.01401855 2.00211548 16.01401855 2.00211548 16.02832031 4.04467773 C16.06871515 9.07901293 16.13460172 14.11276821 16.20751953 19.14672852 C16.23544595 21.3100632 16.25679859 23.47349455 16.27099609 25.63696289 C16.41310948 46.0870792 19.61880213 60.31680569 27 80 C14.46 80 1.92 80 -11 80 C-9.02 75.05 -7.04 70.1 -5 65 C-0.55845936 50.95427021 -0.34627467 36.98635964 -0.25 22.375 C-0.22176363 20.19268552 -0.1918259 18.01039236 -0.16015625 15.828125 C-0.08721589 10.55212283 -0.03708999 5.27637094 0 0 Z " fill="#8B6138" transform="translate(120,400)"/>
<path d="M0 0 C0.66 0 1.32 0 2 0 C3.02354566 3.9108881 4.01430406 7.82941659 5 11.75 C5.28617187 12.84183594 5.57234375 13.93367187 5.8671875 15.05859375 C8.26904414 24.72320737 10.09557758 34.76494493 5.3203125 43.96484375 C1.49581074 49.86000771 -2.75468141 53.69727725 -9.609375 55.5625 C-16.19507151 56.76772551 -22.11400773 56.85333095 -28.046875 53.46484375 C-33.507548 49.369339 -38.89372448 43.914222 -40 37 C-40.12632812 36.28070313 -40.25265625 35.56140625 -40.3828125 34.8203125 C-41.30724524 25.00939725 -36.21278121 16.5478083 -32 8 C-29.34982161 9.3250892 -29.32379011 10.38336033 -28.37890625 13.1484375 C-28.08306641 13.98890625 -27.78722656 14.829375 -27.48242188 15.6953125 C-26.87195157 17.4735827 -26.2625662 19.25222574 -25.65429688 21.03125 C-25.35716797 21.87429687 -25.06003906 22.71734375 -24.75390625 23.5859375 C-24.48908447 24.3598584 -24.2242627 25.1337793 -23.95141602 25.93115234 C-22.90718156 28.20183306 -21.97552435 29.47317235 -20 31 C-15.63293092 31.38991688 -13.69486103 31.46324069 -10 29 C-8.7648443 26.24848627 -8.7648443 26.24848627 -7.7734375 22.96875 C-7.3815625 21.76605469 -6.9896875 20.56335938 -6.5859375 19.32421875 C-6.18190991 18.04960011 -5.77826843 16.77485903 -5.375 15.5 C-4.57327077 13.0094547 -3.76667646 10.52050313 -2.9609375 8.03125 C-2.60821777 6.92330078 -2.25549805 5.81535156 -1.89208984 4.67382812 C-1 2 -1 2 0 0 Z " fill="#CB2F3B" transform="translate(472,216)"/>
<path d="M0 0 C0.66 0 1.32 0 2 0 C3.02354566 3.9108881 4.01430406 7.82941659 5 11.75 C5.28617187 12.84183594 5.57234375 13.93367188 5.8671875 15.05859375 C8.4428927 25.42274085 10.03631239 35.18187291 4.55078125 44.80859375 C0.59111769 50.40398734 -4.41213075 54.02363922 -11 56 C-18.11557751 56.86411061 -24.19094451 56.42482027 -30 52 C-35.06345516 47.34126151 -39.01682869 43.0050956 -40 36 C-40.12632812 35.33226562 -40.25265625 34.66453125 -40.3828125 33.9765625 C-41.36607291 24.68316572 -35.95271201 16.09953042 -32 8 C-29.34982161 9.3250892 -29.32379011 10.38336033 -28.37890625 13.1484375 C-28.08306641 13.98890625 -27.78722656 14.829375 -27.48242188 15.6953125 C-26.87195157 17.4735827 -26.2625662 19.25222574 -25.65429688 21.03125 C-25.35716797 21.87429688 -25.06003906 22.71734375 -24.75390625 23.5859375 C-24.48908447 24.3598584 -24.2242627 25.1337793 -23.95141602 25.93115234 C-22.90718156 28.20183306 -21.97552435 29.47317235 -20 31 C-15.63293092 31.38991688 -13.69486103 31.46324069 -10 29 C-8.7648443 26.24848627 -8.7648443 26.24848627 -7.7734375 22.96875 C-7.3815625 21.76605469 -6.9896875 20.56335938 -6.5859375 19.32421875 C-6.18190991 18.04960011 -5.77826843 16.77485903 -5.375 15.5 C-4.57327077 13.0094547 -3.76667646 10.52050313 -2.9609375 8.03125 C-2.60821777 6.92330078 -2.25549805 5.81535156 -1.89208984 4.67382812 C-1 2 -1 2 0 0 Z " fill="#CC2F3B" transform="translate(272,264)"/>
<path d="M0 0 C2.83461293 2.83461293 3.667966 6.28273138 4.9375 10 C5.20473877 10.76513916 5.47197754 11.53027832 5.74731445 12.31860352 C7.44888581 17.23523551 8.98906463 22.16751484 10.26171875 27.21484375 C10.96176537 29.37671466 10.96176537 29.37671466 14 31 C17.45769191 31.58342353 17.45769191 31.58342353 21 31 C25.04503576 27.04849107 26.4529012 22.49632057 28.125 17.25 C29.02248517 14.46549472 29.97046971 11.74149209 31 9 C31.66 8.67 32.32 8.34 33 8 C43.54985948 29.40585328 43.54985948 29.40585328 40.1015625 39.67578125 C36.90654509 46.91281734 32.49663095 50.98271291 25.75 54.875 C19.44946681 56.76515996 12.97372855 57.20649178 6.8125 54.5625 C1.07941994 51.2408598 -3.40596206 45.98882113 -6.5 40.1875 C-8.70208347 26.14921785 -4.69377592 13.14257259 0 0 Z " fill="#CC2F3B" transform="translate(39,192)"/>
<path d="M0 0 C3.42664507 2.5077202 4.07483094 5.77679095 5.1875 9.75 C5.53167969 10.94109375 5.87585938 12.1321875 6.23046875 13.359375 C7.01406234 17.06652842 7.28762532 20.22434705 7 24 C4.52506641 27.42123173 3.11736219 28.79477021 -1.0625 29.5625 C-4.62603968 28.88012006 -5.72606725 27.76120405 -8 25 C-8.66 24.34 -9.32 23.68 -10 23 C-10.51949219 23.81984375 -11.03898437 24.6396875 -11.57421875 25.484375 C-12.27160156 26.56203125 -12.96898437 27.6396875 -13.6875 28.75 C-14.37199219 29.81734375 -15.05648438 30.8846875 -15.76171875 31.984375 C-18.47597712 35.64128156 -20.97817904 38.60549835 -25.5625 39.5 C-28.91868055 38.81155271 -30.00557936 37.77794303 -32 35 C-33.22215291 30.66886161 -33.3239595 27.9849337 -31.15625 24.09765625 C-30.29310771 22.73820299 -29.40655348 21.39339766 -28.5 20.0625 C-28.03730713 19.35955811 -27.57461426 18.65661621 -27.09790039 17.93237305 C-12.44904692 -3.98369501 -12.44904692 -3.98369501 0 0 Z " fill="#050200" transform="translate(345,131)"/>
<path d="M0 0 C0.66 0 1.32 0 2 0 C4.71303011 8.34902717 7.36733218 17.17765667 3.3125 25.4375 C-1.03683656 30.25703511 -4.23551817 32.77340313 -10.8125 33.3125 C-15.20360994 33.24804334 -17.61154946 31.84937886 -21 29 C-25.3385837 24.19238022 -26.27558003 20.60124482 -26.234375 14.296875 C-25.90749915 11.09349163 -24.67168303 8.71648492 -23 6 C-20.02162237 8.55289511 -18.70605768 11.51370822 -17 15 C-15.06397953 17.37198957 -15.06397953 17.37198957 -11.5625 17.25 C-7.89579382 17.28809647 -7.89579382 17.28809647 -5 15 C-3.98296827 12.45025847 -3.11112741 9.99044446 -2.3125 7.375 C-1.97508789 6.31539063 -1.97508789 6.31539063 -1.63085938 5.234375 C-1.07772099 3.49257755 -0.53759637 1.74665697 0 0 Z " fill="#E9672F" transform="translate(267,278)"/>
<path d="M0 0 C0.66 0 1.32 0 2 0 C4.71303011 8.34902717 7.36733218 17.17765667 3.3125 25.4375 C-1.03683656 30.25703511 -4.23551817 32.77340313 -10.8125 33.3125 C-15.20360994 33.24804334 -17.61154946 31.84937886 -21 29 C-25.3385837 24.19238022 -26.27558003 20.60124482 -26.234375 14.296875 C-25.90749915 11.09349163 -24.67168303 8.71648492 -23 6 C-20.02162237 8.55289511 -18.70605768 11.51370822 -17 15 C-15.06397953 17.37198957 -15.06397953 17.37198957 -11.5625 17.25 C-7.89579382 17.28809647 -7.89579382 17.28809647 -5 15 C-3.98296827 12.45025847 -3.11112741 9.99044446 -2.3125 7.375 C-1.97508789 6.31539062 -1.97508789 6.31539062 -1.63085938 5.234375 C-1.07772099 3.49257755 -0.53759637 1.74665697 0 0 Z " fill="#E9672F" transform="translate(467,230)"/>
<path d="M0 0 C2 1 2 1 2.96484375 3.87109375 C3.61244008 6.24561364 4.25827836 8.6206137 4.90234375 10.99609375 C5.76273914 14.26875235 5.76273914 14.26875235 9 16 C12.45769191 16.58342353 12.45769191 16.58342353 16 16 C19.65787335 12.64694943 21.22141939 8.53538056 23 4 C23.66 4 24.32 4 25 4 C27.95228048 9.07423208 29.86025177 12.9782376 29 19 C27.04994049 24.81731237 24.52591613 28.06068291 19 31 C14.74591781 32.4180274 11.10855115 32.89758508 6.87109375 31.09375 C2.32430814 28.4812323 -0.46398996 26.18403389 -2 21 C-2.69452732 13.78147016 -1.70287156 7.00914096 0 0 Z " fill="#E9672F" transform="translate(44,207)"/>
<path d="M0 0 C3.77236385 5.65854577 5.25710373 13.26948889 4 20 C1.08302435 26.86164022 -3.12492278 31.53494131 -9 36 C-13.51894329 21.85140376 -13.51894329 21.85140376 -12 15 C-8.98910561 9.23122755 -4.79672655 4.3606605 0 0 Z " fill="#EB6E2A" transform="translate(460,110)"/>
<path d="M0 0 C3.77236385 5.65854577 5.25710373 13.26948889 4 20 C1.08302435 26.86164022 -3.12492278 31.53494131 -9 36 C-13.51894329 21.85140376 -13.51894329 21.85140376 -12 15 C-8.98910561 9.23122755 -4.79672655 4.3606605 0 0 Z " fill="#EB6E2A" transform="translate(76,94)"/>
</svg>
