<?xml version="1.0" encoding="UTF-8"?>
<svg version="1.1" xmlns="http://www.w3.org/2000/svg" width="512" height="512">
<path d="M0 0 C1.97213315 -0.00483667 1.97213315 -0.00483667 3.98410738 -0.00977105 C5.45717146 -0.00829967 6.93023544 -0.00673193 8.40329933 -0.00507832 C9.95722497 -0.00694492 11.51115014 -0.00924501 13.06507456 -0.01194364 C17.35123207 -0.01808673 21.63737015 -0.01792511 25.92353106 -0.01674926 C30.5398422 -0.01654589 35.156147 -0.02205797 39.77245522 -0.02680683 C48.82272518 -0.03512771 57.87298864 -0.03786232 66.9232621 -0.03841921 C74.2768243 -0.0388937 81.63038433 -0.04094507 88.98394585 -0.04411983 C109.8141162 -0.05293039 130.64428139 -0.05753859 151.47445361 -0.05678936 C152.59836925 -0.0567494 153.72228488 -0.05670945 154.88025856 -0.05666828 C156.56818085 -0.05660696 156.56818085 -0.05660696 158.29020257 -0.0565444 C176.53268642 -0.05613783 194.77514964 -0.06570905 213.01762752 -0.07980665 C231.73071698 -0.09415429 250.44379636 -0.10107772 269.15689147 -0.10021287 C279.67016192 -0.09988034 290.18341074 -0.10265194 300.69667625 -0.11339092 C309.64724746 -0.12247476 318.59778724 -0.12468868 327.54836105 -0.1178815 C332.11789376 -0.11460552 336.6873661 -0.11459822 341.25689316 -0.12323475 C345.43654835 -0.13105339 349.61609484 -0.12971619 353.79574724 -0.12095062 C355.31122686 -0.11940533 356.82671442 -0.12127012 358.34218471 -0.12681069 C360.39577081 -0.13382385 362.44938985 -0.12740924 364.50297546 -0.12025452 C365.64560895 -0.12047188 366.78824244 -0.12068925 367.96550119 -0.12091321 C370.8701578 0.12801988 372.48246633 0.50310387 374.87732887 2.12863445 C377.45285398 5.99192211 377.16150512 9.17624966 377.14475441 13.65594769 C377.14928552 14.53703044 377.15381664 15.4181132 377.15848505 16.32589543 C377.17118546 19.28997964 377.16950506 22.25388144 377.16785622 25.21798992 C377.17383794 27.33837401 377.18064266 29.45875592 377.18821144 31.57913494 C377.20591477 37.34771568 377.21056864 43.11623712 377.21184301 48.8848424 C377.2137395 53.69612353 377.22109414 58.50739078 377.2281872 63.31866658 C377.2444852 74.6676018 377.24935487 86.01650528 377.24793434 97.36545086 C377.24673251 109.08239484 377.26783953 120.79915474 377.29942167 132.51605213 C377.32555066 142.56707182 377.33630306 152.61803126 377.33502352 162.66908467 C377.3345129 168.67590907 377.34025146 174.68256996 377.36137962 180.68936062 C377.38070512 186.33809832 377.3809254 191.98651557 377.36634636 197.6352644 C377.36425009 199.71014529 377.36900754 201.78504594 377.38106728 203.85989285 C377.39645005 206.68942636 377.38725778 209.51784529 377.37180519 212.34735394 C377.38209232 213.1711882 377.39237944 213.99502247 377.4029783 214.84382141 C377.3555859 218.76254353 377.14139517 220.70084501 375.0339241 224.11496449 C371.46466509 227.44767597 368.35602337 227.25546717 363.66843128 227.26285553 C362.35988499 227.26731337 361.0513387 227.27177122 359.70313948 227.27636415 C358.24225627 227.27627485 356.78137307 227.27608499 355.32048988 227.27580547 C353.77537579 227.27910393 352.23026257 227.28282945 350.68515044 227.28694695 C346.42792069 227.29697695 342.17070504 227.30068534 337.91346514 227.30333626 C333.32644209 227.30723628 328.73943024 227.31681473 324.15241432 227.32554913 C313.0701171 227.3453207 301.98781894 227.35538001 290.90550849 227.36427692 C285.68969696 227.36865813 280.47388644 227.37402532 275.25807571 227.37926579 C257.92539334 227.39627772 240.5927116 227.41077312 223.26002216 227.41801453 C218.76111983 227.41992449 214.26221751 227.42184481 209.7633152 227.42380047 C208.08599994 227.42452608 208.08599994 227.42452608 206.37479953 227.42526635 C188.25010516 227.43357123 170.1254767 227.45891604 152.00081112 227.49138115 C133.40294175 227.524423 114.80510591 227.54246063 96.20720702 227.54565877 C85.76092462 227.54782638 75.31473835 227.55661191 64.8684845 227.58211994 C55.97433291 227.6037876 47.08030082 227.61189675 38.18612584 227.60215316 C33.64664594 227.5975972 29.10741279 227.59956973 24.56796646 227.6189146 C20.4134314 227.63646665 16.25932453 227.63561377 12.10478542 227.62001731 C10.60073544 227.61762909 9.09665642 227.62202738 7.59265097 227.63384596 C5.54973661 227.64890677 3.50667635 227.63693611 1.46374989 227.62361908 C-0.23913479 227.62508429 -0.23913479 227.62508429 -1.97642118 227.62657911 C-5.88647821 227.0077497 -8.0705347 225.61166033 -11.12267113 223.12863445 C-12.40177268 219.29132979 -12.27074066 215.67611323 -12.26984215 211.67724895 C-12.27351884 210.8043333 -12.27719552 209.93141765 -12.28098363 209.03205001 C-12.29203108 206.09565169 -12.29586607 203.15928874 -12.29967308 200.22287273 C-12.3059368 198.1221941 -12.31258352 196.02151657 -12.3195858 193.92084026 C-12.33700102 188.20599227 -12.34754846 182.49115265 -12.35579133 176.77628469 C-12.36093917 173.2081036 -12.36701492 169.63992512 -12.37330246 166.07174587 C-12.39235388 154.91408792 -12.40658652 143.75643659 -12.41491443 132.59876549 C-12.42469513 119.70673256 -12.45103669 106.81487095 -12.49141532 93.92289841 C-12.5215365 83.96530354 -12.5363794 74.00775789 -12.53969544 64.05011833 C-12.54205 58.09917377 -12.55106356 52.14841225 -12.57615662 46.19751644 C-12.59937311 40.6013219 -12.60369643 35.00543177 -12.59339523 29.40920162 C-12.59289824 27.35366588 -12.59926662 25.29811548 -12.61295128 23.24262524 C-12.63057231 20.43937774 -12.62361245 17.63723436 -12.61041832 14.83398724 C-12.62138757 14.01793487 -12.63235681 13.2018825 -12.64365846 12.36110127 C-12.60051307 8.57218447 -12.27829225 6.37214082 -10.21718693 3.1470499 C-6.78389043 -0.16150413 -4.68123274 0.00288677 0 0 Z " fill="#FED13E" transform="translate(54.122671127319336,161.87136554718018)"/>
<path d="M0 0 C1.97213315 -0.00483667 1.97213315 -0.00483667 3.98410738 -0.00977105 C5.45717146 -0.00829967 6.93023544 -0.00673193 8.40329933 -0.00507832 C9.95722497 -0.00694492 11.51115014 -0.00924501 13.06507456 -0.01194364 C17.35123207 -0.01808673 21.63737015 -0.01792511 25.92353106 -0.01674926 C30.5398422 -0.01654589 35.156147 -0.02205797 39.77245522 -0.02680683 C48.82272518 -0.03512771 57.87298864 -0.03786232 66.9232621 -0.03841921 C74.2768243 -0.0388937 81.63038433 -0.04094507 88.98394585 -0.04411983 C109.8141162 -0.05293039 130.64428139 -0.05753859 151.47445361 -0.05678936 C152.59836925 -0.0567494 153.72228488 -0.05670945 154.88025856 -0.05666828 C156.56818085 -0.05660696 156.56818085 -0.05660696 158.29020257 -0.0565444 C176.53268642 -0.05613783 194.77514964 -0.06570905 213.01762752 -0.07980665 C231.73071698 -0.09415429 250.44379636 -0.10107772 269.15689147 -0.10021287 C279.67016192 -0.09988034 290.18341074 -0.10265194 300.69667625 -0.11339092 C309.64724746 -0.12247476 318.59778724 -0.12468868 327.54836105 -0.1178815 C332.11789376 -0.11460552 336.6873661 -0.11459822 341.25689316 -0.12323475 C345.43654835 -0.13105339 349.61609484 -0.12971619 353.79574724 -0.12095062 C355.31122686 -0.11940533 356.82671442 -0.12127012 358.34218471 -0.12681069 C360.39577081 -0.13382385 362.44938985 -0.12740924 364.50297546 -0.12025452 C365.64560895 -0.12047188 366.78824244 -0.12068925 367.96550119 -0.12091321 C370.8701578 0.12801988 372.48246633 0.50310387 374.87732887 2.12863445 C377.45285398 5.99192211 377.16150512 9.17624966 377.14475441 13.65594769 C377.14928552 14.53703044 377.15381664 15.4181132 377.15848505 16.32589543 C377.17118546 19.28997964 377.16950506 22.25388144 377.16785622 25.21798992 C377.17383794 27.33837401 377.18064266 29.45875592 377.18821144 31.57913494 C377.20591477 37.34771568 377.21056864 43.11623712 377.21184301 48.8848424 C377.2137395 53.69612353 377.22109414 58.50739078 377.2281872 63.31866658 C377.2444852 74.6676018 377.24935487 86.01650528 377.24793434 97.36545086 C377.24673251 109.08239484 377.26783953 120.79915474 377.29942167 132.51605213 C377.32555066 142.56707182 377.33630306 152.61803126 377.33502352 162.66908467 C377.3345129 168.67590907 377.34025146 174.68256996 377.36137962 180.68936062 C377.38070512 186.33809832 377.3809254 191.98651557 377.36634636 197.6352644 C377.36425009 199.71014529 377.36900754 201.78504594 377.38106728 203.85989285 C377.39645005 206.68942636 377.38725778 209.51784529 377.37180519 212.34735394 C377.38209232 213.1711882 377.39237944 213.99502247 377.4029783 214.84382141 C377.3555859 218.76254353 377.14139517 220.70084501 375.0339241 224.11496449 C371.46466509 227.44767597 368.35602337 227.25546717 363.66843128 227.26285553 C362.35988499 227.26731337 361.0513387 227.27177122 359.70313948 227.27636415 C358.24225627 227.27627485 356.78137307 227.27608499 355.32048988 227.27580547 C353.77537579 227.27910393 352.23026257 227.28282945 350.68515044 227.28694695 C346.42792069 227.29697695 342.17070504 227.30068534 337.91346514 227.30333626 C333.32644209 227.30723628 328.73943024 227.31681473 324.15241432 227.32554913 C313.0701171 227.3453207 301.98781894 227.35538001 290.90550849 227.36427692 C285.68969696 227.36865813 280.47388644 227.37402532 275.25807571 227.37926579 C257.92539334 227.39627772 240.5927116 227.41077312 223.26002216 227.41801453 C218.76111983 227.41992449 214.26221751 227.42184481 209.7633152 227.42380047 C208.08599994 227.42452608 208.08599994 227.42452608 206.37479953 227.42526635 C188.25010516 227.43357123 170.1254767 227.45891604 152.00081112 227.49138115 C133.40294175 227.524423 114.80510591 227.54246063 96.20720702 227.54565877 C85.76092462 227.54782638 75.31473835 227.55661191 64.8684845 227.58211994 C55.97433291 227.6037876 47.08030082 227.61189675 38.18612584 227.60215316 C33.64664594 227.5975972 29.10741279 227.59956973 24.56796646 227.6189146 C20.4134314 227.63646665 16.25932453 227.63561377 12.10478542 227.62001731 C10.60073544 227.61762909 9.09665642 227.62202738 7.59265097 227.63384596 C5.54973661 227.64890677 3.50667635 227.63693611 1.46374989 227.62361908 C-0.23913479 227.62508429 -0.23913479 227.62508429 -1.97642118 227.62657911 C-5.88647821 227.0077497 -8.0705347 225.61166033 -11.12267113 223.12863445 C-12.40177268 219.29132979 -12.27074066 215.67611323 -12.26984215 211.67724895 C-12.27351884 210.8043333 -12.27719552 209.93141765 -12.28098363 209.03205001 C-12.29203108 206.09565169 -12.29586607 203.15928874 -12.29967308 200.22287273 C-12.3059368 198.1221941 -12.31258352 196.02151657 -12.3195858 193.92084026 C-12.33700102 188.20599227 -12.34754846 182.49115265 -12.35579133 176.77628469 C-12.36093917 173.2081036 -12.36701492 169.63992512 -12.37330246 166.07174587 C-12.39235388 154.91408792 -12.40658652 143.75643659 -12.41491443 132.59876549 C-12.42469513 119.70673256 -12.45103669 106.81487095 -12.49141532 93.92289841 C-12.5215365 83.96530354 -12.5363794 74.00775789 -12.53969544 64.05011833 C-12.54205 58.09917377 -12.55106356 52.14841225 -12.57615662 46.19751644 C-12.59937311 40.6013219 -12.60369643 35.00543177 -12.59339523 29.40920162 C-12.59289824 27.35366588 -12.59926662 25.29811548 -12.61295128 23.24262524 C-12.63057231 20.43937774 -12.62361245 17.63723436 -12.61041832 14.83398724 C-12.62138757 14.01793487 -12.63235681 13.2018825 -12.64365846 12.36110127 C-12.60051307 8.57218447 -12.27829225 6.37214082 -10.21718693 3.1470499 C-6.78389043 -0.16150413 -4.68123274 0.00288677 0 0 Z M59.87732887 18.12863445 C58.22732887 23.73863445 56.57732887 29.34863445 54.87732887 35.12863445 C46.58082747 51.56208916 34.68604058 62.78038432 17.45154762 69.3747282 C13.64563228 70.48935895 9.74866981 71.26833647 5.87732887 72.12863445 C5.87732887 99.51863445 5.87732887 126.90863445 5.87732887 155.12863445 C9.83732887 156.11863445 13.79732887 157.10863445 17.87732887 158.12863445 C20.67644352 159.21946589 23.22726821 160.27602462 25.87732887 161.62863445 C26.54884987 161.97047771 27.22037086 162.31232098 27.91224098 162.66452312 C41.99917746 170.21091692 51.19363781 182.31043991 56.87732887 197.12863445 C57.86732887 201.08863445 58.85732887 205.04863445 59.87732887 209.12863445 C140.72732887 209.12863445 221.57732887 209.12863445 304.87732887 209.12863445 C306.19732887 204.50863445 307.51732887 199.88863445 308.87732887 195.12863445 C316.79600646 177.13163994 328.7309033 165.63818708 346.87732887 158.12863445 C350.12147775 157.14784526 353.33037868 156.3286584 356.64686012 155.63644695 C358.83756028 155.3459007 358.83756028 155.3459007 359.87732887 154.12863445 C359.97238939 151.57273557 360.00289649 149.04395474 359.99085426 146.48776531 C359.9910733 145.28785709 359.9910733 145.28785709 359.99129677 144.06370831 C359.99059743 141.40693781 359.98280406 138.75023653 359.97498512 136.0934782 C359.97312102 134.25644755 359.97169708 132.41941639 359.9706974 130.58238506 C359.96687162 125.73753783 359.95704083 120.89272037 359.94599342 116.04788494 C359.93578059 111.10800867 359.93120006 106.1681276 359.926157 101.22824383 C359.91541861 91.52836092 359.89834148 81.82850016 359.87732887 72.12863445 C359.06120125 71.93210278 358.24507362 71.7355711 357.40421486 71.53308392 C356.32944893 71.27022594 355.254683 71.00736797 354.1473484 70.73654461 C353.08372078 70.47813793 352.02009315 70.21973125 350.92423439 69.95349407 C346.95300749 68.87840176 343.39888242 67.38537679 339.75232887 65.50363445 C338.73840065 64.98748577 338.73840065 64.98748577 337.70398903 64.46090984 C331.58352093 61.21073527 326.6620821 57.14298237 321.87732887 52.12863445 C321.31916481 51.58980633 320.76100075 51.0509782 320.18592262 50.49582195 C311.74840615 41.72785444 308.34411775 29.39569829 304.87732887 18.12863445 C224.02732887 18.12863445 143.17732887 18.12863445 59.87732887 18.12863445 Z " fill="#020201" transform="translate(54.122671127319336,161.87136554718018)"/>
<path d="M0 0 C1.30854629 -0.00445784 2.61709259 -0.00891569 3.9652918 -0.01350862 C5.42617501 -0.01341932 6.88705821 -0.01322946 8.3479414 -0.01294994 C9.89305549 -0.0162484 11.43816871 -0.01997393 12.98328084 -0.02409142 C17.24051059 -0.03412142 21.49772624 -0.03782981 25.75496614 -0.04048073 C30.34198919 -0.04438075 34.92900105 -0.0539592 39.51601696 -0.0626936 C50.59831419 -0.08246517 61.68061234 -0.09252448 72.76292279 -0.10142139 C77.97873433 -0.1058026 83.19454484 -0.11116979 88.41035557 -0.11641026 C105.74303794 -0.13342219 123.07571968 -0.14791759 140.40840912 -0.155159 C144.90731145 -0.15706896 149.40621377 -0.15898928 153.90511608 -0.16094494 C155.58243134 -0.16167055 155.58243134 -0.16167055 157.29363175 -0.16241082 C175.41832612 -0.1707157 193.54295459 -0.19606051 211.66762016 -0.22852562 C230.26548953 -0.26156747 248.86332537 -0.2796051 267.46122426 -0.28280324 C277.90750667 -0.28497085 288.35369293 -0.29375638 298.79994678 -0.31926441 C307.69409837 -0.34093207 316.58813046 -0.34904122 325.48230544 -0.33929763 C330.02178534 -0.33474167 334.5610185 -0.3367142 339.10046482 -0.35605907 C343.25499989 -0.37361112 347.40910675 -0.37275824 351.56364586 -0.35716178 C353.06769585 -0.35477356 354.57177487 -0.35917185 356.07578031 -0.37099043 C358.11869467 -0.38605124 360.16175493 -0.37408058 362.2046814 -0.36076355 C363.90756607 -0.36222876 363.90756607 -0.36222876 365.64485246 -0.36372358 C369.55490949 0.25510583 371.73896599 1.6511952 374.79110241 4.13422108 C376.07020396 7.97152574 375.93917194 11.5867423 375.93827343 15.58560658 C375.94195012 16.45852223 375.94562681 17.33143788 375.94941491 18.23080552 C375.96046236 21.16720384 375.96429735 24.10356679 375.96810436 27.0399828 C375.97436808 29.14066143 375.9810148 31.24133896 375.98801708 33.34201527 C376.00543231 39.05686326 376.01597974 44.77170288 376.02422261 50.48657084 C376.02937045 54.05475193 376.0354462 57.62293041 376.04173374 61.19110966 C376.06078516 72.34876761 376.0750178 83.50641894 376.08334571 94.66409004 C376.09312641 107.55612297 376.11946797 120.44798458 376.1598466 133.33995712 C376.18996779 143.29755199 376.20481069 153.25509764 376.20812672 163.2127372 C376.21048128 169.16368176 376.21949484 175.11444328 376.2445879 181.06533909 C376.2678044 186.66153363 376.27212771 192.25742376 376.26182652 197.85365391 C376.26132952 199.90918965 376.2676979 201.96474005 376.28138256 204.02023029 C376.29900359 206.82347779 376.29204374 209.62562117 376.2788496 212.42886829 C376.29530347 213.65294685 376.29530347 213.65294685 376.31208974 214.90175426 C376.26894435 218.69067106 375.94672353 220.89071471 373.88561821 224.11580563 C371.3735191 226.53663227 370.45393827 227.07530233 366.97860241 227.38422108 C363.39955521 227.10351149 361.64860224 226.25693524 358.79110241 224.13422108 C357.21550508 220.98302642 357.65805932 217.60841018 357.67084789 214.14908314 C357.66956626 212.89695284 357.66956626 212.89695284 357.66825873 211.61952698 C357.66660417 208.80653248 357.67212492 205.99359686 357.67757702 203.1806078 C357.67785892 201.17048615 357.6777011 199.16036439 357.67713451 197.15024281 C357.67684666 191.67945238 357.68274145 186.20868371 357.68970847 180.73789835 C357.69594401 175.02569755 357.69654597 169.31349629 357.69773388 163.60129261 C357.7008466 152.77823478 357.7090592 141.955187 357.71908337 131.1321336 C357.73024633 118.81309683 357.73575542 106.49405959 357.7407788 94.17501903 C357.75124186 68.82808079 357.76884016 43.4811515 357.79110241 18.13422108 C357.01855612 18.13611968 356.24600982 18.13801828 355.45005304 18.13997442 C309.68930619 18.25180116 263.92857417 18.33762164 218.16771813 18.38954772 C212.67637529 18.39580145 207.18503273 18.40227305 201.6936903 18.40887928 C200.05381012 18.41084661 200.05381012 18.41084661 198.38080104 18.41285368 C180.6658534 18.43462578 162.95098667 18.47405724 145.23608706 18.51998506 C127.06659858 18.56669948 108.89715255 18.59450586 90.72760648 18.60466355 C79.5108891 18.61153312 68.29440039 18.63325023 57.07775339 18.67380341 C49.39196527 18.70017989 41.70629583 18.70823365 34.02046571 18.70172796 C29.58233032 18.69851712 25.14459525 18.70352907 20.70653057 18.73024845 C16.64561082 18.75451934 12.58536185 18.75584931 8.5244117 18.73871555 C7.05325575 18.73659693 5.58205853 18.74299225 4.11098424 18.75863699 C2.11485373 18.77863591 0.11846997 18.76492656 -1.87770081 18.74946022 C-2.98762333 18.75135882 -4.09754586 18.75325742 -5.2411024 18.75521356 C-9.20525599 17.92573935 -10.71476291 16.25885728 -13.20889759 13.13422108 C-13.89467367 8.86716989 -13.70912873 6.92769117 -11.39639759 3.25922108 C-7.8363286 -0.19913165 -4.75783752 0.00749908 0 0 Z " fill="#000000" transform="translate(94.2088975906372,122.86577892303467)"/>
<path d="M0 0 C2.9375 1.5 2.9375 1.5 5 4 C5.41708655 6.80196606 5.23811939 9.14256735 5 12 C5.68964844 11.95359375 6.37929687 11.9071875 7.08984375 11.859375 C15.18638025 11.54839692 21.14187422 12.49442709 27.265625 18.05859375 C32.18121446 23.30129978 34.61612382 27.3531763 35.375 34.5625 C34.93255771 38.61822102 33.85060373 40.14939627 31 43 C28.11138291 44.44430855 26.20352299 44.37688506 23 44 C18.44945555 40.58709166 17.32632528 37.40732612 16 32 C13.48295195 29.48295195 11.92327101 29.75330401 8.48840332 29.72210693 C7.73941772 29.7261554 6.99043213 29.73020386 6.21875 29.734375 C5.44946167 29.73246155 4.68017334 29.7305481 3.88757324 29.72857666 C2.2601692 29.72721492 0.6327543 29.73091061 -0.99462891 29.73925781 C-3.49015631 29.74995779 -5.98496382 29.73936249 -8.48046875 29.7265625 C-10.05989743 29.7278841 -11.63932566 29.7304465 -13.21875 29.734375 C-14.34222839 29.72830231 -14.34222839 29.72830231 -15.48840332 29.72210693 C-19.70311148 29.61812798 -19.70311148 29.61812798 -23 32 C-23.30984531 34.09813381 -23.30984531 34.09813381 -23.265625 36.5 C-23.26820313 37.386875 -23.27078125 38.27375 -23.2734375 39.1875 C-23.26570313 40.115625 -23.25796875 41.04375 -23.25 42 C-23.25773437 42.928125 -23.26546875 43.85625 -23.2734375 44.8125 C-23.26957031 46.1428125 -23.26957031 46.1428125 -23.265625 47.5 C-23.26336914 48.3146875 -23.26111328 49.129375 -23.25878906 49.96875 C-23.18174293 52.22630451 -23.18174293 52.22630451 -21 54 C-18.25068745 54.18513699 -15.59341453 54.25267914 -12.84375 54.23828125 C-11.16405458 54.25371856 -9.48436696 54.27002345 -7.8046875 54.28710938 C-5.16291071 54.30346788 -2.52170537 54.31255865 0.12011719 54.30541992 C19.78391585 54.28503717 19.78391585 54.28503717 27 60 C33.90092769 67.37664149 35.36173986 73.78880686 35.375 83.6875 C35.39949219 84.63044922 35.42398438 85.57339844 35.44921875 86.54492188 C35.48134289 94.33502595 33.98366697 101.14505213 29.140625 107.40234375 C21.28203015 113.78339287 15.10541534 115.55911109 5 115 C5.1546875 116.5778125 5.1546875 116.5778125 5.3125 118.1875 C5 122 5 122 2.9375 124.9375 C0 127 0 127 -3.5 127.6875 C-7 127 -7 127 -9.9375 124.375 C-12.12882814 120.78919032 -12.48875646 119.10555424 -12 115 C-12.67804688 115.05800781 -13.35609375 115.11601562 -14.0546875 115.17578125 C-22.34251804 115.57754589 -28.59973982 113.91741589 -34.88671875 108.3203125 C-39.82310219 102.94168647 -41.56294742 97.38849164 -41.37890625 90.125 C-41 88 -41 88 -38.875 84.9375 C-35.46618264 82.64025352 -34.02516948 82.24528072 -30 83 C-25.92571098 85.17927087 -24.68502758 87.40326906 -23.35546875 91.66015625 C-23.09789795 92.47234619 -22.84032715 93.28453613 -22.57495117 94.12133789 C-22.38521729 94.74129639 -22.1954834 95.36125488 -22 96 C-16.76728431 96.07403712 -11.53487199 96.12854783 -6.30175781 96.16479492 C-4.52077933 96.17990173 -2.73983816 96.20038835 -0.95898438 96.22631836 C1.59774978 96.26261943 4.1539931 96.27970688 6.7109375 96.29296875 C7.50994476 96.30845261 8.30895203 96.32393646 9.13217163 96.33988953 C11.61064148 96.37576435 11.61064148 96.37576435 15 96 C17.56212287 92.15681569 17.33108539 88.95306045 17.3125 84.5 C17.33666992 83.34177734 17.33666992 83.34177734 17.36132812 82.16015625 C17.41528041 78.05083025 17.41528041 78.05083025 15.99755859 74.27905273 C12.79316669 72.22725498 9.36087443 72.60020246 5.67578125 72.62890625 C3.99023247 72.61151196 2.30468564 72.59392772 0.61914062 72.57617188 C-2.02925411 72.56613544 -4.67751485 72.56249353 -7.32592773 72.56420898 C-9.88825832 72.56061324 -12.44957107 72.53316462 -15.01171875 72.50390625 C-15.79222092 72.51208878 -16.57272308 72.5202713 -17.37687683 72.52870178 C-24.03858274 72.43962278 -29.24616826 70.45637954 -34.2421875 66 C-34.78101563 65.34 -35.31984375 64.68 -35.875 64 C-36.42929688 63.34 -36.98359375 62.68 -37.5546875 62 C-42.04221921 55.79022639 -41.40333992 49.70448797 -41.4375 42.25 C-41.47037109 40.99960938 -41.50324219 39.74921875 -41.53710938 38.4609375 C-41.58641503 29.98036551 -40.53582363 24.63479543 -34.55664062 18.52514648 C-27.33909119 12.0635528 -21.32199152 11.59272853 -12 12 C-12.103125 10.948125 -12.20625 9.89625 -12.3125 8.8125 C-12 5 -12 5 -9.9375 2.0625 C-6.2404927 -0.53327109 -4.43355658 -0.71253588 0 0 Z " fill="#040401" transform="translate(240,212)"/>
<path d="M0 0 C12.54 0 25.08 0 38 0 C38 12.54 38 25.08 38 38 C25.06913169 35.12647371 14.9711436 29.52826205 7.28515625 18.55078125 C3.78287111 12.95911328 0 6.75210738 0 0 Z " fill="#F4F4F4" transform="translate(376,179)"/>
<path d="M0 0 C0 12.21 0 24.42 0 37 C-12.21 37 -24.42 37 -37 37 C-35.57401388 25.59211103 -30.66221822 16.5342236 -21.78515625 9.16015625 C-15.51154543 4.47229224 -8.04414137 0 0 0 Z " fill="#F9F9F9" transform="translate(414,334)"/>
<path d="M0 0 C12.16586669 2.02764445 22.4649238 8.5574874 29.84765625 18.484375 C33.23834161 23.84948893 37 30.47622275 37 37 C24.79 37 12.58 37 0 37 C0 24.79 0 12.58 0 0 Z " fill="#FDFDFD" transform="translate(60,334)"/>
<path d="M0 0 C12.21 0 24.42 0 37 0 C35.49567021 7.52164893 32.54499083 13.80228524 28 20 C27.278125 20.99 26.55625 21.98 25.8125 23 C20.61831063 29.06782979 12.58853205 33.64589334 5 36 C3.35 36 1.7 36 0 36 C0 24.12 0 12.24 0 0 Z " fill="#FDFDFD" transform="translate(60,180)"/>
<path d="M0 0 C1.33417969 -0.02900391 1.33417969 -0.02900391 2.6953125 -0.05859375 C7.25774273 -0.02454576 9.36807797 0.14406819 13.08984375 2.9765625 C15 5.625 15 5.625 15.5625 8.625 C14.87642343 12.28407504 13.57265686 13.97667676 11 16.625 C7.63386353 18.30806823 3.88566492 17.89385525 0.1875 17.9375 C-1.02389648 17.98100586 -1.02389648 17.98100586 -2.25976562 18.02539062 C-6.36448237 18.06909359 -8.45621743 17.96706816 -12.01171875 15.73046875 C-14.36795046 13.23536287 -14.92158963 12.21307778 -15.375 8.8125 C-15 5.625 -15 5.625 -13.1015625 2.96484375 C-8.7452998 -0.32155595 -5.31555919 -0.11555563 0 0 Z " fill="#060501" transform="translate(371,266.375)"/>
<path d="M0 0 C1.34094727 -0.03577148 1.34094727 -0.03577148 2.70898438 -0.07226562 C7.26802825 -0.06211185 9.41470571 0.07829012 13.15625 2.875 C15.65317135 6.39524978 15.75441693 8.33411874 15.0625 12.5625 C13.19541495 14.92747439 11.74188569 16.22280715 9.0625 17.5625 C6.10872888 17.76661054 3.20649311 17.88632545 0.25 17.9375 C-0.96139648 17.99357422 -0.96139648 17.99357422 -2.19726562 18.05078125 C-6.54806112 18.11492074 -8.38499838 17.97510083 -11.9765625 15.29296875 C-14.91985834 11.1946345 -14.64411449 9.5088014 -13.9375 4.5625 C-10.54682645 -0.73893986 -5.68962053 -0.06943543 0 0 Z " fill="#050401" transform="translate(101.9375,266.4375)"/>
</svg>
