<?xml version="1.0" encoding="UTF-8"?>
<svg version="1.1" xmlns="http://www.w3.org/2000/svg" width="512" height="512">
<path d="M0 0 C0.82216003 -0.00335861 1.64432007 -0.00671722 2.49139404 -0.01017761 C5.19252053 -0.0196274 7.89358461 -0.02162781 10.59472656 -0.02270508 C12.48651148 -0.02592217 14.37829616 -0.02928658 16.27008057 -0.03279114 C20.23084082 -0.03876775 24.19157931 -0.04063258 28.15234375 -0.04003906 C33.20347689 -0.03993761 38.25446893 -0.05357905 43.3055687 -0.07081127 C47.21259185 -0.08198385 51.11958147 -0.08395665 55.02661896 -0.08342934 C56.88756038 -0.08460195 58.74850287 -0.08898292 60.60942841 -0.0967617 C88.49945257 -0.20241799 88.49945257 -0.20241799 98.39160156 8.89916992 C105.83249442 16.70264866 108.08078902 25.38503654 108.09472656 35.96557617 C108.11126282 36.95024872 108.12779907 37.93492126 108.14483643 38.94943237 C108.19294297 42.05644193 108.21460406 45.16296347 108.23535156 48.27026367 C108.26354248 50.39268357 108.29347422 52.5150811 108.32519531 54.63745117 C108.39869173 59.80668175 108.44849382 64.97564731 108.48535156 70.14526367 C112.50679267 69.18946895 116.52739098 68.23017375 120.54785156 67.27026367 C121.68158203 67.00084961 122.8153125 66.73143555 123.98339844 66.45385742 C130.78217663 64.84043406 130.78217663 64.84043406 137.51269531 62.96948242 C144.4440057 61.04766049 150.11164232 61.71326639 156.48535156 65.14526367 C161.47925002 68.43669675 163.85576431 72.17649653 165.10131836 78.04980469 C165.48317084 81.60117262 165.85138981 85.15029766 166.17285156 88.70776367 C166.23539124 89.38024139 166.29793091 90.05271912 166.36236572 90.74557495 C167.58116955 104.21647181 167.81084888 117.68835019 167.86035156 131.20776367 C167.87199844 132.69314133 167.87199844 132.69314133 167.88388062 134.20852661 C167.90150635 137.05365147 167.89668486 139.89778648 167.88378906 142.74291992 C167.8897258 143.58963257 167.89566254 144.43634521 167.90177917 145.30871582 C167.81647172 152.61446283 165.97937793 158.13816244 160.98925781 163.73901367 C155.74555786 168.64221363 149.03736458 171.43042494 142.48535156 174.14526367 C143.15179688 174.75370117 143.81824219 175.36213867 144.50488281 175.98901367 C152.50633827 183.5987895 158.52692282 191.88135479 164.48535156 201.14526367 C165.22253418 202.28390869 165.22253418 202.28390869 165.97460938 203.44555664 C170.55581982 210.54127712 175.08390862 217.66316334 179.29003906 224.98901367 C179.73468506 225.76188721 180.17933105 226.53476074 180.63745117 227.33105469 C181.46850459 228.78685823 182.29031029 230.24799724 183.10083008 231.71533203 C186.26676107 237.28356955 190.09205019 241.13206773 196.18505859 243.55981445 C207.68688789 246.4871533 221.12429822 245.41242246 232.953125 245.62207031 C247.52509979 245.89067073 261.2914 246.36134467 272.67285156 256.58276367 C288.76558189 273.78533747 286.70028629 297.71077821 286.46313477 319.50878906 C286.4325685 322.4695712 286.41885923 325.42968822 286.42016602 328.390625 C286.42170292 332.00013905 286.39379633 335.60835134 286.34573555 339.21753502 C286.32577638 341.23117236 286.33408789 343.24502785 286.34324646 345.25874329 C286.17021085 354.75773702 284.12145274 362.83214378 277.74205017 370.1431427 C270.4809015 377.0939032 261.24115278 379.33655389 251.48535156 379.14526367 C251.48148437 380.05791992 251.48148437 380.05791992 251.47753906 380.98901367 C250.90339298 394.00299143 245.72129825 406.14322226 237.48535156 416.14526367 C236.86789062 416.92385742 236.25042969 417.70245117 235.61425781 418.50463867 C224.15652712 432.24469399 207.38268043 440.21285924 189.73535156 441.95776367 C170.09446109 442.98923276 152.05963164 437.13827845 137.29785156 424.08276367 C122.43668969 410.27538015 116.97087348 392.90048799 115.48535156 373.14526367 C112.18535156 373.14526367 108.88535156 373.14526367 105.48535156 373.14526367 C105.19660156 373.94963867 104.90785156 374.75401367 104.61035156 375.58276367 C103.48535156 378.14526367 103.48535156 378.14526367 101.48535156 379.14526367 C98.92201682 379.23823455 96.38610915 379.27107343 93.82275391 379.25878906 C93.03242264 379.25893509 92.24209137 379.25908112 91.42781067 379.25923157 C88.80894245 379.2585335 86.19014489 379.25074606 83.57128906 379.24291992 C81.7581079 379.24105536 79.94492623 379.23963164 78.13174438 379.2386322 C73.35431533 379.23480999 68.57691658 379.22498222 63.79949951 379.21392822 C58.92655853 379.20370775 54.05361267 379.19913321 49.18066406 379.1940918 C39.61554657 379.1833597 30.05045158 379.16628681 20.48535156 379.14526367 C20.51157593 380.7613855 20.51157593 380.7613855 20.53833008 382.41015625 C20.32034165 397.77884284 11.02598832 412.68856376 0.57910156 423.31323242 C-12.46967413 435.7661929 -29.64989861 441.95254792 -47.51464844 442.14526367 C-67.52754645 441.0634854 -84.52154865 433.73635918 -98.51464844 419.14526367 C-107.50115168 408.17927726 -115.10726059 393.63133849 -114.51464844 379.14526367 C-115.79339844 379.08338867 -117.07214844 379.02151367 -118.38964844 378.95776367 C-125.7498387 378.14512437 -133.34342079 374.46013653 -138.51464844 369.14526367 C-143.46679983 362.51757233 -145.61199085 356.33143423 -146.51464844 348.14526367 C-148.47144531 347.87262695 -148.47144531 347.87262695 -150.46777344 347.59448242 C-181.44930078 343.18889321 -181.44930078 343.18889321 -189.33105469 334.03588867 C-196.0896851 324.59009196 -195.98633472 316.37221863 -194.19570541 305.14560318 C-193.24184689 299.67591026 -192.14890968 294.23339569 -191.05761719 288.78979492 C-190.70962854 287.03494148 -190.36192155 285.28003215 -190.01448059 283.52507019 C-189.28857559 279.86734376 -188.55749651 276.21069754 -187.82299805 272.5546875 C-186.88663066 267.89037753 -185.96611435 263.22309642 -185.04978466 258.55481434 C-184.33736361 254.93719131 -183.61512832 251.32157872 -182.890131 247.70645714 C-182.5467569 245.98688384 -182.20669239 244.26664595 -181.87013817 242.54572487 C-176.93699739 217.38696693 -176.93699739 217.38696693 -166.43261719 209.60229492 C-156.35350335 203.63505837 -144.9877746 205.56421336 -134.07714844 207.89526367 C-133.34431641 208.0518042 -132.61148438 208.20834473 -131.85644531 208.36962891 C-125.12481715 209.96617423 -118.36426355 212.24076403 -114.01464844 217.89526367 C-113.52996094 218.50885742 -113.04527344 219.12245117 -112.54589844 219.75463867 C-112.20558594 220.21354492 -111.86527344 220.67245117 -111.51464844 221.14526367 C-107.52438033 217.38465128 -104.38278145 213.39508436 -101.26464844 208.89526367 C-96.58897276 202.219588 -96.58897276 202.219588 -95.51464844 201.14526367 C-100.13464844 200.81526367 -104.75464844 200.48526367 -109.51464844 200.14526367 C-109.84464844 201.13526367 -110.17464844 202.12526367 -110.51464844 203.14526367 C-118.82282286 205.10158492 -125.90399097 201.41715237 -132.96777344 197.12182617 C-147.31974253 187.86643113 -156.58252883 175.12592937 -160.79589844 158.50854492 C-164.50824281 141.13719434 -161.34580109 124.53043292 -152.20214844 109.33276367 C-142.85081422 95.47670071 -128.4034226 86.22354453 -112.01464844 82.83276367 C-93.14684061 80.02553618 -76.35434412 85.03481962 -60.51464844 95.14526367 C-60.34449219 94.22745117 -60.17433594 93.30963867 -59.99902344 92.36401367 C-57.95321671 82.00439663 -56.40645959 74.78092283 -47.80761719 68.27416992 C-44.77943584 66.78329359 -41.84353545 66.57115008 -38.51464844 66.14526367 C-38.53821411 64.5582666 -38.53821411 64.5582666 -38.56225586 62.93920898 C-38.61716353 58.95833151 -38.65121627 54.97748644 -38.67944336 50.99633789 C-38.69439304 49.28371525 -38.7147603 47.57112996 -38.7409668 45.85864258 C-39.12368962 20.17869153 -39.12368962 20.17869153 -30.40917969 10.05151367 C-21.76703287 1.35591027 -11.87585365 -0.0070656 0 0 Z " fill="#434356" transform="translate(210.5146484375,34.854736328125)"/>
<path d="M0 0 C1.30640442 -0.00708481 2.61280884 -0.01416962 3.95880127 -0.02146912 C5.39459263 -0.01917557 6.83038367 -0.01666591 8.26617432 -0.01396179 C9.78776296 -0.01831207 11.3093494 -0.02349627 12.83093262 -0.02944946 C16.95510894 -0.0428197 21.0791935 -0.04342012 25.20338726 -0.04088616 C28.6523888 -0.03981468 32.10137192 -0.04470458 35.5503695 -0.04949158 C43.69263102 -0.06058087 51.8348464 -0.06102804 59.97711182 -0.05497742 C68.36019709 -0.04894326 76.74311428 -0.06123574 85.12617087 -0.08254749 C92.3365904 -0.10020011 99.54695661 -0.10615891 106.75739694 -0.10290974 C111.05795375 -0.10110189 115.35839078 -0.10368275 119.65892792 -0.11762428 C123.70719306 -0.130257 127.75519774 -0.12820744 131.80345917 -0.11521339 C133.28281749 -0.11285951 134.76219445 -0.11553934 136.24153137 -0.12383652 C151.55591898 -0.20348386 164.07162278 3.09833168 175.61090088 13.63569641 C189.54228103 28.24568247 199.30346403 47.11411204 209.30230713 64.53413391 C214.74448844 73.616611 221.40012558 78.81301994 231.42340088 82.26069641 C234.77997697 82.85072402 238.0867019 82.99868646 241.48980713 83.08882141 C242.40930649 83.12755371 243.32880585 83.16628601 244.27616882 83.20619202 C247.17904949 83.3246221 250.08209402 83.41807561 252.98590088 83.51069641 C254.96838738 83.58716398 256.95081126 83.66527356 258.9331665 83.74507141 C263.76272888 83.93592469 268.59260162 84.10440304 273.42340088 84.26069641 C273.43478592 84.92690506 273.44617096 85.59311371 273.457901 86.2795105 C273.28176786 106.47614707 273.28176786 106.47614707 282.48590088 123.72944641 C289.03231539 128.90322562 295.49520352 131.50013659 303.82965088 131.92475891 C305.69073486 132.02844788 305.69073486 132.02844788 307.5894165 132.13423157 C308.52463135 132.17596497 309.45984619 132.21769836 310.42340088 132.26069641 C310.52521596 138.95001658 310.59504003 145.63913528 310.64312744 152.32905579 C310.66318405 154.60256925 310.69043626 156.87603151 310.72515869 159.14936829 C310.773938 162.4261899 310.79642985 165.70232666 310.81402588 168.97944641 C310.83467102 169.98809753 310.85531616 170.99674866 310.87658691 172.03596497 C310.87855967 178.30696435 310.0386748 183.03811826 306.42340088 188.26069641 C302.04758854 192.52135579 297.30250703 195.42224489 291.11090088 195.51069641 C287.42340088 195.26069641 287.42340088 195.26069641 286.42340088 194.26069641 C286.14740581 192.49372799 285.90343173 190.72173426 285.67340088 188.94819641 C282.93456985 172.07539797 273.11931946 156.64181901 259.36090088 146.63569641 C243.831832 136.05978728 225.97114678 131.69790377 207.36871338 134.87788391 C189.93982115 138.43570884 174.53103885 147.84634133 164.5401001 162.68208313 C156.93832593 174.47034162 153.44552393 186.35982287 152.42340088 200.26069641 C148.46340088 200.26069641 144.50340088 200.26069641 140.42340088 200.26069641 C139.76340088 198.94069641 139.10340088 197.62069641 138.42340088 196.26069641 C137.39831924 196.25038895 136.37323761 196.24008148 135.3170929 196.22946167 C125.6782685 196.13189972 116.03951115 196.02918243 106.40079594 195.92135715 C101.44489376 195.86608439 96.48898574 195.81265757 91.53302002 195.76338196 C86.75436018 195.71580245 81.97577446 195.66346223 77.19720268 195.60775566 C75.36988599 195.58730295 73.54254894 195.5685948 71.71519661 195.55162239 C69.16481254 195.52764267 66.61456991 195.49757977 64.06427002 195.46601868 C63.30110474 195.46026321 62.53793945 195.45450775 61.75164795 195.44857788 C56.53745304 195.37474857 56.53745304 195.37474857 55.42340088 194.26069641 C55.14740581 192.49372799 54.90343173 190.72173426 54.67340088 188.94819641 C51.96778001 172.17732588 42.24026035 156.48889336 28.54840088 146.44819641 C12.79472904 136.08393862 -5.83778624 131.82137145 -24.49456787 134.90913391 C-43.13510967 139.42922384 -58.34874889 150.00358817 -68.57659912 166.26069641 C-73.61307312 175.69597925 -76.66021209 184.62578371 -77.57659912 195.26069641 C-83.15858398 195.8188949 -87.06896914 194.43040434 -91.57659912 191.26069641 C-98.07646691 185.17601841 -99.37148718 178.37018666 -99.66107178 169.74458313 C-99.85900985 160.51551951 -99.92018651 151.40783935 -98.57659912 142.26069641 C-97.34296631 142.22202454 -97.34296631 142.22202454 -96.08441162 142.18257141 C-85.54886442 141.64727802 -77.15490868 139.70518909 -69.33050537 132.30757141 C-59.86263982 121.25821385 -59.62636409 106.4217589 -60.34710693 92.6151886 C-61.19319667 83.93466797 -66.32908252 78.98703148 -72.78363037 73.65913391 C-73.37531006 73.19764954 -73.96698975 72.73616516 -74.57659912 72.26069641 C-68.19758402 54.80060869 -54.42843774 39.23978811 -42.57659912 25.26069641 C-41.872771 24.40991516 -41.16894287 23.55913391 -40.44378662 22.68257141 C-32.78967368 13.73905593 -23.77946394 6.22068342 -12.57659912 2.26069641 C-11.67825222 1.92052396 -10.77990532 1.58035151 -9.85433578 1.2298708 C-6.39320312 0.20646914 -3.60208131 0.00653304 0 0 Z " fill="#FEBF5C" transform="translate(174.57659912109375,207.7393035888672)"/>
<path d="M0 0 C11.7882685 8.75452293 20.66059641 20.89165081 23.62109375 35.5078125 C25.92656444 52.44180074 23.16192765 69.0704591 12.68359375 82.88671875 C6.5576724 90.20883268 -0.37859666 95.42900025 -8.9375 99.75 C-10.28328125 100.430625 -10.28328125 100.430625 -11.65625 101.125 C-23.83186661 106.16318618 -40.82337506 105.63709495 -53.0546875 101.0703125 C-69.29157466 93.63390618 -79.90128546 82.88141117 -86.875 66.375 C-91.58489314 52.35377205 -90.44205197 35.21537239 -84 21.9375 C-77.68799867 9.51972771 -68.37282497 1.02802814 -55.9375 -5.25 C-55.0403125 -5.70375 -54.143125 -6.1575 -53.21875 -6.625 C-36.12410336 -13.69864689 -14.96283763 -10.09005718 0 0 Z " fill="#626274" transform="translate(426.9375,361.25)"/>
<path d="M0 0 C11.60756897 9.08500905 20.5114898 22.01363228 22.390625 36.87109375 C23.5756714 54.92453507 21.00537639 70.24007734 9.13671875 84.59765625 C-0.84324987 95.2023741 -13.75657569 102.41575084 -28.45703125 103.21484375 C-46.58695882 103.74712049 -60.91079674 99.89310428 -74.39477539 87.24316406 C-84.57591335 77.21443333 -90.65551242 64.21618366 -91.04907227 49.90991211 C-91.04562225 46.21800748 -90.87693301 42.55258006 -90.609375 38.87109375 C-90.54878906 37.94683594 -90.48820312 37.02257812 -90.42578125 36.0703125 C-88.59705696 22.63709088 -79.55571192 8.95052019 -69.015625 0.88671875 C-47.78894067 -13.38639658 -21.4069398 -14.90153744 0 0 Z " fill="#626274" transform="translate(197.609375,362.12890625)"/>
<path d="M0 0 C0.71913574 0.2278418 1.43827148 0.45568359 2.17919922 0.69042969 C4.93785062 1.79585327 6.20605789 2.59838811 8 5 C9.1405568 11.15804491 8.98514003 17.25716936 8.875 23.5 C8.85702099 26.86464353 8.85979338 30.22907571 8.8671875 33.59375 C8.86633148 34.40611618 8.86547546 35.21848236 8.86459351 36.0554657 C8.90889599 45.02785761 9.32096282 54.1307102 14 62 C14 62.66 14 63.32 14 64 C12.90945312 64.45826172 12.90945312 64.45826172 11.796875 64.92578125 C2.92713142 68.96265172 -3.18906301 74.22770662 -10 81 C-10.75410156 81.72832031 -11.50820312 82.45664063 -12.28515625 83.20703125 C-16.19127502 86.97625632 -16.19127502 86.97625632 -19.48046875 91.26953125 C-21.19864426 93.79158321 -22.41648764 95.34379174 -25 97 C-30.27667351 97.9716919 -35.69048637 97.45892555 -41 97 C-41.22816406 96.04996094 -41.45632812 95.09992188 -41.69140625 94.12109375 C-42.66824852 90.88298238 -42.66824852 90.88298238 -45.21484375 89.78515625 C-46.11332031 89.54667969 -47.01179688 89.30820313 -47.9375 89.0625 C-61.22005788 84.80860891 -70.95120217 76.25206544 -77.4375 63.9375 C-83.1383427 52.35715572 -84.57238051 36.31591019 -80.4375 24 C-73.73314943 8.79717687 -63.95673574 -1.0352945 -48.625 -7.3125 C-31.20549524 -14.03631535 -15.5982519 -8.54937744 0 0 Z " fill="#8FAD7B" transform="translate(142,138)"/>
<path d="M0 0 C1.32737434 -0.0098568 1.32737434 -0.0098568 2.68156433 -0.01991272 C5.61363815 -0.03964173 8.54566072 -0.05130847 11.4777832 -0.0612793 C12.48004251 -0.06535482 13.48230183 -0.06943035 14.51493263 -0.07362938 C19.82147643 -0.09449007 25.12799438 -0.10879088 30.43457031 -0.11816406 C35.9077369 -0.12921851 41.38049582 -0.16360746 46.85351849 -0.20333576 C51.06839233 -0.22952109 55.28316942 -0.2378577 59.49811745 -0.24144554 C61.51507121 -0.24630782 63.53202076 -0.25791153 65.54889488 -0.27648354 C68.37797398 -0.30091181 71.20600329 -0.29990299 74.03515625 -0.29296875 C74.86194885 -0.30577881 75.68874146 -0.31858887 76.54058838 -0.33178711 C83.67263276 -0.26835743 88.72506789 1.96793819 94.15356445 6.55200195 C98.86620362 12.20716895 99.77529745 16.75543928 99.6340332 23.85668945 C99.62978836 24.66945343 99.62554352 25.48221741 99.62117004 26.3196106 C99.60447249 28.89742154 99.56683807 31.47443015 99.52856445 34.05200195 C99.51350603 35.80719894 99.49981965 37.56240827 99.48754883 39.31762695 C99.45459837 43.60439108 99.40287898 47.89056081 99.34106445 52.17700195 C98.44468262 52.15669922 97.54830078 52.13639648 96.62475586 52.11547852 C95.45090332 52.0996875 94.27705078 52.08389648 93.06762695 52.06762695 C91.90312012 52.04732422 90.73861328 52.02702148 89.53881836 52.00610352 C84.24699509 52.28891588 82.09992302 54.22969426 78.59106445 58.11450195 C77.02515631 60.57136078 77.02515631 60.57136078 75.34106445 65.17700195 C65.11106445 65.17700195 54.88106445 65.17700195 44.34106445 65.17700195 C43.02106445 62.53700195 41.70106445 59.89700195 40.34106445 57.17700195 C35.22740813 52.31279228 30.89443554 51.81860111 24.06762695 51.8996582 C20.19152956 52.29393172 18.17966036 53.54610818 15.34106445 56.17700195 C13.98117783 58.15904286 12.64423829 60.15722084 11.34106445 62.17700195 C2.64293762 61.26197623 -5.99700572 60.22986994 -14.59643555 58.61450195 C-15.27577148 58.487771 -15.95510742 58.36104004 -16.6550293 58.23046875 C-21.38913614 57.31190166 -21.38913614 57.31190166 -23.65893555 56.17700195 C-23.80790884 50.19973515 -23.91644667 44.22356253 -23.98852539 38.24487305 C-24.01858966 36.21375693 -24.05945338 34.18276948 -24.11157227 32.15209961 C-24.18484626 29.22257666 -24.2184953 26.2947781 -24.24487305 23.36450195 C-24.27584076 22.46521973 -24.30680847 21.5659375 -24.3387146 20.6394043 C-24.34226417 13.90121128 -22.37621915 9.97285756 -17.65893555 5.17700195 C-12.0789321 0.54612926 -7.04569319 0.02263697 0 0 Z " fill="#FC587A" transform="translate(207.658935546875,45.822998046875)"/>
<path d="M0 0 C1.21474251 -0.00574036 1.21474251 -0.00574036 2.45402527 -0.01159668 C4.15922292 -0.01430509 5.86446289 -0.00701925 7.56958008 0.00976562 C10.15086811 0.03110861 12.72934674 0.00997287 15.31054688 -0.015625 C26.62340821 -0.03491587 36.62039174 0.8193157 45.234375 9 C55.61672467 21.38998635 70.45775383 43.99697383 69.35546875 60.53125 C67.26892129 66.90071068 64.38032699 70.78620041 58.55859375 74.14477539 C52.79114645 76.50598346 46.48148195 75.97869781 40.35546875 75.96484375 C38.99218487 75.96941217 37.62890329 75.97471969 36.265625 75.98072815 C33.41787316 75.98962971 30.57040221 75.98726959 27.72265625 75.97729492 C24.08776877 75.96579855 20.45385187 75.98604046 16.8190918 76.01521206 C14.00677417 76.03362615 11.19468705 76.03327155 8.38232422 76.02757454 C6.39547586 76.02734831 4.40864897 76.04419204 2.421875 76.06138611 C-4.46924132 76.00831836 -9.10249915 75.78583292 -14.64453125 71.53125 C-18.55591099 67.31107712 -19.7590842 64.21229725 -19.8215332 58.52832031 C-19.83436844 57.51006165 -19.84720367 56.49180298 -19.86042786 55.44268799 C-19.86781479 54.3426947 -19.87520172 53.24270142 -19.8828125 52.109375 C-19.89088425 50.97602722 -19.89895599 49.84267944 -19.90727234 48.67498779 C-19.92111027 46.27422616 -19.93183372 43.87344488 -19.93969727 41.47265625 C-19.95689853 37.80951429 -20.00078755 34.14727748 -20.04492188 30.484375 C-20.05504996 28.1510483 -20.0635657 25.81771393 -20.0703125 23.484375 C-20.08782059 22.39247864 -20.10532867 21.30058228 -20.12336731 20.17559814 C-20.10512586 13.74795297 -19.72799842 9.61749265 -15.64453125 4.53125 C-10.85313121 0.46092375 -6.10211963 -0.06469574 0 0 Z " fill="#434256" transform="translate(290.64453125,220.46875)"/>
<path d="M0 0 C1.10595016 -0.01235687 2.21190033 -0.02471375 3.35136414 -0.03744507 C5.68886026 -0.05699312 8.02643849 -0.06824019 10.36401367 -0.07177734 C13.92702703 -0.08584985 17.48652082 -0.15318867 21.04882812 -0.22265625 C23.32420321 -0.2350571 25.59959832 -0.24427546 27.875 -0.25 C28.93358719 -0.27671783 29.99217438 -0.30343567 31.08283997 -0.33096313 C37.75676335 -0.27013018 41.29233064 0.96581857 46.10490417 5.64492798 C49.0176918 9.24667696 49.88687105 11.92440291 49.92724609 16.54785156 C49.9400058 17.54278625 49.9527655 18.53772095 49.96591187 19.56280518 C49.96813751 20.63262634 49.97036316 21.70244751 49.97265625 22.8046875 C49.98264145 24.46573517 49.98264145 24.46573517 49.99282837 26.16033936 C50.00295228 28.50384867 50.00764547 30.84738681 50.00732422 33.19091797 C50.01168555 36.76188237 50.04797708 40.33159895 50.0859375 43.90234375 C50.09180817 46.18228745 50.09577589 48.46223701 50.09765625 50.7421875 C50.11202728 51.80391174 50.12639832 52.86563599 50.14120483 53.95953369 C50.1022569 60.33692358 49.35257564 65.2385095 45.63671875 70.5390625 C41.31557201 74.75218057 37.8475671 75.64437225 31.96337891 75.71606445 C31.04207184 75.72889969 30.12076477 75.74173492 29.17153931 75.75495911 C27.68863907 75.76603951 27.68863907 75.76603951 26.17578125 75.77734375 C25.15245697 75.7854155 24.12913269 75.79348724 23.07479858 75.80180359 C20.91121098 75.8156224 18.74760178 75.82635439 16.58398438 75.83422852 C13.28083 75.85146279 9.97867121 75.89537191 6.67578125 75.93945312 C4.57162193 75.94957881 2.46745412 75.9580953 0.36328125 75.96484375 C-0.62127045 75.98235184 -1.60582214 75.99985992 -2.62020874 76.01789856 C-8.39471985 75.99968649 -11.81700792 75.46669453 -16.36328125 71.5390625 C-20.02221607 67.38567703 -21.4788218 65.06347266 -21.55615234 59.57373047 C-21.57221527 58.53860321 -21.5882782 57.50347595 -21.60482788 56.4369812 C-21.64931684 51.68585845 -21.69036877 46.93487633 -21.71337891 42.18359375 C-21.72991013 39.68122031 -21.7571622 37.17889354 -21.79541016 34.67675781 C-21.85032869 31.06550636 -21.87208008 27.45536352 -21.88671875 23.84375 C-21.90938812 22.73200409 -21.9320575 21.62025818 -21.95541382 20.474823 C-21.93669604 13.55235348 -21.05946715 8.78979277 -16.36328125 3.5390625 C-11.84089543 -0.69079412 -5.85601956 0.03561776 0 0 Z " fill="#434356" transform="translate(209.36328125,220.4609375)"/>
<path d="M0 0 C0.72082764 0.10916748 1.44165527 0.21833496 2.18432617 0.33081055 C9.34089081 1.59207959 14.00959074 4.7820166 18.25 10.75 C19.83010009 13.91020018 19.5615506 16.23542914 19.25 19.75 C18.00359516 22.82598319 16.35199721 25.63344878 14.6875 28.5 C6.27962721 43.74754563 1.16205782 59.83137746 -2.75 76.75 C-2.98178955 77.74 -2.98178955 77.74 -3.21826172 78.75 C-5.49457627 88.74632395 -6.37656461 98.72767403 -7.01635742 108.94213867 C-7.08443604 109.93963135 -7.15251465 110.93712402 -7.22265625 111.96484375 C-7.27687744 112.86323975 -7.33109863 113.76163574 -7.38696289 114.68725586 C-7.50676514 115.36796143 -7.62656738 116.04866699 -7.75 116.75 C-13.26796413 119.50898207 -20.53936112 117.21539766 -26.3125 116 C-27.13685547 115.84273438 -27.96121094 115.68546875 -28.81054688 115.5234375 C-35.14626502 114.20666155 -39.53580525 112.02246303 -44.125 107.3125 C-48.81325394 97.03440483 -44.74909874 83.97727662 -42.5390625 73.35546875 C-42.2065038 71.71190671 -41.87501166 70.06812853 -41.54452515 68.42414856 C-40.67862478 64.13259294 -39.79745087 59.84431404 -38.91314697 55.55651855 C-38.19519824 52.06245254 -37.48808233 48.56623637 -36.78153419 45.06984997 C-35.31694461 37.82317424 -33.84532923 30.57789368 -32.35400391 23.33666992 C-31.96095566 21.42358284 -31.96095566 21.42358284 -31.55996704 19.47184753 C-28.87199417 7.12044965 -28.87199417 7.12044965 -25.875 3.875 C-25.38257812 3.32070313 -24.89015625 2.76640625 -24.3828125 2.1953125 C-17.58931943 -3.81806653 -8.20582472 -1.33098459 0 0 Z " fill="#626274" transform="translate(72.75,253.25)"/>
<path d="M0 0 C8.78215576 1.96427931 17.42394375 3.34627768 26.375 4.625 C26.375 30.695 26.375 56.765 26.375 83.625 C18.0425 83.893125 9.71 84.16125 1.125 84.4375 C-2.81421387 84.58409058 -2.81421387 84.58409058 -6.83300781 84.73364258 C-8.91466055 84.78929119 -10.99636504 84.84304993 -13.078125 84.89453125 C-14.15884277 84.94170288 -15.23956055 84.98887451 -16.35302734 85.03747559 C-23.97804436 85.19150734 -23.97804436 85.19150734 -27.29711914 82.28515625 C-28.74568847 79.38322366 -29.38722155 77.02524712 -29.8125 73.8125 C-29.95042969 72.83667969 -30.08835938 71.86085938 -30.23046875 70.85546875 C-30.36066406 69.78941406 -30.49085938 68.72335938 -30.625 67.625 C-30.80160156 66.47902344 -30.97820312 65.33304687 -31.16015625 64.15234375 C-31.94232264 57.79922174 -31.86845548 51.39197795 -31.875 45 C-31.87600708 44.31946564 -31.87701416 43.63893127 -31.87805176 42.93777466 C-31.86906788 33.92417034 -31.54754313 25.01126255 -30.375 16.0625 C-30.26575195 15.1844873 -30.15650391 14.30647461 -30.04394531 13.40185547 C-29.12137324 7.28164308 -27.27021045 2.82934205 -22.375 -1.25 C-15.19372596 -4.18779392 -7.24936352 -1.63962733 0 0 Z " fill="#83B7F4" transform="translate(191.625,113.375)"/>
<path d="M0 0 C3.4572064 2.85595311 5.76959772 5.02596177 6.29711914 9.5456543 C7.45731897 25.52547322 8.25062822 41.50306664 8.40841675 57.52651978 C8.42772945 59.25203801 8.45543438 60.97748371 8.49172974 62.70272827 C8.53955069 65.13829684 8.55366399 67.57182539 8.55859375 70.0078125 C8.58776382 71.08874428 8.58776382 71.08874428 8.61752319 72.19151306 C8.56727307 77.87868665 6.85551795 80.13462606 3 84 C-6.37226111 90.99392388 -19.79747285 91.90703953 -31 91 C-34.63 90.34 -38.26 89.68 -42 89 C-42 62.6 -42 36.2 -42 9 C-35.73 7.68 -29.46 6.36 -23 5 C-16.73738938 3.03831939 -16.73738938 3.03831939 -10.515625 0.953125 C-6.79721632 -0.05497691 -3.83324922 -0.34341458 0 0 Z " fill="#83B7F3" transform="translate(359,108)"/>
<path d="M0 0 C8.44175239 4.97570442 14.77199639 10.78644141 17.62890625 20.4140625 C19.31861677 29.81710808 19.70886209 39.81705334 14.61328125 48.19140625 C13.88431641 49.21621094 13.88431641 49.21621094 13.140625 50.26171875 C12.70621094 50.90367187 12.27179688 51.545625 11.82421875 52.20703125 C6.65229557 59.01451988 -1.48596049 63.76646616 -9.859375 65.26171875 C-20.94775417 66.29713616 -30.2449975 63.28880212 -38.859375 56.26171875 C-44.70855221 50.8294094 -49.07435163 43.30820827 -49.859375 35.26171875 C-49.93414062 34.57980469 -50.00890625 33.89789063 -50.0859375 33.1953125 C-50.64831907 23.9752147 -47.46721293 15.00659254 -41.671875 7.82421875 C-31.03065252 -3.21458787 -13.99572558 -6.7836425 0 0 Z " fill="#434357" transform="translate(409.859375,377.73828125)"/>
<path d="M0 0 C0.68320313 0.48597656 1.36640625 0.97195313 2.0703125 1.47265625 C2.71226562 1.90707031 3.35421875 2.34148437 4.015625 2.7890625 C10.81118813 7.9519254 15.60266955 16.10709145 17.0703125 24.47265625 C18.22286122 34.24563789 15.80342682 42.97037037 10.2734375 51.12109375 C3.87632558 58.8232165 -4.36593446 63.70205445 -14.421875 64.7265625 C-24.62758165 65.17468843 -33.10896955 61.99969529 -40.921875 55.4609375 C-48.19362216 48.25992718 -51.19668381 40.38810566 -51.3046875 30.16015625 C-51.14261284 19.88867459 -47.92762626 12.008898 -40.9296875 4.47265625 C-30.50997865 -5.14553653 -12.21946066 -7.43523115 0 0 Z " fill="#434357" transform="translate(180.9296875,378.52734375)"/>
<path d="M0 0 C2.34114382 2.34114382 2.7545417 3.99017957 3.75 7.125 C7.35982694 17.31510188 14.10897278 24.46335241 23.5 29.6875 C43.35371779 38.80550373 68.92983956 36.38468524 90 33 C91.6899728 32.7439232 93.38008473 32.48876345 95.0703125 32.234375 C101.40625325 31.2664005 107.71424746 30.25715051 114 29 C114 35.6 114 42.2 114 49 C111.97875 48.9175 109.9575 48.835 107.875 48.75 C102.09234665 48.75 99.19590557 49.02493157 95 53 C92.32197733 55.96495367 91.56246169 58.09384577 90 62 C79.77 62 69.54 62 59 62 C57.68 59.36 56.36 56.72 55 54 C49.88634368 49.13579033 45.55337109 48.64159916 38.7265625 48.72265625 C34.85046511 49.11692977 32.83859591 50.36910623 30 53 C28.64011337 54.9820409 27.30317384 56.98021889 26 59 C17.30187317 58.08497428 8.66192983 57.05286799 0.0625 55.4375 C-0.61683594 55.31076904 -1.29617187 55.18403809 -1.99609375 55.0534668 C-6.73020059 54.1348997 -6.73020059 54.1348997 -9 53 C-9.14897329 47.0227332 -9.25751112 41.04656058 -9.32958984 35.06787109 C-9.35965411 33.03675498 -9.40051783 31.00576753 -9.45263672 28.97509766 C-9.52591071 26.04557471 -9.55955976 23.11777615 -9.5859375 20.1875 C-9.61690521 19.28821777 -9.64787292 18.38893555 -9.67977905 17.46240234 C-9.68331329 10.75331866 -7.74518455 6.75203739 -3 2 C-2.01 1.34 -1.02 0.68 0 0 Z " fill="#D54565" transform="translate(193,49)"/>
<path d="M0 0 C35.64 0 71.28 0 108 0 C106.35 5.94 104.7 11.88 103 18 C102.55947675 21.32086758 102.16190534 24.65395623 102 28 C98.04 28 94.08 28 90 28 C89.01 26.02 89.01 26.02 88 24 C86.46237755 23.9845388 86.46237755 23.9845388 84.89369202 23.96876526 C75.25486762 23.87120331 65.61611027 23.76848602 55.97739506 23.66066074 C51.02149288 23.60538798 46.06558486 23.55196116 41.10961914 23.50268555 C36.3309593 23.45510604 31.55237358 23.40276582 26.7738018 23.34705925 C24.94648511 23.32660653 23.11914806 23.30789839 21.29179573 23.29092598 C18.74141166 23.26694626 16.19116903 23.23688336 13.64086914 23.20532227 C12.49612122 23.19668907 12.49612122 23.19668907 11.32824707 23.18788147 C6.11405216 23.11405216 6.11405216 23.11405216 5 22 C4.49221732 19.19796285 4.09955767 16.38509755 3.6953125 13.56640625 C2.79843422 8.9661261 1.34676886 4.48922953 0 0 Z " fill="#EF8439" transform="translate(225,380)"/>
<path d="M0 0 C10.23 0 20.46 0 31 0 C31 25.08 31 50.16 31 76 C20.77 76 10.54 76 0 76 C0 50.92 0 25.84 0 0 Z " fill="#84B8F5" transform="translate(252,121)"/>
<path d="M0 0 C2.58499107 2.58499107 2.26678024 3.64293745 2.30639648 7.24072266 C2.32238388 8.33591217 2.33837128 9.43110168 2.35484314 10.55947876 C2.36020584 11.74899139 2.36556854 12.93850403 2.37109375 14.1640625 C2.38463646 15.99582535 2.38463646 15.99582535 2.39845276 17.86459351 C2.41298788 20.45543964 2.42185004 23.04632275 2.42553711 25.63720703 C2.43738962 29.58820351 2.48651046 33.53761671 2.53710938 37.48828125 C2.54657826 40.00520071 2.55381106 42.52212977 2.55859375 45.0390625 C2.57812607 46.21642975 2.59765839 47.393797 2.61778259 48.60684204 C2.57946982 55.62991838 1.81292115 60.66862648 -3 66 C-8.18255161 70.35499071 -13.34951368 70.64651783 -19.9375 70.5625 C-21.22043945 70.59827148 -21.22043945 70.59827148 -22.52929688 70.63476562 C-28.8806968 70.62023153 -33.07867081 69.02440334 -38 65 C-42.39341577 60.15597748 -43.37564817 57.18364308 -43.265625 50.765625 C-41.717542 34.64734901 -26.595127 18.49801419 -15.75 7.5 C-15.24235107 6.9829248 -14.73470215 6.46584961 -14.21166992 5.93310547 C-9.57883844 1.34085241 -6.60709522 -0.57453002 0 0 Z " fill="#434356" transform="translate(174,226)"/>
<path d="M0 0 C6.68732871 5.60423981 10.33347998 11.81684618 13.06640625 20.015625 C13.56503545 29.0868409 13.90360211 37.60331101 10.06640625 46.015625 C8.06640625 48.015625 8.06640625 48.015625 5.62890625 48.328125 C3.06640625 48.015625 3.06640625 48.015625 1.19140625 46.953125 C-0.55067218 43.95287881 0.55555083 41.40340307 1.06640625 38.015625 C2.36031854 24.98634797 2.36031854 24.98634797 -2.51953125 13.41796875 C-2.98617187 12.95519531 -3.4528125 12.49242187 -3.93359375 12.015625 C-4.69671875 11.2525 -5.45984375 10.489375 -6.24609375 9.703125 C-14.14097127 4.74587633 -21.70891112 3.87464909 -30.93359375 5.015625 C-37.29275442 7.33706587 -41.52253502 12.15793104 -45.046875 17.796875 C-46.22907361 20.75497549 -46.23506873 23.27424465 -46.24609375 26.453125 C-46.26285156 27.56558594 -46.27960938 28.67804688 -46.296875 29.82421875 C-45.89172309 33.38345648 -45.10061695 35.18714142 -42.93359375 38.015625 C-39.27701305 40.86139868 -35.86008889 41.99992169 -31.24609375 42.078125 C-27.17012553 40.77073897 -25.42960676 39.49491586 -22.93359375 36.015625 C-22.10026042 32.515625 -22.10026042 32.515625 -22.93359375 29.015625 C-24.55912658 27.30881553 -26.2247537 25.63902305 -27.93359375 24.015625 C-28.50318585 21.0252665 -28.36831431 19.74015926 -26.80859375 17.140625 C-24.93359375 16.015625 -24.93359375 16.015625 -22.18359375 15.828125 C-17.44014406 17.56130854 -14.72409077 20.87215973 -11.93359375 25.015625 C-10.28493197 30.00953656 -9.95570802 34.72108599 -12.02734375 39.58203125 C-15.69772291 46.13209619 -19.63589394 50.5830584 -26.93359375 53.015625 C-35.59027781 53.98453826 -42.56371571 51.86554546 -49.80859375 47.140625 C-55.67894965 41.2702691 -58.20798082 34.94332385 -58.30859375 26.703125 C-58.21122952 20.59699682 -57.00417005 16.25053113 -53.93359375 11.015625 C-53.35609375 9.984375 -52.77859375 8.953125 -52.18359375 7.890625 C-39.08924955 -8.84103704 -17.83547831 -12.06447801 0 0 Z " fill="#5D7843" transform="translate(130.93359375,151.984375)"/>
<path d="M0 0 C6.48693695 3.63020955 10.32572437 9.02058234 12.6875 16 C13.85641919 24.01017258 12.26547041 30.35533428 7.6875 37 C5.78079199 39.13162799 4.11206456 40.36712999 1.6875 42 C0.841875 42.598125 -0.00375 43.19625 -0.875 43.8125 C-7.04546987 45.94411687 -13.75616213 46.21842322 -19.98046875 44.0859375 C-24.89535739 41.53381777 -28.16954835 38.52954796 -31.3125 34 C-31.910625 33.154375 -32.50875 32.30875 -33.125 31.4375 C-35.2570738 25.26570743 -35.4734984 18.622745 -33.46875 12.3671875 C-27.13392237 -0.25966487 -13.017783 -5.84030446 0 0 Z " fill="#FCFCFC" transform="translate(405.3125,387)"/>
<path d="M0 0 C5.37023221 3.5801548 8.86499693 7.84829624 11 14 C12.14301522 21.44803465 11.638858 27.74910855 7.48828125 34.1328125 C5.20749944 36.99426579 3.02467768 38.90124406 0 41 C-0.845625 41.598125 -1.69125 42.19625 -2.5625 42.8125 C-8.73429257 44.9445738 -15.377255 45.1609984 -21.6328125 43.15625 C-28.26883128 39.82699312 -32.21695182 34.72819164 -35.375 28.125 C-36.93195318 20.3402341 -36.51747395 14.29861771 -32.625 7.265625 C-24.90654768 -3.49567871 -11.54656998 -6.15983323 0 0 Z " fill="#FCFCFD" transform="translate(176,388)"/>
<path d="M0 0 C0.33 0 0.66 0 1 0 C1 18.15 1 36.3 1 55 C18.01688256 51.31481917 18.01688256 51.31481917 34.5 46.3125 C35.35207031 46.01794922 36.20414062 45.72339844 37.08203125 45.41992188 C38.6366021 44.88198717 40.18966609 44.33964856 41.74023438 43.7902832 C44.48389646 42.83077216 47.24103849 41.91446224 50 41 C50.1455841 45.54132797 50.23417333 50.08205341 50.3125 54.625 C50.35439453 55.91019531 50.39628906 57.19539063 50.43945312 58.51953125 C50.57760483 69.18484279 50.57760483 69.18484279 47.703125 72.76171875 C37.4365407 81.26280662 23.98694039 83.05151883 11 82 C7.37 81.34 3.74 80.68 0 80 C0 53.6 0 27.2 0 0 Z " fill="#5387D2" transform="translate(317,117)"/>
<path d="M0 0 C0.33 0 0.66 0 1 0 C1 26.07 1 52.14 1 79 C-7.3325 79.268125 -15.665 79.53625 -24.25 79.8125 C-28.18921387 79.95909058 -28.18921387 79.95909058 -32.20800781 80.10864258 C-34.28966055 80.16429119 -36.37136504 80.21804993 -38.453125 80.26953125 C-39.53384277 80.31670288 -40.61456055 80.36387451 -41.72802734 80.41247559 C-49.35304436 80.56650734 -49.35304436 80.56650734 -52.67211914 77.66015625 C-54.12068847 74.75822366 -54.76222155 72.40024712 -55.1875 69.1875 C-55.32542969 68.21167969 -55.46335938 67.23585938 -55.60546875 66.23046875 C-55.73566406 65.16441406 -55.86585938 64.09835938 -56 63 C-56.27070313 61.32357422 -56.27070313 61.32357422 -56.546875 59.61328125 C-57.39558161 52.79514831 -57.10374604 45.85929508 -57.0625 39 C-57.05747576 37.54297029 -57.05291449 36.0859389 -57.04882812 34.62890625 C-57.03789388 31.0859023 -57.02068 27.54296203 -57 24 C-56.67 24 -56.34 24 -56 24 C-56.0220752 24.63502441 -56.04415039 25.27004883 -56.06689453 25.92431641 C-56.90073882 37.94423542 -56.90073882 37.94423542 -52.953125 48.7265625 C-50.27644457 50.3082373 -48.00747489 51.22120485 -45 52 C-43.97205322 52.33660645 -42.94410645 52.67321289 -41.88500977 53.02001953 C-37.59812833 54.24408303 -33.43993539 54.34984153 -29.00390625 54.4140625 C-28.26394409 54.43170654 -27.52398193 54.44935059 -26.76159668 54.4675293 C-24.02877507 54.53003063 -21.29560783 54.57660611 -18.5625 54.625 C-9.3740625 54.810625 -9.3740625 54.810625 0 55 C0 36.85 0 18.7 0 0 Z " fill="#5387D2" transform="translate(217,118)"/>
<path d="M0 0 C4.65576291 1.26975352 4.65576291 1.26975352 6.4375 3.9375 C6.71808662 6.75738192 6.81639811 9.35374436 6.77807617 12.17260742 C6.77851425 13.01185257 6.77895233 13.85109772 6.77940369 14.71577454 C6.77731247 17.49174201 6.75396586 20.26710669 6.73046875 23.04296875 C6.72487398 24.96681895 6.72060332 26.89067342 6.71760559 28.81452942 C6.70614747 33.8797484 6.67667193 38.94470958 6.64349365 44.00982666 C6.61281363 49.17773959 6.59910468 54.34569414 6.58398438 59.51367188 C6.5518032 69.65506122 6.50059512 79.79625918 6.4375 89.9375 C1.8175 89.9375 -2.8025 89.9375 -7.5625 89.9375 C-7.65513613 78.79364696 -7.72623262 67.64988536 -7.76974869 56.50572586 C-7.79063313 51.33115296 -7.81896658 46.15684328 -7.86425781 40.98242188 C-7.90768476 35.98980875 -7.93163065 30.99744897 -7.94200897 26.00466156 C-7.949406 24.09882366 -7.96385054 22.19299979 -7.98542023 20.28726959 C-8.01441246 17.619918 -8.01845778 14.95361634 -8.01660156 12.28613281 C-8.03098267 11.4963504 -8.04536377 10.70656799 -8.06018066 9.89285278 C-8.0336025 6.36861718 -7.83215171 4.31466604 -5.7567749 1.4118042 C-3.5625 -0.0625 -3.5625 -0.0625 0 0 Z " fill="#626274" transform="translate(235.5625,107.0625)"/>
<path d="M0 0 C3.76329769 0.70561832 4.72893484 1.49478123 7 4.5625 C7.37400179 7.47502526 7.5070566 10.00294465 7.45410156 12.91113281 C7.45468567 13.75052399 7.45526978 14.58991516 7.45587158 15.45474243 C7.45308786 18.22545929 7.42198277 20.99509641 7.390625 23.765625 C7.38316362 25.68804334 7.3774702 27.61046929 7.37347412 29.53289795 C7.35820967 34.5899764 7.31892075 39.6465945 7.2746582 44.70349121 C7.23372306 49.86476413 7.21546685 55.0261115 7.1953125 60.1875 C7.15242739 70.31270213 7.08416613 80.43756277 7 90.5625 C2.38 90.5625 -2.24 90.5625 -7 90.5625 C-7.09268805 79.56630254 -7.16375905 68.57019804 -7.20724869 57.57368946 C-7.22812179 52.46752434 -7.25643456 47.36162652 -7.30175781 42.25561523 C-7.34522517 37.3278357 -7.36913919 32.40031325 -7.37950897 27.4723568 C-7.38689873 25.5924646 -7.40132923 23.71258645 -7.42292023 21.83280373 C-7.4519662 19.19918052 -7.45595553 16.56661899 -7.45410156 13.93286133 C-7.46848267 13.15602493 -7.48286377 12.37918854 -7.49768066 11.57881165 C-7.46959555 7.89071111 -7.11086265 5.74244459 -5.15911865 2.57450867 C-3 0.5625 -3 0.5625 0 0 Z " fill="#626274" transform="translate(300,106.4375)"/>
<path d="M0 0 C10.23 0 20.46 0 31 0 C31 25.08 31 50.16 31 76 C20.77 76 10.54 76 0 76 C0 50.92 0 25.84 0 0 Z M1 1 C1 17.83 1 34.66 1 52 C10.57 52 20.14 52 30 52 C30 35.17 30 18.34 30 1 C20.43 1 10.86 1 1 1 Z " fill="#5789D1" transform="translate(252,121)"/>
<path d="M0 0 C3.40426621 0.12158094 4.2549517 1.27316254 6.625 3.8125 C12.56494798 11.78453544 11.59038126 19.6598054 10.3125 29.25 C8.74810793 37.6189506 4.88580269 43.12255643 -2 48 C-6.34388336 50.40056712 -10.1496799 50.16441763 -15 50 C-14.93768451 36.69564355 -9.83837796 9.83837796 0 0 Z " fill="#FA587A" transform="translate(94,290)"/>
<path d="M0 0 C8.19072988 0.97741407 13.71326867 3.49325375 19 10 C24.19462869 18.83862195 27.14598446 26.7518908 27 37 C19.5030942 37.44981435 13.19359204 37.67034203 7 33 C2.96361149 29.23201584 0.26155375 24.98030657 -0.22705078 19.4128418 C-0.21657715 18.51734619 -0.20610352 17.62185059 -0.1953125 16.69921875 C-0.18886719 15.72275391 -0.18242187 14.74628906 -0.17578125 13.74023438 C-0.15902344 12.73283203 -0.14226562 11.72542969 -0.125 10.6875 C-0.11597656 9.66076172 -0.10695313 8.63402344 -0.09765625 7.57617188 C-0.07416201 5.05054101 -0.04131131 2.5253919 0 0 Z " fill="#FAF3E0" transform="translate(459,293)"/>
<path d="M0 0 C0.75648949 17.31520396 0.75648949 17.31520396 -4 24 C-8.37581234 28.26065938 -13.12089385 31.16154848 -19.3125 31.25 C-23 31 -23 31 -24 30 C-24.32735342 28.1936043 -24.6111648 26.37925994 -24.875 24.5625 C-25.77731667 18.85466348 -27.18186769 13.47863869 -29 8 C-27.89205078 7.85304688 -27.89205078 7.85304688 -26.76171875 7.703125 C-18.69187208 6.51366857 -11.10350131 4.62465782 -3.8125 0.875 C-2 0 -2 0 0 0 Z " fill="#EF8439" transform="translate(485,372)"/>
<path d="M0 0 C0.33 0 0.66 0 1 0 C1 6.93 1 13.86 1 21 C9.91 21 18.82 21 28 21 C27.195625 23.289375 26.39125 25.57875 25.5625 27.9375 C23.60482519 33.65783323 22.3197031 38.92564112 22 45 C16.41801514 45.55819849 12.50762998 44.16970793 8 41 C2.22754328 35.59626849 0.49858342 29.71973328 0 22 C-0.1895315 14.66648467 -0.12616483 7.33405837 0 0 Z " fill="#EC863C" transform="translate(75,358)"/>
<path d="M0 0 C0.80695313 -0.01160156 1.61390625 -0.02320313 2.4453125 -0.03515625 C5.99677577 -0.01757475 8.37186038 0.03624982 11.53515625 1.7421875 C13 3.375 13 3.375 13.4375 5.875 C12.91981331 8.83320965 12.33738136 9.5550889 10 11.375 C7.87109375 11.76318359 7.87109375 11.76318359 5.4375 11.7734375 C4.55835938 11.77730469 3.67921875 11.78117187 2.7734375 11.78515625 C1.85820312 11.77355469 0.94296875 11.76195312 0 11.75 C-1.37285156 11.76740234 -1.37285156 11.76740234 -2.7734375 11.78515625 C-3.65257812 11.78128906 -4.53171875 11.77742188 -5.4375 11.7734375 C-6.64212891 11.76836182 -6.64212891 11.76836182 -7.87109375 11.76318359 C-10.50713166 11.28252989 -11.39292832 10.485545 -13 8.375 C-13.4375 5.875 -13.4375 5.875 -13 3.375 C-9.405733 -0.63140962 -4.98848522 -0.07171944 0 0 Z " fill="#F2873A" transform="translate(201,309.625)"/>
<path d="M0 0 C1.25103516 0.0009668 1.25103516 0.0009668 2.52734375 0.00195312 C3.39488281 0.01806641 4.26242187 0.03417969 5.15625 0.05078125 C6.45755859 0.04594727 6.45755859 0.04594727 7.78515625 0.04101562 C14.25535409 0.09601731 14.25535409 0.09601731 17.65625 2.36328125 C17.96875 5.86328125 17.96875 5.86328125 17.65625 9.36328125 C14.78029444 12.23923681 12.45076445 11.65394348 8.51757812 11.68554688 C7.59396484 11.68232422 6.67035156 11.67910156 5.71875 11.67578125 C4.33913086 11.69995117 4.33913086 11.69995117 2.93164062 11.72460938 C1.60616211 11.72557617 1.60616211 11.72557617 0.25390625 11.7265625 C-0.55554443 11.72954346 -1.36499512 11.73252441 -2.19897461 11.7355957 C-4.85431919 11.27465085 -5.73397755 10.4906736 -7.34375 8.36328125 C-7.71875 5.86328125 -7.71875 5.86328125 -7.34375 3.36328125 C-5.12191969 0.4642433 -3.5945758 -0.01407698 0 0 Z " fill="#F2873A" transform="translate(278.34375,309.63671875)"/>
</svg>
