<?xml version="1.0" encoding="UTF-8"?>
<svg version="1.1" xmlns="http://www.w3.org/2000/svg" width="512" height="533">
<path d="M0 0 C1.12712402 -0.00807175 2.25424805 -0.01614349 3.41552734 -0.02445984 C5.79572031 -0.03824248 8.17593256 -0.04899044 10.55615234 -0.05688477 C12.96278782 -0.06837267 15.36939847 -0.08877336 17.77587891 -0.1184082 C39.23426267 -0.38210796 57.85499359 0.45314234 74.4375 15.80078125 C84.34061158 26.30988033 90.07406831 38.7747888 90.3125 53.30078125 C90.65601896 59.44026913 92.65362832 63.90643739 95.375 69.30078125 C104.86145463 88.10765868 109.06321806 107.90117397 109.5 128.86328125 C109.70207169 137.68055984 111.24957054 144.42644524 114.68359375 152.48046875 C121.32260798 168.27033334 120.05168521 185.55039851 114.00585938 201.29052734 C108.9007831 213.4409744 101.15997789 224.16603625 91.01953125 232.56640625 C88.20181343 235.13779906 86.26781132 238.05280454 84.1875 241.23828125 C83.15625 241.07328125 82.125 240.90828125 81.0625 240.73828125 C65.73360602 238.92693046 52.58571358 240.62829895 40.1875 250.23828125 C36.8063897 253.26755555 33.57124394 256.42117021 30.38378906 259.65087891 C28.9361315 261.114665 27.473057 262.56165435 26.0078125 264.0078125 C19.79283365 270.20778731 14.03406456 276.36028475 11.4375 284.92578125 C11.21578125 285.63089844 10.9940625 286.33601563 10.765625 287.0625 C7.24110635 300.32707356 9.17738052 313.69992005 15.6015625 325.7890625 C19.85671795 332.36044788 25.66457305 337.74452469 31.1875 343.23828125 C30.23230469 343.33625 29.27710938 343.43421875 28.29296875 343.53515625 C9.75403397 345.67924043 -3.53210068 352.78213827 -15.8125 367.23828125 C-24.66776008 379.69568103 -27.89522394 392.82871776 -25.34375 408.03125 C-21.92180416 420.84317819 -14.4871372 431.09746636 -3.20751953 437.98925781 C1.41084063 440.39777266 6.35733307 441.86627166 11.3125 443.42578125 C12.37082031 443.76802734 13.42914063 444.11027344 14.51953125 444.46289062 C16.48815892 445.0989278 18.45820609 445.73060248 20.43017578 446.35620117 C21.79505127 446.79283081 21.79505127 446.79283081 23.1875 447.23828125 C24.24533691 447.48779541 25.30317383 447.73730957 26.39306641 447.99438477 C29.1875 449.23828125 29.1875 449.23828125 30.57128906 451.75683594 C31.00779785 453.31772949 31.00779785 453.31772949 31.453125 454.91015625 C31.95199219 456.61945313 31.95199219 456.61945313 32.4609375 458.36328125 C32.78320312 459.55953125 33.10546875 460.75578125 33.4375 461.98828125 C34.10936449 464.33724259 34.78123916 466.68620102 35.453125 469.03515625 C35.88286621 470.60281738 35.88286621 470.60281738 36.32128906 472.20214844 C37.19024403 475.24789927 38.17730191 478.23689063 39.1875 481.23828125 C8.83423211 481.32964918 -21.51902149 481.4003805 -51.87239559 481.44254257 C-55.46074767 481.44754504 -59.04909949 481.45272236 -62.63745117 481.45800781 C-63.35178868 481.45905705 -64.06612619 481.4601063 -64.80211029 481.46118733 C-76.34905325 481.47856425 -87.89591606 481.51008687 -99.44281157 481.54689243 C-111.30234949 481.58437759 -123.1618456 481.60653306 -135.02144033 481.61463523 C-141.67802099 481.61961792 -148.33445587 481.6320434 -154.99098778 481.66120148 C-161.26264367 481.68844981 -167.53404424 481.69670711 -173.80575371 481.69071198 C-176.10142659 481.69180799 -178.39710845 481.6997053 -180.69272995 481.71510315 C-210.63314554 481.90599477 -210.63314554 481.90599477 -221.8125 471.23828125 C-230.90066129 462.23485806 -234.00151849 451.95887262 -234.11604309 439.35668945 C-234.11513168 438.24511475 -234.11422028 437.13354004 -234.11328125 435.98828125 C-234.11970894 434.23100708 -234.11970894 434.23100708 -234.12626648 432.43823242 C-234.13199264 429.96387373 -234.13252273 427.48949821 -234.12817383 425.01513672 C-234.12503339 421.27801817 -234.14842803 417.54170725 -234.17382812 413.8046875 C-234.24580234 386.95359494 -230.11058914 362.93662783 -210.6171875 342.98828125 C-197.34159051 329.97153991 -181.49220986 322.93810876 -163.46899414 319.07763672 C-162.58331757 318.88373352 -161.69764099 318.68983032 -160.78512573 318.49005127 C-157.89026362 317.85735471 -154.99397245 317.23147167 -152.09765625 316.60546875 C-150.07495777 316.16425289 -148.05237131 315.72252322 -146.02989197 315.28030396 C-140.7298096 314.12249858 -135.42856719 312.97010487 -130.12695312 311.81933594 C-121.61690523 309.97165887 -113.10821977 308.11775492 -104.60037041 306.25998306 C-101.62832474 305.61215369 -98.65552125 304.96789164 -95.68263245 304.32394409 C-93.87180849 303.92946948 -92.06101092 303.53487373 -90.25024414 303.14013672 C-89.00586327 302.87207718 -89.00586327 302.87207718 -87.73634338 302.59860229 C-83.6640704 301.7520473 -83.6640704 301.7520473 -79.8125 300.23828125 C-79.61191448 295.36791046 -79.46828962 290.50003601 -79.37304688 285.62646484 C-79.33327587 283.97564741 -79.27903439 282.32510294 -79.20898438 280.67529297 C-78.68874236 268.09002646 -80.76393384 260.60331035 -87.8125 250.23828125 C-88.52742453 248.87071504 -89.21575641 247.48812693 -89.8515625 246.08203125 C-93.66371628 238.04458387 -98.13099365 232.53282509 -104.58813477 226.44189453 C-116.79887314 214.76635373 -125.47550602 198.2573665 -126.11328125 181.1875 C-126.13256469 179.43369541 -126.13609132 177.67965678 -126.125 175.92578125 C-126.11762817 174.54048218 -126.11762817 174.54048218 -126.11010742 173.12719727 C-125.97387457 165.17329488 -125.10872333 157.87286044 -121.53515625 150.66015625 C-117.63330848 142.74336367 -117.32105738 135.74994776 -117.11572266 127.08398438 C-116.52446203 103.78003043 -110.00978071 81.72637992 -99.1875 61.1484375 C-97.67545638 57.94823155 -96.80707739 54.85407088 -95.9375 51.42578125 C-94.2671909 45.43157766 -92.34325418 40.3658091 -88.8125 35.23828125 C-88.33296875 34.54089844 -87.8534375 33.84351563 -87.359375 33.125 C-82.03825673 26.26695679 -74.62378157 22.51770584 -66.31640625 20.30859375 C-62.59565683 19.17204376 -59.97944486 17.63846648 -56.75 15.48828125 C-39.37028873 4.38829422 -20.42068188 0.14126462 0 0 Z " fill="#8FA6B1" transform="translate(256.8125,25.76171875)"/>
<path d="M0 0 C9.34276976 6.75191764 15.27684275 15.1283812 17.57421875 26.4921875 C18.83245055 39.40336153 16.45119124 49.26212076 8.57421875 59.4921875 C0.5133576 69.10218928 -8.60379396 77.7830238 -17.48828125 86.6171875 C-19.03734324 88.16122375 -20.58617325 89.70549276 -22.13476562 91.25 C-25.89576768 95.00008318 -29.65962164 98.74728438 -33.42578125 102.4921875 C-31.24098728 110.76907194 -28.78549394 118.94391626 -26.23046875 127.11328125 C-25.83338748 128.38828912 -25.43651033 129.66336057 -25.03982544 130.93849182 C-24.00615392 134.25981347 -22.97039279 137.58047907 -21.93395996 140.90093994 C-20.46776292 145.59873476 -19.00316459 150.29702703 -17.54031372 154.99586487 C-16.76354503 157.49031773 -15.98565115 159.98442055 -15.20651245 162.47813416 C-14.85589752 163.60353104 -14.50528259 164.72892792 -14.14404297 165.88842773 C-13.83554413 166.8767308 -13.52704529 167.86503387 -13.209198 168.88328552 C-11.9588782 173.04704869 -11.2004237 176.75453458 -11.05078125 181.1171875 C-11.00179687 182.07882812 -10.9528125 183.04046875 -10.90234375 184.03125 C-12.39575587 193.90560177 -18.76259693 200.65712189 -25.65307617 207.42626953 C-27.11356656 208.86746904 -28.54219826 210.33576189 -29.97070312 211.80859375 C-36.50013274 218.39923196 -42.43606471 222.51309922 -51.67578125 224.0234375 C-62.22635416 223.90354463 -69.29706404 221.0054556 -77.22265625 214.078125 C-83.72890846 206.44135378 -87.5398784 197.17533101 -91.43261719 188.03027344 C-92.31261518 185.96440639 -93.20431752 183.90387865 -94.09765625 181.84375 C-98.42578125 171.78570908 -98.42578125 171.78570908 -98.42578125 169.4921875 C-100.31205103 171.13362506 -102.19478606 172.77888588 -104.07373047 174.42871094 C-105.60954003 175.7760913 -107.15004263 177.11814625 -108.69580078 178.45410156 C-118.57122807 186.47698748 -118.57122807 186.47698748 -124.3359375 197.27734375 C-124.0585146 200.58741693 -123.44352225 203.33893013 -122.42578125 206.4921875 C-120.13213356 218.29682762 -120.48082731 231.70877011 -126.98828125 242.1796875 C-133.64765304 251.1359642 -140.75783313 257.93620479 -151.42578125 261.4921875 C-161.57005651 262.34925231 -168.11919998 260.82180712 -176.61328125 255.4921875 C-182.98708634 249.66062499 -185.68352827 240.30042409 -187.953125 232.20703125 C-188.15369003 231.49205475 -188.35425507 230.77707825 -188.56089783 230.04043579 C-189.37871912 227.08479661 -190.18188288 224.12615842 -190.95483398 221.15844727 C-191.53351118 218.95861769 -192.14683548 216.77086117 -192.765625 214.58203125 C-192.92941147 213.91332504 -193.09319794 213.24461884 -193.26194763 212.5556488 C-194.34923814 208.80662353 -195.18718058 207.62634355 -198.62939453 205.69091797 C-199.88220215 205.29533691 -201.13500977 204.89975586 -202.42578125 204.4921875 C-203.61550537 204.10828857 -204.80522949 203.72438965 -206.03100586 203.32885742 C-207.91057983 202.78128784 -207.91057983 202.78128784 -209.828125 202.22265625 C-211.22743556 201.80477921 -212.62651738 201.38613553 -214.02539062 200.96679688 C-216.19312032 200.32095989 -218.36183179 199.68010612 -220.53491211 199.05249023 C-230.91248034 196.04328943 -240.19779127 192.94950562 -246.42578125 183.4921875 C-250.43176198 175.77696535 -251.24991787 168.39451575 -249.26953125 159.96484375 C-245.78265588 149.74636175 -236.48146111 140.27638019 -226.9296875 135.4921875 C-216.18673788 131.20171152 -205.80991048 130.26602807 -194.8125 134.046875 C-189.20131835 135.72781204 -184.20324706 137.07679297 -178.42578125 135.4921875 C-169.3818568 129.50017345 -162.27299742 120.80605989 -155.42578125 112.4921875 C-158.72144086 109.75384103 -162.11740558 108.20900452 -166.0625 106.56640625 C-167.37573256 106.01126049 -168.68888087 105.45591543 -170.00195312 104.90039062 C-172.04964598 104.04163348 -174.09849044 103.18582979 -176.14916992 102.33422852 C-184.06036176 99.03893604 -191.53193376 95.68013795 -198.42578125 90.4921875 C-199.08771484 90.00194092 -199.74964844 89.51169434 -200.43164062 89.0065918 C-206.65932241 84.26870679 -210.7183692 77.09793209 -212.42578125 69.4921875 C-213.48765748 58.45625951 -210.34057019 50.88750602 -203.42578125 42.4921875 C-200.72199792 39.48415249 -197.90780881 36.60429874 -195.05078125 33.7421875 C-194.3340625 33.00097656 -193.61734375 32.25976562 -192.87890625 31.49609375 C-186.35526127 24.93712217 -180.10070379 20.79764213 -170.67817688 20.37045288 C-167.04739515 20.5063502 -163.98706089 21.22500323 -160.48510742 22.18994141 C-159.83354014 22.36937098 -159.18197287 22.54880054 -158.51066113 22.73366737 C-152.10619749 24.5261676 -145.78655339 26.57086741 -139.47994423 28.68015671 C-137.47576762 29.34925616 -135.46926242 30.01090373 -133.46195984 30.67056274 C-127.76854538 32.54192653 -122.07700371 34.41862268 -116.39282227 36.31787109 C-112.88484343 37.48940624 -109.37236608 38.64642952 -105.85649681 39.79405594 C-104.52663761 40.23121193 -103.19855372 40.67380833 -101.87236977 41.1219902 C-100.0305451 41.74388796 -98.18201517 42.34582021 -96.33325195 42.94677734 C-95.28595413 43.2944516 -94.23865631 43.64212585 -93.15962219 44.00033569 C-90.49651817 44.70111164 -90.49651817 44.70111164 -88.28079224 43.79881287 C-86.26438157 42.37850142 -84.57648068 40.8828522 -82.83813477 39.1315918 C-82.15384903 38.447155 -81.46956329 37.7627182 -80.76454163 37.05754089 C-80.03528976 36.31796646 -79.3060379 35.57839203 -78.5546875 34.81640625 C-77.41567238 33.67314629 -77.41567238 33.67314629 -76.25364685 32.50679016 C-73.82712147 30.06907926 -71.40762916 27.62451994 -68.98828125 25.1796875 C-67.36309178 23.544463 -65.7374458 21.90969208 -64.11132812 20.27539062 C-61.11898208 17.26672182 -58.12928572 14.25547463 -55.14282227 11.2409668 C-54.50049652 10.59327332 -53.85817078 9.94557983 -53.19638062 9.27825928 C-52.0917757 8.16400176 -50.98811558 7.04880587 -49.88589478 5.93218994 C-36.63912746 -7.43432523 -16.11021501 -10.01375683 0 0 Z " fill="#000001" transform="translate(492.42578125,257.5078125)"/>
<path d="M0 0 C1.12712402 -0.00807175 2.25424805 -0.01614349 3.41552734 -0.02445984 C5.79572031 -0.03824248 8.17593256 -0.04899044 10.55615234 -0.05688477 C12.96278782 -0.06837267 15.36939847 -0.08877336 17.77587891 -0.1184082 C39.23426267 -0.38210796 57.85499359 0.45314234 74.4375 15.80078125 C84.34061158 26.30988033 90.07406831 38.7747888 90.3125 53.30078125 C90.65601896 59.44026913 92.65362832 63.90643739 95.375 69.30078125 C104.86145463 88.10765868 109.06321806 107.90117397 109.5 128.86328125 C109.70207169 137.68055984 111.24957054 144.42644524 114.68359375 152.48046875 C119.58875071 164.14662302 121.29881741 179.22727663 117.0625 191.30078125 C114.32907935 195.58314027 110.75572388 198.95416931 106.1875 201.23828125 C99.66926623 202.04808219 95.45239392 201.16114338 90.1875 197.23828125 C86.17197786 192.06037113 85.09334252 188.64360995 85.3034668 182.13256836 C85.55870207 173.5895912 84.75482325 167.10435733 81.1875 159.23828125 C80.60350907 157.6208803 80.03977604 155.99597016 79.5 154.36328125 C79.26925781 153.68523437 79.03851563 153.0071875 78.80078125 152.30859375 C77.45107415 147.75225768 77.02051381 143.37810784 76.828125 138.63671875 C75.89371557 118.9326531 73.60988646 101.33467815 65.1875 83.23828125 C64.29112129 81.28019749 63.39527897 79.32186808 62.5 77.36328125 C61.90638672 76.09871094 61.90638672 76.09871094 61.30078125 74.80859375 C58.94406616 69.36747611 57.99315442 64.9333142 57.875 58.98828125 C57.44078922 51.36713335 55.93682183 45.29523974 50.6640625 39.58984375 C46.18775862 35.65887638 42.55349147 33.99625592 36.6472168 33.93188477 C35.53473068 33.91589737 34.42224457 33.89990997 33.27604675 33.88343811 C32.07506851 33.87807541 30.87409027 33.87271271 29.63671875 33.8671875 C27.76751518 33.85364479 27.76751518 33.85364479 25.86054993 33.83982849 C23.21670121 33.82530928 20.57328475 33.81564131 17.92944336 33.81274414 C13.9284042 33.80636482 9.92845617 33.75183895 5.92773438 33.70117188 C-14.73995647 33.56901713 -28.05658991 36.50982725 -45.4609375 47.984375 C-51.09160689 51.59666598 -55.09278268 53.02151618 -61.8125 53.23828125 C-62.01552734 54.25921875 -62.01552734 54.25921875 -62.22265625 55.30078125 C-63.61088306 61.55195824 -65.52321797 67.28514868 -68.125 73.11328125 C-68.42978271 73.79624268 -68.73456543 74.4792041 -69.04858398 75.18286133 C-70.47588478 78.3489488 -71.93496962 81.49597157 -73.42578125 84.6328125 C-81.14698758 101.45187436 -83.84415206 119.34264793 -84.33007812 137.70117188 C-84.63798 146.53737476 -86.31744766 153.41003554 -89.9375 161.55078125 C-94.08172613 171.51300603 -93.86539736 179.23189259 -90.1328125 189.3203125 C-87.07136879 196.08628426 -83.02102683 201.37665844 -77.375 206.17578125 C-68.00279733 214.22038691 -63.03095803 224.30869044 -57.75634766 235.27001953 C-55.74155825 239.45116965 -53.73117431 243.47752882 -51.16796875 247.3515625 C-46.50302745 254.64221583 -45.35058594 261.85659267 -45.37890625 270.390625 C-45.3736644 271.33079971 -45.36842255 272.27097443 -45.36302185 273.23963928 C-45.35663797 275.21533222 -45.35789114 277.19106335 -45.36645508 279.16674805 C-45.37496824 282.1645978 -45.34614712 285.16054075 -45.31445312 288.15820312 C-45.3128407 290.08984319 -45.31341944 292.02148657 -45.31640625 293.953125 C-45.30517227 294.83572495 -45.29393829 295.71832489 -45.28236389 296.62767029 C-45.3924167 306.612467 -49.44429489 315.60778159 -55.8125 323.23828125 C-66.31504247 333.43844726 -79.82248817 335.57638644 -93.625 338.48828125 C-95.44093717 338.87830416 -97.25668991 339.26918665 -99.07226562 339.66088867 C-102.80450839 340.46468341 -106.53773816 341.26361552 -110.27197266 342.05810547 C-118.01039305 343.70473258 -125.74355721 345.37558213 -133.47665405 347.04699707 C-135.73111728 347.53322901 -137.98619317 348.01651137 -140.24145508 348.49902344 C-144.43494916 349.3980144 -148.62484449 350.31248896 -152.8125 351.23828125 C-153.56789063 351.40459045 -154.32328125 351.57089966 -155.1015625 351.74224854 C-157.40289605 352.25258031 -159.70167431 352.77318 -162 353.296875 C-162.69504639 353.45037918 -163.39009277 353.60388336 -164.10620117 353.76203918 C-176.05299103 356.52470699 -186.53460382 363.65443128 -193.125 374.05078125 C-198.43208533 383.93663893 -200.40692649 392.30537799 -200.23828125 403.52734375 C-200.23499313 404.75238617 -200.23170502 405.97742859 -200.22831726 407.23959351 C-200.21796057 409.8061054 -200.19812132 412.37259513 -200.16918945 414.93896484 C-200.12473829 418.88652273 -200.10768981 422.83347168 -200.09570312 426.78125 C-200.08229352 429.2799568 -200.06737458 431.77865606 -200.05078125 434.27734375 C-200.04339432 435.46260651 -200.03600739 436.64786926 -200.02839661 437.86904907 C-200.00914375 439.49742203 -200.00914375 439.49742203 -199.98950195 441.15869141 C-199.97473564 442.59784409 -199.97473564 442.59784409 -199.95967102 444.06607056 C-200.05315166 446.21686003 -200.05315166 446.21686003 -198.8125 447.23828125 C-196.23811546 447.33958813 -193.69032436 447.37540853 -191.11534119 447.36958313 C-190.29933726 447.37169884 -189.48333334 447.37381456 -188.64260203 447.37599438 C-185.88664011 447.38202355 -183.13072361 447.38099215 -180.37475586 447.38012695 C-178.40731732 447.38315661 -176.43987948 447.38667753 -174.47244263 447.39065552 C-170.22393146 447.39856131 -165.97542877 447.4036958 -161.72691154 447.40694618 C-155.00782054 447.41284399 -148.28878287 447.42937376 -141.56971741 447.44828796 C-139.27135757 447.45462595 -136.9729977 447.46095156 -134.67463779 447.46726513 C-133.52331997 447.47043094 -132.37200215 447.47359675 -131.1857959 447.4768585 C-115.53638979 447.51896171 -99.88700777 447.55189946 -84.23754883 447.56420898 C-73.6916875 447.57258954 -63.14595733 447.59508334 -52.60016161 447.63356465 C-47.01744001 447.65333159 -41.43491452 447.66572787 -35.85215569 447.66073036 C-30.59654116 447.65608343 -25.34129791 447.66989216 -20.08575821 447.69774246 C-18.15889899 447.70465441 -16.23200138 447.70478077 -14.30514336 447.69754219 C-11.66917034 447.68864171 -9.03441842 447.70436675 -6.39854431 447.72602844 C-5.64044856 447.71758591 -4.8823528 447.70914337 -4.10128444 447.700445 C1.3780371 447.78339129 5.59978922 449.20914783 10.1875 452.23828125 C14.86715891 457.27791392 15.61173131 460.66450891 15.5234375 467.41015625 C14.99746532 471.8381081 13.38466256 474.23718512 10.1875 477.23828125 C4.78545638 480.82524396 -0.00437291 481.82145936 -6.39372253 481.74621582 C-7.22034671 481.75245578 -8.04697088 481.75869575 -8.89864427 481.7651248 C-11.64911576 481.78098973 -14.39869297 481.76847608 -17.14916992 481.75585938 C-19.129237 481.76128359 -21.10930004 481.76840794 -23.08935547 481.77709961 C-28.45538696 481.79530605 -33.82111015 481.78827481 -39.1871469 481.77558327 C-44.81449556 481.76543469 -50.44181836 481.77485477 -56.06916809 481.78112793 C-65.52378051 481.7884019 -74.9782679 481.77882626 -84.43286133 481.75976562 C-95.34032278 481.73802892 -106.24748476 481.74502607 -117.15493888 481.76707125 C-126.53699264 481.78526995 -135.91895663 481.7877608 -145.30102235 481.77731657 C-150.89665108 481.77110214 -156.49213948 481.77018874 -162.08775902 481.78346252 C-167.35496526 481.7950844 -172.6217889 481.78688013 -177.88895416 481.7638855 C-179.81372507 481.75863075 -181.73852861 481.76005619 -183.66328621 481.76893616 C-198.9073676 481.83273781 -212.10064365 480.85958416 -223.48828125 469.578125 C-232.47288789 459.79092322 -234.12383726 448.86264517 -234.11328125 435.98828125 C-234.11970894 434.23100708 -234.11970894 434.23100708 -234.12626648 432.43823242 C-234.13199264 429.96387373 -234.13252273 427.48949821 -234.12817383 425.01513672 C-234.12503339 421.27801817 -234.14842803 417.54170725 -234.17382812 413.8046875 C-234.24580234 386.95359494 -230.11058914 362.93662783 -210.6171875 342.98828125 C-197.34159051 329.97153991 -181.49220986 322.93810876 -163.46899414 319.07763672 C-162.58331757 318.88373352 -161.69764099 318.68983032 -160.78512573 318.49005127 C-157.89026362 317.85735471 -154.99397245 317.23147167 -152.09765625 316.60546875 C-150.07495777 316.16425289 -148.05237131 315.72252322 -146.02989197 315.28030396 C-140.7298096 314.12249858 -135.42856719 312.97010487 -130.12695312 311.81933594 C-121.61690523 309.97165887 -113.10821977 308.11775492 -104.60037041 306.25998306 C-101.62832474 305.61215369 -98.65552125 304.96789164 -95.68263245 304.32394409 C-93.87180849 303.92946948 -92.06101092 303.53487373 -90.25024414 303.14013672 C-89.00586327 302.87207718 -89.00586327 302.87207718 -87.73634338 302.59860229 C-83.6640704 301.7520473 -83.6640704 301.7520473 -79.8125 300.23828125 C-79.61191448 295.36791046 -79.46828962 290.50003601 -79.37304688 285.62646484 C-79.33327587 283.97564741 -79.27903439 282.32510294 -79.20898438 280.67529297 C-78.68874236 268.09002646 -80.76393384 260.60331035 -87.8125 250.23828125 C-88.52742453 248.87071504 -89.21575641 247.48812693 -89.8515625 246.08203125 C-93.66371628 238.04458387 -98.13099365 232.53282509 -104.58813477 226.44189453 C-116.79887314 214.76635373 -125.47550602 198.2573665 -126.11328125 181.1875 C-126.13256469 179.43369541 -126.13609132 177.67965678 -126.125 175.92578125 C-126.11762817 174.54048218 -126.11762817 174.54048218 -126.11010742 173.12719727 C-125.97387457 165.17329488 -125.10872333 157.87286044 -121.53515625 150.66015625 C-117.63330848 142.74336367 -117.32105738 135.74994776 -117.11572266 127.08398438 C-116.52446203 103.78003043 -110.00978071 81.72637992 -99.1875 61.1484375 C-97.67545638 57.94823155 -96.80707739 54.85407088 -95.9375 51.42578125 C-94.2671909 45.43157766 -92.34325418 40.3658091 -88.8125 35.23828125 C-88.33296875 34.54089844 -87.8534375 33.84351563 -87.359375 33.125 C-82.03825673 26.26695679 -74.62378157 22.51770584 -66.31640625 20.30859375 C-62.59565683 19.17204376 -59.97944486 17.63846648 -56.75 15.48828125 C-39.37028873 4.38829422 -20.42068188 0.14126462 0 0 Z " fill="#020203" transform="translate(256.8125,25.76171875)"/>
<path d="M0 0 C3.30213928 0.89506531 3.30213928 0.89506531 5.30213928 2.89506531 C6.19658655 9.49594745 6.19658655 9.49594745 4.18836975 12.63725281 C2.61665058 14.33361309 0.97696105 15.86896229 -0.76036072 17.39506531 C-1.89978136 18.44422186 -3.03648246 19.4963392 -4.17051697 20.55131531 C-4.72024673 21.05820892 -5.2699765 21.56510254 -5.83636475 22.08735657 C-7.66826062 23.8663205 -9.31723885 25.71461365 -10.97203064 27.6582489 C-14.4244299 31.63714624 -18.0704964 35.34980373 -21.83848572 39.02787781 C-23.16949826 40.3413928 -24.50021903 41.65520351 -25.83067322 42.96928406 C-27.89678528 45.0043601 -29.96515498 47.03697588 -32.03868103 49.0644989 C-34.06209741 51.04550264 -36.07587163 53.03590833 -38.08848572 55.02787781 C-38.70725586 55.62802704 -39.326026 56.22817627 -39.96354675 56.84651184 C-44.29842633 61.15547613 -47.35363747 64.8638118 -48.06797791 71.15434265 C-47.59358631 75.94895216 -46.28803349 80.18741127 -44.77598572 84.74662781 C-44.47472778 85.6825174 -44.17346985 86.61840698 -43.86308289 87.58265686 C-42.90086059 90.56497511 -41.92476691 93.54252859 -40.94786072 96.52006531 C-40.30628129 98.4976205 -39.66564731 100.47548269 -39.02598572 102.45365906 C-38.0943748 105.33351507 -37.16190782 108.2130645 -36.22528076 111.09129333 C-34.26109036 117.12864229 -32.35112341 123.17801278 -30.5030365 129.2519989 C-29.76662376 131.66934406 -29.01317495 134.08024093 -28.24864197 136.48881531 C-28.04045837 137.14623718 -27.83227478 137.80365906 -27.61778259 138.48100281 C-27.20275242 139.78881494 -26.78600752 141.09608382 -26.36778259 142.40287781 C-25.79165975 144.22756971 -25.24359994 146.06105692 -24.69786072 147.89506531 C-24.39364197 148.775495 -24.08942322 149.65592468 -23.77598572 150.56303406 C-23.69786072 152.89506531 -23.69786072 152.89506531 -25.56895447 155.35209656 C-26.83932556 156.51805359 -26.83932556 156.51805359 -28.13536072 157.70756531 C-29.40186462 158.89285828 -29.40186462 158.89285828 -30.69395447 160.10209656 C-31.35524353 160.69377625 -32.01653259 161.28545593 -32.69786072 161.89506531 C-34.71062443 159.88230159 -35.3879807 158.60931639 -36.48204041 156.03471375 C-36.82289673 155.23918091 -37.16375305 154.44364807 -37.51493835 153.62400818 C-37.87952148 152.75955078 -38.24410461 151.89509338 -38.61973572 151.00444031 C-39.00220459 150.10823975 -39.38467346 149.21203918 -39.7787323 148.28868103 C-41.00631439 145.40938403 -42.22719476 142.52730024 -43.44786072 139.64506531 C-44.25470661 137.74904221 -45.06199349 135.85320672 -45.86973572 133.95756531 C-46.26366516 133.03213928 -46.6575946 132.10671326 -47.0634613 131.15324402 C-47.84849821 129.30986347 -48.63438165 127.46684319 -49.42112732 125.62419128 C-51.12602631 121.62466207 -52.81753462 117.62294998 -54.43809509 113.58842468 C-54.69971436 112.94778076 -54.96133362 112.30713684 -55.23088074 111.64707947 C-55.90354643 109.99536939 -56.56353935 108.3385131 -57.22227478 106.68119812 C-59.57367032 102.2414023 -62.91712084 98.6448161 -67.69786072 96.89506531 C-69.7808258 96.47106173 -69.7808258 96.47106173 -71.94786072 96.45756531 C-72.65426697 96.41760437 -73.36067322 96.37764343 -74.08848572 96.33647156 C-82.86753424 98.21581877 -89.13029014 105.92679775 -95.17076111 112.0867157 C-96.75348972 113.70055923 -98.34659281 115.30353076 -99.94200134 116.90483093 C-104.75538772 121.75542513 -109.4343534 126.67180489 -113.88072205 131.86405945 C-118.33556241 136.84320992 -123.20335397 141.44736371 -127.95933533 146.1360321 C-129.35986882 147.51851565 -130.75742442 148.90401392 -132.15489197 150.28959656 C-132.97965027 151.1027533 -133.80440857 151.91591003 -134.65415955 152.75370789 C-139.16159608 157.47652784 -139.04494898 160.6622049 -138.96739197 166.93022156 C-138.60471736 172.26521759 -137.74507256 177.46063793 -136.76548767 182.71366882 C-136.06141747 186.50060544 -135.5133635 190.02062375 -135.69786072 193.89506531 C-138.12276987 191.47015616 -138.41691416 189.84748522 -139.28379822 186.54740906 C-139.72079041 184.9260907 -139.72079041 184.9260907 -140.16661072 183.27201843 C-140.76353323 181.00654311 -141.3599014 178.74092164 -141.95567322 176.47514343 C-145.35011578 163.27433723 -145.35011578 163.27433723 -153.69786072 152.89506531 C-156.54809047 151.55905136 -159.48241149 150.66815192 -162.49864197 149.78178406 C-163.33501694 149.52250626 -164.17139191 149.26322845 -165.03311157 148.99609375 C-167.68791876 148.17678081 -170.34874221 147.37943834 -173.01036072 146.58256531 C-174.81874536 146.02866757 -176.6266939 145.47334386 -178.43418884 144.91654968 C-182.85053557 143.55949712 -187.2724059 142.22209956 -191.69786072 140.89506531 C-187.98920825 139.84050288 -185.33508085 140.07239673 -181.51036072 140.70756531 C-180.36051697 140.89834656 -179.21067322 141.08912781 -178.02598572 141.28569031 C-173.88739325 142.04346076 -169.7958265 142.9461511 -165.69786072 143.89506531 C-162.03069334 144.67531369 -158.43839132 145.04590303 -154.69786072 145.20756531 C-153.89348572 145.24494812 -153.08911072 145.28233093 -152.26036072 145.32084656 C-146.55878266 144.37348069 -142.36651039 139.81989137 -138.39854431 135.88627625 C-137.90666122 135.40111038 -137.41477814 134.91594452 -136.9079895 134.41607666 C-135.29881635 132.8257542 -133.69715077 131.22813529 -132.09629822 129.62944031 C-130.97116721 128.51074519 -129.8458901 127.39219701 -128.72047424 126.27378845 C-126.36855231 123.93380624 -124.02076477 121.5897631 -121.67539978 119.24320984 C-118.68193976 116.24954659 -115.6749545 113.26988302 -112.66423607 110.29359055 C-110.33753014 107.98921008 -108.0200606 105.6757065 -105.7050209 103.35961151 C-104.60073686 102.25767416 -103.49323916 101.15894692 -102.38238144 100.06363678 C-93.08682076 91.08521203 -93.08682076 91.08521203 -88.16661072 79.35600281 C-88.17692322 78.66764343 -88.18723572 77.97928406 -88.19786072 77.27006531 C-88.18754822 76.57654968 -88.17723572 75.88303406 -88.16661072 75.16850281 C-89.26604699 70.46356231 -91.79184652 67.47432845 -95.80845642 64.90629578 C-97.05076678 64.29873723 -98.30245648 63.7101169 -99.56114197 63.13725281 C-100.25250748 62.80740387 -100.94387299 62.47755493 -101.65618896 62.13771057 C-103.9934428 61.03375256 -106.34309117 59.96112745 -108.69786072 58.89506531 C-109.55007202 58.50742004 -110.40228333 58.11977478 -111.28031921 57.72038269 C-117.79319157 54.76949069 -124.33651435 51.89000255 -130.88536072 49.02006531 C-132.84189301 48.15843141 -134.7982741 47.29645406 -136.75450134 46.43412781 C-146.66499394 42.01912554 -146.66499394 42.01912554 -156.69786072 37.89506531 C-155.09096845 33.71714541 -152.20512654 30.59767164 -148.69786072 27.89506531 C-144.70994375 26.95055866 -141.66297713 28.64360129 -137.92735291 30.06376648 C-134.31814143 31.40951386 -130.66617527 32.62039109 -127.01036072 33.83256531 C-126.29686462 34.0716864 -125.58336853 34.3108075 -124.84825134 34.55717468 C-120.51509341 35.99902443 -116.16500723 37.36813526 -111.79551697 38.69584656 C-106.36330216 40.35684537 -100.96955567 42.11565759 -95.58067322 43.91069031 C-93.96875589 44.44473116 -92.35677608 44.97858345 -90.74473572 45.51225281 C-88.26799267 46.33224224 -85.79248452 47.15529342 -83.31993103 47.98783875 C-80.88910085 48.80510884 -78.45418149 49.60900745 -76.01817322 50.41069031 C-75.28575409 50.66062744 -74.55333496 50.91056458 -73.79872131 51.16807556 C-67.77239712 53.13006184 -63.11614025 53.73921009 -56.96372986 51.59159851 C-51.45471644 48.56223998 -47.29317102 43.86717294 -42.99137688 39.3669796 C-41.41632639 37.72167362 -39.82690753 36.09154693 -38.23278809 34.46472168 C-33.70752857 29.84220072 -29.20589855 25.19716026 -24.72154236 20.53495789 C-21.96719954 17.67346093 -19.19365379 14.83178086 -16.40741158 12.00135231 C-15.35318632 10.92233126 -14.3066077 9.83578302 -13.26804924 8.74167442 C-11.81779243 7.21447369 -10.34444048 5.71362007 -8.8636322 4.21611023 C-8.03282639 3.3554747 -7.20202057 2.49483917 -6.34603882 1.60812378 C-3.69786072 -0.10493469 -3.69786072 -0.10493469 0 0 Z " fill="#2093EE" transform="translate(471.69786071777344,284.1049346923828)"/>
<path d="M0 0 C-0.66 0.99 -1.32 1.98 -2 3 C-2.87398438 2.87939209 -2.87398438 2.87939209 -3.765625 2.75634766 C-15.83481495 1.09351311 -27.90601517 -0.5272368 -40 -2 C-31.84301343 -10.15698657 -9.98093284 -2.01834772 0 0 Z " fill="#1D89DE" transform="translate(314,394)"/>
<path d="M0 0 C7.39410672 2.89476162 14.64743908 6.14221024 21.92993164 9.30419922 C23.77283254 10.10336067 25.61658876 10.90055248 27.46118164 11.69580078 C30.12585245 12.84474595 32.78779618 13.99980405 35.44921875 15.15625 C36.2762883 15.51150757 37.10335785 15.86676514 37.95549011 16.23278809 C38.72000992 16.56653442 39.48452972 16.90028076 40.2722168 17.24414062 C40.94552536 17.53567017 41.61883392 17.82719971 42.31254578 18.12756348 C44 19 44 19 46 21 C41.71885372 22.42704876 38.98898435 20.54349599 35.078125 18.7734375 C34.29991394 18.4287442 33.52170288 18.0840509 32.71990967 17.72891235 C31.07027996 16.99538348 29.42280515 16.25699228 27.77734375 15.51416016 C25.27910966 14.38812072 22.77318624 13.28086685 20.265625 12.17578125 C18.66095809 11.4594529 17.05677554 10.74203832 15.453125 10.0234375 C14.71120911 9.6961264 13.96929321 9.36881531 13.20489502 9.03158569 C8.35758349 6.8268195 4.20933275 4.27354123 0 1 C0 0.67 0 0.34 0 0 Z " fill="#1E8EE6" transform="translate(294,347)"/>
<path d="M0 0 C0.66 0 1.32 0 2 0 C6.95418489 26.54027622 6.95418489 26.54027622 3 34 C2.32454235 29.81386921 1.66120923 25.62590304 1 21.4375 C0.80921875 20.25607422 0.6184375 19.07464844 0.421875 17.85742188 C-1.37294367 6.41545286 -1.37294367 6.41545286 -1 1 C-0.67 0.67 -0.34 0.34 0 0 Z " fill="#1F90E8" transform="translate(366,452)"/>
<path d="M0 0 C5.61 0.66 11.22 1.32 17 2 C17 2.33 17 2.66 17 3 C10.43592388 4.31281522 6.16645379 3.52653315 0 1 C0 0.67 0 0.34 0 0 Z " fill="#1664A2" transform="translate(280,424)"/>
</svg>
