<?xml version="1.0" encoding="UTF-8"?>
<svg version="1.1" xmlns="http://www.w3.org/2000/svg" width="512" height="512">
<path d="M0 0 C0.70294189 0.00088623 1.40588379 0.00177246 2.13012695 0.00268555 C7.90207511 0.13461196 11.29632068 1.22752309 16.0625 4.375 C17.3 5.1175 17.3 5.1175 18.5625 5.875 C19.8 6.6175 19.8 6.6175 21.0625 7.375 C21.70316406 7.64828125 22.34382813 7.9215625 23.00390625 8.203125 C27.4996948 10.15709571 30.24165193 11.90536322 32.375 16.41015625 C35.72868045 25.99482253 33.38577041 35.61558864 29.1484375 44.58984375 C27.78056073 47.36739091 26.35523708 50.10988502 24.90234375 52.84375 C21.86113609 58.6808025 20.41300738 61.7549381 22.0625 68.375 C23.76707091 71.11708143 23.76707091 71.11708143 26.0625 73.5625 C41.44397584 91.44224103 48.35025608 105.91045074 48.6784668 129.77392578 C48.70730937 131.1524142 48.73734515 132.53087808 48.76846313 133.90931702 C48.84863981 137.60996559 48.91222553 141.31072442 48.97246909 145.01174402 C49.03890995 148.91963203 49.12070254 152.82720173 49.20063782 156.73483276 C49.33283777 163.29931324 49.45525559 169.86391272 49.57055664 176.42871094 C49.7319987 185.61985889 49.91105509 194.81060005 50.09374368 204.00134683 C50.2364512 211.21176972 50.37460507 218.42228133 50.51171875 225.6328125 C50.52616901 226.39164435 50.54061927 227.1504762 50.55550742 227.93230295 C51.10325176 256.81865191 51.10325176 256.81865191 51.15942383 270.29638672 C51.16573413 271.10845644 51.17204443 271.92052616 51.17854595 272.75720406 C51.18092905 278.1381419 51.18092905 278.1381419 50.0625 280.375 C48.4125 280.375 46.7625 280.375 45.0625 280.375 C45.07081549 281.20754759 45.07081549 281.20754759 45.07929897 282.05691433 C45.24546391 301.82354085 44.68844963 321.55239058 44.0857861 341.30703092 C43.94638574 345.89845837 43.81088506 350.49000133 43.67478943 355.08152771 C43.44618303 362.77423911 43.21463277 370.46685742 42.98120117 378.15942383 C42.71269271 387.00896783 42.44870279 395.85863785 42.18714482 404.70838982 C41.93331797 413.29361751 41.67650431 421.87875333 41.41828728 430.46385002 C41.30933847 434.08738505 41.20136479 437.7109471 41.09420967 441.3345356 C40.96776043 445.60548886 40.83865359 449.87635428 40.7076149 454.14716911 C40.66037484 455.69978557 40.61398546 457.25242822 40.56858253 458.80509949 C40.33820495 466.66403335 40.04183919 474.51549693 39.58921814 482.36509705 C39.55214644 483.05508366 39.51507474 483.74507028 39.47687966 484.45596558 C39.18055919 489.25694081 39.18055919 489.25694081 38.0625 490.375 C36.06291636 490.41580783 34.06204746 490.41754356 32.0625 490.375 C32.07035522 491.32137329 32.07035522 491.32137329 32.07836914 492.28686523 C32.09907826 495.12873347 32.11214066 497.97058588 32.125 500.8125 C32.13337891 501.80572266 32.14175781 502.79894531 32.15039062 503.82226562 C32.15522461 505.23862305 32.15522461 505.23862305 32.16015625 506.68359375 C32.16801147 507.99541626 32.16801147 507.99541626 32.17602539 509.33374023 C32.0625 511.375 32.0625 511.375 31.0625 512.375 C29.12339794 512.47271753 27.18067444 512.49871298 25.2391119 512.49804783 C23.32896625 512.5010344 23.32896625 512.5010344 21.3802318 512.50408131 C19.94863234 512.50122771 18.51703306 512.4982821 17.08543396 512.49525452 C15.57901859 512.49569009 14.07260329 512.49656473 12.5661884 512.49784368 C8.40686372 512.50009145 4.24756455 512.49606353 0.08824313 512.49106562 C-4.38962708 512.48676533 -8.86749574 512.48820724 -13.34536743 512.4889679 C-21.11016241 512.4894934 -28.87494902 512.48634385 -36.6397419 512.48073006 C-47.86646418 512.47261862 -59.0931824 512.4700002 -70.3199073 512.46874207 C-88.53252839 512.46655098 -106.74514501 512.45988938 -124.95776367 512.45043945 C-142.65437803 512.44126679 -160.35099117 512.43418524 -178.04760742 512.42993164 C-179.13759808 512.42966892 -180.22758875 512.42940619 -181.35060943 512.42913551 C-186.8185248 512.42783051 -192.28644017 512.4265668 -197.75435555 512.42532361 C-243.14874013 512.41494924 -288.54311983 512.39732941 -333.9375 512.375 C-334.2675 510.725 -334.5975 509.075 -334.9375 507.375 C-334.0196875 506.6015625 -333.101875 505.828125 -332.15625 505.03125 C-294.8615811 473.45974336 -273.61030702 429.57974228 -256.9375 384.375 C-256.69898315 383.72885742 -256.46046631 383.08271484 -256.21472168 382.41699219 C-247.516282 358.77977002 -239.80336509 334.8252434 -232.20483398 310.81542969 C-231.47151203 308.50575755 -230.73787716 306.19618474 -230.00390625 303.88671875 C-229.65382004 302.77962555 -229.30373383 301.67253235 -228.94303894 300.53189087 C-227.43884538 295.82631437 -225.90544787 291.16443324 -224.06982422 286.57666016 C-223.78614487 285.86701614 -223.50246552 285.15737213 -223.21018982 284.42622375 C-222.47913675 282.64422062 -221.7158843 280.87551079 -220.94897461 279.10864258 C-218.59810284 270.43090134 -219.98467784 260.88947692 -220.55859375 251.99609375 C-220.69038875 249.85115808 -220.82214179 247.70621984 -220.95385742 245.5612793 C-221.02285248 244.45908051 -221.09184753 243.35688171 -221.16293335 242.22128296 C-221.52163159 236.45552747 -221.86238198 230.68871534 -222.203125 224.921875 C-222.26928513 223.80229904 -222.33544525 222.68272308 -222.40361023 221.52922058 C-223.1124523 209.47901804 -223.74304068 197.44655212 -223.9375 185.375 C-223.9508136 184.55451172 -223.9641272 183.73402344 -223.97784424 182.88867188 C-224.06941559 176.96449568 -224.13036986 171.04064652 -224.16665649 165.11587524 C-224.18024522 163.12525661 -224.19839588 161.13466229 -224.22177124 159.14413452 C-224.56153111 127.75240219 -219.70395285 95.21567055 -200.2890625 69.55078125 C-198.37850364 66.47511279 -198.03207041 63.54386376 -197.5 60.0078125 C-194.96039319 48.12104173 -186.38561606 38.51832523 -176.9375 31.375 C-171.0308056 28.06725113 -165.65433341 27.61080937 -158.9375 28.375 C-157.29916999 29.06813962 -155.65830768 29.76527092 -154.08203125 30.58984375 C-149.81854073 32.15079383 -145.05871981 32.25161605 -140.55859375 32.65234375 C-135.27956135 33.70587233 -132.10066332 36.0232156 -128.625 40.0625 C-126.55816175 44.11962694 -125.88965392 47.82962284 -125.9375 52.375 C-126.2675 52.705 -126.5975 53.035 -126.9375 53.375 C-126.83972606 54.92045907 -126.67951981 56.46189204 -126.5 58 C-125.9212698 64.33557268 -125.78620406 70.63930347 -125.75 77 C-125.73078491 78.44753662 -125.73078491 78.44753662 -125.71118164 79.92431641 C-125.69268707 92.68991954 -125.69268707 92.68991954 -127.9375 98.375 C-130.9072593 101.08553932 -132.68105415 101.73925496 -136.6875 101.5625 C-137.48671875 101.53542969 -138.2859375 101.50835937 -139.109375 101.48046875 C-139.71265625 101.44566406 -140.3159375 101.41085938 -140.9375 101.375 C-141.47071262 103.60123801 -141.98860119 105.83115004 -142.5 108.0625 C-142.79003906 109.30386719 -143.08007812 110.54523438 -143.37890625 111.82421875 C-144.14939228 116.72192366 -143.88691892 119.00971991 -141.046875 123.09375 C-140.26828125 124.0115625 -139.4896875 124.929375 -138.6875 125.875 C-137.91921875 126.7928125 -137.1509375 127.710625 -136.359375 128.65625 C-132.36111412 133.14462028 -128.37413904 136.93599303 -123.4375 140.375 C-119.55034507 143.15452476 -116.10901019 145.80705104 -112.9375 149.375 C-112.380625 149.99375 -111.82375 150.6125 -111.25 151.25 C-106.43481496 159.04601387 -107.93132668 167.16630146 -109.89794922 175.69189453 C-110.25993341 177.21452644 -110.62472755 178.73649279 -110.9921875 180.2578125 C-111.27243774 181.43259155 -111.27243774 181.43259155 -111.55834961 182.63110352 C-112.01560681 184.54632457 -112.47621145 186.46074591 -112.9375 188.375 C-79.55092795 187.9572372 -79.55092795 187.9572372 -46.48046875 183.7421875 C-43.60590762 183.3271203 -40.83793005 183.31572114 -37.9375 183.375 C-37.97230469 182.715 -38.00710938 182.055 -38.04296875 181.375 C-38.7780316 154.49270141 -33.0268003 125.09782767 -16.5 103.3125 C-11.34301727 96.12553202 -11.31838371 87.94488346 -10.9375 79.375 C-12.7628125 79.4678125 -12.7628125 79.4678125 -14.625 79.5625 C-18.54281532 79.54906947 -20.86643864 78.97445413 -23.9375 76.375 C-31.54712606 62.97194263 -30.19463241 46.19373873 -29.9375 31.375 C-30.906875 30.92125 -31.87625 30.4675 -32.875 30 C-35.9375 28.375 -35.9375 28.375 -36.9375 26.375 C-37.32544722 22.34034892 -37.23167585 19.95158466 -35.375 16.3125 C-26.56653979 5.69717615 -13.842499 -0.03150167 0 0 Z M-97.375 215.875 C-98.10654297 215.92269531 -98.83808594 215.97039062 -99.59179688 216.01953125 C-101.37383088 216.13600406 -103.15568563 216.25521416 -104.9375 216.375 C-104.28366468 219.58793762 -103.13070943 222.0755718 -101.5234375 224.92578125 C-101.0176416 225.83497314 -100.5118457 226.74416504 -99.99072266 227.6809082 C-99.43690918 228.6730835 -98.8830957 229.66525879 -98.3125 230.6875 C-72.0320647 278.61689238 -52.19769679 329.84897863 -34.57696533 381.50274658 C-33.97481453 383.26574896 -33.36817011 385.02721473 -32.76123047 386.78857422 C-25.71613985 407.36545051 -20.17573658 428.36911714 -14.5625 449.37109375 C-14.31189316 450.30633377 -14.06128632 451.24157379 -13.80308533 452.20515442 C-13.57158279 453.07645493 -13.34008026 453.94775543 -13.1015625 454.84545898 C-12.89998535 455.60261703 -12.6984082 456.35977509 -12.49072266 457.13987732 C-11.89683091 459.53931072 -11.40521786 461.94809556 -10.9375 464.375 C-10.6075 464.375 -10.2775 464.375 -9.9375 464.375 C-10.59618517 446.87138303 -12.26176661 429.44844109 -13.83296967 412.0091002 C-14.22187807 407.68496123 -14.60702438 403.36048695 -14.99267578 399.03605652 C-15.639272 391.79164993 -16.2884723 384.54748064 -16.93945312 377.3034668 C-17.69048193 368.94595742 -18.43810674 360.58814918 -19.18377113 352.23015958 C-19.98163056 343.28728964 -20.78165825 334.34461472 -21.58248138 325.40200973 C-21.81178821 322.83998399 -22.04072558 320.27792545 -22.26959229 317.71586037 C-22.62938738 313.6895551 -22.99066343 309.66338527 -23.35306549 305.63731384 C-23.48536155 304.16521168 -23.61718788 302.69306722 -23.74849701 301.22087669 C-24.37003893 294.25581959 -25.00121217 287.3055128 -25.9375 280.375 C-30.2275 280.045 -34.5175 279.715 -38.9375 279.375 C-39.4325 250.665 -39.4325 250.665 -39.9375 221.375 C-49.90726861 221.33154538 -49.90726861 221.33154538 -59.7199707 221.8840332 C-66.45614092 222.47623289 -71.90498186 222.80525541 -77.9375 219.375 C-78.618125 218.653125 -79.29875 217.93125 -80 217.1875 C-81.87275143 215.04299815 -81.87275143 215.04299815 -85.03125 215.23046875 C-89.15219581 215.38294375 -93.26093443 215.59646308 -97.375 215.875 Z " fill="#050505" transform="translate(397.9375,-0.375)"/>
<path d="M0 0 C0.2673999 0.63091553 0.5347998 1.26183105 0.81030273 1.91186523 C2.01687 4.7548115 3.22713352 7.59616928 4.4375 10.4375 C4.85837891 11.43072266 5.27925781 12.42394531 5.71289062 13.44726562 C6.11572266 14.39150391 6.51855469 15.33574219 6.93359375 16.30859375 C7.30540771 17.18314209 7.67722168 18.05769043 8.06030273 18.95874023 C8.83373192 20.94927315 8.83373192 20.94927315 10 22 C11.70352034 22.01680857 13.40782379 21.96249774 15.109375 21.87890625 C16.16842041 21.82943848 17.22746582 21.7799707 18.31860352 21.72900391 C20.01714478 21.64658447 20.01714478 21.64658447 21.75 21.5625 C23.46304321 21.4994165 23.46304321 21.4994165 25.21069336 21.43505859 C32.25877246 21.18702797 32.25877246 21.18702797 39.26953125 20.47265625 C42.55936689 20.12533078 44.85265735 19.97711364 48 21 C51.17764365 24.17764365 52.99533879 27.80494949 54.91308594 31.80517578 C56.09077003 34.18329347 57.37645963 36.47462114 58.6953125 38.77734375 C67.03694655 53.4243777 74.11407195 68.62748577 81 84 C81.52174805 85.15935059 82.04349609 86.31870117 82.58105469 87.51318359 C153 244.69441199 153 244.69441199 153 310 C138.48 310 123.96 310 109 310 C108.7525 306.7 108.505 303.4 108.25 300 C107.21668823 287.53286886 105.33044243 275.28579435 103 263 C102.84805176 262.19755859 102.69610352 261.39511719 102.53955078 260.56835938 C95.24216323 223.05736831 79.40184693 187.26116893 62.11816406 153.38491821 C56.40029412 142.17319149 51.26127331 131.19487801 48 119 C47.51853516 117.31197266 47.51853516 117.31197266 47.02734375 115.58984375 C44.81652086 107.12701939 44.32388968 98.70034703 44 90 C42.68 89.67 41.36 89.34 40 89 C38.77465424 115.58319548 47.971764 136.175454 59.79199219 159.47314453 C73.40672339 186.52705883 86.11315237 215.13518472 93.39941406 244.58544922 C94.08588995 247.34530555 94.80606872 250.09567356 95.5234375 252.84765625 C98.17041188 263.20327815 100.45182623 273.52582006 101.875 284.125 C101.99504395 284.99922607 102.11508789 285.87345215 102.23876953 286.77416992 C103.19158541 294.64189612 103 301.91185725 103 310 C83.86 310 64.72 310 45 310 C45.33 305.71 45.66 301.42 46 297 C46.10674985 293.38700269 46.18542453 289.79220608 46.203125 286.1796875 C46.21013931 285.20549866 46.21715363 284.23130981 46.22438049 283.2276001 C46.24173693 280.11001878 46.24823084 276.99262782 46.25 273.875 C46.25067474 272.80586365 46.25134949 271.73672729 46.25204468 270.63519287 C46.2356214 254.23554954 45.74015728 238.20592545 43 222 C42.80712402 220.85869629 42.61424805 219.71739258 42.41552734 218.54150391 C40.77088001 209.07220502 39.03409457 199.61774662 36.59375 190.31640625 C36.38427734 189.5076001 36.17480469 188.69879395 35.95898438 187.86547852 C35.15782314 185.78885908 35.15782314 185.78885908 32.90039062 185.23022461 C32.27326172 185.15425049 31.64613281 185.07827637 31 185 C31.85876511 193.46197815 33.79642816 201.68165644 35.65234375 209.97265625 C39.88166752 229.67407903 41.48684533 249.23481494 41.33618164 269.36816406 C41.31222026 272.78994739 41.31570198 276.21096431 41.32226562 279.6328125 C41.31669713 281.85417123 41.30959251 284.07552676 41.30078125 286.296875 C41.30169266 287.29708679 41.30260406 288.29729858 41.30354309 289.32781982 C41.2318105 296.5726224 40.22238283 302.66570302 39 310 C18.21 310 -2.58 310 -24 310 C-21.03 303.73 -18.06 297.46 -15 291 C-13.61551613 287.47325968 -12.31993271 284.09017261 -11.1875 280.5 C-10.90745117 279.62947998 -10.62740234 278.75895996 -10.33886719 277.86206055 C-4.93495807 260.58739743 -2.69720937 242.97921499 -1 225 C-0.87145378 223.82631615 -0.87145378 223.82631615 -0.74031067 222.62892151 C0.13344359 213.81208675 0.10232807 205.04665918 0.04459953 196.19812965 C0.02691223 193.38848466 0.01681489 190.5788989 0.00868225 187.76921082 C-0.01549134 179.78757123 -0.05075792 171.80601079 -0.09594727 163.82446289 C-0.33002705 120.95858525 -0.33002705 120.95858525 2 100 C2.21543193 97.92616779 2.43026171 95.85227295 2.64453125 93.77832031 C4.35080335 77.33359412 7.4037927 60.81704514 12.18359375 44.97265625 C13.176555 41.87092484 13.176555 41.87092484 13 38 C11.68 38 10.36 38 9 38 C1.71373175 61.12067244 -1.60387137 84.95215695 -4 109 C-4.08980133 109.80585541 -4.17960266 110.61171082 -4.27212524 111.44198608 C-5.1588546 120.32630412 -5.08716059 129.16607288 -5.01403427 138.08237076 C-4.9916049 140.95749366 -4.97778552 143.83254653 -4.96633911 146.70773315 C-4.93317737 154.87686583 -4.89237291 163.04588781 -4.82861328 171.21484375 C-4.67797461 191.19852606 -4.53809151 211.11549125 -6.33984375 231.03515625 C-6.42991259 232.0446829 -6.42991259 232.0446829 -6.52180099 233.07460403 C-9.00064597 259.9516972 -15.87058924 287.30588386 -31 310 C-33.89797974 310.36076355 -33.89797974 310.36076355 -37.65283203 310.34057617 C-38.33587402 310.34101425 -39.01891602 310.34145233 -39.72265625 310.34190369 C-41.98466388 310.33981044 -44.24593406 310.31645543 -46.5078125 310.29296875 C-48.07436722 310.28737467 -49.64092718 310.28310369 -51.20748901 310.28010559 C-55.33402962 310.26864192 -59.46025429 310.23916195 -63.58666992 310.20599365 C-67.79601772 310.17532537 -72.00541648 310.16160721 -76.21484375 310.14648438 C-84.47670761 310.11429344 -92.73831453 310.06307904 -101 310 C-100.40265549 309.20682625 -100.40265549 309.20682625 -99.79324341 308.39762878 C-79.62048416 281.56549275 -64.26027395 253.23345442 -52.94873047 221.64550781 C-52.15875981 219.4426972 -51.35107637 217.247946 -50.53515625 215.0546875 C-41.88751807 190.79709543 -36.93550331 163.72634097 -36 138 C-37.32 138 -38.64 138 -40 138 C-40.15855469 139.26328125 -40.31710938 140.5265625 -40.48046875 141.828125 C-43.41325601 164.58370129 -46.9148711 187.1301289 -54 209 C-54.28713867 209.89960449 -54.57427734 210.79920898 -54.87011719 211.72607422 C-66.13448702 246.65779838 -82.63556857 283.63556857 -109 310 C-111.21463013 310.24050903 -111.21463013 310.24050903 -114.00048828 310.22705078 C-115.04141632 310.22689972 -116.08234436 310.22674866 -117.15481567 310.22659302 C-118.8454866 310.21110916 -118.8454866 310.21110916 -120.5703125 310.1953125 C-121.72167694 310.1924826 -122.87304138 310.18965271 -124.05929565 310.18673706 C-127.74796812 310.17551408 -131.43640053 310.15040556 -135.125 310.125 C-137.62109025 310.11497294 -140.1171843 310.10584662 -142.61328125 310.09765625 C-148.74226984 310.07556784 -154.87111777 310.04206947 -161 310 C-160.04960091 308.87955652 -159.09753607 307.76052585 -158.14477539 306.64208984 C-157.61477432 306.01877777 -157.08477325 305.3954657 -156.53871155 304.75326538 C-154.6249517 302.57265596 -152.55536863 300.60658839 -150.4375 298.625 C-139.04947198 287.32259625 -130.0615175 273.80575669 -122 260 C-121.5865332 259.29262695 -121.17306641 258.58525391 -120.74707031 257.85644531 C-103.85430173 228.70635656 -92.21948514 197.35678723 -81.28359985 165.59951782 C-79.99527648 161.86059007 -78.69427805 158.12690444 -77.36767578 154.40136719 C-77.09981766 153.64848419 -76.83195953 152.8956012 -76.5559845 152.11990356 C-76.05205431 150.7064821 -75.54627247 149.29371861 -75.03813171 147.88180542 C-73.34652353 143.13528822 -71.8801898 138.34560271 -70.5 133.5 C-68.61839668 126.93142375 -66.47342817 120.50477454 -64.15356445 114.07836914 C-62.70817313 110.05948748 -61.38287293 106.03980255 -60.1875 101.9375 C-53.99530645 81.65618591 -26.99228808 0 0 0 Z " fill="#FDFDFD" transform="translate(237,196)"/>
<path d="M0 0 C18.81 0 37.62 0 57 0 C57.22389813 36.50984057 56.44531747 72.91045819 55.27501333 109.39263761 C55.03569302 116.86624187 54.80696373 124.34016138 54.57819569 131.81409466 C54.39978613 137.63026473 54.21895218 143.44635986 54.03765178 149.26244044 C53.99474525 150.63898688 53.95189691 152.01553514 53.90911031 153.39208531 C53.38413668 170.26762918 52.76791324 187.13365432 52 204 C40.45 204 28.9 204 17 204 C16.5875 199.16214844 16.175 194.32429687 15.75 189.33984375 C15.16817862 182.53893244 14.58450284 175.73818134 14 168.9375 C13.92341282 168.04623413 13.84682564 167.15496826 13.76791763 166.23669434 C10.94356106 133.38772412 7.97556988 100.55312313 4.91700554 67.72516537 C1.91848689 35.53866271 1.91848689 35.53866271 0.76953125 21.6875 C0.68821457 20.7402002 0.60689789 19.79290039 0.52311707 18.81689453 C0.01447853 12.4837733 0 6.40256619 0 0 Z " fill="#777479" transform="translate(379,280)"/>
<path d="M0 0 C4.73616996 2.08013504 7.18994855 5.41569954 10.375 9.375 C10.95354736 10.09091309 11.53209473 10.80682617 12.12817383 11.54443359 C21.40793914 23.30973321 26.06103423 35.40233128 26.17700195 50.49243164 C26.18357315 51.20558029 26.19014435 51.91872894 26.19691467 52.65348816 C26.21646066 54.98904556 26.22826272 57.32453952 26.23828125 59.66015625 C26.24235678 60.46265745 26.2464323 61.26515865 26.25063133 62.09197807 C26.2714037 66.33288177 26.2857481 70.57375388 26.29516602 74.81469727 C26.3062639 79.18492302 26.3407274 83.55464436 26.38033772 87.9246912 C26.40649799 91.29708287 26.41485687 94.66935348 26.41844749 98.04183769 C26.42330821 99.65295286 26.43490759 101.26406281 26.45348549 102.8750782 C26.47788521 105.1294487 26.47691222 107.38250025 26.4699707 109.63696289 C26.47583694 110.91712784 26.48170319 112.19729279 26.48774719 113.51625061 C25.76415666 118.68451837 23.34844767 121.72252326 19.625 125.25 C13.41959889 129.38693407 6.10554761 129.87320653 -1.1171875 130.91015625 C-2.87387253 131.16870644 -2.87387253 131.16870644 -4.66604614 131.43247986 C-8.40163777 131.98092244 -12.13829438 132.52170536 -15.875 133.0625 C-18.38158093 133.42985771 -20.88809219 133.79769115 -23.39453125 134.16601562 C-42.92782995 137.02686795 -42.92782995 137.02686795 -51 138 C-52.35967932 130.25468386 -53.25349827 122.86343637 -53 115 C-42.26471864 112.64755119 -31.49787013 110.52466776 -20.7019043 108.47412109 C-18.66161706 108.08601396 -16.62180859 107.6954642 -14.58203125 107.3046875 C-13.38811768 107.07765137 -12.1942041 106.85061523 -10.96411133 106.61669922 C-7.96270669 106.05221191 -7.96270669 106.05221191 -5 105 C-4.85433333 97.27602497 -5.42917138 89.68877491 -6.09375 81.99609375 C-6.20617884 80.66376967 -6.31827437 79.33141743 -6.43005371 77.9990387 C-6.72266022 74.52183811 -7.01974114 71.04503437 -7.31781006 67.56829834 C-7.62217074 64.00865492 -7.92222286 60.44864852 -8.22265625 56.88867188 C-8.81092852 49.92542354 -9.40393662 42.96258562 -10 36 C-11.65 35.34 -13.3 34.68 -15 34 C-14.93735962 34.73614029 -14.87471924 35.47228058 -14.81018066 36.23072815 C-14.21860331 43.18903937 -13.62985771 50.1475851 -13.04424286 57.10640049 C-12.74311896 60.68345291 -12.44092456 64.26040798 -12.13623047 67.8371582 C-11.84188772 71.2928718 -11.55042653 74.74881773 -11.26091003 78.20493889 C-11.09669142 80.15645154 -10.92953696 82.10771642 -10.7623291 84.05897522 C-10.29008104 89.72345771 -9.85262514 95.31501487 -10 101 C-13.79152352 101.79235325 -17.58324516 102.58375456 -21.375 103.375 C-22.43589844 103.59671875 -23.49679687 103.8184375 -24.58984375 104.046875 C-26.70635153 104.48835515 -28.82321291 104.92814357 -30.94042969 105.36621094 C-32.92116497 105.77651965 -34.9010497 106.19096509 -36.87988281 106.61035156 C-37.75741211 106.79307617 -38.63494141 106.97580078 -39.5390625 107.1640625 C-40.69075928 107.40697021 -40.69075928 107.40697021 -41.86572266 107.65478516 C-44 108 -44 108 -48 108 C-47.71951205 102.99550452 -47.38034399 97.99772 -47 93 C-46.94618164 92.27828613 -46.89236328 91.55657227 -46.83691406 90.81298828 C-43.93956508 54.20326514 -25.98423687 25.31797438 0 0 Z " fill="#767378" transform="translate(414,74)"/>
<path d="M0 0 C2.08867039 2.08867039 2.67672106 3.42297319 3.75 6.125 C7.51516665 14.70351155 12.13003272 20.47042825 21 24 C23.39866294 24.58868285 25.52291328 24.84188808 28 25 C26.65781423 28.75945568 24.95496457 31.62769233 22.5625 34.8125 C15.53312799 44.78542153 14.68242226 53.43107241 16.55078125 65.58203125 C19.19846469 77.56562217 24.10301342 88.78869251 28.796875 100.08886719 C30.56927235 104.37743578 32.28776336 108.68712461 34 113 C33.34515625 113.47566406 32.6903125 113.95132813 32.015625 114.44140625 C18.55595665 124.76428749 9.49878705 138.51398688 1 153 C0.40227783 154.00812744 0.40227783 154.00812744 -0.20751953 155.03662109 C-5.55284253 164.09306968 -10.10569154 173.22604936 -14 183 C-14.66 183 -15.32 183 -16 183 C-18.04593023 151.90701378 -19.32698157 120.89414139 -19.37014771 89.73487091 C-19.37496299 87.45502251 -19.38561074 85.17526717 -19.39770508 82.89544678 C-19.48748679 63.7931145 -19.17749554 45.70034021 -12.8125 27.4375 C-12.51714355 26.56834961 -12.22178711 25.69919922 -11.91748047 24.80371094 C-4.9378936 4.9378936 -4.9378936 4.9378936 0 0 Z " fill="#91D0FC" transform="translate(200,77)"/>
<path d="M0 0 C1.47249494 23.98063188 1.06670925 47.98467116 1 72 C-24.74 72.33 -50.48 72.66 -77 73 C-77.020625 63.780625 -77.04125 54.56125 -77.0625 45.0625 C-77.071604 42.14801025 -77.08070801 39.23352051 -77.09008789 36.23071289 C-77.09300681 33.93636115 -77.09555543 31.64200889 -77.09765625 29.34765625 C-77.10277222 28.14363159 -77.10788818 26.93960693 -77.11315918 25.69909668 C-77.11328003 24.5622644 -77.11340088 23.42543213 -77.11352539 22.25415039 C-77.115746 21.26153702 -77.11796661 20.26892365 -77.12025452 19.24623108 C-77 17 -77 17 -76 16 C-73.80083826 15.60331757 -71.59117835 15.26468895 -69.37890625 14.94921875 C-68.69565781 14.85049973 -68.01240936 14.7517807 -67.30845642 14.65007019 C-65.83154123 14.43705368 -64.35436089 14.22586935 -62.87695312 14.01629639 C-60.55663192 13.68666637 -58.23720426 13.35133889 -55.91796875 13.01416016 C-52.78161521 12.55831975 -49.64508554 12.10374284 -46.50830078 11.65087891 C-45.37029022 11.48655365 -45.37029022 11.48655365 -44.20928955 11.31890869 C-42.7898303 11.1140112 -41.37035719 10.90920976 -39.9508667 10.70452881 C-35.7990014 10.10504771 -31.64917194 9.49281812 -27.5 8.875 C-25.96581421 8.65589966 -25.96581421 8.65589966 -24.40063477 8.43237305 C-17.26695013 7.36134021 -5.47414348 0 0 0 Z " fill="#767478" transform="translate(441,201)"/>
<path d="M0 0 C0.66 0.33 1.32 0.66 2 1 C3.24011243 6.02364016 3.19156421 11.1062395 3.1875 16.25 C3.18814453 17.08958252 3.18878906 17.92916504 3.18945312 18.79418945 C3.13861497 24.7624728 2.51951276 30.20685759 1 36 C-4.61 36 -10.22 36 -16 36 C-16.33 37.32 -16.66 38.64 -17 40 C-15.68 40.33 -14.36 40.66 -13 41 C-13.13277344 41.845625 -13.26554687 42.69125 -13.40234375 43.5625 C-13.66724609 45.2640625 -13.66724609 45.2640625 -13.9375 47 C-14.19853516 48.670625 -14.19853516 48.670625 -14.46484375 50.375 C-14.64144531 51.57125 -14.81804687 52.7675 -15 54 C-15.23577759 54.98383667 -15.23577759 54.98383667 -15.47631836 55.98754883 C-16.0619974 58.80687019 -16.44044789 61.15274225 -15.0793457 63.77099609 C-13.70423562 65.52243333 -12.25221701 67.10353678 -10.6875 68.6875 C-9.66483193 69.76934131 -8.64773352 70.85647919 -7.63671875 71.94921875 C-6.95162231 72.65050903 -6.95162231 72.65050903 -6.25268555 73.3659668 C-5 75 -5 75 -3 80 C-5.97 82.64 -8.94 85.28 -12 88 C-15.24732932 86.37633534 -15.70155136 83.24612161 -17 80 C-17.99 80 -18.98 80 -20 80 C-18.27820846 98.81057257 -9.01159258 117.63317699 -3 135 C15.81 135 34.62 135 54 135 C53.01 137.31 52.02 139.62 51 142 C50.45551022 144.34880259 50.45551022 144.34880259 50.3125 146.4375 C50.209375 147.613125 50.10625 148.78875 50 150 C42.34254411 151.08553972 34.65271265 151.57568539 26.9375 152.0625 C26.23689453 152.10735535 25.53628906 152.15221069 24.81445312 152.19842529 C12.19977213 152.99367054 -0.35980994 153.22752342 -13 153 C-17.11753215 145.15244148 -20.53874144 137.07879939 -23.875 128.875 C-24.93245312 126.28935946 -25.9929323 123.7049704 -27.0546875 121.12109375 C-27.3114325 120.49576248 -27.56817749 119.87043121 -27.83270264 119.22615051 C-29.80944059 114.42650982 -31.87667222 109.67364733 -34 104.9375 C-39.61498253 92.22846638 -45.42311376 77.01834893 -41.0625 63 C-38.96739459 58.14499611 -35.38212288 54.18089853 -32.1640625 50.03515625 C-28.26838168 44.57135842 -25.46094225 38.82424167 -26 32 C-26.495 31.4225 -26.99 30.845 -27.5 30.25 C-29.92695633 26.6095655 -29.65675937 23.23169694 -29 19 C-28.06514507 15.23002945 -26.81145946 12.71086109 -24 10 C-20.30362897 8.34760597 -16.64592035 7.21137998 -12.75390625 6.1328125 C-8.60033209 4.87939262 -5.27549062 3.13526451 -1.63671875 0.8203125 C-0.82654297 0.41425781 -0.82654297 0.41425781 0 0 Z " fill="#FADEB4" transform="translate(263,59)"/>
<path d="M0 0 C0.99 0.66 1.98 1.32 3 2 C2.57847656 2.44730469 2.15695313 2.89460938 1.72265625 3.35546875 C-2.5377979 7.98399766 -2.5377979 7.98399766 -4 14 C-2.35 14 -0.7 14 1 14 C1.226875 13.2575 1.45375 12.515 1.6875 11.75 C3.31556797 8.33880997 4.83365508 7.05747447 8 5 C11.375 4.50390625 11.375 4.50390625 15 4.5625 C16.19625 4.56378906 17.3925 4.56507812 18.625 4.56640625 C22.23630324 5.0303584 24.11962478 5.81400095 27 8 C29 11 29 11 29.5625 13.3125 C28.83541108 16.78636929 27.12600152 18.29725945 24.38671875 20.453125 C18.14450527 24.49881492 11.26186366 27.48525034 4.0625 29.3125 C-0.63045118 30.73853489 -2.45546223 33.75910372 -4.90625 37.84375 C-7.94799613 43.84033523 -7.84152359 50.72537902 -6 57.125 C-5.67 58.07375 -5.34 59.0225 -5 60 C-8.53430656 62.35620437 -9.83571287 62.48991613 -14 62 C-22.01332151 57.82639504 -26.54557637 51.4160707 -29.3046875 42.96484375 C-31.36552985 34.17731934 -30.53283604 26.76654151 -26 19 C-25.57589844 18.24976562 -25.15179688 17.49953125 -24.71484375 16.7265625 C-19.07418671 7.51925046 -11.37862574 -0.82753642 0 0 Z " fill="#AA5747" transform="translate(236,34)"/>
<path d="M0 0 C8.27625272 -0.82762527 14.0943146 1.40934465 21 6 C26.33900382 10.79551241 27.93853829 16.59382244 29.921875 23.30859375 C31.04440021 26.11083965 31.81523823 27.07183476 34.25 28.75 C37 31 37 31 37.59375 34.6875 C37.42918346 39.28494757 35.44576532 41.39294856 32.21875 44.484375 C31.5690625 45.06703125 30.919375 45.6496875 30.25 46.25 C29.61578125 46.848125 28.9815625 47.44625 28.328125 48.0625 C27.14083437 49.18053201 25.94545637 50.29008899 24.73925781 51.38769531 C22.77695129 53.20676779 20.8920454 55.1079546 19 57 C19 52.38 19 47.76 19 43 C15.45182292 43.16276042 11.90364583 43.32552083 8.35546875 43.48828125 C5 43 5 43 3.15625 41.01171875 C1.69458318 37.20447173 0.93054738 33.52196446 0.3125 29.5 C0.12252441 28.308302 0.12252441 28.308302 -0.07128906 27.0925293 C-1.42638865 18.02413711 -1.68201664 9.04083946 0 0 Z " fill="#FBDFB5" transform="translate(375,29)"/>
<path d="M0 0 C1.29234941 0.84340072 2.55700628 1.73089351 3.7890625 2.66015625 C5.92129959 4.18068598 8.01443911 5.05665283 10.4453125 6.01953125 C14.35737419 7.73570339 16.71669003 9.06228631 18.6953125 13.01953125 C20.18164974 22.87083624 16.35112089 30.90647091 12.1328125 39.51953125 C11.82786865 40.14375977 11.5229248 40.76798828 11.20874023 41.41113281 C8.94035636 45.89700932 8.94035636 45.89700932 6.6953125 47.01953125 C3.5393563 44.43491195 2.71409835 41.64285635 1.4453125 37.83203125 C-1.42194647 30.14606541 -4.97864943 24.52210371 -12.3671875 20.64453125 C-13.6608269 20.05924831 -14.97633826 19.5210762 -16.3046875 19.01953125 C-17.19285156 18.65859375 -18.08101563 18.29765625 -18.99609375 17.92578125 C-23.14942794 16.78815016 -26.90065468 16.80024748 -31.1796875 16.89453125 C-31.9634375 16.90355469 -32.7471875 16.91257812 -33.5546875 16.921875 C-35.47148805 16.94525062 -37.38812941 16.98111472 -39.3046875 17.01953125 C-38.63553753 12.12895368 -37.21799792 10.49713299 -33.46875 7.50390625 C-24.24801375 1.17921352 -11.0970046 -4.72092908 0 0 Z " fill="#F9C04E" transform="translate(406.3046875,6.98046875)"/>
<path d="M0 0 C7.78850242 2.78847618 15.24951647 8.49903295 19 16 C20.5147553 26.51672969 16.74940086 36.97450614 14 47 C9.38 47 4.76 47 0 47 C-3.19298069 38.58728846 -6.341005 30.15900872 -9.375 21.6875 C-9.63748535 20.96506104 -9.8999707 20.24262207 -10.17041016 19.49829102 C-11.22402282 16.5328413 -12 14.17218774 -12 11 C-10.390625 9.31640625 -10.390625 9.31640625 -8.25 7.5625 C-5.36411291 5.14736045 -2.6096521 2.71838761 0 0 Z " fill="#FBFBFB" transform="translate(264,142)"/>
<path d="M0 0 C0.34064504 2.16552915 0.67214255 4.33249797 1 6.5 C1.185625 7.7065625 1.37125 8.913125 1.5625 10.15625 C2.01939038 14.1703583 2.07140463 17.96563826 2 22 C-1.68650112 22.50755197 -5.37433775 23.00467512 -9.0625 23.5 C-10.10083984 23.64308594 -11.13917969 23.78617188 -12.20898438 23.93359375 C-26.41423984 25.82762781 -26.41423984 25.82762781 -29.9609375 23.9765625 C-33.58128616 20.51622925 -34.89808624 19.24334783 -35.3125 14.1875 C-35.23476564 11.32687566 -34.94081837 9.86684133 -33.75 7.1875 C-29.35983258 3.69532137 -24.43157863 3.02846459 -19 2 C-17.94167969 1.79375 -16.88335937 1.5875 -15.79296875 1.375 C-10.44125617 0.40563319 -5.45308481 -0.08806224 0 0 Z " fill="#FCE0B5" transform="translate(355,191)"/>
<path d="M0 0 C9.9 0 19.8 0 30 0 C30 5.28 30 10.56 30 16 C21.09 16 12.18 16 3 16 C0 5 0 5 0 0 Z " fill="#AB5848" transform="translate(394,490)"/>
</svg>
