<svg xmlns="http://www.w3.org/2000/svg" xmlns:xlink="http://www.w3.org/1999/xlink" width="150" zoomAndPan="magnify" viewBox="0 0 112.5 37.5" height="50" preserveAspectRatio="xMidYMid meet" version="1.0"><defs><g/><clipPath id="196ed1636f"><path d="M 41.726562 19.460938 L 62.441406 19.460938 L 62.441406 21.855469 L 41.726562 21.855469 Z M 41.726562 19.460938 " clip-rule="nonzero"/></clipPath></defs><g fill="#ffffff" fill-opacity="1"><g transform="translate(15.515779, 20.938537)"><g><path d="M 1.703125 -12.65625 C 1.785156 -12.65625 1.878906 -12.660156 1.984375 -12.671875 C 2.085938 -12.671875 2.207031 -12.671875 2.34375 -12.671875 C 2.476562 -12.679688 2.640625 -12.6875 2.828125 -12.6875 L 6.359375 -12.6875 L 6.359375 -10.03125 L 8.3125 -10.03125 L 8.3125 -6.921875 L 6.328125 -6.921875 L 6.375 -1.9375 L 6.4375 -1.75 C 6.550781 -1.476562 6.726562 -1.28125 6.96875 -1.15625 C 7.0625 -1.101562 7.28125 -1.078125 7.625 -1.078125 L 8.09375 -1.078125 L 8.09375 1.546875 L 6.109375 1.53125 L 5.234375 1.53125 C 4.898438 1.53125 4.570312 1.5 4.25 1.4375 C 3.9375 1.382812 3.648438 1.285156 3.390625 1.140625 C 3.128906 1.003906 2.910156 0.816406 2.734375 0.578125 C 2.554688 0.335938 2.425781 0.0234375 2.34375 -0.359375 C 2.300781 -0.546875 2.28125 -1.722656 2.28125 -3.890625 L 2.28125 -6.921875 L 0.734375 -6.921875 L 0.734375 -10.03125 L 2.28125 -10.03125 L 2.28125 -10.96875 C 2.28125 -11.582031 2.257812 -11.957031 2.21875 -12.09375 C 2.164062 -12.195312 2.085938 -12.304688 1.984375 -12.421875 C 1.890625 -12.535156 1.796875 -12.613281 1.703125 -12.65625 Z M 1.703125 -12.65625 "/></g></g></g><g fill="#ffffff" fill-opacity="1"><g transform="translate(24.534404, 20.938537)"><g><path d="M 8.625 -10.203125 L 8.828125 -10.203125 L 8.796875 -8.515625 L 8.796875 -6.453125 L 8.484375 -6.46875 C 7.785156 -6.507812 7.191406 -6.40625 6.703125 -6.15625 C 6.421875 -6.007812 6.164062 -5.75 5.9375 -5.375 C 5.71875 -5 5.570312 -4.5625 5.5 -4.0625 C 5.457031 -3.863281 5.4375 -2.882812 5.4375 -1.125 L 5.4375 1.53125 L 1.40625 1.53125 L 1.40625 -4.0625 C 1.40625 -5.945312 1.398438 -7.34375 1.390625 -8.25 C 1.390625 -9.164062 1.375 -9.632812 1.34375 -9.65625 C 1.28125 -9.8125 1.1875 -9.914062 1.0625 -9.96875 C 1.050781 -9.976562 1.054688 -9.988281 1.078125 -10 C 1.148438 -10.019531 1.363281 -10.03125 1.71875 -10.03125 C 2.070312 -10.03125 2.566406 -10.03125 3.203125 -10.03125 L 5.4375 -10.03125 L 5.4375 -8.0625 L 5.578125 -8.34375 C 5.828125 -8.9375 6.234375 -9.394531 6.796875 -9.71875 C 7.367188 -10.039062 7.976562 -10.203125 8.625 -10.203125 Z M 8.625 -10.203125 "/></g></g></g><g fill="#ffffff" fill-opacity="1"><g transform="translate(33.633202, 20.938537)"><g><path d="M 6.609375 -10.203125 C 7.171875 -10.203125 7.71875 -10.160156 8.25 -10.078125 C 8.78125 -10.003906 9.257812 -9.859375 9.6875 -9.640625 C 10.125 -9.429688 10.503906 -9.140625 10.828125 -8.765625 C 11.160156 -8.390625 11.414062 -7.90625 11.59375 -7.3125 L 11.6875 -7.015625 L 11.6875 1.53125 L 7.734375 1.53125 L 7.734375 -3.453125 L 6.640625 -3.421875 L 5.515625 -3.421875 L 5.296875 -3.328125 C 5.066406 -3.222656 4.914062 -3.003906 4.84375 -2.671875 C 4.738281 -2.160156 4.84375 -1.742188 5.15625 -1.421875 C 5.351562 -1.179688 5.707031 -1.0625 6.21875 -1.0625 C 6.40625 -1.0625 6.59375 -1.078125 6.78125 -1.109375 C 6.96875 -1.140625 7.140625 -1.195312 7.296875 -1.28125 C 7.328125 -1.28125 7.34375 -1.269531 7.34375 -1.25 C 7.351562 -1.1875 7.359375 -0.796875 7.359375 -0.078125 L 7.359375 1.125 L 7.15625 1.25 C 6.8125 1.414062 6.4375 1.535156 6.03125 1.609375 C 5.632812 1.679688 5.238281 1.71875 4.84375 1.71875 C 4.625 1.71875 4.410156 1.707031 4.203125 1.6875 C 4.003906 1.664062 3.8125 1.628906 3.625 1.578125 C 2.632812 1.316406 1.863281 0.796875 1.3125 0.015625 C 0.769531 -0.753906 0.519531 -1.660156 0.5625 -2.703125 C 0.644531 -4.398438 1.550781 -5.414062 3.28125 -5.75 C 3.46875 -5.78125 4.265625 -5.804688 5.671875 -5.828125 L 7.734375 -5.859375 L 7.71875 -6.21875 C 7.6875 -6.71875 7.546875 -7.039062 7.296875 -7.1875 C 7.046875 -7.34375 6.691406 -7.421875 6.234375 -7.421875 C 6.148438 -7.421875 6.035156 -7.410156 5.890625 -7.390625 C 5.753906 -7.378906 5.613281 -7.359375 5.46875 -7.328125 C 5.320312 -7.296875 5.1875 -7.25 5.0625 -7.1875 C 4.945312 -7.125 4.867188 -7.039062 4.828125 -6.9375 L 4.796875 -6.84375 L 1.125 -6.84375 C 1.125 -6.914062 1.238281 -7.191406 1.46875 -7.671875 C 1.664062 -8.035156 1.90625 -8.378906 2.1875 -8.703125 C 2.476562 -9.023438 2.757812 -9.28125 3.03125 -9.46875 C 3.570312 -9.8125 4.144531 -10.019531 4.75 -10.09375 C 5.363281 -10.164062 5.984375 -10.203125 6.609375 -10.203125 Z M 6.609375 -10.203125 "/></g></g></g><g fill="#ffffff" fill-opacity="1"><g transform="translate(46.620028, 20.938537)"><g><path d="M 0.5625 -9.921875 L 0.40625 -10.03125 L 5.40625 -10.03125 L 5.46875 -9.84375 C 5.675781 -9.050781 5.882812 -8.265625 6.09375 -7.484375 C 6.3125 -6.710938 6.53125 -5.9375 6.75 -5.15625 C 6.894531 -4.582031 7.019531 -4.125 7.125 -3.78125 C 7.226562 -3.445312 7.289062 -3.226562 7.3125 -3.125 C 7.34375 -3.007812 7.363281 -2.957031 7.375 -2.96875 C 7.40625 -3.007812 7.707031 -4.191406 8.28125 -6.515625 L 9.15625 -10.03125 L 11.140625 -10.03125 C 12.460938 -10.03125 13.125 -10.019531 13.125 -10 C 13.113281 -9.9375 13.097656 -9.859375 13.078125 -9.765625 C 13.046875 -9.679688 13.015625 -9.578125 12.984375 -9.453125 C 12.953125 -9.335938 12.90625 -9.191406 12.84375 -9.015625 C 12.40625 -7.484375 11.976562 -5.96875 11.5625 -4.46875 C 11.15625 -2.96875 10.75 -1.472656 10.34375 0.015625 C 10.300781 0.179688 10.257812 0.34375 10.21875 0.5 C 10.175781 0.65625 10.140625 0.800781 10.109375 0.9375 C 10.066406 1.082031 10.023438 1.234375 9.984375 1.390625 L 9.96875 1.53125 L 4.96875 1.53125 L 4.578125 0.21875 C 4.359375 -0.476562 4.125 -1.210938 3.875 -1.984375 C 3.632812 -2.753906 3.363281 -3.578125 3.0625 -4.453125 C 3.039062 -4.585938 2.992188 -4.757812 2.921875 -4.96875 C 2.847656 -5.1875 2.753906 -5.445312 2.640625 -5.75 C 2.535156 -6.0625 2.453125 -6.316406 2.390625 -6.515625 C 2.335938 -6.710938 2.296875 -6.847656 2.265625 -6.921875 C 1.847656 -8.191406 1.601562 -8.890625 1.53125 -9.015625 C 1.28125 -9.441406 0.957031 -9.742188 0.5625 -9.921875 Z M 0.5625 -9.921875 "/></g></g></g><g fill="#ffffff" fill-opacity="1"><g transform="translate(60.147972, 20.938537)"><g><path d="M 5.71875 -10.15625 C 5.820312 -10.175781 5.953125 -10.1875 6.109375 -10.1875 C 6.273438 -10.1875 6.472656 -10.1875 6.703125 -10.1875 C 6.921875 -10.164062 7.113281 -10.148438 7.28125 -10.140625 C 7.445312 -10.128906 7.59375 -10.109375 7.71875 -10.078125 C 8.519531 -9.953125 9.191406 -9.703125 9.734375 -9.328125 C 10.285156 -8.960938 10.722656 -8.507812 11.046875 -7.96875 C 11.378906 -7.4375 11.625 -6.84375 11.78125 -6.1875 C 11.9375 -5.539062 12.019531 -4.851562 12.03125 -4.125 L 12.03125 -3.484375 L 8.5 -3.46875 L 4.96875 -3.46875 L 4.9375 -3.3125 C 4.914062 -3.175781 4.925781 -2.921875 4.96875 -2.546875 C 5.019531 -2.109375 5.144531 -1.738281 5.34375 -1.4375 C 5.550781 -1.144531 5.910156 -1 6.421875 -1 C 6.734375 -1 7.015625 -1.066406 7.265625 -1.203125 C 7.515625 -1.335938 7.691406 -1.566406 7.796875 -1.890625 C 7.867188 -2.046875 7.910156 -2.125 7.921875 -2.125 C 7.972656 -2.15625 8.628906 -2.171875 9.890625 -2.171875 C 11.148438 -2.171875 11.796875 -2.15625 11.828125 -2.125 C 11.867188 -2.125 11.820312 -1.960938 11.6875 -1.640625 C 11.445312 -1.023438 11.144531 -0.503906 10.78125 -0.078125 C 10.425781 0.335938 10.019531 0.675781 9.5625 0.9375 C 9.101562 1.195312 8.601562 1.378906 8.0625 1.484375 C 7.519531 1.597656 6.941406 1.65625 6.328125 1.65625 C 5.785156 1.65625 5.226562 1.59375 4.65625 1.46875 C 4.09375 1.351562 3.582031 1.148438 3.125 0.859375 C 3.0625 0.816406 2.972656 0.742188 2.859375 0.640625 C 2.742188 0.546875 2.628906 0.4375 2.515625 0.3125 C 2.398438 0.195312 2.289062 0.0820312 2.1875 -0.03125 C 2.082031 -0.15625 2 -0.257812 1.9375 -0.34375 C 1.53125 -0.90625 1.226562 -1.5625 1.03125 -2.3125 C 0.832031 -3.070312 0.765625 -3.859375 0.828125 -4.671875 C 0.941406 -6.265625 1.410156 -7.53125 2.234375 -8.46875 C 3.066406 -9.414062 4.226562 -9.976562 5.71875 -10.15625 Z M 6.890625 -7.59375 C 6.828125 -7.613281 6.757812 -7.625 6.6875 -7.625 C 6.613281 -7.632812 6.539062 -7.640625 6.46875 -7.640625 C 5.914062 -7.640625 5.535156 -7.472656 5.328125 -7.140625 C 5.117188 -6.804688 4.988281 -6.382812 4.9375 -5.875 L 4.890625 -5.609375 L 8.09375 -5.609375 L 8.078125 -5.75 C 8.066406 -6.03125 8.003906 -6.3125 7.890625 -6.59375 C 7.785156 -6.882812 7.675781 -7.113281 7.5625 -7.28125 C 7.425781 -7.445312 7.203125 -7.550781 6.890625 -7.59375 Z M 6.890625 -7.59375 "/></g></g></g><g fill="#ffffff" fill-opacity="1"><g transform="translate(72.974464, 20.938537)"><g><path d="M 1.21875 -14.109375 L 1.109375 -14.1875 L 5.546875 -14.1875 L 5.546875 1.53125 L 1.5 1.53125 L 1.5 -5.828125 C 1.519531 -7.703125 1.523438 -9.226562 1.515625 -10.40625 C 1.503906 -11.582031 1.5 -12.359375 1.5 -12.734375 C 1.488281 -13.484375 1.46875 -13.882812 1.4375 -13.9375 C 1.40625 -14.007812 1.332031 -14.066406 1.21875 -14.109375 Z M 1.21875 -14.109375 "/></g></g></g><g fill="#ffffff" fill-opacity="1"><g transform="translate(80.029035, 20.938537)"><g><path d="M 6.796875 -10.140625 L 7.15625 -10.125 C 7.957031 -10.082031 8.675781 -9.914062 9.3125 -9.625 C 9.945312 -9.332031 10.488281 -8.9375 10.9375 -8.4375 C 11.382812 -7.945312 11.726562 -7.375 11.96875 -6.71875 C 12.21875 -6.0625 12.363281 -5.347656 12.40625 -4.578125 C 12.457031 -3.328125 12.238281 -2.195312 11.75 -1.1875 C 11.050781 0.21875 9.90625 1.101562 8.3125 1.46875 C 7.832031 1.59375 7.394531 1.65625 7 1.65625 L 6.84375 1.65625 L 6.8125 1.0625 C 6.832031 0.84375 6.84375 0.625 6.84375 0.40625 C 6.84375 0.1875 6.84375 -0.046875 6.84375 -0.296875 C 6.84375 -0.804688 6.851562 -1.0625 6.875 -1.0625 C 7.09375 -1.0625 7.34375 -1.160156 7.625 -1.359375 C 8.125 -1.648438 8.445312 -2.289062 8.59375 -3.28125 C 8.613281 -3.394531 8.625 -3.535156 8.625 -3.703125 C 8.632812 -3.867188 8.632812 -4.066406 8.625 -4.296875 C 8.601562 -4.535156 8.585938 -4.734375 8.578125 -4.890625 C 8.566406 -5.046875 8.546875 -5.179688 8.515625 -5.296875 C 8.441406 -5.785156 8.289062 -6.210938 8.0625 -6.578125 C 7.84375 -6.953125 7.460938 -7.1875 6.921875 -7.28125 L 6.796875 -7.296875 Z M 5.578125 -10.109375 C 5.640625 -10.117188 5.710938 -10.125 5.796875 -10.125 C 5.890625 -10.125 5.988281 -10.128906 6.09375 -10.140625 L 6.359375 -10.140625 L 6.359375 -8.921875 C 6.359375 -8.535156 6.359375 -8.222656 6.359375 -7.984375 C 6.359375 -7.742188 6.347656 -7.578125 6.328125 -7.484375 L 6.328125 -7.296875 L 6.109375 -7.234375 C 5.484375 -7.128906 5.054688 -6.726562 4.828125 -6.03125 C 4.722656 -5.726562 4.65625 -5.378906 4.625 -4.984375 C 4.601562 -4.585938 4.601562 -4.15625 4.625 -3.6875 C 4.65625 -3.4375 4.691406 -3.179688 4.734375 -2.921875 C 4.773438 -2.660156 4.847656 -2.410156 4.953125 -2.171875 C 5.054688 -1.941406 5.195312 -1.742188 5.375 -1.578125 C 5.550781 -1.410156 5.773438 -1.285156 6.046875 -1.203125 L 6.3125 -1.140625 L 6.328125 0.234375 L 6.328125 1.625 L 5.953125 1.625 C 4.878906 1.625 3.910156 1.328125 3.046875 0.734375 C 1.804688 -0.0976562 1.078125 -1.472656 0.859375 -3.390625 C 0.671875 -4.941406 0.910156 -6.304688 1.578125 -7.484375 C 1.984375 -8.203125 2.539062 -8.796875 3.25 -9.265625 C 3.957031 -9.734375 4.734375 -10.015625 5.578125 -10.109375 Z M 5.578125 -10.109375 "/></g></g></g><g clip-path="url(#196ed1636f)"><path fill="#000000" d="M 41.726562 19.460938 L 62.441406 19.460938 L 62.441406 21.855469 L 41.726562 21.855469 Z M 41.726562 19.460938 " fill-opacity="1" fill-rule="nonzero"/></g><g fill="#209d5c" fill-opacity="1"><g transform="translate(42.931613, 21.384854)"><g/></g></g><g fill="#209d5c" fill-opacity="1"><g transform="translate(44.634395, 21.384854)"><g><path d="M 0.84375 -1.296875 C 0.957031 -1.296875 1.0625 -1.265625 1.15625 -1.203125 C 1.257812 -1.148438 1.335938 -1.078125 1.390625 -0.984375 C 1.453125 -0.890625 1.484375 -0.773438 1.484375 -0.640625 C 1.484375 -0.503906 1.453125 -0.382812 1.390625 -0.28125 C 1.335938 -0.1875 1.257812 -0.113281 1.15625 -0.0625 C 1.0625 -0.0078125 0.957031 0.015625 0.84375 0.015625 C 0.78125 0.015625 0.710938 0.0078125 0.640625 0 C 0.578125 -0.0195312 0.519531 -0.046875 0.46875 -0.078125 L 0.46875 0.40625 L 0.140625 0.40625 L 0.140625 -1.265625 L 0.46875 -1.265625 L 0.46875 -1.203125 C 0.519531 -1.234375 0.578125 -1.253906 0.640625 -1.265625 C 0.710938 -1.285156 0.78125 -1.296875 0.84375 -1.296875 Z M 0.78125 -0.28125 C 0.851562 -0.28125 0.914062 -0.289062 0.96875 -0.3125 C 1.03125 -0.34375 1.078125 -0.382812 1.109375 -0.4375 C 1.148438 -0.5 1.171875 -0.566406 1.171875 -0.640625 C 1.171875 -0.710938 1.148438 -0.773438 1.109375 -0.828125 C 1.078125 -0.878906 1.03125 -0.921875 0.96875 -0.953125 C 0.914062 -0.984375 0.851562 -1 0.78125 -1 C 0.71875 -1 0.660156 -0.988281 0.609375 -0.96875 C 0.554688 -0.945312 0.507812 -0.921875 0.46875 -0.890625 L 0.46875 -0.375 C 0.507812 -0.34375 0.554688 -0.316406 0.609375 -0.296875 C 0.660156 -0.285156 0.71875 -0.28125 0.78125 -0.28125 Z M 0.78125 -0.28125 "/></g></g></g><g fill="#209d5c" fill-opacity="1"><g transform="translate(47.634218, 21.384854)"><g><path d="M 0.15625 -1.765625 L 0.484375 -1.765625 L 0.484375 0 L 0.15625 0 Z M 0.15625 -1.765625 "/></g></g></g><g fill="#209d5c" fill-opacity="1"><g transform="translate(49.689567, 21.384854)"><g><path d="M 1.421875 -1.265625 L 1.421875 0 L 1.09375 0 L 1.09375 -0.09375 C 1.039062 -0.0625 0.984375 -0.0351562 0.921875 -0.015625 C 0.859375 0.00390625 0.789062 0.015625 0.71875 0.015625 C 0.625 0.015625 0.535156 0 0.453125 -0.03125 C 0.378906 -0.0703125 0.3125 -0.125 0.25 -0.1875 C 0.195312 -0.25 0.15625 -0.316406 0.125 -0.390625 C 0.101562 -0.472656 0.09375 -0.554688 0.09375 -0.640625 C 0.09375 -0.722656 0.101562 -0.800781 0.125 -0.875 C 0.15625 -0.957031 0.195312 -1.03125 0.25 -1.09375 C 0.3125 -1.15625 0.378906 -1.203125 0.453125 -1.234375 C 0.535156 -1.273438 0.625 -1.296875 0.71875 -1.296875 C 0.789062 -1.296875 0.859375 -1.285156 0.921875 -1.265625 C 0.984375 -1.242188 1.039062 -1.21875 1.09375 -1.1875 L 1.09375 -1.265625 Z M 1.09375 -0.375 L 1.09375 -0.890625 C 1.0625 -0.921875 1.015625 -0.945312 0.953125 -0.96875 C 0.898438 -0.988281 0.84375 -1 0.78125 -1 C 0.707031 -1 0.640625 -0.984375 0.578125 -0.953125 C 0.523438 -0.921875 0.484375 -0.875 0.453125 -0.8125 C 0.421875 -0.757812 0.40625 -0.703125 0.40625 -0.640625 C 0.40625 -0.578125 0.421875 -0.515625 0.453125 -0.453125 C 0.484375 -0.398438 0.523438 -0.359375 0.578125 -0.328125 C 0.640625 -0.296875 0.707031 -0.28125 0.78125 -0.28125 C 0.84375 -0.28125 0.898438 -0.285156 0.953125 -0.296875 C 1.015625 -0.316406 1.0625 -0.34375 1.09375 -0.375 Z M 1.09375 -0.375 "/></g></g></g><g fill="#209d5c" fill-opacity="1"><g transform="translate(52.680018, 21.384854)"><g><path d="M 1.0625 -0.4375 L 1.265625 -0.234375 C 1.210938 -0.160156 1.140625 -0.0976562 1.046875 -0.046875 C 0.960938 -0.00390625 0.875 0.015625 0.78125 0.015625 C 0.6875 0.015625 0.597656 0 0.515625 -0.03125 C 0.429688 -0.0625 0.351562 -0.109375 0.28125 -0.171875 C 0.21875 -0.234375 0.164062 -0.300781 0.125 -0.375 C 0.09375 -0.457031 0.078125 -0.546875 0.078125 -0.640625 C 0.078125 -0.734375 0.09375 -0.816406 0.125 -0.890625 C 0.164062 -0.972656 0.21875 -1.039062 0.28125 -1.09375 C 0.351562 -1.15625 0.429688 -1.203125 0.515625 -1.234375 C 0.597656 -1.273438 0.6875 -1.296875 0.78125 -1.296875 C 0.882812 -1.296875 0.976562 -1.269531 1.0625 -1.21875 C 1.144531 -1.175781 1.21875 -1.117188 1.28125 -1.046875 L 1.0625 -0.84375 C 1.03125 -0.894531 0.988281 -0.929688 0.9375 -0.953125 C 0.894531 -0.984375 0.84375 -1 0.78125 -1 C 0.707031 -1 0.640625 -0.984375 0.578125 -0.953125 C 0.523438 -0.921875 0.484375 -0.875 0.453125 -0.8125 C 0.421875 -0.757812 0.40625 -0.703125 0.40625 -0.640625 C 0.40625 -0.566406 0.421875 -0.503906 0.453125 -0.453125 C 0.484375 -0.398438 0.523438 -0.359375 0.578125 -0.328125 C 0.640625 -0.296875 0.707031 -0.28125 0.78125 -0.28125 C 0.84375 -0.28125 0.894531 -0.289062 0.9375 -0.3125 C 0.988281 -0.34375 1.03125 -0.382812 1.0625 -0.4375 Z M 1.0625 -0.4375 "/></g></g></g><g fill="#209d5c" fill-opacity="1"><g transform="translate(55.450167, 21.384854)"><g><path d="M 1.359375 -0.546875 L 0.40625 -0.546875 C 0.425781 -0.460938 0.46875 -0.394531 0.53125 -0.34375 C 0.59375 -0.289062 0.675781 -0.265625 0.78125 -0.265625 C 0.84375 -0.265625 0.898438 -0.273438 0.953125 -0.296875 C 1.015625 -0.328125 1.066406 -0.367188 1.109375 -0.421875 L 1.3125 -0.25 C 1.25 -0.164062 1.164062 -0.0976562 1.0625 -0.046875 C 0.96875 -0.00390625 0.859375 0.015625 0.734375 0.015625 C 0.609375 0.015625 0.492188 -0.0078125 0.390625 -0.0625 C 0.296875 -0.125 0.222656 -0.203125 0.171875 -0.296875 C 0.117188 -0.398438 0.09375 -0.515625 0.09375 -0.640625 C 0.09375 -0.753906 0.117188 -0.863281 0.171875 -0.96875 C 0.222656 -1.070312 0.296875 -1.148438 0.390625 -1.203125 C 0.492188 -1.265625 0.609375 -1.296875 0.734375 -1.296875 C 0.867188 -1.296875 0.984375 -1.265625 1.078125 -1.203125 C 1.171875 -1.148438 1.238281 -1.070312 1.28125 -0.96875 C 1.332031 -0.863281 1.359375 -0.742188 1.359375 -0.609375 C 1.359375 -0.597656 1.359375 -0.585938 1.359375 -0.578125 C 1.359375 -0.566406 1.359375 -0.554688 1.359375 -0.546875 Z M 0.734375 -1.03125 C 0.648438 -1.03125 0.578125 -1.003906 0.515625 -0.953125 C 0.460938 -0.898438 0.429688 -0.832031 0.421875 -0.75 L 1.046875 -0.75 C 1.046875 -0.800781 1.035156 -0.847656 1.015625 -0.890625 C 0.992188 -0.929688 0.957031 -0.960938 0.90625 -0.984375 C 0.863281 -1.015625 0.804688 -1.03125 0.734375 -1.03125 Z M 0.734375 -1.03125 "/></g></g></g><g fill="#209d5c" fill-opacity="1"><g transform="translate(58.311717, 21.384854)"><g><path d="M 0.078125 -0.109375 L 0.203125 -0.34375 C 0.273438 -0.3125 0.34375 -0.285156 0.40625 -0.265625 C 0.476562 -0.242188 0.554688 -0.234375 0.640625 -0.234375 C 0.710938 -0.234375 0.765625 -0.242188 0.796875 -0.265625 C 0.828125 -0.296875 0.84375 -0.328125 0.84375 -0.359375 C 0.84375 -0.398438 0.820312 -0.429688 0.78125 -0.453125 C 0.738281 -0.472656 0.671875 -0.492188 0.578125 -0.515625 C 0.484375 -0.535156 0.398438 -0.554688 0.328125 -0.578125 C 0.253906 -0.609375 0.195312 -0.648438 0.15625 -0.703125 C 0.113281 -0.753906 0.09375 -0.820312 0.09375 -0.90625 C 0.09375 -1.019531 0.132812 -1.113281 0.21875 -1.1875 C 0.3125 -1.257812 0.429688 -1.296875 0.578125 -1.296875 C 0.679688 -1.296875 0.773438 -1.285156 0.859375 -1.265625 C 0.941406 -1.242188 1.015625 -1.21875 1.078125 -1.1875 L 0.96875 -0.953125 C 0.90625 -0.972656 0.835938 -0.988281 0.765625 -1 C 0.703125 -1.019531 0.640625 -1.03125 0.578125 -1.03125 C 0.515625 -1.03125 0.46875 -1.019531 0.4375 -1 C 0.40625 -0.976562 0.390625 -0.953125 0.390625 -0.921875 C 0.390625 -0.890625 0.410156 -0.863281 0.453125 -0.84375 C 0.492188 -0.820312 0.566406 -0.800781 0.671875 -0.78125 C 0.816406 -0.75 0.929688 -0.703125 1.015625 -0.640625 C 1.097656 -0.585938 1.140625 -0.5 1.140625 -0.375 C 1.140625 -0.257812 1.09375 -0.164062 1 -0.09375 C 0.914062 -0.0195312 0.789062 0.015625 0.625 0.015625 C 0.519531 0.015625 0.425781 0.0078125 0.34375 0 C 0.257812 -0.0195312 0.171875 -0.0546875 0.078125 -0.109375 Z M 0.078125 -0.109375 "/></g></g></g><g fill="#209d5c" fill-opacity="1"><g transform="translate(60.953637, 21.384854)"><g/></g></g></svg>