<?xml version="1.0" encoding="UTF-8"?>
<svg version="1.1" xmlns="http://www.w3.org/2000/svg" width="294" height="67">
<path d="M0 0 C97.02 0 194.04 0 294 0 C294 22.11 294 44.22 294 67 C196.98 67 99.96 67 0 67 C0 44.89 0 22.78 0 0 Z " fill="#000000" transform="translate(0,0)"/>
<path d="M0 0 C0.99 0 1.98 0 3 0 C3 1.65 3 3.3 3 5 C3.928125 5 4.85625 5 5.8125 5 C12 5 12 5 13.75 5.5625 C16.96168045 6.18699342 19.79275691 5.5248216 23 5 C25.66666667 5 28.33333333 5 31 5 C31.66 8.3 32.32 11.6 33 15 C33.33 11.7 33.66 8.4 34 5 C36.33333333 5 38.66666667 5 41 5 C41.969375 4.938125 42.93875 4.87625 43.9375 4.8125 C47 5 47 5 48.6796875 6.15625 C50.52227024 8.72932413 50.29788263 10.55999205 50.1875 13.6875 C50.14689453 15.17830078 50.14689453 15.17830078 50.10546875 16.69921875 C50.07066406 17.45847656 50.03585938 18.21773437 50 19 C47.69 19 45.38 19 43 19 C43.495 21.97 43.495 21.97 44 25 C44.66 24.01 45.32 23.02 46 22 C47.32 22 48.64 22 50 22 C49.67 24.31 49.34 26.62 49 29 C45.6875 29.6875 45.6875 29.6875 42 30 C39.58528669 28.33468048 38.65620544 26.48430816 37 24 C36.34 25.98 35.68 27.96 35 30 C33.02 30 31.04 30 29 30 C28.34 25.38 27.68 20.76 27 16 C26.67 20.62 26.34 25.24 26 30 C25.01 30 24.02 30 23 30 C23 29.34 23 28.68 23 28 C22.01 28.66 21.02 29.32 20 30 C17.3125 29.625 17.3125 29.625 15 29 C14.91917906 27.04233719 14.86089222 25.08373272 14.8125 23.125 C14.77769531 22.03445312 14.74289063 20.94390625 14.70703125 19.8203125 C14.80371094 18.88960937 14.90039062 17.95890625 15 17 C18 15 18 15 22 15 C22 13.02 22 11.04 22 9 C21.34 9 20.68 9 20 9 C20 10.32 20 11.64 20 13 C18.35 13 16.7 13 15 13 C15 12.01 15 11.02 15 10 C14.01 10.33 13.02 10.66 12 11 C11.67 17.27 11.34 23.54 11 30 C1.61678807 30.48743958 1.61678807 30.48743958 -0.76953125 28.6015625 C-2.68303697 24.5558647 -2.69615136 20.55150375 -2.875 16.125 C-2.93429688 15.23941406 -2.99359375 14.35382812 -3.0546875 13.44140625 C-3.30844315 8.12046747 -2.9549512 4.63912028 0 0 Z " fill="#00B65E" transform="translate(88,16)"/>
<path d="M0 0 C1.65 0 3.3 0 5 0 C5.66 3.3 6.32 6.6 7 10 C7.33 6.7 7.66 3.4 8 0 C10.33333333 0 12.66666667 0 15 0 C15.969375 -0.061875 16.93875 -0.12375 17.9375 -0.1875 C21 0 21 0 22.6796875 1.15625 C24.52227024 3.72932413 24.29788263 5.55999205 24.1875 8.6875 C24.16042969 9.68136719 24.13335937 10.67523438 24.10546875 11.69921875 C24.07066406 12.45847656 24.03585938 13.21773437 24 14 C21.69 14 19.38 14 17 14 C17.33 15.98 17.66 17.96 18 20 C18.66 19.01 19.32 18.02 20 17 C21.32 17 22.64 17 24 17 C23.67 19.31 23.34 21.62 23 24 C19.6875 24.6875 19.6875 24.6875 16 25 C13.58528669 23.33468048 12.65620544 21.48430816 11 19 C10.34 20.98 9.68 22.96 9 25 C7.02 25 5.04 25 3 25 C2.49389097 21.77176021 1.99620093 18.54227635 1.5 15.3125 C1.35691406 14.40048828 1.21382813 13.48847656 1.06640625 12.54882812 C0.93105469 11.66259766 0.79570313 10.77636719 0.65625 9.86328125 C0.53056641 9.05157471 0.40488281 8.23986816 0.27539062 7.40356445 C-0.00977723 4.91466595 -0.04674739 2.50293311 0 0 Z " fill="#C6C6C6" transform="translate(114,21)"/>
<path d="M0 0 C10.89 0 21.78 0 33 0 C33 2.64 33 5.28 33 8 C22.11 8 11.22 8 0 8 C0 5.36 0 2.72 0 0 Z " fill="#D4C7FB" transform="translate(90,48)"/>
<path d="M0 0 C3.0625 0.3125 3.0625 0.3125 4.72900391 1.56054688 C6.3914087 3.74462173 6.44882899 4.93241138 6.4609375 7.65625 C6.46480469 8.49027344 6.46867188 9.32429688 6.47265625 10.18359375 C6.46105469 11.05113281 6.44945312 11.91867188 6.4375 12.8125 C6.44910156 13.68003906 6.46070313 14.54757813 6.47265625 15.44140625 C6.46878906 16.27542969 6.46492187 17.10945313 6.4609375 17.96875 C6.45755371 18.72994141 6.45416992 19.49113281 6.45068359 20.27539062 C5.95600394 22.8713699 5.20266884 23.78705398 3.0625 25.3125 C-3.38194444 24.86805556 -3.38194444 24.86805556 -4.9375 23.3125 C-5.18848924 19.84041193 -5.12272096 16.3550938 -5.125 12.875 C-5.13724609 11.89466797 -5.14949219 10.91433594 -5.16210938 9.90429688 C-5.16500977 8.49954102 -5.16500977 8.49954102 -5.16796875 7.06640625 C-5.17207764 6.20345947 -5.17618652 5.3405127 -5.18041992 4.45141602 C-4.77378019 0.87094295 -3.43922794 0.36587531 0 0 Z " fill="#B5B5B5" transform="translate(150.9375,20.6875)"/>
<path d="M0 0 C0.99 0 1.98 0 3 0 C3 1.65 3 3.3 3 5 C4.32 5 5.64 5 7 5 C7 12.92 7 20.84 7 29 C8.32 29.33 9.64 29.66 11 30 C9.3973218 30.10824843 7.79254252 30.18570645 6.1875 30.25 C5.29417969 30.29640625 4.40085937 30.3428125 3.48046875 30.390625 C1 30 1 30 -0.76953125 28.6015625 C-2.68303697 24.5558647 -2.69615136 20.55150375 -2.875 16.125 C-2.93429688 15.23941406 -2.99359375 14.35382812 -3.0546875 13.44140625 C-3.30844315 8.12046747 -2.9549512 4.63912028 0 0 Z " fill="#00A555" transform="translate(88,16)"/>
<path d="M0 0 C1.65 0 3.3 0 5 0 C5.66 3.3 6.32 6.6 7 10 C7.33 7.36 7.66 4.72 8 2 C9.32 1.67 10.64 1.34 12 1 C11.88545196 3.87575868 11.7587153 6.75012112 11.625 9.625 C11.57859375 10.83736328 11.57859375 10.83736328 11.53125 12.07421875 C11.3047054 16.71838314 10.7407332 20.62693856 9 25 C7.02 25 5.04 25 3 25 C2.49389097 21.77176021 1.99620093 18.54227635 1.5 15.3125 C1.35691406 14.40048828 1.21382813 13.48847656 1.06640625 12.54882812 C0.93105469 11.66259766 0.79570313 10.77636719 0.65625 9.86328125 C0.53056641 9.05157471 0.40488281 8.23986816 0.27539062 7.40356445 C-0.00977723 4.91466595 -0.04674739 2.50293311 0 0 Z " fill="#C9C9C9" transform="translate(114,21)"/>
<path d="M0 0 C1.32 0 2.64 0 4 0 C4 10.56 4 21.12 4 32 C2.68 32 1.36 32 0 32 C0 21.44 0 10.88 0 0 Z " fill="#D4D4D4" transform="translate(140,14)"/>
<path d="M0 0 C1.32 0.33 2.64 0.66 4 1 C6.18703385 0.62092718 6.18703385 0.62092718 8 0 C7.625 2.4375 7.625 2.4375 7 5 C6.01 5.495 6.01 5.495 5 6 C4.67 11.94 4.34 17.88 4 24 C2.68 24 1.36 24 0 24 C0 16.08 0 8.16 0 0 Z " fill="#00BC61" transform="translate(95,21)"/>
<path d="M0 0 C10.89 0 21.78 0 33 0 C33 0.33 33 0.66 33 1 C25.41 1 17.82 1 10 1 C10 1.99 10 2.98 10 4 C10.99 4 11.98 4 13 4 C13 3.34 13 2.68 13 2 C13.99 2 14.98 2 16 2 C16.33 3.32 16.66 4.64 17 6 C15.35425434 6.02688151 13.70838587 6.04634123 12.0625 6.0625 C11.14597656 6.07410156 10.22945312 6.08570313 9.28515625 6.09765625 C7 6 7 6 6 5 C3.47608101 5.25475806 3.47608101 5.25475806 1 6 C0.67 6.66 0.34 7.32 0 8 C0 5.36 0 2.72 0 0 Z " fill="#9188AC" transform="translate(90,48)"/>
<path d="M0 0 C0.33 0 0.66 0 1 0 C1 10.23 1 20.46 1 31 C-1 27 -1 27 -1 24 C-2.32 24 -3.64 24 -5 24 C-5.33 25.32 -5.66 26.64 -6 28 C-6.66 27.67 -7.32 27.34 -8 27 C-8 25.02 -8 23.04 -8 21 C-5.69 21 -3.38 21 -1 21 C-1.01160156 20.40574219 -1.02320313 19.81148437 -1.03515625 19.19921875 C-1.10546296 12.74104487 -0.68350916 6.42010387 0 0 Z " fill="#585858" transform="translate(139,14)"/>
<path d="M0 0 C4.62 0 9.24 0 14 0 C14 1.32 14 2.64 14 4 C9.38 4 4.76 4 0 4 C0 2.68 0 1.36 0 0 Z " fill="#827A9B" transform="translate(108,50)"/>
<path d="M0 0 C0.99 0 1.98 0 3 0 C3 5.61 3 11.22 3 17 C2.01 16.67 1.02 16.34 0 16 C0 10.72 0 5.44 0 0 Z " fill="#000201" transform="translate(91,25)"/>
<path d="M0 0 C2.64 0 5.28 0 8 0 C8 0.99 8 1.98 8 3 C6.35 3 4.7 3 3 3 C2.67 4.32 2.34 5.64 2 7 C1.34 6.67 0.68 6.34 0 6 C0 4.02 0 2.04 0 0 Z " fill="#1F1F1F" transform="translate(131,35)"/>
<path d="M0 0 C1.95387664 3.90775329 2.34762234 5.99687587 2.625 10.25 C2.69976562 11.32765625 2.77453125 12.4053125 2.8515625 13.515625 C2.92503906 14.74539062 2.92503906 14.74539062 3 16 C2.01 16.66 1.02 17.32 0 18 C0 12.06 0 6.12 0 0 Z " fill="#133022" transform="translate(114,28)"/>
<path d="M0 0 C0.66 0 1.32 0 2 0 C2.33 0.66 2.66 1.32 3 2 C3.99 2 4.98 2 6 2 C6 1.34 6 0.68 6 0 C6.99 0 7.98 0 9 0 C9.33 1.32 9.66 2.64 10 4 C6.7 4 3.4 4 0 4 C0 2.68 0 1.36 0 0 Z " fill="#716A87" transform="translate(97,50)"/>
<path d="M0 0 C0.99 0 1.98 0 3 0 C3 1.98 3 3.96 3 6 C2.01 6 1.02 6 0 6 C0 4.02 0 2.04 0 0 Z " fill="#002D17" transform="translate(107,35)"/>
<path d="M0 0 C0.66 0 1.32 0 2 0 C2 1.98 2 3.96 2 6 C-0.31 5.67 -2.62 5.34 -5 5 C-5 4.67 -5 4.34 -5 4 C-3.35 4 -1.7 4 0 4 C0 2.68 0 1.36 0 0 Z " fill="#002814" transform="translate(108,25)"/>
<path d="M0 0 C0.99 0 1.98 0 3 0 C3 1.98 3 3.96 3 6 C2.01 6 1.02 6 0 6 C0 4.02 0 2.04 0 0 Z " fill="#3B3B3B" transform="translate(131,25)"/>
</svg>
