<svg id="204852803" viewBox="0 0 370 53.69479509754572" height="53.69479509754572" width="370" style="width: 370px; height: 53.6948px; position: absolute; top: 50%; left: 50%; transform: translate(-50%, -50%) scale(0.628919); z-index: 0; cursor: pointer; overflow: visible;"><defs id="SvgjsDefs7132"></defs><g id="SvgjsG7133" featurekey="symbolFeature-0" transform="matrix(1.162790903985827,0,0,1.162790903985827,-8.139540763596072,-26.860401572365262)" fill="#497d3e"><g xmlns="http://www.w3.org/2000/svg" transform="translate(0,-952.36218)"><path style="color:;enable-background:accumulate;" d="m 7.000009,1016.3622 16,-1 c 0,-3.0491 2,-8 2,-8 0,0 2.5409,0 5,0 2,-4 5,-12.00002 7,-12.00002 0,0 1,-4 3,-4 2.6314,0 16.99998,9.00002 16.99998,9.00002 l -10.99998,16 c 0,0 5.41738,-2.8351 10.99998,-4 1.988,-0.4148 -0.2344,-4.7065 2,-5 1.929,-0.2534 4,-1 5,-1 1,0 2.0324,-13.24872 4,-11.00002 7,8.00002 21.4047,17.28082 25.000002,21.00002 l -12.000002,-17.00002 -3,4.00002 -9,-13.00002 -11,7 -10.99998,-8 -3,2 -5,-3 -4,6 -5,-2 -12,16.00002 -3.3749,-0.6251 -7.6251,8.6251" fill="#497d3e" stroke="none" marker="none" visibility="visible" display="inline" overflow="visible"></path></g></g><g id="SvgjsG7134" featurekey="nameFeature-0" transform="matrix(1.1217966164384696,0,0,1.1217966164384696,119.03839631183344,-12.82022923363366)" fill="#202020"><path d="M8.1143 11.428999999999998 l0 6.2857 l-7.2571 0 l0 -6.2857 l7.2571 0 z M9.2571 11.428999999999998 l15.886 0 l0 6.2857 l-8.4571 0 l0 22.286 l-7.4286 0 l0 -28.571 z M39.714571428571425 40 l-7.4286 0 l0 -28.571 l7.4286 0 l0 28.571 z M57.99957142857143 15.713999999999999 l0 10 l-4.2857 4.2857 l4.2857 6.5714 l0 3.4286 l-6.8571 0 l-5.9429 -9.7143 l-4.3429 0 l0 -6.2857 l9.7143 0 l0 -6.2857 l-9.7143 0 l0 -6.2857 l12.857 0 z M74.57171428571428 40 l-7.4286 0 l0 -24.286 l4.2857 -4.2857 l3.1429 0 l0 28.571 z M87.99971428571428 11.428999999999998 l4.2857 4.2857 l0 24.286 l-7.4286 0 l0 -8 l-9.1429 0 l0 -6.2857 l9.1429 0 l0 -8 l-9.1429 0 l0 -6.2857 l12.286 0 z M112.85742857142856 28.4 l-3.7143 10.457 l-9.1429 -24 l0 -3.4286 l6.8571 0 z M120.00042857142856 11.428999999999998 l6.8571 0 l0 3.4286 l-9.5429 25.143 l-7.4286 0 z M142.0002857142857 40 l-3.1429 0 l-4.2857 -4.2857 l0 -24.286 l7.4286 0 l0 28.571 z M143.1432857142857 11.428999999999998 l15.714 0 l0 6.2857 l-15.714 0 l0 -6.2857 z M156.5712857142857 22.571 l0 6.2857 l-13.429 0 l0 -6.2857 l13.429 0 z M143.1432857142857 40 l0 -6.2857 l15.714 0 l0 6.2857 l-15.714 0 z M175.4288571428571 40 l-3.1429 0 l-4.2857 -4.2857 l0 -24.286 l7.4286 0 l0 28.571 z M176.5718571428571 33.7143 l14.286 0 l0 6.2857 l-14.286 0 l0 -6.2857 z M206.00028571428567 40 l-3.1429 0 l-4.2857 -4.2857 l0 -20 l4.2857 -4.2857 l3.1429 0 l0 28.571 z M219.42828571428566 11.428999999999998 l4.2857 4.2857 l0 20 l-4.2857 4.2857 l-12.286 0 l0 -6.2857 l9.1429 0 l0 -16 l-9.1429 0 l0 -6.2857 l12.286 0 z"></path></g><g id="SvgjsG7135" featurekey="sloganFeature-0" transform="matrix(0.6786125138385697,0,0,0.6786125138385697,109.03053411328602,40.12240859036836)" fill="#339025"><path d="M5.1429 20 l-3.7143 0 l0 -14.286 l3.7143 0 l0 14.286 z M11.857 5.714 l2.1429 2.1429 l0 6 l-2.1429 2.1429 l-6.1429 0 l0 -3.1429 l4.5714 0 l0 -4 l-4.5714 0 l0 -3.1429 l6.1429 0 z M27.428614285714286 20 l-1.5714 0 l-2.1429 -2.1429 l0 -12.143 l3.7143 0 l0 14.286 z M28.000014285714286 16.8571 l7.1429 0 l0 3.1429 l-7.1429 0 l0 -3.1429 z M47.857185714285706 20 l-3.7143 0 l0 -12.143 l2.1429 -2.1429 l1.5714 0 l0 14.286 z M54.57128571428571 5.714 l2.1429 2.1429 l0 12.143 l-3.7143 0 l0 -4 l-4.5714 0 l0 -3.1429 l4.5714 0 l0 -4 l-4.5714 0 l0 -3.1429 l6.1429 0 z M70.1429 20 l-1.5714 0 l-2.1429 -2.1429 l0 -10 l2.1429 -2.1429 l1.5714 0 l0 14.286 z M76.429 5.714 l2.1429 2.1429 l0 2.1429 l-2.7143 0 l-1.1429 -1.1429 l-4 0 l0 -3.1429 l5.7143 0 z M74.7143 16.8571 l1.1429 -1.1429 l2.7143 0 l0 2.1429 l-2.1429 2.1429 l-5.7143 0 l0 -3.1429 l4 0 z M92.00004285714286 20 l-1.5714 0 l-2.1429 -2.1429 l0 -12.143 l3.7143 0 l0 14.286 z M92.57144285714286 5.714 l7.8571 0 l0 3.1429 l-7.8571 0 l0 -3.1429 z M99.28614285714286 11.2857 l0 3.1429 l-6.7143 0 l0 -3.1429 l6.7143 0 z M92.57144285714286 20 l0 -3.1429 l7.8571 0 l0 3.1429 l-7.8571 0 z M113.85718571428572 11.2857 l7 0 l2.1429 2.1429 l0 4.4286 l-2.1429 2.1429 l-1.5714 0 l0 -5.5714 l-7 0 l-2.1429 -2.1429 l0 -4.4286 l2.1429 -2.1429 l1.5714 0 l0 5.5714 z M120.85728571428572 5.714 l2.1429 2.1429 l0 2.1429 l-2.7143 0 l-1.1429 -1.1429 l-4.7143 0 l0 -3.1429 l6.4286 0 z M118.71428571428572 16.8571 l0 3.1429 l-6.4286 0 l-2.1429 -2.1429 l0 -2.1429 l2.7143 0 l1.1429 1.1429 l4.7143 0 z"></path></g></svg>